<svg width="138" height="42" viewBox="0 0 138 42" fill="none" xmlns="http://www.w3.org/2000/svg">
<rect width="137.351" height="41.7885" rx="7.61264" fill="black"/>
<path d="M28.9029 20.7769C28.8726 17.4947 31.6592 15.8979 31.7867 15.8236C30.2085 13.5802 27.7623 13.2736 26.9027 13.2492C24.8483 13.0384 22.8554 14.4478 21.8089 14.4478C20.7414 14.4478 19.1298 13.2696 17.3929 13.3042C15.1577 13.3378 13.0667 14.5995 11.9198 16.5589C9.55308 20.5539 11.3182 26.4247 13.5858 29.6539C14.7201 31.2354 16.0455 33.0012 17.7803 32.9391C19.4776 32.8709 20.1116 31.8841 22.1598 31.8841C24.1892 31.8841 24.7845 32.9391 26.5539 32.8994C28.3754 32.8709 29.5222 31.3107 30.6168 29.715C31.9277 27.9023 32.4541 26.1171 32.475 26.0255C32.4321 26.0112 28.9373 24.7108 28.9029 20.7769Z" fill="white"/>
<path d="M25.5606 11.1249C26.4734 10.0118 27.098 8.49755 26.9247 6.96085C25.6034 7.01788 23.9511 7.85191 22.9996 8.94054C22.1577 9.89983 21.4057 11.4722 21.6 12.9508C23.0842 13.0588 24.608 12.2207 25.5606 11.1249Z" fill="white"/>
<path d="M53.467 32.7132H51.095L49.7957 28.7324H45.2794L44.0417 32.7132H41.7324L46.2069 19.1609H48.9706L53.467 32.7132ZM49.404 27.0623L48.229 23.5235C48.1047 23.162 47.8718 22.3107 47.5282 20.9705H47.4864C47.3496 21.5469 47.1292 22.3982 46.8263 23.5235L45.6721 27.0623H49.404V27.0623Z" fill="white"/>
<path d="M64.9742 27.7061C64.9742 29.3681 64.5136 30.6818 63.5924 31.6461C62.7672 32.5046 61.7426 32.9333 60.5195 32.9333C59.1993 32.9333 58.251 32.471 57.6734 31.5463H57.6316V36.6941H55.4048V26.1572C55.4048 25.1124 55.3766 24.04 55.3223 22.9402H57.2806L57.4049 24.4891H57.4467C58.1893 23.3221 59.3163 22.7396 60.8287 22.7396C62.011 22.7396 62.9981 23.1948 63.7877 24.1062C64.5794 25.0187 64.9742 26.2183 64.9742 27.7061ZM62.7056 27.7856C62.7056 26.8344 62.4863 26.0503 62.0455 25.4332C61.564 24.7896 60.9175 24.4678 60.107 24.4678C59.5576 24.4678 59.0583 24.647 58.6123 25.0003C58.1653 25.3568 57.8729 25.8222 57.736 26.3986C57.6671 26.6674 57.6326 26.8874 57.6326 27.0605V28.6899C57.6326 29.4007 57.8561 30.0005 58.3032 30.4903C58.7502 30.9801 59.3309 31.2245 60.0453 31.2245C60.8841 31.2245 61.5368 30.9088 62.0037 30.2795C62.4716 29.6491 62.7056 28.8182 62.7056 27.7856Z" fill="white"/>
<path d="M76.5024 27.7061C76.5024 29.3681 76.0418 30.6818 75.1196 31.6461C74.2955 32.5046 73.2709 32.9333 72.0478 32.9333C70.7276 32.9333 69.7792 32.471 69.2027 31.5463H69.1609V36.6941H66.9341V26.1572C66.9341 25.1124 66.9059 24.04 66.8516 22.9402H68.8099L68.9342 24.4891H68.976C69.7176 23.3221 70.8446 22.7396 72.358 22.7396C73.5393 22.7396 74.5263 23.1948 75.318 24.1062C76.1066 25.0187 76.5024 26.2183 76.5024 27.7061ZM74.2339 27.7856C74.2339 26.8344 74.0135 26.0503 73.5727 25.4332C73.0912 24.7896 72.4468 24.4678 71.6352 24.4678C71.0848 24.4678 70.5866 24.647 70.1395 25.0003C69.6925 25.3568 69.4011 25.8222 69.2643 26.3986C69.1964 26.6674 69.1609 26.8874 69.1609 27.0605V28.6899C69.1609 29.4007 69.3844 30.0005 69.8293 30.4903C70.2764 30.9791 70.8571 31.2245 71.5736 31.2245C72.4123 31.2245 73.0651 30.9088 73.532 30.2795C73.9999 29.6491 74.2339 28.8182 74.2339 27.7856Z" fill="white"/>
<path d="M89.3907 28.9119C89.3907 30.0647 88.9802 31.0026 88.1561 31.7266C87.2506 32.5179 85.9899 32.913 84.37 32.913C82.8743 32.913 81.6752 32.6319 80.7676 32.0688L81.2835 30.2592C82.2612 30.8356 83.3338 31.1248 84.5026 31.1248C85.3413 31.1248 85.9941 30.9394 86.4631 30.5708C86.9299 30.2021 87.1629 29.7072 87.1629 29.0901C87.1629 28.5402 86.9707 28.0768 86.5853 27.7011C86.2019 27.3253 85.5617 26.976 84.6676 26.6532C82.234 25.7682 81.0183 24.4719 81.0183 22.7671C81.0183 21.6531 81.4444 20.7396 82.2977 20.0288C83.1479 19.3169 84.2822 18.9615 85.7006 18.9615C86.9654 18.9615 88.0162 19.1764 88.8549 19.6051L88.2982 21.375C87.5148 20.9596 86.6291 20.7518 85.6379 20.7518C84.8546 20.7518 84.2425 20.9402 83.8038 21.315C83.4331 21.65 83.2471 22.0584 83.2471 22.5421C83.2471 23.0777 83.4592 23.5207 83.8853 23.869C84.2561 24.1908 84.9298 24.5391 85.9074 24.9148C87.1033 25.3843 87.9817 25.9332 88.5468 26.5625C89.1097 27.1899 89.3907 27.975 89.3907 28.9119Z" fill="white"/>
<path d="M96.7533 24.5691H94.2988V29.3136C94.2988 30.5204 94.7312 31.1232 95.5981 31.1232C95.996 31.1232 96.3261 31.0896 96.5872 31.0224L96.6488 32.6711C96.2102 32.831 95.6326 32.9115 94.9171 32.9115C94.0377 32.9115 93.3504 32.6497 92.8543 32.1273C92.3603 31.6039 92.1117 30.7261 92.1117 29.4928V24.5671H90.6494V22.9377H92.1117V21.1484L94.2988 20.5048V22.9377H96.7533V24.5691Z" fill="white"/>
<path d="M107.828 27.7468C107.828 29.2489 107.387 30.4821 106.507 31.4465C105.585 32.4394 104.361 32.9343 102.835 32.9343C101.365 32.9343 100.194 32.4587 99.3205 31.5076C98.4473 30.5564 98.0107 29.3558 98.0107 27.9087C98.0107 26.3944 98.4599 25.1541 99.3612 24.1897C100.261 23.2243 101.474 22.7416 103 22.7416C104.471 22.7416 105.654 23.2171 106.547 24.1693C107.402 25.093 107.828 26.2854 107.828 27.7468ZM105.517 27.8171C105.517 26.9158 105.32 26.1429 104.92 25.4983C104.453 24.7182 103.786 24.3292 102.921 24.3292C102.026 24.3292 101.346 24.7192 100.879 25.4983C100.479 26.1439 100.281 26.929 100.281 27.8578C100.281 28.759 100.479 29.532 100.879 30.1756C101.36 30.9556 102.033 31.3446 102.901 31.3446C103.751 31.3446 104.419 30.9475 104.9 30.1552C105.311 29.4984 105.517 28.7173 105.517 27.8171Z" fill="white"/>
<path d="M115.065 24.8496C114.845 24.8099 114.61 24.7896 114.364 24.7896C113.58 24.7896 112.974 25.0777 112.548 25.6552C112.177 26.1643 111.992 26.8079 111.992 27.5849V32.7124H109.766L109.787 26.0177C109.787 24.8914 109.758 23.8659 109.703 22.9412H111.643L111.724 24.8109H111.786C112.021 24.1684 112.392 23.651 112.899 23.263C113.395 22.9137 113.931 22.7396 114.509 22.7396C114.714 22.7396 114.9 22.7539 115.065 22.7793V24.8496Z" fill="white"/>
<path d="M125.025 27.3646C125.025 27.7536 124.999 28.0816 124.944 28.3494H118.263C118.29 29.3148 118.612 30.0531 119.233 30.5623C119.796 31.0175 120.524 31.2456 121.418 31.2456C122.407 31.2456 123.309 31.0918 124.121 30.7833L124.47 32.2904C123.521 32.6937 122.402 32.8943 121.11 32.8943C119.555 32.8943 118.336 32.4483 117.448 31.5572C116.562 30.6661 116.118 29.4696 116.118 27.9685C116.118 26.495 116.531 25.2678 117.357 24.2892C118.222 23.2444 119.39 22.722 120.861 22.722C122.306 22.722 123.399 23.2444 124.142 24.2892C124.73 25.1192 125.025 26.1457 125.025 27.3646ZM122.902 26.8015C122.917 26.1579 122.771 25.6019 122.47 25.1324C122.084 24.5285 121.492 24.2271 120.695 24.2271C119.967 24.2271 119.375 24.5214 118.923 25.112C118.552 25.5815 118.331 26.1446 118.263 26.8005H122.902V26.8015Z" fill="white"/>
<path d="M42.648 15V7.99787H45.0659C45.759 7.99787 46.357 8.13811 46.8599 8.41858C47.3628 8.69583 47.7481 9.0972 48.0157 9.62268C48.2865 10.1449 48.4219 10.7671 48.4219 11.4893C48.4219 12.2146 48.2865 12.8417 48.0157 13.3704C47.7449 13.8959 47.3548 14.2988 46.8454 14.5793C46.336 14.8598 45.73 15 45.0272 15H42.648ZM44.9595 13.9071C46.4295 13.9136 47.1646 13.1076 47.1646 11.4893C47.1646 10.6898 46.9824 10.0901 46.6181 9.69038C46.2538 9.2874 45.7138 9.08752 44.9982 9.09075H43.9053V13.9071H44.9595ZM51.9167 15.1064C51.4106 15.1064 50.9673 14.9936 50.5869 14.7679C50.2097 14.5422 49.918 14.2247 49.7116 13.8153C49.5053 13.4058 49.4022 12.9335 49.4022 12.3984C49.4022 11.8568 49.5053 11.3813 49.7116 10.9718C49.918 10.5624 50.2097 10.2449 50.5869 10.0192C50.9673 9.79354 51.4106 9.68071 51.9167 9.68071C52.4229 9.68071 52.8662 9.79354 53.2466 10.0192C53.627 10.2449 53.9187 10.5624 54.1218 10.9718C54.3282 11.3813 54.4313 11.8568 54.4313 12.3984C54.4313 12.9335 54.3282 13.4058 54.1218 13.8153C53.9187 14.2247 53.627 14.5422 53.2466 14.7679C52.8662 14.9936 52.4229 15.1064 51.9167 15.1064ZM50.6498 12.3887C50.6498 12.7175 50.6965 13.0125 50.79 13.2737C50.8867 13.5348 51.0302 13.7411 51.2204 13.8926C51.4138 14.0442 51.6492 14.1199 51.9264 14.1199C52.1972 14.1199 52.4277 14.0442 52.6179 13.8926C52.8081 13.7411 52.95 13.5348 53.0435 13.2737C53.1402 13.0125 53.1869 12.7175 53.1837 12.3887C53.1869 12.0599 53.1402 11.7649 53.0435 11.5038C52.95 11.2426 52.8081 11.0363 52.6179 10.8848C52.4277 10.7333 52.1972 10.6575 51.9264 10.6575C51.6492 10.6575 51.4138 10.7333 51.2204 10.8848C51.0302 11.0363 50.8867 11.2426 50.79 11.5038C50.6965 11.7649 50.6498 12.0599 50.6498 12.3887ZM54.9957 9.74841H56.253L57.1815 13.4429H57.2299L58.168 9.74841H59.4156L60.3634 13.4236H60.4118L61.3306 9.74841H62.5878L61.0984 15H59.8121L58.8256 11.4409H58.7579L57.7715 15H56.4852L54.9957 9.74841ZM64.7577 15H63.5198V9.74841H64.6997V10.6382H64.7674C64.8899 10.3384 65.0833 10.1046 65.3477 9.937C65.6153 9.76614 65.9409 9.68071 66.3245 9.68071C66.6888 9.68071 67.0064 9.75808 67.2772 9.91282C67.548 10.0676 67.7559 10.2932 67.901 10.5898C68.0493 10.8864 68.1234 11.241 68.1234 11.6537V15H66.8951V11.8471C66.8951 11.4925 66.8049 11.2169 66.6243 11.0202C66.4438 10.8203 66.1923 10.722 65.87 10.7252C65.6507 10.722 65.4573 10.7687 65.2897 10.8655C65.122 10.959 64.9915 11.0976 64.898 11.2813C64.8045 11.4619 64.7577 11.6763 64.7577 11.9245V15ZM70.6898 15H69.4519V7.99787H70.6898V15ZM74.3104 15.1064C73.8043 15.1064 73.361 14.9936 72.9806 14.7679C72.6034 14.5422 72.3117 14.2247 72.1053 13.8153C71.899 13.4058 71.7959 12.9335 71.7959 12.3984C71.7959 11.8568 71.899 11.3813 72.1053 10.9718C72.3117 10.5624 72.6034 10.2449 72.9806 10.0192C73.361 9.79354 73.8043 9.68071 74.3104 9.68071C74.8166 9.68071 75.2599 9.79354 75.6403 10.0192C76.0207 10.2449 76.3124 10.5624 76.5155 10.9718C76.7219 11.3813 76.825 11.8568 76.825 12.3984C76.825 12.9335 76.7219 13.4058 76.5155 13.8153C76.3124 14.2247 76.0207 14.5422 75.6403 14.7679C75.2599 14.9936 74.8166 15.1064 74.3104 15.1064ZM73.0435 12.3887C73.0435 12.7175 73.0902 13.0125 73.1837 13.2737C73.2804 13.5348 73.4239 13.7411 73.6141 13.8926C73.8075 14.0442 74.0429 14.1199 74.3201 14.1199C74.5909 14.1199 74.8214 14.0442 75.0116 13.8926C75.2018 13.7411 75.3437 13.5348 75.4372 13.2737C75.5339 13.0125 75.5806 12.7175 75.5774 12.3887C75.5806 12.0599 75.5339 11.7649 75.4372 11.5038C75.3437 11.2426 75.2018 11.0363 75.0116 10.8848C74.8214 10.7333 74.5909 10.6575 74.3201 10.6575C74.0429 10.6575 73.8075 10.7333 73.6141 10.8848C73.4239 11.0363 73.2804 11.2426 73.1837 11.5038C73.0902 11.7649 73.0435 12.0599 73.0435 12.3887ZM77.6893 13.5203C77.6893 12.9819 77.8714 12.5918 78.2357 12.35C78.6032 12.1082 79.0723 11.9696 79.6429 11.9342C79.9363 11.9116 80.386 11.8874 80.9921 11.8616L80.9872 11.4409C80.9872 11.1798 80.905 10.9783 80.7406 10.8364C80.5794 10.6914 80.3457 10.6188 80.0394 10.6188C79.7719 10.6188 79.5526 10.6753 79.3818 10.7881C79.2109 10.9009 79.1013 11.0541 79.0529 11.2475H77.8634C77.8924 10.9477 77.9988 10.6801 78.1825 10.4448C78.3663 10.2062 78.6193 10.0192 78.9417 9.88381C79.2641 9.74841 79.6397 9.68071 80.0684 9.68071C80.436 9.68071 80.7809 9.73874 81.1033 9.85479C81.4289 9.96763 81.6949 10.1594 81.9012 10.4302C82.1107 10.6978 82.2155 11.0508 82.2155 11.4893V15H81.0356V14.2747H80.9969C80.868 14.5197 80.6745 14.7195 80.4166 14.8743C80.1587 15.029 79.8363 15.1064 79.4495 15.1064C79.111 15.1064 78.8079 15.0451 78.5404 14.9226C78.276 14.8001 78.0681 14.6212 77.9165 14.3859C77.765 14.1473 77.6893 13.8588 77.6893 13.5203ZM78.8789 13.5106C78.8789 13.7298 78.9595 13.8991 79.1206 14.0184C79.2851 14.1376 79.5011 14.1973 79.7686 14.1973C80.0104 14.1973 80.2248 14.1489 80.4118 14.0522C80.5988 13.9555 80.7422 13.8249 80.8422 13.6605C80.9453 13.4929 80.9969 13.3107 80.9969 13.1141L80.9921 12.6837C80.8309 12.6901 80.6391 12.7014 80.4166 12.7175C80.1974 12.7304 80.004 12.7433 79.8363 12.7562C79.5365 12.782 79.3012 12.8578 79.1303 12.9835C78.9627 13.1092 78.8789 13.2849 78.8789 13.5106ZM85.4783 15.0967C85.0624 15.0935 84.6901 14.9855 84.3612 14.7727C84.0356 14.5567 83.7793 14.244 83.5923 13.8346C83.4054 13.4252 83.3119 12.94 83.3119 12.379C83.3119 11.8117 83.407 11.3249 83.5972 10.9187C83.7874 10.5125 84.0469 10.2046 84.3757 9.99503C84.7046 9.78548 85.0753 9.68071 85.4879 9.68071C85.8974 9.68071 86.2165 9.77259 86.4454 9.95634C86.6775 10.1369 86.8581 10.3545 86.987 10.6092H87.0354V7.99787H88.2637V15H87.0547V14.1683H86.987C86.6711 14.784 86.1682 15.0935 85.4783 15.0967ZM84.5692 12.3694C84.5692 12.7047 84.6175 13.0012 84.7142 13.2592C84.8109 13.5171 84.9528 13.7185 85.1398 13.8636C85.3268 14.0087 85.5524 14.0812 85.8168 14.0812C86.0779 14.0812 86.302 14.0103 86.4889 13.8685C86.6759 13.7266 86.8178 13.5267 86.9145 13.2688C87.0144 13.0109 87.0644 12.7111 87.0644 12.3694C87.0644 11.8536 86.9548 11.4458 86.7356 11.1459C86.5196 10.8429 86.2133 10.6898 85.8168 10.6865C85.5492 10.6865 85.3219 10.7591 85.1349 10.9041C84.948 11.046 84.8061 11.2443 84.7094 11.4989C84.6159 11.7504 84.5692 12.0405 84.5692 12.3694ZM94.4507 15.1064C93.9446 15.1064 93.5013 14.9936 93.1209 14.7679C92.7437 14.5422 92.4519 14.2247 92.2456 13.8153C92.0393 13.4058 91.9361 12.9335 91.9361 12.3984C91.9361 11.8568 92.0393 11.3813 92.2456 10.9718C92.4519 10.5624 92.7437 10.2449 93.1209 10.0192C93.5013 9.79354 93.9446 9.68071 94.4507 9.68071C94.9568 9.68071 95.4001 9.79354 95.7805 10.0192C96.1609 10.2449 96.4527 10.5624 96.6558 10.9718C96.8621 11.3813 96.9653 11.8568 96.9653 12.3984C96.9653 12.9335 96.8621 13.4058 96.6558 13.8153C96.4527 14.2247 96.1609 14.5422 95.7805 14.7679C95.4001 14.9936 94.9568 15.1064 94.4507 15.1064ZM93.1837 12.3887C93.1837 12.7175 93.2305 13.0125 93.324 13.2737C93.4207 13.5348 93.5641 13.7411 93.7543 13.8926C93.9478 14.0442 94.1831 14.1199 94.4604 14.1199C94.7312 14.1199 94.9617 14.0442 95.1519 13.8926C95.3421 13.7411 95.4839 13.5348 95.5774 13.2737C95.6741 13.0125 95.7209 12.7175 95.7177 12.3887C95.7209 12.0599 95.6741 11.7649 95.5774 11.5038C95.4839 11.2426 95.3421 11.0363 95.1519 10.8848C94.9617 10.7333 94.7312 10.6575 94.4604 10.6575C94.1831 10.6575 93.9478 10.7333 93.7543 10.8848C93.5641 11.0363 93.4207 11.2426 93.324 11.5038C93.2305 11.7649 93.1837 12.0599 93.1837 12.3887ZM99.3093 15H98.0713V9.74841H99.2512V10.6382H99.3189C99.4414 10.3384 99.6349 10.1046 99.8992 9.937C100.167 9.76614 100.492 9.68071 100.876 9.68071C101.24 9.68071 101.558 9.75808 101.829 9.91282C102.099 10.0676 102.307 10.2932 102.452 10.5898C102.601 10.8864 102.675 11.241 102.675 11.6537V15H101.447V11.8471C101.447 11.4925 101.356 11.2169 101.176 11.0202C100.995 10.8203 100.744 10.722 100.421 10.7252C100.202 10.722 100.009 10.7687 99.8412 10.8655C99.6735 10.959 99.543 11.0976 99.4495 11.2813C99.356 11.4619 99.3093 11.6763 99.3093 11.9245V15ZM109.123 10.6962H108.088V13.4236C108.088 13.6686 108.141 13.8314 108.248 13.912C108.357 13.9926 108.512 14.0329 108.712 14.0329C108.851 14.0329 109.01 14.0264 109.191 14.0135V15.0194C108.991 15.0516 108.754 15.0677 108.48 15.0677C108.164 15.0677 107.884 15.0145 107.639 14.9081C107.394 14.8018 107.202 14.6406 107.063 14.4246C106.924 14.2086 106.857 13.9426 106.86 13.6267V10.6962H106.106V9.74841H106.86V8.49112H108.088V9.74841H109.123V10.6962ZM111.573 15H110.335V7.99787H111.544V10.6382H111.612C111.735 10.3319 111.926 10.0966 112.188 9.93217C112.449 9.76453 112.776 9.68071 113.169 9.68071C113.534 9.68071 113.851 9.75808 114.122 9.91282C114.396 10.0643 114.607 10.2884 114.755 10.585C114.904 10.8816 114.978 11.2378 114.978 11.6537V15H113.75V11.8471C113.746 11.4893 113.654 11.212 113.474 11.0154C113.293 10.8187 113.04 10.722 112.715 10.7252C112.492 10.722 112.294 10.7687 112.12 10.8655C111.949 10.959 111.815 11.0976 111.719 11.2813C111.622 11.4619 111.573 11.6763 111.573 11.9245V15ZM118.627 15.1064C118.105 15.1064 117.652 14.9968 117.269 14.7776C116.885 14.5551 116.59 14.2408 116.384 13.8346C116.177 13.4284 116.074 12.9529 116.074 12.4081C116.074 11.8697 116.177 11.3958 116.384 10.9864C116.59 10.5737 116.88 10.2529 117.254 10.024C117.631 9.79515 118.066 9.68071 118.56 9.68071C119.005 9.68071 119.408 9.77742 119.769 9.97085C120.133 10.1611 120.421 10.4544 120.634 10.851C120.85 11.2475 120.958 11.7407 120.958 12.3307V12.7175H117.293C117.299 13.0109 117.357 13.2656 117.467 13.4816C117.58 13.6944 117.734 13.8572 117.931 13.97C118.131 14.0828 118.363 14.1393 118.627 14.1393C118.892 14.1393 119.116 14.0909 119.3 13.9942C119.483 13.8942 119.617 13.7621 119.701 13.5977H120.91C120.836 13.9007 120.696 14.1667 120.489 14.3955C120.283 14.6212 120.02 14.7969 119.701 14.9226C119.385 15.0451 119.027 15.1064 118.627 15.1064ZM119.778 11.8761C119.778 11.6408 119.727 11.4296 119.624 11.2426C119.524 11.0524 119.382 10.9041 119.198 10.7978C119.018 10.6914 118.811 10.6382 118.579 10.6382C118.341 10.6382 118.126 10.6946 117.936 10.8074C117.746 10.917 117.596 11.067 117.486 11.2572C117.377 11.4474 117.314 11.6537 117.298 11.8761H119.778Z" fill="white"/>
</svg>
