<svg width="138" height="42" viewBox="0 0 138 42" fill="none" xmlns="http://www.w3.org/2000/svg">
<rect width="137.351" height="41.7885" rx="7.61264" fill="black"/>
<path d="M68.8783 22.9498C66.6267 22.9498 64.7874 24.6229 64.7874 26.9311C64.7874 29.2207 66.6267 30.9113 68.8783 30.9113C71.1347 30.9113 72.9741 29.2207 72.9741 26.9311C72.9741 24.6229 71.1347 22.9498 68.8783 22.9498ZM68.8783 29.3435C67.6429 29.3435 66.58 28.3479 66.58 26.9311C66.58 25.4956 67.6429 24.5176 68.8783 24.5176C70.1138 24.5176 71.1814 25.4956 71.1814 26.9311C71.1814 28.3479 70.1138 29.3435 68.8783 29.3435V29.3435ZM59.9523 22.9498C57.6959 22.9498 55.8614 24.6229 55.8614 26.9311C55.8614 29.2207 57.6959 30.9113 59.9523 30.9113C62.2075 30.9113 64.0432 29.2207 64.0432 26.9311C64.0432 24.6229 62.2075 22.9498 59.9523 22.9498ZM59.9523 29.3435C58.7157 29.3435 57.6492 28.3479 57.6492 26.9311C57.6492 25.4956 58.7157 24.5176 59.9523 24.5176C61.1877 24.5176 62.2506 25.4956 62.2506 26.9311C62.2506 28.3479 61.1877 29.3435 59.9523 29.3435ZM49.3307 24.1701V25.8618H53.4684C53.3473 26.8071 53.0238 27.5021 52.5277 27.9864C51.9238 28.5714 50.9831 29.2207 49.3307 29.2207C46.7843 29.2207 44.7904 27.2143 44.7904 24.7281C44.7904 22.242 46.7843 20.2356 49.3307 20.2356C50.7075 20.2356 51.7093 20.7609 52.4486 21.4418L53.6697 20.2496C52.6356 19.2856 51.2599 18.545 49.3307 18.545C45.8389 18.545 42.9043 21.319 42.9043 24.7281C42.9043 28.1373 45.8389 30.9113 49.3307 30.9113C51.218 30.9113 52.6356 30.3076 53.75 29.1751C54.8919 28.0601 55.2478 26.4924 55.2478 25.2265C55.2478 24.8334 55.2143 24.4719 55.1544 24.1701H49.3307ZM92.7637 25.4816C92.427 24.5913 91.3881 22.9498 89.2719 22.9498C87.1749 22.9498 85.429 24.5632 85.429 26.9311C85.429 29.161 87.157 30.9113 89.4732 30.9113C91.3462 30.9113 92.427 29.7963 92.8716 29.147L91.4816 28.2426C91.0178 28.9048 90.3863 29.3435 89.4732 29.3435C88.5661 29.3435 87.9155 28.9376 87.4985 28.1373L92.9519 25.9343L92.7637 25.4816V25.4816ZM87.2037 26.8071C87.157 25.2722 88.4247 24.486 89.333 24.486C90.0448 24.486 90.6488 24.8334 90.8501 25.3307L87.2037 26.8071V26.8071ZM82.7712 30.6691H84.5639V18.9697H82.7712V30.6691ZM79.8354 23.8367H79.7755C79.3729 23.371 78.6048 22.9498 77.6318 22.9498C75.5899 22.9498 73.723 24.7001 73.723 26.944C73.723 29.1751 75.5899 30.9113 77.6318 30.9113C78.6048 30.9113 79.3729 30.4866 79.7755 30.0069H79.8354V30.5778C79.8354 32.0999 79.0026 32.9177 77.6593 32.9177C76.5641 32.9177 75.8847 32.1455 75.6043 31.4962L74.0453 32.1315C74.4947 33.1868 75.6846 34.4854 77.6593 34.4854C79.7611 34.4854 81.5346 33.278 81.5346 30.3403V23.192H79.8354V23.8367V23.8367ZM77.7852 29.3435C76.5497 29.3435 75.5156 28.3339 75.5156 26.944C75.5156 25.5413 76.5497 24.5176 77.7852 24.5176C79.0026 24.5176 79.9625 25.5413 79.9625 26.944C79.9625 28.3339 79.0026 29.3435 77.7852 29.3435V29.3435ZM101.157 18.9697H96.8691V30.6691H98.6569V26.2362H101.157C103.142 26.2362 105.089 24.8334 105.089 22.6024C105.089 20.3725 103.137 18.9697 101.157 18.9697V18.9697ZM101.203 24.6088H98.6569V20.5971H101.203C102.538 20.5971 103.3 21.6793 103.3 22.6024C103.3 23.5079 102.538 24.6088 101.203 24.6088ZM112.255 22.9276C110.963 22.9276 109.62 23.4845 109.068 24.7188L110.654 25.3681C110.996 24.7188 111.624 24.5082 112.287 24.5082C113.215 24.5082 114.156 25.0522 114.17 26.0127V26.1356C113.846 25.9531 113.154 25.6828 112.302 25.6828C110.593 25.6828 108.852 26.6012 108.852 28.3152C108.852 29.8829 110.252 30.8925 111.825 30.8925C113.028 30.8925 113.692 30.3626 114.109 29.746H114.17V30.6504H115.897V26.1625C115.897 24.0882 114.31 22.9276 112.255 22.9276ZM112.039 29.3389C111.455 29.3389 110.64 29.0557 110.64 28.3479C110.64 27.4424 111.656 27.0949 112.535 27.0949C113.323 27.0949 113.692 27.2646 114.17 27.488C114.03 28.5714 113.075 29.3389 112.039 29.3389V29.3389ZM122.188 23.1838L120.133 28.2555H120.071L117.947 23.1838H116.019L119.211 30.2713L117.39 34.2152H119.258L124.177 23.1838H122.188V23.1838ZM106.072 30.6691H107.865V18.9697H106.072V30.6691Z" fill="white"/>
<path d="M13.5647 9.64768C13.2831 9.93548 13.1201 10.3836 13.1201 10.9639V31.6624C13.1201 32.2427 13.2831 32.6907 13.5647 32.9785L13.6342 33.0417L25.514 21.4477V21.1739L13.6342 9.57982L13.5647 9.64768Z" fill="url(#paint0_linear_946_553)"/>
<path d="M29.4682 25.3127L25.5127 21.446V21.1723L29.473 17.3056L29.5617 17.3559L34.2518 19.9614C35.5903 20.7008 35.5903 21.9175 34.2518 22.6616L29.5617 25.2624L29.4682 25.3127V25.3127Z" fill="url(#paint1_linear_946_553)"/>
<path d="M29.5628 25.2622L25.5138 21.309L13.5645 32.9767C14.009 33.433 14.734 33.488 15.5584 33.0317L29.5628 25.2622" fill="url(#paint2_linear_946_553)"/>
<path d="M29.5628 17.3561L15.5584 9.58656C14.734 9.13497 14.009 9.18995 13.5645 9.64623L25.5138 21.3093L29.5628 17.3561Z" fill="url(#paint3_linear_946_553)"/>
<path d="M47.8471 10.6425C47.7404 10.2959 47.5567 10.0263 47.296 9.83366C47.0352 9.63811 46.7123 9.54033 46.3271 9.54033C45.9804 9.54033 45.6708 9.62922 45.3982 9.807C45.1286 9.98181 44.9182 10.2396 44.7671 10.5803C44.616 10.9211 44.5404 11.327 44.5404 11.7981C44.5404 12.2751 44.616 12.6855 44.7671 13.0292C44.9182 13.3699 45.13 13.6292 45.4026 13.807C45.6752 13.9848 45.9923 14.0736 46.3537 14.0736C46.6737 14.0736 46.9537 14.0129 47.1937 13.8914C47.4367 13.767 47.6234 13.5922 47.7537 13.367C47.8871 13.1388 47.9567 12.8736 47.9626 12.5714H46.4693V11.6559H49.0826V12.4292C49.0826 12.9714 48.9656 13.4455 48.7315 13.8514C48.5004 14.2573 48.1789 14.5699 47.7671 14.7892C47.3552 15.0055 46.8841 15.1136 46.3537 15.1136C45.7641 15.1136 45.2441 14.9803 44.7938 14.7136C44.3434 14.444 43.9938 14.0603 43.7449 13.5625C43.4989 13.0618 43.376 12.4766 43.376 11.807C43.376 11.1344 43.5019 10.5492 43.7538 10.0514C44.0086 9.5507 44.3582 9.167 44.8026 8.90034C45.25 8.63367 45.7552 8.50034 46.3182 8.50034C46.7834 8.50034 47.21 8.59071 47.5982 8.77145C47.9893 8.95219 48.3093 9.20552 48.5582 9.53144C48.8071 9.85441 48.9641 10.2248 49.0293 10.6425H47.8471ZM50.268 8.58923H54.4547V9.55811H51.4236V11.3181H54.2325V12.287H51.4236V14.047H54.4725V15.0247H50.268V8.58923ZM55.4179 8.58923H60.5467V9.55811H58.5645V15.0247H57.409V9.55811H55.4179V8.58923ZM65.042 15.0247H63.8865V8.58923H65.042V15.0247ZM66.0941 8.58923H71.223V9.55811H69.2407V15.0247H68.0852V9.55811H66.0941V8.58923ZM80.3049 11.807C80.3049 12.4855 80.1775 13.0736 79.9226 13.5714C79.6708 14.0692 79.3197 14.4514 78.8693 14.7181C78.4219 14.9818 77.9167 15.1136 77.3538 15.1136C76.7878 15.1136 76.2812 14.9818 75.8338 14.7181C75.3864 14.4514 75.0353 14.0692 74.7804 13.5714C74.5286 13.0707 74.4027 12.4825 74.4027 11.807C74.4027 11.1285 74.5286 10.5403 74.7804 10.0426C75.0353 9.54181 75.3864 9.15959 75.8338 8.89589C76.2812 8.63219 76.7878 8.50034 77.3538 8.50034C77.9167 8.50034 78.4219 8.63367 78.8693 8.90034C79.3197 9.16404 79.6708 9.54478 79.9226 10.0426C80.1775 10.5403 80.3049 11.1285 80.3049 11.807ZM75.5671 11.807C75.5671 12.287 75.6412 12.6974 75.7893 13.0381C75.9404 13.3788 76.1508 13.6366 76.4204 13.8114C76.6901 13.9862 77.0012 14.0736 77.3538 14.0736C77.7093 14.0736 78.0204 13.9862 78.2871 13.8114C78.5567 13.6366 78.7656 13.3788 78.9138 13.0381C79.0649 12.6974 79.1404 12.287 79.1404 11.807C79.1404 11.327 79.0649 10.9166 78.9138 10.5759C78.7656 10.2351 78.5567 9.97737 78.2871 9.80255C78.0204 9.62774 77.7093 9.54033 77.3538 9.54033C77.0012 9.54033 76.6901 9.62774 76.4204 9.80255C76.1508 9.97737 75.9404 10.2351 75.7893 10.5759C75.6412 10.9166 75.5671 11.327 75.5671 11.807ZM86.7614 15.0247H85.7303L82.6814 10.6248H82.6281V15.0247H81.4725V8.58923H82.5214L85.5525 12.9892H85.6147V8.58923H86.7614V15.0247Z" fill="white"/>
<defs>
<linearGradient id="paint0_linear_946_553" x1="24.4592" y1="31.8779" x2="8.75623" y2="15.7945" gradientUnits="userSpaceOnUse">
<stop stop-color="#00A0FF"/>
<stop offset="0.0066" stop-color="#00A1FF"/>
<stop offset="0.2601" stop-color="#00BEFF"/>
<stop offset="0.5122" stop-color="#00D2FF"/>
<stop offset="0.7604" stop-color="#00DFFF"/>
<stop offset="1" stop-color="#00E3FF"/>
</linearGradient>
<linearGradient id="paint1_linear_946_553" x1="35.9947" y1="21.3079" x2="12.7989" y2="21.3079" gradientUnits="userSpaceOnUse">
<stop stop-color="#FFE000"/>
<stop offset="0.4087" stop-color="#FFBD00"/>
<stop offset="0.7754" stop-color="#FFA500"/>
<stop offset="1" stop-color="#FF9C00"/>
</linearGradient>
<linearGradient id="paint2_linear_946_553" x1="27.361" y1="19.1599" x2="6.06653" y2="-2.65056" gradientUnits="userSpaceOnUse">
<stop stop-color="#FF3A44"/>
<stop offset="1" stop-color="#C31162"/>
</linearGradient>
<linearGradient id="paint3_linear_946_553" x1="10.5566" y1="39.8634" x2="20.0655" y2="30.1241" gradientUnits="userSpaceOnUse">
<stop stop-color="#32A071"/>
<stop offset="0.0685" stop-color="#2DA771"/>
<stop offset="0.4762" stop-color="#15CF74"/>
<stop offset="0.8009" stop-color="#06E775"/>
<stop offset="1" stop-color="#00F076"/>
</linearGradient>
</defs>
</svg>
