<?xml version="1.0" encoding="utf-8"?>
<!-- Generator: Adobe Illustrator 19.0.0, SVG Export Plug-In . SVG Version: 6.00 Build 0)  -->
<svg version="1.1" id="Layer_1" xmlns="http://www.w3.org/2000/svg" xmlns:xlink="http://www.w3.org/1999/xlink" x="0px" y="0px"
	 viewBox="0 0 62.8 71.2" style="enable-background:new 0 0 62.8 71.2;" xml:space="preserve">
<style type="text/css">
	.st0{display:none;fill:#FFFFFF;}
	.st1{fill:url(#XMLID_946_);}
	.st2{display:none;}
	.st3{display:inline;fill:#FFFFFF;}
	.st4{display:inline;}
	.st5{display:inline;fill:url(#XMLID_947_);}
	.st6{fill:#FFFFFF;}
	.st7{display:inline;fill:url(#XMLID_948_);}
</style>
<path id="XMLID_100_" class="st0" d="M1084.2,16.5l-19.3-11.2c-3.4-1.9-7.5-1.9-10.9,0l-19.3,11.2c-3.4,1.9-5.4,5.5-5.4,9.4v22.3
	c0,3.9,2.1,7.5,5.4,9.4l19.3,11.2c3.4,1.9,7.5,1.9,10.9,0l19.3-11.2c3.4-1.9,5.4-5.5,5.4-9.4V25.9
	C1089.6,22.1,1087.5,18.5,1084.2,16.5z M1046.6,41.2c0,1-0.8,1.8-1.8,1.8s-1.8-0.8-1.8-1.8V33c0-1,0.8-1.8,1.8-1.8s1.8,0.8,1.8,1.8
	V41.2z M1053.9,46.6c0,1-0.8,1.8-1.8,1.8s-1.8-0.8-1.8-1.8V27.6c0-1,0.8-1.8,1.8-1.8s1.8,0.8,1.8,1.8V46.6z M1061.2,52.4
	c0,1-0.8,1.8-1.8,1.8s-1.8-0.8-1.8-1.8V21.8c0-1,0.8-1.8,1.8-1.8s1.8,0.8,1.8,1.8V52.4z M1068.5,46.6c0,1-0.8,1.8-1.8,1.8
	s-1.8-0.8-1.8-1.8V27.6c0-1,0.8-1.8,1.8-1.8s1.8,0.8,1.8,1.8V46.6z M1075.8,41.2c0,1-0.8,1.8-1.8,1.8c-1,0-1.8-0.8-1.8-1.8V33
	c0-1,0.8-1.8,1.8-1.8c1,0,1.8,0.8,1.8,1.8V41.2z"/>
<linearGradient id="XMLID_946_" gradientUnits="userSpaceOnUse" x1="31.4213" y1="68.7854" x2="31.4213" y2="2.4184">
	<stop  offset="0" style="stop-color:#0000FF"/>
	<stop  offset="1" style="stop-color:#0370E6"/>
</linearGradient>
<path id="XMLID_101_" class="st1" d="M56.2,15L36.9,3.9c-3.4-1.9-7.5-1.9-10.9,0L6.7,15c-3.4,1.9-5.4,5.5-5.4,9.4v22.3
	c0,3.9,2.1,7.5,5.4,9.4L26,67.3c3.4,1.9,7.5,1.9,10.9,0l19.3-11.2c3.4-1.9,5.4-5.5,5.4-9.4V24.4C61.6,20.6,59.5,17,56.2,15z
	 M18.6,39.7c0,1-0.8,1.8-1.8,1.8S15,40.7,15,39.7v-8.1c0-1,0.8-1.8,1.8-1.8s1.8,0.8,1.8,1.8V39.7z M25.9,45.1c0,1-0.8,1.8-1.8,1.8
	c-1,0-1.8-0.8-1.8-1.8V26.1c0-1,0.8-1.8,1.8-1.8c1,0,1.8,0.8,1.8,1.8V45.1z M33.2,50.9c0,1-0.8,1.8-1.8,1.8s-1.8-0.8-1.8-1.8V20.3
	c0-1,0.8-1.8,1.8-1.8s1.8,0.8,1.8,1.8V50.9z M40.5,45.1c0,1-0.8,1.8-1.8,1.8c-1,0-1.8-0.8-1.8-1.8V26.1c0-1,0.8-1.8,1.8-1.8
	c1,0,1.8,0.8,1.8,1.8V45.1z M47.8,39.7c0,1-0.8,1.8-1.8,1.8c-1,0-1.8-0.8-1.8-1.8v-8.1c0-1,0.8-1.8,1.8-1.8c1,0,1.8,0.8,1.8,1.8
	V39.7z"/>
<g id="XMLID_947_" class="st2">
	<path id="XMLID_948_" class="st3" d="M-1291.5,50.4h-6l-2.3-6.2h-14.3l-2.2,6.2h-5.6l11.5-31.5h6.5L-1291.5,50.4z M-1312.6,40.1
		h11.4l-5.6-15.4h-0.4L-1312.6,40.1z"/>
	<path id="XMLID_951_" class="st3" d="M-1278.7,47.8c0.9,0,1.8-0.2,2.6-0.5s1.6-0.7,2.2-1.3c0.6-0.5,1.1-1.2,1.5-2
		c0.4-0.8,0.5-1.6,0.5-2.6V27.9h5v22.5h-5v-5h-0.4c-0.5,1.7-1.5,3.1-2.8,4c-1.4,0.9-3.1,1.4-5.2,1.4c-1.2,0-2.3-0.2-3.4-0.5
		c-1.1-0.3-2-0.8-2.8-1.6c-0.8-0.7-1.5-1.7-1.9-2.9c-0.5-1.2-0.7-2.7-0.7-4.5V27.9h5v13.5c0,2.3,0.5,3.9,1.4,4.9
		C-1281.7,47.3-1280.4,47.8-1278.7,47.8z"/>
	<path id="XMLID_953_" class="st3" d="M-1238.3,50.4h-5V45h-0.2c-0.6,1.9-1.7,3.3-3.3,4.3c-1.6,1-3.5,1.5-5.6,1.5
		c-1.2,0-2.4-0.2-3.6-0.5c-1.2-0.3-2.3-0.9-3.2-1.8c-1-0.9-1.7-2.1-2.3-3.6c-0.6-1.5-0.9-3.5-0.9-5.8c0-2.4,0.3-4.3,0.9-5.8
		c0.6-1.5,1.4-2.7,2.3-3.6c1-0.9,2-1.5,3.2-1.8c1.2-0.3,2.4-0.5,3.6-0.5c2.1,0,4,0.5,5.6,1.5c1.6,1,2.7,2.5,3.3,4.3h0.2V18.9h5V50.4
		z M-1250.4,47.2c1.1,0,2.1-0.2,2.9-0.5c0.9-0.4,1.6-0.8,2.3-1.4c0.6-0.6,1.1-1.2,1.4-2c0.3-0.7,0.5-1.5,0.5-2.3v-3.9
		c0-0.7-0.2-1.5-0.5-2.2c-0.3-0.7-0.8-1.3-1.4-1.9c-0.6-0.6-1.4-1-2.3-1.3c-0.9-0.3-1.9-0.5-2.9-0.5c-1,0-1.9,0.1-2.7,0.4
		c-0.8,0.2-1.6,0.7-2.2,1.3c-0.6,0.6-1.1,1.4-1.5,2.4c-0.4,1-0.5,2.3-0.5,3.9c0,1.6,0.2,2.9,0.5,3.9c0.4,1,0.9,1.8,1.5,2.4
		c0.6,0.6,1.4,1,2.2,1.3C-1252.3,47-1251.4,47.2-1250.4,47.2z"/>
	<path id="XMLID_956_" class="st3" d="M-1227.1,23.6h-5.6v-4.6h5.6V23.6z M-1227.4,27.9v22.5h-5.1V27.9H-1227.4z"/>
	<path id="XMLID_959_" class="st3" d="M-1222.6,39.2c0-1.9,0.3-3.5,0.9-5c0.6-1.5,1.4-2.7,2.5-3.7c1-1,2.3-1.7,3.7-2.3
		c1.4-0.5,2.9-0.8,4.4-0.8c1.6,0,3,0.2,4.4,0.7c1.4,0.5,2.6,1.2,3.7,2.2c1.1,1,1.9,2.2,2.5,3.6c0.6,1.5,0.9,3.2,0.9,5.1
		c0,1.9-0.3,3.5-0.9,5c-0.6,1.5-1.5,2.7-2.5,3.7c-1.1,1-2.3,1.7-3.7,2.3c-1.4,0.5-2.9,0.8-4.4,0.8c-1.6,0-3-0.3-4.4-0.8
		c-1.4-0.5-2.6-1.3-3.7-2.3c-1-1-1.9-2.2-2.5-3.7C-1222.3,42.8-1222.6,41.1-1222.6,39.2z M-1218.1,39.2c0,1.3,0.2,2.4,0.6,3.3
		c0.4,0.9,0.9,1.7,1.5,2.4c0.6,0.6,1.4,1.1,2.3,1.4c0.9,0.3,1.7,0.5,2.7,0.5c1,0,1.9-0.2,2.7-0.5c0.9-0.3,1.6-0.8,2.2-1.4
		c0.6-0.6,1.1-1.4,1.5-2.4c0.4-0.9,0.5-2,0.5-3.3c0-1.3-0.2-2.4-0.5-3.3c-0.4-0.9-0.9-1.7-1.5-2.4c-0.6-0.6-1.4-1.1-2.2-1.4
		c-0.9-0.3-1.8-0.5-2.7-0.5c-0.9,0-1.8,0.2-2.7,0.5c-0.9,0.3-1.6,0.8-2.3,1.4c-0.6,0.6-1.2,1.4-1.5,2.4
		C-1218,36.9-1218.1,38-1218.1,39.2z"/>
	<path id="XMLID_962_" class="st3" d="M-1182.1,34.8c0-1.5-0.5-2.6-1.5-3.3c-1-0.7-2.3-1-3.8-1c-1.3,0-2.3,0.3-3.1,0.8
		c-0.8,0.5-1.3,1.3-1.3,2.3c0,0.6,0.1,1,0.4,1.4c0.3,0.4,0.7,0.7,1.2,0.9c0.5,0.3,1.1,0.5,1.8,0.7s1.4,0.4,2.1,0.6
		c1.2,0.4,2.3,0.7,3.3,1c1,0.3,1.9,0.7,2.7,1.2c0.8,0.5,1.4,1.1,1.8,1.8c0.4,0.8,0.7,1.7,0.7,2.9c0,1.2-0.2,2.3-0.7,3.1
		c-0.5,0.8-1.2,1.5-2,2c-0.9,0.5-1.9,0.9-3.1,1.1c-1.2,0.2-2.5,0.3-3.9,0.3c-1.4,0-2.6-0.2-3.8-0.5c-1.1-0.3-2.1-0.8-2.9-1.5
		c-0.8-0.7-1.4-1.5-1.9-2.6s-0.7-2.3-0.7-3.7h4.1c0,1.6,0.5,2.8,1.4,3.6c0.9,0.8,2.2,1.1,3.8,1.1c1.6,0,2.8-0.2,3.6-0.7
		c0.8-0.5,1.3-1.3,1.3-2.4c0-0.6-0.2-1.1-0.5-1.5c-0.3-0.4-0.8-0.8-1.5-1s-1.4-0.5-2.2-0.8c-0.8-0.2-1.7-0.5-2.7-0.7
		c-1-0.3-1.9-0.6-2.7-0.9c-0.9-0.3-1.6-0.7-2.3-1.1c-0.6-0.5-1.2-1-1.5-1.7c-0.4-0.7-0.6-1.5-0.6-2.6c0-2.2,0.8-3.9,2.3-5
		c1.6-1.1,3.7-1.6,6.4-1.6c3.3,0,5.7,0.7,7.2,2c1.4,1.4,2.2,3.2,2.2,5.5H-1182.1z"/>
	<path id="XMLID_964_" class="st3" d="M-1173.4,27.9h5.1v5.4h0.2c0.6-1.9,1.7-3.3,3.3-4.3c1.6-1,3.5-1.5,5.6-1.5
		c1.2,0,2.4,0.2,3.6,0.5c1.2,0.3,2.3,0.9,3.2,1.8s1.7,2.1,2.3,3.6c0.6,1.5,0.9,3.5,0.9,5.8c0,2.4-0.3,4.3-0.9,5.8
		c-0.6,1.5-1.4,2.7-2.3,3.6s-2,1.5-3.2,1.8c-1.2,0.3-2.4,0.5-3.6,0.5c-2.1,0-4-0.5-5.6-1.5c-1.6-1-2.7-2.5-3.3-4.3h-0.2v14.4h-5.1
		V27.9z M-1168.3,41.3c0,0.8,0.2,1.5,0.5,2.2s0.8,1.3,1.4,1.9c0.6,0.6,1.3,1,2.2,1.3c0.9,0.3,1.8,0.5,2.9,0.5c1,0,1.9-0.1,2.7-0.4
		c0.8-0.2,1.6-0.7,2.2-1.3c0.6-0.6,1.1-1.4,1.5-2.4c0.4-1,0.5-2.3,0.5-3.9c0-1.6-0.2-2.9-0.5-3.9c-0.4-1-0.9-1.8-1.5-2.4
		c-0.6-0.6-1.4-1-2.2-1.3c-0.8-0.2-1.7-0.4-2.7-0.4c-1.1,0-2.1,0.2-2.9,0.5c-0.9,0.4-1.6,0.8-2.2,1.4c-0.6,0.6-1.1,1.2-1.4,2
		c-0.3,0.7-0.5,1.5-0.5,2.3V41.3z"/>
	<path id="XMLID_967_" class="st3" d="M-1135,31.3c-1.8,0-3.2,0.3-4,1c-0.9,0.7-1.3,1.6-1.3,2.9h-4.7c0-2.8,0.8-4.7,2.5-5.9
		c1.6-1.2,4.1-1.8,7.4-1.8c1.7,0,3.2,0.1,4.6,0.4c1.3,0.3,2.5,0.8,3.4,1.5c0.9,0.7,1.7,1.7,2.2,2.8c0.5,1.2,0.8,2.7,0.8,4.5v13.7
		h-4.8v-5h-0.2c-0.6,1.9-1.6,3.3-3,4.1c-1.4,0.9-3.2,1.3-5.3,1.3c-1.2,0-2.3-0.2-3.4-0.5c-1-0.3-1.9-0.8-2.7-1.4
		c-0.8-0.6-1.4-1.4-1.8-2.3c-0.4-0.9-0.7-1.9-0.7-3.1c0-2.2,0.8-3.8,2.3-5c1.5-1.2,3.7-1.8,6.4-1.8h8.3v-0.7c0-1.8-0.5-3.1-1.5-3.9
		C-1131.4,31.6-1132.9,31.3-1135,31.3z M-1129,40h-7.3c-1.7,0-3,0.3-3.7,1c-0.7,0.6-1.1,1.5-1.1,2.7c0,1.2,0.4,2.1,1.2,2.8
		c0.8,0.7,2,1.1,3.5,1.1c1.1,0,2.1-0.2,3-0.5c0.9-0.3,1.7-0.8,2.4-1.3c0.7-0.5,1.2-1.2,1.6-1.9c0.4-0.7,0.6-1.5,0.6-2.3V40z"/>
	<path id="XMLID_970_" class="st3" d="M-1118.9,50.4V27.9h5.1v5h0.2c0.5-1.9,1.3-3.3,2.2-4.1c0.9-0.9,2.1-1.3,3.6-1.3
		c0.8,0,1.6,0.2,2.6,0.5v5c-0.6-0.1-1.1-0.3-1.7-0.4c-0.6-0.1-1.1-0.2-1.7-0.2c-1,0-1.8,0.2-2.4,0.6c-0.7,0.4-1.2,0.9-1.6,1.5
		c-0.4,0.6-0.7,1.3-0.9,2.1c-0.2,0.8-0.3,1.6-0.3,2.5v11.4H-1118.9z"/>
	<path id="XMLID_972_" class="st3" d="M-1096.2,50.4h-5.1V18.9h5.1v17.7l9.5-8.6h6.4l-9.6,8.9l10,13.6h-6.2l-7.7-10.7l-2.4,2.3V50.4
		z"/>
</g>
<g id="XMLID_60_" class="st2">
	<path id="XMLID_81_" class="st3" d="M-1291.5,50.4h-6l-2.3-6.2h-14.3l-2.2,6.2h-5.6l11.5-31.5h6.5L-1291.5,50.4z M-1312.6,40.1
		h11.4l-5.6-15.4h-0.4L-1312.6,40.1z"/>
	<path id="XMLID_84_" class="st3" d="M-1278.7,47.8c0.9,0,1.8-0.2,2.6-0.5s1.6-0.7,2.2-1.3c0.6-0.5,1.1-1.2,1.5-2
		c0.4-0.8,0.5-1.6,0.5-2.6V27.9h5v22.5h-5v-5h-0.4c-0.5,1.7-1.5,3.1-2.8,4c-1.4,0.9-3.1,1.4-5.2,1.4c-1.2,0-2.3-0.2-3.4-0.5
		c-1.1-0.3-2-0.8-2.8-1.6c-0.8-0.7-1.5-1.7-1.9-2.9c-0.5-1.2-0.7-2.7-0.7-4.5V27.9h5v13.5c0,2.3,0.5,3.9,1.4,4.9
		C-1281.7,47.3-1280.4,47.8-1278.7,47.8z"/>
	<path id="XMLID_86_" class="st3" d="M-1238.3,50.4h-5V45h-0.2c-0.6,1.9-1.7,3.3-3.3,4.3c-1.6,1-3.5,1.5-5.6,1.5
		c-1.2,0-2.4-0.2-3.6-0.5c-1.2-0.3-2.3-0.9-3.2-1.8c-1-0.9-1.7-2.1-2.3-3.6c-0.6-1.5-0.9-3.5-0.9-5.8c0-2.4,0.3-4.3,0.9-5.8
		c0.6-1.5,1.4-2.7,2.3-3.6c1-0.9,2-1.5,3.2-1.8c1.2-0.3,2.4-0.5,3.6-0.5c2.1,0,4,0.5,5.6,1.5c1.6,1,2.7,2.5,3.3,4.3h0.2V18.9h5V50.4
		z M-1250.4,47.2c1.1,0,2.1-0.2,2.9-0.5c0.9-0.4,1.6-0.8,2.3-1.4c0.6-0.6,1.1-1.2,1.4-2c0.3-0.7,0.5-1.5,0.5-2.3v-3.9
		c0-0.7-0.2-1.5-0.5-2.2c-0.3-0.7-0.8-1.3-1.4-1.9c-0.6-0.6-1.4-1-2.3-1.3c-0.9-0.3-1.9-0.5-2.9-0.5c-1,0-1.9,0.1-2.7,0.4
		c-0.8,0.2-1.6,0.7-2.2,1.3c-0.6,0.6-1.1,1.4-1.5,2.4c-0.4,1-0.5,2.3-0.5,3.9c0,1.6,0.2,2.9,0.5,3.9c0.4,1,0.9,1.8,1.5,2.4
		c0.6,0.6,1.4,1,2.2,1.3C-1252.3,47-1251.4,47.2-1250.4,47.2z"/>
	<path id="XMLID_89_" class="st3" d="M-1227.1,23.6h-5.6v-4.6h5.6V23.6z M-1227.4,27.9v22.5h-5.1V27.9H-1227.4z"/>
	<path id="XMLID_92_" class="st3" d="M-1222.6,39.2c0-1.9,0.3-3.5,0.9-5c0.6-1.5,1.4-2.7,2.5-3.7c1-1,2.3-1.7,3.7-2.3
		c1.4-0.5,2.9-0.8,4.4-0.8c1.6,0,3,0.2,4.4,0.7c1.4,0.5,2.6,1.2,3.7,2.2c1.1,1,1.9,2.2,2.5,3.6c0.6,1.5,0.9,3.2,0.9,5.1
		c0,1.9-0.3,3.5-0.9,5c-0.6,1.5-1.5,2.7-2.5,3.7c-1.1,1-2.3,1.7-3.7,2.3c-1.4,0.5-2.9,0.8-4.4,0.8c-1.6,0-3-0.3-4.4-0.8
		c-1.4-0.5-2.6-1.3-3.7-2.3c-1-1-1.9-2.2-2.5-3.7C-1222.3,42.8-1222.6,41.1-1222.6,39.2z M-1218.1,39.2c0,1.3,0.2,2.4,0.6,3.3
		c0.4,0.9,0.9,1.7,1.5,2.4c0.6,0.6,1.4,1.1,2.3,1.4c0.9,0.3,1.7,0.5,2.7,0.5c1,0,1.9-0.2,2.7-0.5c0.9-0.3,1.6-0.8,2.2-1.4
		c0.6-0.6,1.1-1.4,1.5-2.4c0.4-0.9,0.5-2,0.5-3.3c0-1.3-0.2-2.4-0.5-3.3c-0.4-0.9-0.9-1.7-1.5-2.4c-0.6-0.6-1.4-1.1-2.2-1.4
		c-0.9-0.3-1.8-0.5-2.7-0.5c-0.9,0-1.8,0.2-2.7,0.5c-0.9,0.3-1.6,0.8-2.3,1.4c-0.6,0.6-1.2,1.4-1.5,2.4
		C-1218,36.9-1218.1,38-1218.1,39.2z"/>
	<path id="XMLID_856_" class="st3" d="M-1182.1,34.8c0-1.5-0.5-2.6-1.5-3.3c-1-0.7-2.3-1-3.8-1c-1.3,0-2.3,0.3-3.1,0.8
		c-0.8,0.5-1.3,1.3-1.3,2.3c0,0.6,0.1,1,0.4,1.4c0.3,0.4,0.7,0.7,1.2,0.9c0.5,0.3,1.1,0.5,1.8,0.7s1.4,0.4,2.1,0.6
		c1.2,0.4,2.3,0.7,3.3,1c1,0.3,1.9,0.7,2.7,1.2c0.8,0.5,1.4,1.1,1.8,1.8c0.4,0.8,0.7,1.7,0.7,2.9c0,1.2-0.2,2.3-0.7,3.1
		c-0.5,0.8-1.2,1.5-2,2c-0.9,0.5-1.9,0.9-3.1,1.1c-1.2,0.2-2.5,0.3-3.9,0.3c-1.4,0-2.6-0.2-3.8-0.5c-1.1-0.3-2.1-0.8-2.9-1.5
		c-0.8-0.7-1.4-1.5-1.9-2.6s-0.7-2.3-0.7-3.7h4.1c0,1.6,0.5,2.8,1.4,3.6c0.9,0.8,2.2,1.1,3.8,1.1c1.6,0,2.8-0.2,3.6-0.7
		c0.8-0.5,1.3-1.3,1.3-2.4c0-0.6-0.2-1.1-0.5-1.5c-0.3-0.4-0.8-0.8-1.5-1s-1.4-0.5-2.2-0.8c-0.8-0.2-1.7-0.5-2.7-0.7
		c-1-0.3-1.9-0.6-2.7-0.9c-0.9-0.3-1.6-0.7-2.3-1.1c-0.6-0.5-1.2-1-1.5-1.7c-0.4-0.7-0.6-1.5-0.6-2.6c0-2.2,0.8-3.9,2.3-5
		c1.6-1.1,3.7-1.6,6.4-1.6c3.3,0,5.7,0.7,7.2,2c1.4,1.4,2.2,3.2,2.2,5.5H-1182.1z"/>
	<path id="XMLID_858_" class="st3" d="M-1173.4,27.9h5.1v5.4h0.2c0.6-1.9,1.7-3.3,3.3-4.3c1.6-1,3.5-1.5,5.6-1.5
		c1.2,0,2.4,0.2,3.6,0.5c1.2,0.3,2.3,0.9,3.2,1.8s1.7,2.1,2.3,3.6c0.6,1.5,0.9,3.5,0.9,5.8c0,2.4-0.3,4.3-0.9,5.8
		c-0.6,1.5-1.4,2.7-2.3,3.6s-2,1.5-3.2,1.8c-1.2,0.3-2.4,0.5-3.6,0.5c-2.1,0-4-0.5-5.6-1.5c-1.6-1-2.7-2.5-3.3-4.3h-0.2v14.4h-5.1
		V27.9z M-1168.3,41.3c0,0.8,0.2,1.5,0.5,2.2s0.8,1.3,1.4,1.9c0.6,0.6,1.3,1,2.2,1.3c0.9,0.3,1.8,0.5,2.9,0.5c1,0,1.9-0.1,2.7-0.4
		c0.8-0.2,1.6-0.7,2.2-1.3c0.6-0.6,1.1-1.4,1.5-2.4c0.4-1,0.5-2.3,0.5-3.9c0-1.6-0.2-2.9-0.5-3.9c-0.4-1-0.9-1.8-1.5-2.4
		c-0.6-0.6-1.4-1-2.2-1.3c-0.8-0.2-1.7-0.4-2.7-0.4c-1.1,0-2.1,0.2-2.9,0.5c-0.9,0.4-1.6,0.8-2.2,1.4c-0.6,0.6-1.1,1.2-1.4,2
		c-0.3,0.7-0.5,1.5-0.5,2.3V41.3z"/>
	<path id="XMLID_861_" class="st3" d="M-1135,31.3c-1.8,0-3.2,0.3-4,1c-0.9,0.7-1.3,1.6-1.3,2.9h-4.7c0-2.8,0.8-4.7,2.5-5.9
		c1.6-1.2,4.1-1.8,7.4-1.8c1.7,0,3.2,0.1,4.6,0.4c1.3,0.3,2.5,0.8,3.4,1.5c0.9,0.7,1.7,1.7,2.2,2.8c0.5,1.2,0.8,2.7,0.8,4.5v13.7
		h-4.8v-5h-0.2c-0.6,1.9-1.6,3.3-3,4.1c-1.4,0.9-3.2,1.3-5.3,1.3c-1.2,0-2.3-0.2-3.4-0.5c-1-0.3-1.9-0.8-2.7-1.4
		c-0.8-0.6-1.4-1.4-1.8-2.3c-0.4-0.9-0.7-1.9-0.7-3.1c0-2.2,0.8-3.8,2.3-5c1.5-1.2,3.7-1.8,6.4-1.8h8.3v-0.7c0-1.8-0.5-3.1-1.5-3.9
		C-1131.4,31.6-1132.9,31.3-1135,31.3z M-1129,40h-7.3c-1.7,0-3,0.3-3.7,1c-0.7,0.6-1.1,1.5-1.1,2.7c0,1.2,0.4,2.1,1.2,2.8
		c0.8,0.7,2,1.1,3.5,1.1c1.1,0,2.1-0.2,3-0.5c0.9-0.3,1.7-0.8,2.4-1.3c0.7-0.5,1.2-1.2,1.6-1.9c0.4-0.7,0.6-1.5,0.6-2.3V40z"/>
	<path id="XMLID_864_" class="st3" d="M-1118.9,50.4V27.9h5.1v5h0.2c0.5-1.9,1.3-3.3,2.2-4.1c0.9-0.9,2.1-1.3,3.6-1.3
		c0.8,0,1.6,0.2,2.6,0.5v5c-0.6-0.1-1.1-0.3-1.7-0.4c-0.6-0.1-1.1-0.2-1.7-0.2c-1,0-1.8,0.2-2.4,0.6c-0.7,0.4-1.2,0.9-1.6,1.5
		c-0.4,0.6-0.7,1.3-0.9,2.1c-0.2,0.8-0.3,1.6-0.3,2.5v11.4H-1118.9z"/>
	<path id="XMLID_866_" class="st3" d="M-1096.2,50.4h-5.1V18.9h5.1v17.7l9.5-8.6h6.4l-9.6,8.9l10,13.6h-6.2l-7.7-10.7l-2.4,2.3V50.4
		z"/>
</g>
<g id="XMLID_974_" class="st2">
	<path id="XMLID_975_" class="st4" d="M-2291.3,49.4h-6l-2.3-6.2h-14.3l-2.2,6.2h-5.6l11.5-31.5h6.5L-2291.3,49.4z M-2312.4,39.1
		h11.4l-5.6-15.4h-0.4L-2312.4,39.1z"/>
	<path id="XMLID_978_" class="st4" d="M-2278.5,46.8c0.9,0,1.8-0.2,2.6-0.5s1.6-0.7,2.2-1.3c0.6-0.5,1.1-1.2,1.5-2
		c0.4-0.8,0.5-1.6,0.5-2.6V26.9h5v22.5h-5v-5h-0.4c-0.5,1.7-1.5,3.1-2.8,4c-1.4,0.9-3.1,1.4-5.2,1.4c-1.2,0-2.3-0.2-3.4-0.5
		c-1.1-0.3-2-0.8-2.8-1.6c-0.8-0.7-1.5-1.7-1.9-2.9c-0.5-1.2-0.7-2.7-0.7-4.5V26.9h5v13.5c0,2.3,0.5,3.9,1.4,4.9
		C-2281.5,46.3-2280.2,46.8-2278.5,46.8z"/>
	<path id="XMLID_980_" class="st4" d="M-2238.1,49.4h-5V44h-0.2c-0.6,1.9-1.7,3.3-3.3,4.3c-1.6,1-3.5,1.5-5.6,1.5
		c-1.2,0-2.4-0.2-3.6-0.5c-1.2-0.3-2.3-0.9-3.2-1.8c-1-0.9-1.7-2.1-2.3-3.6c-0.6-1.5-0.9-3.5-0.9-5.8c0-2.4,0.3-4.3,0.9-5.8
		c0.6-1.5,1.4-2.7,2.3-3.6c1-0.9,2-1.5,3.2-1.8c1.2-0.3,2.4-0.5,3.6-0.5c2.1,0,4,0.5,5.6,1.5c1.6,1,2.7,2.5,3.3,4.3h0.2V17.9h5V49.4
		z M-2250.2,46.2c1.1,0,2.1-0.2,2.9-0.5c0.9-0.4,1.6-0.8,2.3-1.4c0.6-0.6,1.1-1.2,1.4-2c0.3-0.7,0.5-1.5,0.5-2.3v-3.9
		c0-0.7-0.2-1.5-0.5-2.2c-0.3-0.7-0.8-1.3-1.4-1.9c-0.6-0.6-1.4-1-2.3-1.3c-0.9-0.3-1.9-0.5-2.9-0.5c-1,0-1.9,0.1-2.7,0.4
		c-0.8,0.2-1.6,0.7-2.2,1.3c-0.6,0.6-1.1,1.4-1.5,2.4c-0.4,1-0.5,2.3-0.5,3.9c0,1.6,0.2,2.9,0.5,3.9c0.4,1,0.9,1.8,1.5,2.4
		c0.6,0.6,1.4,1,2.2,1.3C-2252.1,46-2251.2,46.2-2250.2,46.2z"/>
	<path id="XMLID_983_" class="st4" d="M-2226.9,22.6h-5.6v-4.6h5.6V22.6z M-2227.2,26.9v22.5h-5.1V26.9H-2227.2z"/>
	<path id="XMLID_986_" class="st4" d="M-2222.4,38.2c0-1.9,0.3-3.5,0.9-5c0.6-1.5,1.4-2.7,2.5-3.7c1-1,2.3-1.7,3.7-2.3
		c1.4-0.5,2.9-0.8,4.4-0.8c1.6,0,3,0.2,4.4,0.7c1.4,0.5,2.6,1.2,3.7,2.2c1.1,1,1.9,2.2,2.5,3.6c0.6,1.5,0.9,3.2,0.9,5.1
		c0,1.9-0.3,3.5-0.9,5c-0.6,1.5-1.5,2.7-2.5,3.7c-1.1,1-2.3,1.7-3.7,2.3c-1.4,0.5-2.9,0.8-4.4,0.8c-1.6,0-3-0.3-4.4-0.8
		c-1.4-0.5-2.6-1.3-3.7-2.3c-1-1-1.9-2.2-2.5-3.7C-2222.1,41.8-2222.4,40.1-2222.4,38.2z M-2217.9,38.2c0,1.3,0.2,2.4,0.6,3.3
		c0.4,0.9,0.9,1.7,1.5,2.4c0.6,0.6,1.4,1.1,2.3,1.4c0.9,0.3,1.7,0.5,2.7,0.5c1,0,1.9-0.2,2.7-0.5c0.9-0.3,1.6-0.8,2.2-1.4
		c0.6-0.6,1.1-1.4,1.5-2.4c0.4-0.9,0.5-2,0.5-3.3c0-1.3-0.2-2.4-0.5-3.3c-0.4-0.9-0.9-1.7-1.5-2.4c-0.6-0.6-1.4-1.1-2.2-1.4
		c-0.9-0.3-1.8-0.5-2.7-0.5c-0.9,0-1.8,0.2-2.7,0.5c-0.9,0.3-1.6,0.8-2.3,1.4c-0.6,0.6-1.2,1.4-1.5,2.4
		C-2217.8,35.9-2217.9,37-2217.9,38.2z"/>
	<path id="XMLID_989_" class="st4" d="M-2181.8,33.8c0-1.5-0.5-2.6-1.5-3.3c-1-0.7-2.3-1-3.8-1c-1.3,0-2.3,0.3-3.1,0.8
		c-0.8,0.5-1.3,1.3-1.3,2.3c0,0.6,0.1,1,0.4,1.4c0.3,0.4,0.7,0.7,1.2,0.9c0.5,0.3,1.1,0.5,1.8,0.7s1.4,0.4,2.1,0.6
		c1.2,0.4,2.3,0.7,3.3,1c1,0.3,1.9,0.7,2.7,1.2c0.8,0.5,1.4,1.1,1.8,1.8c0.4,0.8,0.7,1.7,0.7,2.9c0,1.2-0.2,2.3-0.7,3.1
		c-0.5,0.8-1.2,1.5-2,2c-0.9,0.5-1.9,0.9-3.1,1.1c-1.2,0.2-2.5,0.3-3.9,0.3c-1.4,0-2.6-0.2-3.8-0.5c-1.1-0.3-2.1-0.8-2.9-1.5
		c-0.8-0.7-1.4-1.5-1.9-2.6s-0.7-2.3-0.7-3.7h4.1c0,1.6,0.5,2.8,1.4,3.6c0.9,0.8,2.2,1.1,3.8,1.1c1.6,0,2.8-0.2,3.6-0.7
		c0.8-0.5,1.3-1.3,1.3-2.4c0-0.6-0.2-1.1-0.5-1.5c-0.3-0.4-0.8-0.8-1.5-1s-1.4-0.5-2.2-0.8c-0.8-0.2-1.7-0.5-2.7-0.7
		c-1-0.3-1.9-0.6-2.7-0.9c-0.9-0.3-1.6-0.7-2.3-1.1c-0.6-0.5-1.2-1-1.5-1.7c-0.4-0.7-0.6-1.5-0.6-2.6c0-2.2,0.8-3.9,2.3-5
		c1.6-1.1,3.7-1.6,6.4-1.6c3.3,0,5.7,0.7,7.2,2c1.4,1.4,2.2,3.2,2.2,5.5H-2181.8z"/>
	<path id="XMLID_991_" class="st4" d="M-2173.2,26.9h5.1v5.4h0.2c0.6-1.9,1.7-3.3,3.3-4.3c1.6-1,3.5-1.5,5.6-1.5
		c1.2,0,2.4,0.2,3.6,0.5c1.2,0.3,2.3,0.9,3.2,1.8s1.7,2.1,2.3,3.6c0.6,1.5,0.9,3.5,0.9,5.8c0,2.4-0.3,4.3-0.9,5.8
		c-0.6,1.5-1.4,2.7-2.3,3.6s-2,1.5-3.2,1.8c-1.2,0.3-2.4,0.5-3.6,0.5c-2.1,0-4-0.5-5.6-1.5c-1.6-1-2.7-2.5-3.3-4.3h-0.2v14.4h-5.1
		V26.9z M-2168.1,40.3c0,0.8,0.2,1.5,0.5,2.2s0.8,1.3,1.4,1.9c0.6,0.6,1.3,1,2.2,1.3c0.9,0.3,1.8,0.5,2.9,0.5c1,0,1.9-0.1,2.7-0.4
		c0.8-0.2,1.6-0.7,2.2-1.3c0.6-0.6,1.1-1.4,1.5-2.4c0.4-1,0.5-2.3,0.5-3.9c0-1.6-0.2-2.9-0.5-3.9c-0.4-1-0.9-1.8-1.5-2.4
		c-0.6-0.6-1.4-1-2.2-1.3c-0.8-0.2-1.7-0.4-2.7-0.4c-1.1,0-2.1,0.2-2.9,0.5c-0.9,0.4-1.6,0.8-2.2,1.4c-0.6,0.6-1.1,1.2-1.4,2
		c-0.3,0.7-0.5,1.5-0.5,2.3V40.3z"/>
	<path id="XMLID_994_" class="st4" d="M-2134.8,30.3c-1.8,0-3.2,0.3-4,1c-0.9,0.7-1.3,1.6-1.3,2.9h-4.7c0-2.8,0.8-4.7,2.5-5.9
		c1.6-1.2,4.1-1.8,7.4-1.8c1.7,0,3.2,0.1,4.6,0.4c1.3,0.3,2.5,0.8,3.4,1.5c0.9,0.7,1.7,1.7,2.2,2.8c0.5,1.2,0.8,2.7,0.8,4.5v13.7
		h-4.8v-5h-0.2c-0.6,1.9-1.6,3.3-3,4.1c-1.4,0.9-3.2,1.3-5.3,1.3c-1.2,0-2.3-0.2-3.4-0.5c-1-0.3-1.9-0.8-2.7-1.4
		c-0.8-0.6-1.4-1.4-1.8-2.3c-0.4-0.9-0.7-1.9-0.7-3.1c0-2.2,0.8-3.8,2.3-5c1.5-1.2,3.7-1.8,6.4-1.8h8.3v-0.7c0-1.8-0.5-3.1-1.5-3.9
		C-2131.2,30.6-2132.7,30.3-2134.8,30.3z M-2128.8,39h-7.3c-1.7,0-3,0.3-3.7,1c-0.7,0.6-1.1,1.5-1.1,2.7c0,1.2,0.4,2.1,1.2,2.8
		c0.8,0.7,2,1.1,3.5,1.1c1.1,0,2.1-0.2,3-0.5c0.9-0.3,1.7-0.8,2.4-1.3c0.7-0.5,1.2-1.2,1.6-1.9c0.4-0.7,0.6-1.5,0.6-2.3V39z"/>
	<path id="XMLID_997_" class="st4" d="M-2118.7,49.4V26.9h5.1v5h0.2c0.5-1.9,1.3-3.3,2.2-4.1c0.9-0.9,2.1-1.3,3.6-1.3
		c0.8,0,1.6,0.2,2.6,0.5v5c-0.6-0.1-1.1-0.3-1.7-0.4c-0.6-0.1-1.1-0.2-1.7-0.2c-1,0-1.8,0.2-2.4,0.6c-0.7,0.4-1.2,0.9-1.6,1.5
		c-0.4,0.6-0.7,1.3-0.9,2.1c-0.2,0.8-0.3,1.6-0.3,2.5v11.4H-2118.7z"/>
	<path id="XMLID_999_" class="st4" d="M-2096,49.4h-5.1V17.9h5.1v17.7l9.5-8.6h6.4l-9.6,8.9l10,13.6h-6.2l-7.7-10.7l-2.4,2.3V49.4z"
		/>
</g>
<g id="XMLID_320_" class="st2">
	<path id="XMLID_868_" class="st4" d="M-2291.3,49.4h-6l-2.3-6.2h-14.3l-2.2,6.2h-5.6l11.5-31.5h6.5L-2291.3,49.4z M-2312.4,39.1
		h11.4l-5.6-15.4h-0.4L-2312.4,39.1z"/>
	<path id="XMLID_871_" class="st4" d="M-2278.5,46.8c0.9,0,1.8-0.2,2.6-0.5s1.6-0.7,2.2-1.3c0.6-0.5,1.1-1.2,1.5-2
		c0.4-0.8,0.5-1.6,0.5-2.6V26.9h5v22.5h-5v-5h-0.4c-0.5,1.7-1.5,3.1-2.8,4c-1.4,0.9-3.1,1.4-5.2,1.4c-1.2,0-2.3-0.2-3.4-0.5
		c-1.1-0.3-2-0.8-2.8-1.6c-0.8-0.7-1.5-1.7-1.9-2.9c-0.5-1.2-0.7-2.7-0.7-4.5V26.9h5v13.5c0,2.3,0.5,3.9,1.4,4.9
		C-2281.5,46.3-2280.2,46.8-2278.5,46.8z"/>
	<path id="XMLID_873_" class="st4" d="M-2238.1,49.4h-5V44h-0.2c-0.6,1.9-1.7,3.3-3.3,4.3c-1.6,1-3.5,1.5-5.6,1.5
		c-1.2,0-2.4-0.2-3.6-0.5c-1.2-0.3-2.3-0.9-3.2-1.8c-1-0.9-1.7-2.1-2.3-3.6c-0.6-1.5-0.9-3.5-0.9-5.8c0-2.4,0.3-4.3,0.9-5.8
		c0.6-1.5,1.4-2.7,2.3-3.6c1-0.9,2-1.5,3.2-1.8c1.2-0.3,2.4-0.5,3.6-0.5c2.1,0,4,0.5,5.6,1.5c1.6,1,2.7,2.5,3.3,4.3h0.2V17.9h5V49.4
		z M-2250.2,46.2c1.1,0,2.1-0.2,2.9-0.5c0.9-0.4,1.6-0.8,2.3-1.4c0.6-0.6,1.1-1.2,1.4-2c0.3-0.7,0.5-1.5,0.5-2.3v-3.9
		c0-0.7-0.2-1.5-0.5-2.2c-0.3-0.7-0.8-1.3-1.4-1.9c-0.6-0.6-1.4-1-2.3-1.3c-0.9-0.3-1.9-0.5-2.9-0.5c-1,0-1.9,0.1-2.7,0.4
		c-0.8,0.2-1.6,0.7-2.2,1.3c-0.6,0.6-1.1,1.4-1.5,2.4c-0.4,1-0.5,2.3-0.5,3.9c0,1.6,0.2,2.9,0.5,3.9c0.4,1,0.9,1.8,1.5,2.4
		c0.6,0.6,1.4,1,2.2,1.3C-2252.1,46-2251.2,46.2-2250.2,46.2z"/>
	<path id="XMLID_876_" class="st4" d="M-2226.9,22.6h-5.6v-4.6h5.6V22.6z M-2227.2,26.9v22.5h-5.1V26.9H-2227.2z"/>
	<path id="XMLID_879_" class="st4" d="M-2222.4,38.2c0-1.9,0.3-3.5,0.9-5c0.6-1.5,1.4-2.7,2.5-3.7c1-1,2.3-1.7,3.7-2.3
		c1.4-0.5,2.9-0.8,4.4-0.8c1.6,0,3,0.2,4.4,0.7c1.4,0.5,2.6,1.2,3.7,2.2c1.1,1,1.9,2.2,2.5,3.6c0.6,1.5,0.9,3.2,0.9,5.1
		c0,1.9-0.3,3.5-0.9,5c-0.6,1.5-1.5,2.7-2.5,3.7c-1.1,1-2.3,1.7-3.7,2.3c-1.4,0.5-2.9,0.8-4.4,0.8c-1.6,0-3-0.3-4.4-0.8
		c-1.4-0.5-2.6-1.3-3.7-2.3c-1-1-1.9-2.2-2.5-3.7C-2222.1,41.8-2222.4,40.1-2222.4,38.2z M-2217.9,38.2c0,1.3,0.2,2.4,0.6,3.3
		c0.4,0.9,0.9,1.7,1.5,2.4c0.6,0.6,1.4,1.1,2.3,1.4c0.9,0.3,1.7,0.5,2.7,0.5c1,0,1.9-0.2,2.7-0.5c0.9-0.3,1.6-0.8,2.2-1.4
		c0.6-0.6,1.1-1.4,1.5-2.4c0.4-0.9,0.5-2,0.5-3.3c0-1.3-0.2-2.4-0.5-3.3c-0.4-0.9-0.9-1.7-1.5-2.4c-0.6-0.6-1.4-1.1-2.2-1.4
		c-0.9-0.3-1.8-0.5-2.7-0.5c-0.9,0-1.8,0.2-2.7,0.5c-0.9,0.3-1.6,0.8-2.3,1.4c-0.6,0.6-1.2,1.4-1.5,2.4
		C-2217.8,35.9-2217.9,37-2217.9,38.2z"/>
	<path id="XMLID_882_" class="st4" d="M-2181.8,33.8c0-1.5-0.5-2.6-1.5-3.3c-1-0.7-2.3-1-3.8-1c-1.3,0-2.3,0.3-3.1,0.8
		c-0.8,0.5-1.3,1.3-1.3,2.3c0,0.6,0.1,1,0.4,1.4c0.3,0.4,0.7,0.7,1.2,0.9c0.5,0.3,1.1,0.5,1.8,0.7s1.4,0.4,2.1,0.6
		c1.2,0.4,2.3,0.7,3.3,1c1,0.3,1.9,0.7,2.7,1.2c0.8,0.5,1.4,1.1,1.8,1.8c0.4,0.8,0.7,1.7,0.7,2.9c0,1.2-0.2,2.3-0.7,3.1
		c-0.5,0.8-1.2,1.5-2,2c-0.9,0.5-1.9,0.9-3.1,1.1c-1.2,0.2-2.5,0.3-3.9,0.3c-1.4,0-2.6-0.2-3.8-0.5c-1.1-0.3-2.1-0.8-2.9-1.5
		c-0.8-0.7-1.4-1.5-1.9-2.6s-0.7-2.3-0.7-3.7h4.1c0,1.6,0.5,2.8,1.4,3.6c0.9,0.8,2.2,1.1,3.8,1.1c1.6,0,2.8-0.2,3.6-0.7
		c0.8-0.5,1.3-1.3,1.3-2.4c0-0.6-0.2-1.1-0.5-1.5c-0.3-0.4-0.8-0.8-1.5-1s-1.4-0.5-2.2-0.8c-0.8-0.2-1.7-0.5-2.7-0.7
		c-1-0.3-1.9-0.6-2.7-0.9c-0.9-0.3-1.6-0.7-2.3-1.1c-0.6-0.5-1.2-1-1.5-1.7c-0.4-0.7-0.6-1.5-0.6-2.6c0-2.2,0.8-3.9,2.3-5
		c1.6-1.1,3.7-1.6,6.4-1.6c3.3,0,5.7,0.7,7.2,2c1.4,1.4,2.2,3.2,2.2,5.5H-2181.8z"/>
	<path id="XMLID_884_" class="st4" d="M-2173.2,26.9h5.1v5.4h0.2c0.6-1.9,1.7-3.3,3.3-4.3c1.6-1,3.5-1.5,5.6-1.5
		c1.2,0,2.4,0.2,3.6,0.5c1.2,0.3,2.3,0.9,3.2,1.8s1.7,2.1,2.3,3.6c0.6,1.5,0.9,3.5,0.9,5.8c0,2.4-0.3,4.3-0.9,5.8
		c-0.6,1.5-1.4,2.7-2.3,3.6s-2,1.5-3.2,1.8c-1.2,0.3-2.4,0.5-3.6,0.5c-2.1,0-4-0.5-5.6-1.5c-1.6-1-2.7-2.5-3.3-4.3h-0.2v14.4h-5.1
		V26.9z M-2168.1,40.3c0,0.8,0.2,1.5,0.5,2.2s0.8,1.3,1.4,1.9c0.6,0.6,1.3,1,2.2,1.3c0.9,0.3,1.8,0.5,2.9,0.5c1,0,1.9-0.1,2.7-0.4
		c0.8-0.2,1.6-0.7,2.2-1.3c0.6-0.6,1.1-1.4,1.5-2.4c0.4-1,0.5-2.3,0.5-3.9c0-1.6-0.2-2.9-0.5-3.9c-0.4-1-0.9-1.8-1.5-2.4
		c-0.6-0.6-1.4-1-2.2-1.3c-0.8-0.2-1.7-0.4-2.7-0.4c-1.1,0-2.1,0.2-2.9,0.5c-0.9,0.4-1.6,0.8-2.2,1.4c-0.6,0.6-1.1,1.2-1.4,2
		c-0.3,0.7-0.5,1.5-0.5,2.3V40.3z"/>
	<path id="XMLID_887_" class="st4" d="M-2134.8,30.3c-1.8,0-3.2,0.3-4,1c-0.9,0.7-1.3,1.6-1.3,2.9h-4.7c0-2.8,0.8-4.7,2.5-5.9
		c1.6-1.2,4.1-1.8,7.4-1.8c1.7,0,3.2,0.1,4.6,0.4c1.3,0.3,2.5,0.8,3.4,1.5c0.9,0.7,1.7,1.7,2.2,2.8c0.5,1.2,0.8,2.7,0.8,4.5v13.7
		h-4.8v-5h-0.2c-0.6,1.9-1.6,3.3-3,4.1c-1.4,0.9-3.2,1.3-5.3,1.3c-1.2,0-2.3-0.2-3.4-0.5c-1-0.3-1.9-0.8-2.7-1.4
		c-0.8-0.6-1.4-1.4-1.8-2.3c-0.4-0.9-0.7-1.9-0.7-3.1c0-2.2,0.8-3.8,2.3-5c1.5-1.2,3.7-1.8,6.4-1.8h8.3v-0.7c0-1.8-0.5-3.1-1.5-3.9
		C-2131.2,30.6-2132.7,30.3-2134.8,30.3z M-2128.8,39h-7.3c-1.7,0-3,0.3-3.7,1c-0.7,0.6-1.1,1.5-1.1,2.7c0,1.2,0.4,2.1,1.2,2.8
		c0.8,0.7,2,1.1,3.5,1.1c1.1,0,2.1-0.2,3-0.5c0.9-0.3,1.7-0.8,2.4-1.3c0.7-0.5,1.2-1.2,1.6-1.9c0.4-0.7,0.6-1.5,0.6-2.3V39z"/>
	<path id="XMLID_890_" class="st4" d="M-2118.7,49.4V26.9h5.1v5h0.2c0.5-1.9,1.3-3.3,2.2-4.1c0.9-0.9,2.1-1.3,3.6-1.3
		c0.8,0,1.6,0.2,2.6,0.5v5c-0.6-0.1-1.1-0.3-1.7-0.4c-0.6-0.1-1.1-0.2-1.7-0.2c-1,0-1.8,0.2-2.4,0.6c-0.7,0.4-1.2,0.9-1.6,1.5
		c-0.4,0.6-0.7,1.3-0.9,2.1c-0.2,0.8-0.3,1.6-0.3,2.5v11.4H-2118.7z"/>
	<path id="XMLID_892_" class="st4" d="M-2096,49.4h-5.1V17.9h5.1v17.7l9.5-8.6h6.4l-9.6,8.9l10,13.6h-6.2l-7.7-10.7l-2.4,2.3V49.4z"
		/>
</g>
<g id="XMLID_3_" class="st2">
	<linearGradient id="XMLID_1001_" gradientUnits="userSpaceOnUse" x1="-3556.7939" y1="70.2854" x2="-3556.7939" y2="3.9184">
		<stop  offset="0" style="stop-color:#0000FF"/>
		<stop  offset="1" style="stop-color:#0370E6"/>
	</linearGradient>
	<path id="XMLID_5_" style="display:inline;fill:url(#XMLID_1001_);" d="M-3532,16.5l-19.3-11.2c-3.4-1.9-7.5-1.9-10.9,0l-19.3,11.2
		c-3.4,1.9-5.4,5.5-5.4,9.4v22.3c0,3.9,2.1,7.5,5.4,9.4l19.3,11.2c3.4,1.9,7.5,1.9,10.9,0l19.3-11.2c3.4-1.9,5.4-5.5,5.4-9.4V25.9
		C-3526.6,22.1-3528.7,18.5-3532,16.5z M-3569.6,41.2c0,1-0.8,1.8-1.8,1.8s-1.8-0.8-1.8-1.8V33c0-1,0.8-1.8,1.8-1.8s1.8,0.8,1.8,1.8
		V41.2z M-3562.3,46.6c0,1-0.8,1.8-1.8,1.8s-1.8-0.8-1.8-1.8V27.6c0-1,0.8-1.8,1.8-1.8s1.8,0.8,1.8,1.8V46.6z M-3555,52.4
		c0,1-0.8,1.8-1.8,1.8s-1.8-0.8-1.8-1.8V21.8c0-1,0.8-1.8,1.8-1.8s1.8,0.8,1.8,1.8V52.4z M-3547.7,46.6c0,1-0.8,1.8-1.8,1.8
		s-1.8-0.8-1.8-1.8V27.6c0-1,0.8-1.8,1.8-1.8s1.8,0.8,1.8,1.8V46.6z M-3540.4,41.2c0,1-0.8,1.8-1.8,1.8s-1.8-0.8-1.8-1.8V33
		c0-1,0.8-1.8,1.8-1.8s1.8,0.8,1.8,1.8V41.2z"/>
	<g id="XMLID_1002_" class="st4">
		<path id="XMLID_1003_" class="st6" d="M-3482.5,50.4h-6l-2.3-6.2h-14.3l-2.2,6.2h-5.6l11.5-31.5h6.5L-3482.5,50.4z M-3503.7,40.1
			h11.4l-5.6-15.4h-0.4L-3503.7,40.1z"/>
		<path id="XMLID_1006_" class="st6" d="M-3469.7,47.8c0.9,0,1.8-0.2,2.6-0.5s1.6-0.7,2.2-1.3c0.6-0.5,1.1-1.2,1.5-2
			c0.4-0.8,0.5-1.6,0.5-2.6V27.9h5v22.5h-5v-5h-0.4c-0.5,1.7-1.5,3.1-2.8,4c-1.4,0.9-3.1,1.4-5.2,1.4c-1.2,0-2.3-0.2-3.4-0.5
			c-1.1-0.3-2-0.8-2.8-1.6c-0.8-0.7-1.5-1.7-1.9-2.9c-0.5-1.2-0.7-2.7-0.7-4.5V27.9h5v13.5c0,2.3,0.5,3.9,1.4,4.9
			C-3472.7,47.3-3471.4,47.8-3469.7,47.8z"/>
		<path id="XMLID_1008_" class="st6" d="M-3429.3,50.4h-5V45h-0.2c-0.6,1.9-1.7,3.3-3.3,4.3c-1.6,1-3.5,1.5-5.6,1.5
			c-1.2,0-2.4-0.2-3.6-0.5c-1.2-0.3-2.3-0.9-3.2-1.8c-1-0.9-1.7-2.1-2.3-3.6c-0.6-1.5-0.9-3.5-0.9-5.8c0-2.4,0.3-4.3,0.9-5.8
			c0.6-1.5,1.4-2.7,2.3-3.6c1-0.9,2-1.5,3.2-1.8c1.2-0.3,2.4-0.5,3.6-0.5c2.1,0,4,0.5,5.6,1.5c1.6,1,2.7,2.5,3.3,4.3h0.2V18.9h5
			V50.4z M-3441.4,47.2c1.1,0,2.1-0.2,2.9-0.5c0.9-0.4,1.6-0.8,2.3-1.4c0.6-0.6,1.1-1.2,1.4-2c0.3-0.7,0.5-1.5,0.5-2.3v-3.9
			c0-0.7-0.2-1.5-0.5-2.2c-0.3-0.7-0.8-1.3-1.4-1.9c-0.6-0.6-1.4-1-2.3-1.3c-0.9-0.3-1.9-0.5-2.9-0.5c-1,0-1.9,0.1-2.7,0.4
			c-0.8,0.2-1.6,0.7-2.2,1.3c-0.6,0.6-1.1,1.4-1.5,2.4c-0.4,1-0.5,2.3-0.5,3.9c0,1.6,0.2,2.9,0.5,3.9c0.4,1,0.9,1.8,1.5,2.4
			c0.6,0.6,1.4,1,2.2,1.3C-3443.3,47-3442.4,47.2-3441.4,47.2z"/>
		<path id="XMLID_1011_" class="st6" d="M-3418.2,23.6h-5.6v-4.6h5.6V23.6z M-3418.4,27.9v22.5h-5.1V27.9H-3418.4z"/>
		<path id="XMLID_1014_" class="st6" d="M-3413.7,39.2c0-1.9,0.3-3.5,0.9-5c0.6-1.5,1.4-2.7,2.5-3.7c1-1,2.3-1.7,3.7-2.3
			c1.4-0.5,2.9-0.8,4.4-0.8c1.6,0,3,0.2,4.4,0.7c1.4,0.5,2.6,1.2,3.7,2.2c1.1,1,1.9,2.2,2.5,3.6c0.6,1.5,0.9,3.2,0.9,5.1
			c0,1.9-0.3,3.5-0.9,5c-0.6,1.5-1.5,2.7-2.5,3.7c-1.1,1-2.3,1.7-3.7,2.3c-1.4,0.5-2.9,0.8-4.4,0.8c-1.6,0-3-0.3-4.4-0.8
			c-1.4-0.5-2.6-1.3-3.7-2.3c-1-1-1.9-2.2-2.5-3.7C-3413.4,42.8-3413.7,41.1-3413.7,39.2z M-3409.2,39.2c0,1.3,0.2,2.4,0.6,3.3
			c0.4,0.9,0.9,1.7,1.5,2.4c0.6,0.6,1.4,1.1,2.3,1.4c0.9,0.3,1.7,0.5,2.7,0.5c1,0,1.9-0.2,2.7-0.5c0.9-0.3,1.6-0.8,2.2-1.4
			c0.6-0.6,1.1-1.4,1.5-2.4c0.4-0.9,0.5-2,0.5-3.3c0-1.3-0.2-2.4-0.5-3.3c-0.4-0.9-0.9-1.7-1.5-2.4c-0.6-0.6-1.4-1.1-2.2-1.4
			c-0.9-0.3-1.8-0.5-2.7-0.5c-0.9,0-1.8,0.2-2.7,0.5c-0.9,0.3-1.6,0.8-2.3,1.4c-0.6,0.6-1.2,1.4-1.5,2.4
			C-3409,36.9-3409.2,38-3409.2,39.2z"/>
		<path id="XMLID_1017_" class="st6" d="M-3373.1,34.8c0-1.5-0.5-2.6-1.5-3.3c-1-0.7-2.3-1-3.8-1c-1.3,0-2.3,0.3-3.1,0.8
			c-0.8,0.5-1.3,1.3-1.3,2.3c0,0.6,0.1,1,0.4,1.4c0.3,0.4,0.7,0.7,1.2,0.9c0.5,0.3,1.1,0.5,1.8,0.7s1.4,0.4,2.1,0.6
			c1.2,0.4,2.3,0.7,3.3,1c1,0.3,1.9,0.7,2.7,1.2c0.8,0.5,1.4,1.1,1.8,1.8c0.4,0.8,0.7,1.7,0.7,2.9c0,1.2-0.2,2.3-0.7,3.1
			c-0.5,0.8-1.2,1.5-2,2c-0.9,0.5-1.9,0.9-3.1,1.1c-1.2,0.2-2.5,0.3-3.9,0.3c-1.4,0-2.6-0.2-3.8-0.5c-1.1-0.3-2.1-0.8-2.9-1.5
			c-0.8-0.7-1.4-1.5-1.9-2.6s-0.7-2.3-0.7-3.7h4.1c0,1.6,0.5,2.8,1.4,3.6c0.9,0.8,2.2,1.1,3.8,1.1c1.6,0,2.8-0.2,3.6-0.7
			c0.8-0.5,1.3-1.3,1.3-2.4c0-0.6-0.2-1.1-0.5-1.5c-0.3-0.4-0.8-0.8-1.5-1s-1.4-0.5-2.2-0.8c-0.8-0.2-1.7-0.5-2.7-0.7
			c-1-0.3-1.9-0.6-2.7-0.9c-0.9-0.3-1.6-0.7-2.3-1.1c-0.6-0.5-1.2-1-1.5-1.7c-0.4-0.7-0.6-1.5-0.6-2.6c0-2.2,0.8-3.9,2.3-5
			c1.6-1.1,3.7-1.6,6.4-1.6c3.3,0,5.7,0.7,7.2,2c1.4,1.4,2.2,3.2,2.2,5.5H-3373.1z"/>
		<path id="XMLID_1019_" class="st6" d="M-3364.4,27.9h5.1v5.4h0.2c0.6-1.9,1.7-3.3,3.3-4.3c1.6-1,3.5-1.5,5.6-1.5
			c1.2,0,2.4,0.2,3.6,0.5c1.2,0.3,2.3,0.9,3.2,1.8s1.7,2.1,2.3,3.6c0.6,1.5,0.9,3.5,0.9,5.8c0,2.4-0.3,4.3-0.9,5.8
			c-0.6,1.5-1.4,2.7-2.3,3.6s-2,1.5-3.2,1.8c-1.2,0.3-2.4,0.5-3.6,0.5c-2.1,0-4-0.5-5.6-1.5c-1.6-1-2.7-2.5-3.3-4.3h-0.2v14.4h-5.1
			V27.9z M-3359.3,41.3c0,0.8,0.2,1.5,0.5,2.2s0.8,1.3,1.4,1.9c0.6,0.6,1.3,1,2.2,1.3c0.9,0.3,1.8,0.5,2.9,0.5c1,0,1.9-0.1,2.7-0.4
			c0.8-0.2,1.6-0.7,2.2-1.3c0.6-0.6,1.1-1.4,1.5-2.4c0.4-1,0.5-2.3,0.5-3.9c0-1.6-0.2-2.9-0.5-3.9c-0.4-1-0.9-1.8-1.5-2.4
			c-0.6-0.6-1.4-1-2.2-1.3c-0.8-0.2-1.7-0.4-2.7-0.4c-1.1,0-2.1,0.2-2.9,0.5c-0.9,0.4-1.6,0.8-2.2,1.4c-0.6,0.6-1.1,1.2-1.4,2
			c-0.3,0.7-0.5,1.5-0.5,2.3V41.3z"/>
		<path id="XMLID_1022_" class="st6" d="M-3326,31.3c-1.8,0-3.2,0.3-4,1c-0.9,0.7-1.3,1.6-1.3,2.9h-4.7c0-2.8,0.8-4.7,2.5-5.9
			c1.6-1.2,4.1-1.8,7.4-1.8c1.7,0,3.2,0.1,4.6,0.4c1.3,0.3,2.5,0.8,3.4,1.5c0.9,0.7,1.7,1.7,2.2,2.8c0.5,1.2,0.8,2.7,0.8,4.5v13.7
			h-4.8v-5h-0.2c-0.6,1.9-1.6,3.3-3,4.1c-1.4,0.9-3.2,1.3-5.3,1.3c-1.2,0-2.3-0.2-3.4-0.5c-1-0.3-1.9-0.8-2.7-1.4
			c-0.8-0.6-1.4-1.4-1.8-2.3c-0.4-0.9-0.7-1.9-0.7-3.1c0-2.2,0.8-3.8,2.3-5c1.5-1.2,3.7-1.8,6.4-1.8h8.3v-0.7c0-1.8-0.5-3.1-1.5-3.9
			C-3322.5,31.6-3324,31.3-3326,31.3z M-3320,40h-7.3c-1.7,0-3,0.3-3.7,1c-0.7,0.6-1.1,1.5-1.1,2.7c0,1.2,0.4,2.1,1.2,2.8
			c0.8,0.7,2,1.1,3.5,1.1c1.1,0,2.1-0.2,3-0.5c0.9-0.3,1.7-0.8,2.4-1.3c0.7-0.5,1.2-1.2,1.6-1.9c0.4-0.7,0.6-1.5,0.6-2.3V40z"/>
		<path id="XMLID_1025_" class="st6" d="M-3309.9,50.4V27.9h5.1v5h0.2c0.5-1.9,1.3-3.3,2.2-4.1c0.9-0.9,2.1-1.3,3.6-1.3
			c0.8,0,1.6,0.2,2.6,0.5v5c-0.6-0.1-1.1-0.3-1.7-0.4c-0.6-0.1-1.1-0.2-1.7-0.2c-1,0-1.8,0.2-2.4,0.6c-0.7,0.4-1.2,0.9-1.6,1.5
			c-0.4,0.6-0.7,1.3-0.9,2.1c-0.2,0.8-0.3,1.6-0.3,2.5v11.4H-3309.9z"/>
		<path id="XMLID_1027_" class="st6" d="M-3287.3,50.4h-5.1V18.9h5.1v17.7l9.5-8.6h6.4l-9.6,8.9l10,13.6h-6.2l-7.7-10.7l-2.4,2.3
			V50.4z"/>
	</g>
	<g id="XMLID_4_" class="st4">
		<path id="XMLID_894_" class="st6" d="M-3482.5,50.4h-6l-2.3-6.2h-14.3l-2.2,6.2h-5.6l11.5-31.5h6.5L-3482.5,50.4z M-3503.7,40.1
			h11.4l-5.6-15.4h-0.4L-3503.7,40.1z"/>
		<path id="XMLID_897_" class="st6" d="M-3469.7,47.8c0.9,0,1.8-0.2,2.6-0.5s1.6-0.7,2.2-1.3c0.6-0.5,1.1-1.2,1.5-2
			c0.4-0.8,0.5-1.6,0.5-2.6V27.9h5v22.5h-5v-5h-0.4c-0.5,1.7-1.5,3.1-2.8,4c-1.4,0.9-3.1,1.4-5.2,1.4c-1.2,0-2.3-0.2-3.4-0.5
			c-1.1-0.3-2-0.8-2.8-1.6c-0.8-0.7-1.5-1.7-1.9-2.9c-0.5-1.2-0.7-2.7-0.7-4.5V27.9h5v13.5c0,2.3,0.5,3.9,1.4,4.9
			C-3472.7,47.3-3471.4,47.8-3469.7,47.8z"/>
		<path id="XMLID_899_" class="st6" d="M-3429.3,50.4h-5V45h-0.2c-0.6,1.9-1.7,3.3-3.3,4.3c-1.6,1-3.5,1.5-5.6,1.5
			c-1.2,0-2.4-0.2-3.6-0.5c-1.2-0.3-2.3-0.9-3.2-1.8c-1-0.9-1.7-2.1-2.3-3.6c-0.6-1.5-0.9-3.5-0.9-5.8c0-2.4,0.3-4.3,0.9-5.8
			c0.6-1.5,1.4-2.7,2.3-3.6c1-0.9,2-1.5,3.2-1.8c1.2-0.3,2.4-0.5,3.6-0.5c2.1,0,4,0.5,5.6,1.5c1.6,1,2.7,2.5,3.3,4.3h0.2V18.9h5
			V50.4z M-3441.4,47.2c1.1,0,2.1-0.2,2.9-0.5c0.9-0.4,1.6-0.8,2.3-1.4c0.6-0.6,1.1-1.2,1.4-2c0.3-0.7,0.5-1.5,0.5-2.3v-3.9
			c0-0.7-0.2-1.5-0.5-2.2c-0.3-0.7-0.8-1.3-1.4-1.9c-0.6-0.6-1.4-1-2.3-1.3c-0.9-0.3-1.9-0.5-2.9-0.5c-1,0-1.9,0.1-2.7,0.4
			c-0.8,0.2-1.6,0.7-2.2,1.3c-0.6,0.6-1.1,1.4-1.5,2.4c-0.4,1-0.5,2.3-0.5,3.9c0,1.6,0.2,2.9,0.5,3.9c0.4,1,0.9,1.8,1.5,2.4
			c0.6,0.6,1.4,1,2.2,1.3C-3443.3,47-3442.4,47.2-3441.4,47.2z"/>
		<path id="XMLID_902_" class="st6" d="M-3418.2,23.6h-5.6v-4.6h5.6V23.6z M-3418.4,27.9v22.5h-5.1V27.9H-3418.4z"/>
		<path id="XMLID_905_" class="st6" d="M-3413.7,39.2c0-1.9,0.3-3.5,0.9-5c0.6-1.5,1.4-2.7,2.5-3.7c1-1,2.3-1.7,3.7-2.3
			c1.4-0.5,2.9-0.8,4.4-0.8c1.6,0,3,0.2,4.4,0.7c1.4,0.5,2.6,1.2,3.7,2.2c1.1,1,1.9,2.2,2.5,3.6c0.6,1.5,0.9,3.2,0.9,5.1
			c0,1.9-0.3,3.5-0.9,5c-0.6,1.5-1.5,2.7-2.5,3.7c-1.1,1-2.3,1.7-3.7,2.3c-1.4,0.5-2.9,0.8-4.4,0.8c-1.6,0-3-0.3-4.4-0.8
			c-1.4-0.5-2.6-1.3-3.7-2.3c-1-1-1.9-2.2-2.5-3.7C-3413.4,42.8-3413.7,41.1-3413.7,39.2z M-3409.2,39.2c0,1.3,0.2,2.4,0.6,3.3
			c0.4,0.9,0.9,1.7,1.5,2.4c0.6,0.6,1.4,1.1,2.3,1.4c0.9,0.3,1.7,0.5,2.7,0.5c1,0,1.9-0.2,2.7-0.5c0.9-0.3,1.6-0.8,2.2-1.4
			c0.6-0.6,1.1-1.4,1.5-2.4c0.4-0.9,0.5-2,0.5-3.3c0-1.3-0.2-2.4-0.5-3.3c-0.4-0.9-0.9-1.7-1.5-2.4c-0.6-0.6-1.4-1.1-2.2-1.4
			c-0.9-0.3-1.8-0.5-2.7-0.5c-0.9,0-1.8,0.2-2.7,0.5c-0.9,0.3-1.6,0.8-2.3,1.4c-0.6,0.6-1.2,1.4-1.5,2.4
			C-3409,36.9-3409.2,38-3409.2,39.2z"/>
		<path id="XMLID_908_" class="st6" d="M-3373.1,34.8c0-1.5-0.5-2.6-1.5-3.3c-1-0.7-2.3-1-3.8-1c-1.3,0-2.3,0.3-3.1,0.8
			c-0.8,0.5-1.3,1.3-1.3,2.3c0,0.6,0.1,1,0.4,1.4c0.3,0.4,0.7,0.7,1.2,0.9c0.5,0.3,1.1,0.5,1.8,0.7s1.4,0.4,2.1,0.6
			c1.2,0.4,2.3,0.7,3.3,1c1,0.3,1.9,0.7,2.7,1.2c0.8,0.5,1.4,1.1,1.8,1.8c0.4,0.8,0.7,1.7,0.7,2.9c0,1.2-0.2,2.3-0.7,3.1
			c-0.5,0.8-1.2,1.5-2,2c-0.9,0.5-1.9,0.9-3.1,1.1c-1.2,0.2-2.5,0.3-3.9,0.3c-1.4,0-2.6-0.2-3.8-0.5c-1.1-0.3-2.1-0.8-2.9-1.5
			c-0.8-0.7-1.4-1.5-1.9-2.6s-0.7-2.3-0.7-3.7h4.1c0,1.6,0.5,2.8,1.4,3.6c0.9,0.8,2.2,1.1,3.8,1.1c1.6,0,2.8-0.2,3.6-0.7
			c0.8-0.5,1.3-1.3,1.3-2.4c0-0.6-0.2-1.1-0.5-1.5c-0.3-0.4-0.8-0.8-1.5-1s-1.4-0.5-2.2-0.8c-0.8-0.2-1.7-0.5-2.7-0.7
			c-1-0.3-1.9-0.6-2.7-0.9c-0.9-0.3-1.6-0.7-2.3-1.1c-0.6-0.5-1.2-1-1.5-1.7c-0.4-0.7-0.6-1.5-0.6-2.6c0-2.2,0.8-3.9,2.3-5
			c1.6-1.1,3.7-1.6,6.4-1.6c3.3,0,5.7,0.7,7.2,2c1.4,1.4,2.2,3.2,2.2,5.5H-3373.1z"/>
		<path id="XMLID_910_" class="st6" d="M-3364.4,27.9h5.1v5.4h0.2c0.6-1.9,1.7-3.3,3.3-4.3c1.6-1,3.5-1.5,5.6-1.5
			c1.2,0,2.4,0.2,3.6,0.5c1.2,0.3,2.3,0.9,3.2,1.8s1.7,2.1,2.3,3.6c0.6,1.5,0.9,3.5,0.9,5.8c0,2.4-0.3,4.3-0.9,5.8
			c-0.6,1.5-1.4,2.7-2.3,3.6s-2,1.5-3.2,1.8c-1.2,0.3-2.4,0.5-3.6,0.5c-2.1,0-4-0.5-5.6-1.5c-1.6-1-2.7-2.5-3.3-4.3h-0.2v14.4h-5.1
			V27.9z M-3359.3,41.3c0,0.8,0.2,1.5,0.5,2.2s0.8,1.3,1.4,1.9c0.6,0.6,1.3,1,2.2,1.3c0.9,0.3,1.8,0.5,2.9,0.5c1,0,1.9-0.1,2.7-0.4
			c0.8-0.2,1.6-0.7,2.2-1.3c0.6-0.6,1.1-1.4,1.5-2.4c0.4-1,0.5-2.3,0.5-3.9c0-1.6-0.2-2.9-0.5-3.9c-0.4-1-0.9-1.8-1.5-2.4
			c-0.6-0.6-1.4-1-2.2-1.3c-0.8-0.2-1.7-0.4-2.7-0.4c-1.1,0-2.1,0.2-2.9,0.5c-0.9,0.4-1.6,0.8-2.2,1.4c-0.6,0.6-1.1,1.2-1.4,2
			c-0.3,0.7-0.5,1.5-0.5,2.3V41.3z"/>
		<path id="XMLID_913_" class="st6" d="M-3326,31.3c-1.8,0-3.2,0.3-4,1c-0.9,0.7-1.3,1.6-1.3,2.9h-4.7c0-2.8,0.8-4.7,2.5-5.9
			c1.6-1.2,4.1-1.8,7.4-1.8c1.7,0,3.2,0.1,4.6,0.4c1.3,0.3,2.5,0.8,3.4,1.5c0.9,0.7,1.7,1.7,2.2,2.8c0.5,1.2,0.8,2.7,0.8,4.5v13.7
			h-4.8v-5h-0.2c-0.6,1.9-1.6,3.3-3,4.1c-1.4,0.9-3.2,1.3-5.3,1.3c-1.2,0-2.3-0.2-3.4-0.5c-1-0.3-1.9-0.8-2.7-1.4
			c-0.8-0.6-1.4-1.4-1.8-2.3c-0.4-0.9-0.7-1.9-0.7-3.1c0-2.2,0.8-3.8,2.3-5c1.5-1.2,3.7-1.8,6.4-1.8h8.3v-0.7c0-1.8-0.5-3.1-1.5-3.9
			C-3322.5,31.6-3324,31.3-3326,31.3z M-3320,40h-7.3c-1.7,0-3,0.3-3.7,1c-0.7,0.6-1.1,1.5-1.1,2.7c0,1.2,0.4,2.1,1.2,2.8
			c0.8,0.7,2,1.1,3.5,1.1c1.1,0,2.1-0.2,3-0.5c0.9-0.3,1.7-0.8,2.4-1.3c0.7-0.5,1.2-1.2,1.6-1.9c0.4-0.7,0.6-1.5,0.6-2.3V40z"/>
		<path id="XMLID_916_" class="st6" d="M-3309.9,50.4V27.9h5.1v5h0.2c0.5-1.9,1.3-3.3,2.2-4.1c0.9-0.9,2.1-1.3,3.6-1.3
			c0.8,0,1.6,0.2,2.6,0.5v5c-0.6-0.1-1.1-0.3-1.7-0.4c-0.6-0.1-1.1-0.2-1.7-0.2c-1,0-1.8,0.2-2.4,0.6c-0.7,0.4-1.2,0.9-1.6,1.5
			c-0.4,0.6-0.7,1.3-0.9,2.1c-0.2,0.8-0.3,1.6-0.3,2.5v11.4H-3309.9z"/>
		<path id="XMLID_918_" class="st6" d="M-3287.3,50.4h-5.1V18.9h5.1v17.7l9.5-8.6h6.4l-9.6,8.9l10,13.6h-6.2l-7.7-10.7l-2.4,2.3
			V50.4z"/>
	</g>
</g>
<g id="XMLID_1_" class="st2">
	<linearGradient id="XMLID_1029_" gradientUnits="userSpaceOnUse" x1="-4568.7939" y1="70.2854" x2="-4568.7939" y2="3.9184">
		<stop  offset="0" style="stop-color:#0000FF"/>
		<stop  offset="1" style="stop-color:#0370E6"/>
	</linearGradient>
	<path id="XMLID_16_" style="display:inline;fill:url(#XMLID_1029_);" d="M-4544,16.5l-19.3-11.2c-3.4-1.9-7.5-1.9-10.9,0
		l-19.3,11.2c-3.4,1.9-5.4,5.5-5.4,9.4v22.3c0,3.9,2.1,7.5,5.4,9.4l19.3,11.2c3.4,1.9,7.5,1.9,10.9,0l19.3-11.2
		c3.4-1.9,5.4-5.5,5.4-9.4V25.9C-4538.6,22.1-4540.7,18.5-4544,16.5z M-4581.6,41.2c0,1-0.8,1.8-1.8,1.8s-1.8-0.8-1.8-1.8V33
		c0-1,0.8-1.8,1.8-1.8s1.8,0.8,1.8,1.8V41.2z M-4574.3,46.6c0,1-0.8,1.8-1.8,1.8s-1.8-0.8-1.8-1.8V27.6c0-1,0.8-1.8,1.8-1.8
		s1.8,0.8,1.8,1.8V46.6z M-4567,52.4c0,1-0.8,1.8-1.8,1.8s-1.8-0.8-1.8-1.8V21.8c0-1,0.8-1.8,1.8-1.8s1.8,0.8,1.8,1.8V52.4z
		 M-4559.7,46.6c0,1-0.8,1.8-1.8,1.8s-1.8-0.8-1.8-1.8V27.6c0-1,0.8-1.8,1.8-1.8s1.8,0.8,1.8,1.8V46.6z M-4552.4,41.2
		c0,1-0.8,1.8-1.8,1.8s-1.8-0.8-1.8-1.8V33c0-1,0.8-1.8,1.8-1.8s1.8,0.8,1.8,1.8V41.2z"/>
	<g id="XMLID_1030_" class="st4">
		<path id="XMLID_1031_" d="M-4494.5,50.4h-6l-2.3-6.2h-14.3l-2.2,6.2h-5.6l11.5-31.5h6.5L-4494.5,50.4z M-4515.7,40.1h11.4
			l-5.6-15.4h-0.4L-4515.7,40.1z"/>
		<path id="XMLID_1034_" d="M-4481.7,47.8c0.9,0,1.8-0.2,2.6-0.5c0.8-0.3,1.6-0.7,2.2-1.3c0.6-0.5,1.1-1.2,1.5-2
			c0.4-0.8,0.5-1.6,0.5-2.6V27.9h5v22.5h-5v-5h-0.4c-0.5,1.7-1.5,3.1-2.8,4c-1.4,0.9-3.1,1.4-5.2,1.4c-1.2,0-2.3-0.2-3.4-0.5
			c-1.1-0.3-2-0.8-2.8-1.6c-0.8-0.7-1.5-1.7-1.9-2.9c-0.5-1.2-0.7-2.7-0.7-4.5V27.9h5v13.5c0,2.3,0.5,3.9,1.4,4.9
			C-4484.7,47.3-4483.4,47.8-4481.7,47.8z"/>
		<path id="XMLID_1036_" d="M-4441.3,50.4h-5V45h-0.2c-0.6,1.9-1.7,3.3-3.3,4.3c-1.6,1-3.5,1.5-5.6,1.5c-1.2,0-2.4-0.2-3.6-0.5
			c-1.2-0.3-2.3-0.9-3.2-1.8c-1-0.9-1.7-2.1-2.3-3.6c-0.6-1.5-0.9-3.5-0.9-5.8c0-2.4,0.3-4.3,0.9-5.8c0.6-1.5,1.4-2.7,2.3-3.6
			c1-0.9,2-1.5,3.2-1.8c1.2-0.3,2.4-0.5,3.6-0.5c2.1,0,4,0.5,5.6,1.5c1.6,1,2.7,2.5,3.3,4.3h0.2V18.9h5V50.4z M-4453.4,47.2
			c1.1,0,2.1-0.2,2.9-0.5c0.9-0.4,1.6-0.8,2.3-1.4c0.6-0.6,1.1-1.2,1.4-2c0.3-0.7,0.5-1.5,0.5-2.3v-3.9c0-0.7-0.2-1.5-0.5-2.2
			c-0.3-0.7-0.8-1.3-1.4-1.9c-0.6-0.6-1.4-1-2.3-1.3c-0.9-0.3-1.9-0.5-2.9-0.5c-1,0-1.9,0.1-2.7,0.4c-0.8,0.2-1.6,0.7-2.2,1.3
			c-0.6,0.6-1.1,1.4-1.5,2.4c-0.4,1-0.5,2.3-0.5,3.9s0.2,2.9,0.5,3.9c0.4,1,0.9,1.8,1.5,2.4c0.6,0.6,1.4,1,2.2,1.3
			C-4455.3,47-4454.4,47.2-4453.4,47.2z"/>
		<path id="XMLID_1039_" d="M-4430.2,23.6h-5.6v-4.6h5.6V23.6z M-4430.4,27.9v22.5h-5.1V27.9H-4430.4z"/>
		<path id="XMLID_1042_" d="M-4425.7,39.2c0-1.9,0.3-3.5,0.9-5c0.6-1.5,1.4-2.7,2.5-3.7c1-1,2.3-1.7,3.7-2.3
			c1.4-0.5,2.9-0.8,4.4-0.8c1.6,0,3,0.2,4.4,0.7c1.4,0.5,2.6,1.2,3.7,2.2c1.1,1,1.9,2.2,2.5,3.6c0.6,1.5,0.9,3.2,0.9,5.1
			c0,1.9-0.3,3.5-0.9,5c-0.6,1.5-1.5,2.7-2.5,3.7c-1.1,1-2.3,1.7-3.7,2.3c-1.4,0.5-2.9,0.8-4.4,0.8c-1.6,0-3-0.3-4.4-0.8
			c-1.4-0.5-2.6-1.3-3.7-2.3c-1-1-1.9-2.2-2.5-3.7C-4425.4,42.8-4425.7,41.1-4425.7,39.2z M-4421.2,39.2c0,1.3,0.2,2.4,0.6,3.3
			s0.9,1.7,1.5,2.4c0.6,0.6,1.4,1.1,2.3,1.4c0.9,0.3,1.7,0.5,2.7,0.5c1,0,1.9-0.2,2.7-0.5c0.9-0.3,1.6-0.8,2.2-1.4
			c0.6-0.6,1.1-1.4,1.5-2.4s0.5-2,0.5-3.3s-0.2-2.4-0.5-3.3c-0.4-0.9-0.9-1.7-1.5-2.4c-0.6-0.6-1.4-1.1-2.2-1.4
			c-0.9-0.3-1.8-0.5-2.7-0.5c-0.9,0-1.8,0.2-2.7,0.5c-0.9,0.3-1.6,0.8-2.3,1.4c-0.6,0.6-1.2,1.4-1.5,2.4
			C-4421,36.9-4421.2,38-4421.2,39.2z"/>
		<path id="XMLID_1045_" d="M-4385.1,34.8c0-1.5-0.5-2.6-1.5-3.3c-1-0.7-2.3-1-3.8-1c-1.3,0-2.3,0.3-3.1,0.8
			c-0.8,0.5-1.3,1.3-1.3,2.3c0,0.6,0.1,1,0.4,1.4c0.3,0.4,0.7,0.7,1.2,0.9c0.5,0.3,1.1,0.5,1.8,0.7s1.4,0.4,2.1,0.6
			c1.2,0.4,2.3,0.7,3.3,1c1,0.3,1.9,0.7,2.7,1.2c0.8,0.5,1.4,1.1,1.8,1.8c0.4,0.8,0.7,1.7,0.7,2.9c0,1.2-0.2,2.3-0.7,3.1
			c-0.5,0.8-1.2,1.5-2,2c-0.9,0.5-1.9,0.9-3.1,1.1c-1.2,0.2-2.5,0.3-3.9,0.3c-1.4,0-2.6-0.2-3.8-0.5c-1.1-0.3-2.1-0.8-2.9-1.5
			c-0.8-0.7-1.4-1.5-1.9-2.6s-0.7-2.3-0.7-3.7h4.1c0,1.6,0.5,2.8,1.4,3.6c0.9,0.8,2.2,1.1,3.8,1.1c1.6,0,2.8-0.2,3.6-0.7
			c0.8-0.5,1.3-1.3,1.3-2.4c0-0.6-0.2-1.1-0.5-1.5c-0.3-0.4-0.8-0.8-1.5-1s-1.4-0.5-2.2-0.8c-0.8-0.2-1.7-0.5-2.7-0.7
			c-1-0.3-1.9-0.6-2.7-0.9c-0.9-0.3-1.6-0.7-2.3-1.1c-0.6-0.5-1.2-1-1.5-1.7c-0.4-0.7-0.6-1.5-0.6-2.6c0-2.2,0.8-3.9,2.3-5
			c1.6-1.1,3.7-1.6,6.4-1.6c3.3,0,5.7,0.7,7.2,2c1.4,1.4,2.2,3.2,2.2,5.5H-4385.1z"/>
		<path id="XMLID_1047_" d="M-4376.4,27.9h5.1v5.4h0.2c0.6-1.9,1.7-3.3,3.3-4.3c1.6-1,3.5-1.5,5.6-1.5c1.2,0,2.4,0.2,3.6,0.5
			c1.2,0.3,2.3,0.9,3.2,1.8s1.7,2.1,2.3,3.6c0.6,1.5,0.9,3.5,0.9,5.8c0,2.4-0.3,4.3-0.9,5.8c-0.6,1.5-1.4,2.7-2.3,3.6
			c-1,0.9-2,1.5-3.2,1.8c-1.2,0.3-2.4,0.5-3.6,0.5c-2.1,0-4-0.5-5.6-1.5s-2.7-2.5-3.3-4.3h-0.2v14.4h-5.1V27.9z M-4371.3,41.3
			c0,0.8,0.2,1.5,0.5,2.2c0.3,0.7,0.8,1.3,1.4,1.9c0.6,0.6,1.3,1,2.2,1.3c0.9,0.3,1.8,0.5,2.9,0.5c1,0,1.9-0.1,2.7-0.4
			c0.8-0.2,1.6-0.7,2.2-1.3c0.6-0.6,1.1-1.4,1.5-2.4c0.4-1,0.5-2.3,0.5-3.9s-0.2-2.9-0.5-3.9c-0.4-1-0.9-1.8-1.5-2.4
			c-0.6-0.6-1.4-1-2.2-1.3c-0.8-0.2-1.7-0.4-2.7-0.4c-1.1,0-2.1,0.2-2.9,0.5c-0.9,0.4-1.6,0.8-2.2,1.4c-0.6,0.6-1.1,1.2-1.4,2
			c-0.3,0.7-0.5,1.5-0.5,2.3V41.3z"/>
		<path id="XMLID_1050_" d="M-4338,31.3c-1.8,0-3.2,0.3-4,1c-0.9,0.7-1.3,1.6-1.3,2.9h-4.7c0-2.8,0.8-4.7,2.5-5.9
			c1.6-1.2,4.1-1.8,7.4-1.8c1.7,0,3.2,0.1,4.6,0.4c1.3,0.3,2.5,0.8,3.4,1.5c0.9,0.7,1.7,1.7,2.2,2.8c0.5,1.2,0.8,2.7,0.8,4.5v13.7
			h-4.8v-5h-0.2c-0.6,1.9-1.6,3.3-3,4.1c-1.4,0.9-3.2,1.3-5.3,1.3c-1.2,0-2.3-0.2-3.4-0.5c-1-0.3-1.9-0.8-2.7-1.4
			c-0.8-0.6-1.4-1.4-1.8-2.3c-0.4-0.9-0.7-1.9-0.7-3.1c0-2.2,0.8-3.8,2.3-5c1.5-1.2,3.7-1.8,6.4-1.8h8.3v-0.7c0-1.8-0.5-3.1-1.5-3.9
			C-4334.5,31.6-4336,31.3-4338,31.3z M-4332,40h-7.3c-1.7,0-3,0.3-3.7,1c-0.7,0.6-1.1,1.5-1.1,2.7c0,1.2,0.4,2.1,1.2,2.8
			s2,1.1,3.5,1.1c1.1,0,2.1-0.2,3-0.5c0.9-0.3,1.7-0.8,2.4-1.3c0.7-0.5,1.2-1.2,1.6-1.9c0.4-0.7,0.6-1.5,0.6-2.3V40z"/>
		<path id="XMLID_1053_" d="M-4321.9,50.4V27.9h5.1v5h0.2c0.5-1.9,1.3-3.3,2.2-4.1c0.9-0.9,2.1-1.3,3.6-1.3c0.8,0,1.6,0.2,2.6,0.5v5
			c-0.6-0.1-1.1-0.3-1.7-0.4c-0.6-0.1-1.1-0.2-1.7-0.2c-1,0-1.8,0.2-2.4,0.6c-0.7,0.4-1.2,0.9-1.6,1.5c-0.4,0.6-0.7,1.3-0.9,2.1
			c-0.2,0.8-0.3,1.6-0.3,2.5v11.4H-4321.9z"/>
		<path id="XMLID_1055_" d="M-4299.3,50.4h-5.1V18.9h5.1v17.7l9.5-8.6h6.4l-9.6,8.9l10,13.6h-6.2l-7.7-10.7l-2.4,2.3V50.4z"/>
	</g>
	<g id="XMLID_8_" class="st4">
		<path id="XMLID_920_" d="M-4494.5,50.4h-6l-2.3-6.2h-14.3l-2.2,6.2h-5.6l11.5-31.5h6.5L-4494.5,50.4z M-4515.7,40.1h11.4
			l-5.6-15.4h-0.4L-4515.7,40.1z"/>
		<path id="XMLID_923_" d="M-4481.7,47.8c0.9,0,1.8-0.2,2.6-0.5c0.8-0.3,1.6-0.7,2.2-1.3c0.6-0.5,1.1-1.2,1.5-2
			c0.4-0.8,0.5-1.6,0.5-2.6V27.9h5v22.5h-5v-5h-0.4c-0.5,1.7-1.5,3.1-2.8,4c-1.4,0.9-3.1,1.4-5.2,1.4c-1.2,0-2.3-0.2-3.4-0.5
			c-1.1-0.3-2-0.8-2.8-1.6c-0.8-0.7-1.5-1.7-1.9-2.9c-0.5-1.2-0.7-2.7-0.7-4.5V27.9h5v13.5c0,2.3,0.5,3.9,1.4,4.9
			C-4484.7,47.3-4483.4,47.8-4481.7,47.8z"/>
		<path id="XMLID_925_" d="M-4441.3,50.4h-5V45h-0.2c-0.6,1.9-1.7,3.3-3.3,4.3c-1.6,1-3.5,1.5-5.6,1.5c-1.2,0-2.4-0.2-3.6-0.5
			c-1.2-0.3-2.3-0.9-3.2-1.8c-1-0.9-1.7-2.1-2.3-3.6c-0.6-1.5-0.9-3.5-0.9-5.8c0-2.4,0.3-4.3,0.9-5.8c0.6-1.5,1.4-2.7,2.3-3.6
			c1-0.9,2-1.5,3.2-1.8c1.2-0.3,2.4-0.5,3.6-0.5c2.1,0,4,0.5,5.6,1.5c1.6,1,2.7,2.5,3.3,4.3h0.2V18.9h5V50.4z M-4453.4,47.2
			c1.1,0,2.1-0.2,2.9-0.5c0.9-0.4,1.6-0.8,2.3-1.4c0.6-0.6,1.1-1.2,1.4-2c0.3-0.7,0.5-1.5,0.5-2.3v-3.9c0-0.7-0.2-1.5-0.5-2.2
			c-0.3-0.7-0.8-1.3-1.4-1.9c-0.6-0.6-1.4-1-2.3-1.3c-0.9-0.3-1.9-0.5-2.9-0.5c-1,0-1.9,0.1-2.7,0.4c-0.8,0.2-1.6,0.7-2.2,1.3
			c-0.6,0.6-1.1,1.4-1.5,2.4c-0.4,1-0.5,2.3-0.5,3.9s0.2,2.9,0.5,3.9c0.4,1,0.9,1.8,1.5,2.4c0.6,0.6,1.4,1,2.2,1.3
			C-4455.3,47-4454.4,47.2-4453.4,47.2z"/>
		<path id="XMLID_928_" d="M-4430.2,23.6h-5.6v-4.6h5.6V23.6z M-4430.4,27.9v22.5h-5.1V27.9H-4430.4z"/>
		<path id="XMLID_931_" d="M-4425.7,39.2c0-1.9,0.3-3.5,0.9-5c0.6-1.5,1.4-2.7,2.5-3.7c1-1,2.3-1.7,3.7-2.3c1.4-0.5,2.9-0.8,4.4-0.8
			c1.6,0,3,0.2,4.4,0.7c1.4,0.5,2.6,1.2,3.7,2.2c1.1,1,1.9,2.2,2.5,3.6c0.6,1.5,0.9,3.2,0.9,5.1c0,1.9-0.3,3.5-0.9,5
			c-0.6,1.5-1.5,2.7-2.5,3.7c-1.1,1-2.3,1.7-3.7,2.3c-1.4,0.5-2.9,0.8-4.4,0.8c-1.6,0-3-0.3-4.4-0.8c-1.4-0.5-2.6-1.3-3.7-2.3
			c-1-1-1.9-2.2-2.5-3.7C-4425.4,42.8-4425.7,41.1-4425.7,39.2z M-4421.2,39.2c0,1.3,0.2,2.4,0.6,3.3s0.9,1.7,1.5,2.4
			c0.6,0.6,1.4,1.1,2.3,1.4c0.9,0.3,1.7,0.5,2.7,0.5c1,0,1.9-0.2,2.7-0.5c0.9-0.3,1.6-0.8,2.2-1.4c0.6-0.6,1.1-1.4,1.5-2.4
			s0.5-2,0.5-3.3s-0.2-2.4-0.5-3.3c-0.4-0.9-0.9-1.7-1.5-2.4c-0.6-0.6-1.4-1.1-2.2-1.4c-0.9-0.3-1.8-0.5-2.7-0.5
			c-0.9,0-1.8,0.2-2.7,0.5c-0.9,0.3-1.6,0.8-2.3,1.4c-0.6,0.6-1.2,1.4-1.5,2.4C-4421,36.9-4421.2,38-4421.2,39.2z"/>
		<path id="XMLID_934_" d="M-4385.1,34.8c0-1.5-0.5-2.6-1.5-3.3c-1-0.7-2.3-1-3.8-1c-1.3,0-2.3,0.3-3.1,0.8
			c-0.8,0.5-1.3,1.3-1.3,2.3c0,0.6,0.1,1,0.4,1.4c0.3,0.4,0.7,0.7,1.2,0.9c0.5,0.3,1.1,0.5,1.8,0.7s1.4,0.4,2.1,0.6
			c1.2,0.4,2.3,0.7,3.3,1c1,0.3,1.9,0.7,2.7,1.2c0.8,0.5,1.4,1.1,1.8,1.8c0.4,0.8,0.7,1.7,0.7,2.9c0,1.2-0.2,2.3-0.7,3.1
			c-0.5,0.8-1.2,1.5-2,2c-0.9,0.5-1.9,0.9-3.1,1.1c-1.2,0.2-2.5,0.3-3.9,0.3c-1.4,0-2.6-0.2-3.8-0.5c-1.1-0.3-2.1-0.8-2.9-1.5
			c-0.8-0.7-1.4-1.5-1.9-2.6s-0.7-2.3-0.7-3.7h4.1c0,1.6,0.5,2.8,1.4,3.6c0.9,0.8,2.2,1.1,3.8,1.1c1.6,0,2.8-0.2,3.6-0.7
			c0.8-0.5,1.3-1.3,1.3-2.4c0-0.6-0.2-1.1-0.5-1.5c-0.3-0.4-0.8-0.8-1.5-1s-1.4-0.5-2.2-0.8c-0.8-0.2-1.7-0.5-2.7-0.7
			c-1-0.3-1.9-0.6-2.7-0.9c-0.9-0.3-1.6-0.7-2.3-1.1c-0.6-0.5-1.2-1-1.5-1.7c-0.4-0.7-0.6-1.5-0.6-2.6c0-2.2,0.8-3.9,2.3-5
			c1.6-1.1,3.7-1.6,6.4-1.6c3.3,0,5.7,0.7,7.2,2c1.4,1.4,2.2,3.2,2.2,5.5H-4385.1z"/>
		<path id="XMLID_936_" d="M-4376.4,27.9h5.1v5.4h0.2c0.6-1.9,1.7-3.3,3.3-4.3c1.6-1,3.5-1.5,5.6-1.5c1.2,0,2.4,0.2,3.6,0.5
			c1.2,0.3,2.3,0.9,3.2,1.8s1.7,2.1,2.3,3.6c0.6,1.5,0.9,3.5,0.9,5.8c0,2.4-0.3,4.3-0.9,5.8c-0.6,1.5-1.4,2.7-2.3,3.6
			c-1,0.9-2,1.5-3.2,1.8c-1.2,0.3-2.4,0.5-3.6,0.5c-2.1,0-4-0.5-5.6-1.5s-2.7-2.5-3.3-4.3h-0.2v14.4h-5.1V27.9z M-4371.3,41.3
			c0,0.8,0.2,1.5,0.5,2.2c0.3,0.7,0.8,1.3,1.4,1.9c0.6,0.6,1.3,1,2.2,1.3c0.9,0.3,1.8,0.5,2.9,0.5c1,0,1.9-0.1,2.7-0.4
			c0.8-0.2,1.6-0.7,2.2-1.3c0.6-0.6,1.1-1.4,1.5-2.4c0.4-1,0.5-2.3,0.5-3.9s-0.2-2.9-0.5-3.9c-0.4-1-0.9-1.8-1.5-2.4
			c-0.6-0.6-1.4-1-2.2-1.3c-0.8-0.2-1.7-0.4-2.7-0.4c-1.1,0-2.1,0.2-2.9,0.5c-0.9,0.4-1.6,0.8-2.2,1.4c-0.6,0.6-1.1,1.2-1.4,2
			c-0.3,0.7-0.5,1.5-0.5,2.3V41.3z"/>
		<path id="XMLID_939_" d="M-4338,31.3c-1.8,0-3.2,0.3-4,1c-0.9,0.7-1.3,1.6-1.3,2.9h-4.7c0-2.8,0.8-4.7,2.5-5.9
			c1.6-1.2,4.1-1.8,7.4-1.8c1.7,0,3.2,0.1,4.6,0.4c1.3,0.3,2.5,0.8,3.4,1.5c0.9,0.7,1.7,1.7,2.2,2.8c0.5,1.2,0.8,2.7,0.8,4.5v13.7
			h-4.8v-5h-0.2c-0.6,1.9-1.6,3.3-3,4.1c-1.4,0.9-3.2,1.3-5.3,1.3c-1.2,0-2.3-0.2-3.4-0.5c-1-0.3-1.9-0.8-2.7-1.4
			c-0.8-0.6-1.4-1.4-1.8-2.3c-0.4-0.9-0.7-1.9-0.7-3.1c0-2.2,0.8-3.8,2.3-5c1.5-1.2,3.7-1.8,6.4-1.8h8.3v-0.7c0-1.8-0.5-3.1-1.5-3.9
			C-4334.5,31.6-4336,31.3-4338,31.3z M-4332,40h-7.3c-1.7,0-3,0.3-3.7,1c-0.7,0.6-1.1,1.5-1.1,2.7c0,1.2,0.4,2.1,1.2,2.8
			s2,1.1,3.5,1.1c1.1,0,2.1-0.2,3-0.5c0.9-0.3,1.7-0.8,2.4-1.3c0.7-0.5,1.2-1.2,1.6-1.9c0.4-0.7,0.6-1.5,0.6-2.3V40z"/>
		<path id="XMLID_942_" d="M-4321.9,50.4V27.9h5.1v5h0.2c0.5-1.9,1.3-3.3,2.2-4.1c0.9-0.9,2.1-1.3,3.6-1.3c0.8,0,1.6,0.2,2.6,0.5v5
			c-0.6-0.1-1.1-0.3-1.7-0.4c-0.6-0.1-1.1-0.2-1.7-0.2c-1,0-1.8,0.2-2.4,0.6c-0.7,0.4-1.2,0.9-1.6,1.5c-0.4,0.6-0.7,1.3-0.9,2.1
			c-0.2,0.8-0.3,1.6-0.3,2.5v11.4H-4321.9z"/>
		<path id="XMLID_944_" d="M-4299.3,50.4h-5.1V18.9h5.1v17.7l9.5-8.6h6.4l-9.6,8.9l10,13.6h-6.2l-7.7-10.7l-2.4,2.3V50.4z"/>
	</g>
</g>
</svg>
