<?xml version="1.0" encoding="utf-8"?>
<!-- Generator: Adobe Illustrator 19.0.0, SVG Export Plug-In . SVG Version: 6.00 Build 0)  -->
<svg version="1.1" id="Layer_1" xmlns="http://www.w3.org/2000/svg" xmlns:xlink="http://www.w3.org/1999/xlink" x="0px" y="0px"
	 viewBox="0 0 63.6 69" style="enable-background:new 0 0 63.6 69;" xml:space="preserve">
<style type="text/css">
	.st0{fill:#FFFFFF;}
	.st1{display:none;fill:url(#XMLID_985_);}
	.st2{display:none;}
	.st3{display:inline;fill:#FFFFFF;}
	.st4{display:inline;}
	.st5{display:inline;fill:url(#XMLID_986_);}
	.st6{display:inline;fill:url(#XMLID_987_);}
</style>
<path id="XMLID_100_" class="st0" d="M56.6,13.9L37.2,2.8c-3.4-1.9-7.5-1.9-10.9,0L7.1,13.9c-3.4,1.9-5.4,5.5-5.4,9.4v22.3
	c0,3.9,2.1,7.5,5.4,9.4l19.3,11.2c3.4,1.9,7.5,1.9,10.9,0l19.3-11.2c3.4-1.9,5.4-5.5,5.4-9.4V23.3C62,19.5,59.9,15.9,56.6,13.9z
	 M19,38.6c0,1-0.8,1.8-1.8,1.8s-1.8-0.8-1.8-1.8v-8.1c0-1,0.8-1.8,1.8-1.8s1.8,0.8,1.8,1.8V38.6z M26.3,44c0,1-0.8,1.8-1.8,1.8
	c-1,0-1.8-0.8-1.8-1.8V25c0-1,0.8-1.8,1.8-1.8c1,0,1.8,0.8,1.8,1.8V44z M33.6,49.8c0,1-0.8,1.8-1.8,1.8S30,50.8,30,49.8V19.2
	c0-1,0.8-1.8,1.8-1.8s1.8,0.8,1.8,1.8V49.8z M40.9,44c0,1-0.8,1.8-1.8,1.8c-1,0-1.8-0.8-1.8-1.8V25c0-1,0.8-1.8,1.8-1.8
	c1,0,1.8,0.8,1.8,1.8V44z M48.2,38.6c0,1-0.8,1.8-1.8,1.8c-1,0-1.8-0.8-1.8-1.8v-8.1c0-1,0.8-1.8,1.8-1.8c1,0,1.8,0.8,1.8,1.8V38.6z
	"/>
<linearGradient id="XMLID_985_" gradientUnits="userSpaceOnUse" x1="-996.1813" y1="66.1866" x2="-996.1813" y2="-0.1804">
	<stop  offset="0" style="stop-color:#0000FF"/>
	<stop  offset="1" style="stop-color:#0370E6"/>
</linearGradient>
<path id="XMLID_101_" class="st1" d="M-971.4,12.4l-19.3-11.2c-3.4-1.9-7.5-1.9-10.9,0l-19.3,11.2c-3.4,1.9-5.4,5.5-5.4,9.4v22.3
	c0,3.9,2.1,7.5,5.4,9.4l19.3,11.2c3.4,1.9,7.5,1.9,10.9,0l19.3-11.2c3.4-1.9,5.4-5.5,5.4-9.4V21.8C-966,18-968.1,14.4-971.4,12.4z
	 M-1009,37.1c0,1-0.8,1.8-1.8,1.8s-1.8-0.8-1.8-1.8v-8.1c0-1,0.8-1.8,1.8-1.8s1.8,0.8,1.8,1.8V37.1z M-1001.7,42.5
	c0,1-0.8,1.8-1.8,1.8s-1.8-0.8-1.8-1.8V23.5c0-1,0.8-1.8,1.8-1.8s1.8,0.8,1.8,1.8V42.5z M-994.4,48.3c0,1-0.8,1.8-1.8,1.8
	s-1.8-0.8-1.8-1.8V17.7c0-1,0.8-1.8,1.8-1.8s1.8,0.8,1.8,1.8V48.3z M-987.1,42.5c0,1-0.8,1.8-1.8,1.8c-1,0-1.8-0.8-1.8-1.8V23.5
	c0-1,0.8-1.8,1.8-1.8c1,0,1.8,0.8,1.8,1.8V42.5z M-979.8,37.1c0,1-0.8,1.8-1.8,1.8s-1.8-0.8-1.8-1.8v-8.1c0-1,0.8-1.8,1.8-1.8
	s1.8,0.8,1.8,1.8V37.1z"/>
<g id="XMLID_986_" class="st2">
	<path id="XMLID_987_" class="st3" d="M-2319.1,47.8h-6l-2.3-6.2h-14.3l-2.2,6.2h-5.6l11.5-31.5h6.5L-2319.1,47.8z M-2340.2,37.5
		h11.4l-5.6-15.4h-0.4L-2340.2,37.5z"/>
	<path id="XMLID_990_" class="st3" d="M-2306.3,45.2c0.9,0,1.8-0.2,2.6-0.5s1.6-0.7,2.2-1.3c0.6-0.5,1.1-1.2,1.5-2
		c0.4-0.8,0.5-1.6,0.5-2.6V25.3h5v22.5h-5v-5h-0.4c-0.5,1.7-1.5,3.1-2.8,4c-1.4,0.9-3.1,1.4-5.2,1.4c-1.2,0-2.3-0.2-3.4-0.5
		c-1.1-0.3-2-0.8-2.8-1.6c-0.8-0.7-1.5-1.7-1.9-2.9c-0.5-1.2-0.7-2.7-0.7-4.5V25.3h5v13.5c0,2.3,0.5,3.9,1.4,4.9
		C-2309.3,44.7-2308,45.2-2306.3,45.2z"/>
	<path id="XMLID_992_" class="st3" d="M-2265.9,47.8h-5v-5.4h-0.2c-0.6,1.9-1.7,3.3-3.3,4.3c-1.6,1-3.5,1.5-5.6,1.5
		c-1.2,0-2.4-0.2-3.6-0.5c-1.2-0.3-2.3-0.9-3.2-1.8c-1-0.9-1.7-2.1-2.3-3.6c-0.6-1.5-0.9-3.5-0.9-5.8c0-2.4,0.3-4.3,0.9-5.8
		c0.6-1.5,1.4-2.7,2.3-3.6c1-0.9,2-1.5,3.2-1.8c1.2-0.3,2.4-0.5,3.6-0.5c2.1,0,4,0.5,5.6,1.5c1.6,1,2.7,2.5,3.3,4.3h0.2V16.3h5V47.8
		z M-2278,44.6c1.1,0,2.1-0.2,2.9-0.5c0.9-0.4,1.6-0.8,2.3-1.4c0.6-0.6,1.1-1.2,1.4-2c0.3-0.7,0.5-1.5,0.5-2.3v-3.9
		c0-0.7-0.2-1.5-0.5-2.2c-0.3-0.7-0.8-1.3-1.4-1.9c-0.6-0.6-1.4-1-2.3-1.3c-0.9-0.3-1.9-0.5-2.9-0.5c-1,0-1.9,0.1-2.7,0.4
		c-0.8,0.2-1.6,0.7-2.2,1.3c-0.6,0.6-1.1,1.4-1.5,2.4c-0.4,1-0.5,2.3-0.5,3.9c0,1.6,0.2,2.9,0.5,3.9c0.4,1,0.9,1.8,1.5,2.4
		c0.6,0.6,1.4,1,2.2,1.3C-2279.9,44.4-2279,44.6-2278,44.6z"/>
	<path id="XMLID_995_" class="st3" d="M-2254.7,21h-5.6v-4.6h5.6V21z M-2255,25.3v22.5h-5.1V25.3H-2255z"/>
	<path id="XMLID_998_" class="st3" d="M-2250.2,36.6c0-1.9,0.3-3.5,0.9-5c0.6-1.5,1.4-2.7,2.5-3.7c1-1,2.3-1.7,3.7-2.3
		c1.4-0.5,2.9-0.8,4.4-0.8c1.6,0,3,0.2,4.4,0.7c1.4,0.5,2.6,1.2,3.7,2.2c1.1,1,1.9,2.2,2.5,3.6c0.6,1.5,0.9,3.2,0.9,5.1
		c0,1.9-0.3,3.5-0.9,5c-0.6,1.5-1.5,2.7-2.5,3.7c-1.1,1-2.3,1.7-3.7,2.3c-1.4,0.5-2.9,0.8-4.4,0.8c-1.6,0-3-0.3-4.4-0.8
		c-1.4-0.5-2.6-1.3-3.7-2.3c-1-1-1.9-2.2-2.5-3.7C-2249.9,40.2-2250.2,38.5-2250.2,36.6z M-2245.7,36.6c0,1.3,0.2,2.4,0.6,3.3
		c0.4,0.9,0.9,1.7,1.5,2.4c0.6,0.6,1.4,1.1,2.3,1.4c0.9,0.3,1.7,0.5,2.7,0.5c1,0,1.9-0.2,2.7-0.5c0.9-0.3,1.6-0.8,2.2-1.4
		c0.6-0.6,1.1-1.4,1.5-2.4c0.4-0.9,0.5-2,0.5-3.3c0-1.3-0.2-2.4-0.5-3.3c-0.4-0.9-0.9-1.7-1.5-2.4c-0.6-0.6-1.4-1.1-2.2-1.4
		c-0.9-0.3-1.8-0.5-2.7-0.5c-0.9,0-1.8,0.2-2.7,0.5c-0.9,0.3-1.6,0.8-2.3,1.4c-0.6,0.6-1.2,1.4-1.5,2.4
		C-2245.6,34.3-2245.7,35.4-2245.7,36.6z"/>
	<path id="XMLID_1001_" class="st3" d="M-2209.7,32.2c0-1.5-0.5-2.6-1.5-3.3c-1-0.7-2.3-1-3.8-1c-1.3,0-2.3,0.3-3.1,0.8
		c-0.8,0.5-1.3,1.3-1.3,2.3c0,0.6,0.1,1,0.4,1.4c0.3,0.4,0.7,0.7,1.2,0.9c0.5,0.3,1.1,0.5,1.8,0.7s1.4,0.4,2.1,0.6
		c1.2,0.4,2.3,0.7,3.3,1c1,0.3,1.9,0.7,2.7,1.2c0.8,0.5,1.4,1.1,1.8,1.8c0.4,0.8,0.7,1.7,0.7,2.9c0,1.2-0.2,2.3-0.7,3.1
		c-0.5,0.8-1.2,1.5-2,2c-0.9,0.5-1.9,0.9-3.1,1.1c-1.2,0.2-2.5,0.3-3.9,0.3c-1.4,0-2.6-0.2-3.8-0.5c-1.1-0.3-2.1-0.8-2.9-1.5
		c-0.8-0.7-1.4-1.5-1.9-2.6s-0.7-2.3-0.7-3.7h4.1c0,1.6,0.5,2.8,1.4,3.6c0.9,0.8,2.2,1.1,3.8,1.1c1.6,0,2.8-0.2,3.6-0.7
		c0.8-0.5,1.3-1.3,1.3-2.4c0-0.6-0.2-1.1-0.5-1.5c-0.3-0.4-0.8-0.8-1.5-1s-1.4-0.5-2.2-0.8c-0.8-0.2-1.7-0.5-2.7-0.7
		c-1-0.3-1.9-0.6-2.7-0.9c-0.9-0.3-1.6-0.7-2.3-1.1c-0.6-0.5-1.2-1-1.5-1.7c-0.4-0.7-0.6-1.5-0.6-2.6c0-2.3,0.8-3.9,2.3-5
		c1.6-1.1,3.7-1.6,6.4-1.6c3.3,0,5.7,0.7,7.2,2c1.4,1.4,2.2,3.2,2.2,5.5H-2209.7z"/>
	<path id="XMLID_1003_" class="st3" d="M-2201,25.3h5.1v5.4h0.2c0.6-1.9,1.7-3.3,3.3-4.3c1.6-1,3.5-1.5,5.6-1.5
		c1.2,0,2.4,0.2,3.6,0.5c1.2,0.3,2.3,0.9,3.2,1.8s1.7,2.1,2.3,3.6c0.6,1.5,0.9,3.5,0.9,5.8c0,2.4-0.3,4.3-0.9,5.8
		c-0.6,1.5-1.4,2.7-2.3,3.6s-2,1.5-3.2,1.8c-1.2,0.3-2.4,0.5-3.6,0.5c-2.1,0-4-0.5-5.6-1.5c-1.6-1-2.7-2.5-3.3-4.3h-0.2v14.4h-5.1
		V25.3z M-2195.9,38.7c0,0.8,0.2,1.5,0.5,2.2s0.8,1.3,1.4,1.9c0.6,0.6,1.3,1,2.2,1.3c0.9,0.3,1.8,0.5,2.9,0.5c1,0,1.9-0.1,2.7-0.4
		c0.8-0.2,1.6-0.7,2.2-1.3c0.6-0.6,1.1-1.4,1.5-2.4c0.4-1,0.5-2.3,0.5-3.9c0-1.6-0.2-2.9-0.5-3.9c-0.4-1-0.9-1.8-1.5-2.4
		c-0.6-0.6-1.4-1-2.2-1.3c-0.8-0.2-1.7-0.4-2.7-0.4c-1.1,0-2.1,0.2-2.9,0.5c-0.9,0.4-1.6,0.8-2.2,1.4c-0.6,0.6-1.1,1.2-1.4,2
		c-0.3,0.7-0.5,1.5-0.5,2.3V38.7z"/>
	<path id="XMLID_1006_" class="st3" d="M-2162.6,28.7c-1.8,0-3.2,0.3-4,1c-0.9,0.7-1.3,1.6-1.3,2.9h-4.7c0-2.8,0.8-4.7,2.5-5.9
		c1.6-1.2,4.1-1.8,7.4-1.8c1.7,0,3.2,0.1,4.6,0.4c1.3,0.3,2.5,0.8,3.4,1.5c0.9,0.7,1.7,1.7,2.2,2.8c0.5,1.2,0.8,2.7,0.8,4.5v13.7
		h-4.8v-5h-0.2c-0.6,1.9-1.6,3.3-3,4.1c-1.4,0.9-3.2,1.3-5.3,1.3c-1.2,0-2.3-0.2-3.4-0.5c-1-0.3-1.9-0.8-2.7-1.4
		c-0.8-0.6-1.4-1.4-1.8-2.3c-0.4-0.9-0.7-1.9-0.7-3.1c0-2.2,0.8-3.8,2.3-5c1.5-1.2,3.7-1.8,6.4-1.8h8.3v-0.7c0-1.8-0.5-3.1-1.5-3.9
		C-2159,29.1-2160.5,28.7-2162.6,28.7z M-2156.6,37.5h-7.3c-1.7,0-3,0.3-3.7,1c-0.7,0.6-1.1,1.5-1.1,2.7c0,1.2,0.4,2.1,1.2,2.8
		c0.8,0.7,2,1.1,3.5,1.1c1.1,0,2.1-0.2,3-0.5c0.9-0.3,1.7-0.8,2.4-1.3c0.7-0.5,1.2-1.2,1.6-1.9c0.4-0.7,0.6-1.5,0.6-2.3V37.5z"/>
	<path id="XMLID_1009_" class="st3" d="M-2146.5,47.8V25.3h5.1v5h0.2c0.5-1.9,1.3-3.3,2.2-4.1c0.9-0.9,2.1-1.3,3.6-1.3
		c0.8,0,1.6,0.2,2.6,0.5v5c-0.6-0.1-1.1-0.3-1.7-0.4c-0.6-0.1-1.1-0.2-1.7-0.2c-1,0-1.8,0.2-2.4,0.6c-0.7,0.4-1.2,0.9-1.6,1.5
		c-0.4,0.6-0.7,1.3-0.9,2.1c-0.2,0.8-0.3,1.6-0.3,2.5v11.4H-2146.5z"/>
	<path id="XMLID_1011_" class="st3" d="M-2123.8,47.8h-5.1V16.3h5.1V34l9.5-8.6h6.4l-9.6,8.9l10,13.6h-6.2l-7.7-10.7l-2.4,2.3V47.8z
		"/>
</g>
<g id="XMLID_60_" class="st2">
	<path id="XMLID_881_" class="st3" d="M-2319.1,47.8h-6l-2.3-6.2h-14.3l-2.2,6.2h-5.6l11.5-31.5h6.5L-2319.1,47.8z M-2340.2,37.5
		h11.4l-5.6-15.4h-0.4L-2340.2,37.5z"/>
	<path id="XMLID_884_" class="st3" d="M-2306.3,45.2c0.9,0,1.8-0.2,2.6-0.5s1.6-0.7,2.2-1.3c0.6-0.5,1.1-1.2,1.5-2
		c0.4-0.8,0.5-1.6,0.5-2.6V25.3h5v22.5h-5v-5h-0.4c-0.5,1.7-1.5,3.1-2.8,4c-1.4,0.9-3.1,1.4-5.2,1.4c-1.2,0-2.3-0.2-3.4-0.5
		c-1.1-0.3-2-0.8-2.8-1.6c-0.8-0.7-1.5-1.7-1.9-2.9c-0.5-1.2-0.7-2.7-0.7-4.5V25.3h5v13.5c0,2.3,0.5,3.9,1.4,4.9
		C-2309.3,44.7-2308,45.2-2306.3,45.2z"/>
	<path id="XMLID_886_" class="st3" d="M-2265.9,47.8h-5v-5.4h-0.2c-0.6,1.9-1.7,3.3-3.3,4.3c-1.6,1-3.5,1.5-5.6,1.5
		c-1.2,0-2.4-0.2-3.6-0.5c-1.2-0.3-2.3-0.9-3.2-1.8c-1-0.9-1.7-2.1-2.3-3.6c-0.6-1.5-0.9-3.5-0.9-5.8c0-2.4,0.3-4.3,0.9-5.8
		c0.6-1.5,1.4-2.7,2.3-3.6c1-0.9,2-1.5,3.2-1.8c1.2-0.3,2.4-0.5,3.6-0.5c2.1,0,4,0.5,5.6,1.5c1.6,1,2.7,2.5,3.3,4.3h0.2V16.3h5V47.8
		z M-2278,44.6c1.1,0,2.1-0.2,2.9-0.5c0.9-0.4,1.6-0.8,2.3-1.4c0.6-0.6,1.1-1.2,1.4-2c0.3-0.7,0.5-1.5,0.5-2.3v-3.9
		c0-0.7-0.2-1.5-0.5-2.2c-0.3-0.7-0.8-1.3-1.4-1.9c-0.6-0.6-1.4-1-2.3-1.3c-0.9-0.3-1.9-0.5-2.9-0.5c-1,0-1.9,0.1-2.7,0.4
		c-0.8,0.2-1.6,0.7-2.2,1.3c-0.6,0.6-1.1,1.4-1.5,2.4c-0.4,1-0.5,2.3-0.5,3.9c0,1.6,0.2,2.9,0.5,3.9c0.4,1,0.9,1.8,1.5,2.4
		c0.6,0.6,1.4,1,2.2,1.3C-2279.9,44.4-2279,44.6-2278,44.6z"/>
	<path id="XMLID_889_" class="st3" d="M-2254.7,21h-5.6v-4.6h5.6V21z M-2255,25.3v22.5h-5.1V25.3H-2255z"/>
	<path id="XMLID_892_" class="st3" d="M-2250.2,36.6c0-1.9,0.3-3.5,0.9-5c0.6-1.5,1.4-2.7,2.5-3.7c1-1,2.3-1.7,3.7-2.3
		c1.4-0.5,2.9-0.8,4.4-0.8c1.6,0,3,0.2,4.4,0.7c1.4,0.5,2.6,1.2,3.7,2.2c1.1,1,1.9,2.2,2.5,3.6c0.6,1.5,0.9,3.2,0.9,5.1
		c0,1.9-0.3,3.5-0.9,5c-0.6,1.5-1.5,2.7-2.5,3.7c-1.1,1-2.3,1.7-3.7,2.3c-1.4,0.5-2.9,0.8-4.4,0.8c-1.6,0-3-0.3-4.4-0.8
		c-1.4-0.5-2.6-1.3-3.7-2.3c-1-1-1.9-2.2-2.5-3.7C-2249.9,40.2-2250.2,38.5-2250.2,36.6z M-2245.7,36.6c0,1.3,0.2,2.4,0.6,3.3
		c0.4,0.9,0.9,1.7,1.5,2.4c0.6,0.6,1.4,1.1,2.3,1.4c0.9,0.3,1.7,0.5,2.7,0.5c1,0,1.9-0.2,2.7-0.5c0.9-0.3,1.6-0.8,2.2-1.4
		c0.6-0.6,1.1-1.4,1.5-2.4c0.4-0.9,0.5-2,0.5-3.3c0-1.3-0.2-2.4-0.5-3.3c-0.4-0.9-0.9-1.7-1.5-2.4c-0.6-0.6-1.4-1.1-2.2-1.4
		c-0.9-0.3-1.8-0.5-2.7-0.5c-0.9,0-1.8,0.2-2.7,0.5c-0.9,0.3-1.6,0.8-2.3,1.4c-0.6,0.6-1.2,1.4-1.5,2.4
		C-2245.6,34.3-2245.7,35.4-2245.7,36.6z"/>
	<path id="XMLID_895_" class="st3" d="M-2209.7,32.2c0-1.5-0.5-2.6-1.5-3.3c-1-0.7-2.3-1-3.8-1c-1.3,0-2.3,0.3-3.1,0.8
		c-0.8,0.5-1.3,1.3-1.3,2.3c0,0.6,0.1,1,0.4,1.4c0.3,0.4,0.7,0.7,1.2,0.9c0.5,0.3,1.1,0.5,1.8,0.7s1.4,0.4,2.1,0.6
		c1.2,0.4,2.3,0.7,3.3,1c1,0.3,1.9,0.7,2.7,1.2c0.8,0.5,1.4,1.1,1.8,1.8c0.4,0.8,0.7,1.7,0.7,2.9c0,1.2-0.2,2.3-0.7,3.1
		c-0.5,0.8-1.2,1.5-2,2c-0.9,0.5-1.9,0.9-3.1,1.1c-1.2,0.2-2.5,0.3-3.9,0.3c-1.4,0-2.6-0.2-3.8-0.5c-1.1-0.3-2.1-0.8-2.9-1.5
		c-0.8-0.7-1.4-1.5-1.9-2.6s-0.7-2.3-0.7-3.7h4.1c0,1.6,0.5,2.8,1.4,3.6c0.9,0.8,2.2,1.1,3.8,1.1c1.6,0,2.8-0.2,3.6-0.7
		c0.8-0.5,1.3-1.3,1.3-2.4c0-0.6-0.2-1.1-0.5-1.5c-0.3-0.4-0.8-0.8-1.5-1s-1.4-0.5-2.2-0.8c-0.8-0.2-1.7-0.5-2.7-0.7
		c-1-0.3-1.9-0.6-2.7-0.9c-0.9-0.3-1.6-0.7-2.3-1.1c-0.6-0.5-1.2-1-1.5-1.7c-0.4-0.7-0.6-1.5-0.6-2.6c0-2.3,0.8-3.9,2.3-5
		c1.6-1.1,3.7-1.6,6.4-1.6c3.3,0,5.7,0.7,7.2,2c1.4,1.4,2.2,3.2,2.2,5.5H-2209.7z"/>
	<path id="XMLID_897_" class="st3" d="M-2201,25.3h5.1v5.4h0.2c0.6-1.9,1.7-3.3,3.3-4.3c1.6-1,3.5-1.5,5.6-1.5
		c1.2,0,2.4,0.2,3.6,0.5c1.2,0.3,2.3,0.9,3.2,1.8s1.7,2.1,2.3,3.6c0.6,1.5,0.9,3.5,0.9,5.8c0,2.4-0.3,4.3-0.9,5.8
		c-0.6,1.5-1.4,2.7-2.3,3.6s-2,1.5-3.2,1.8c-1.2,0.3-2.4,0.5-3.6,0.5c-2.1,0-4-0.5-5.6-1.5c-1.6-1-2.7-2.5-3.3-4.3h-0.2v14.4h-5.1
		V25.3z M-2195.9,38.7c0,0.8,0.2,1.5,0.5,2.2s0.8,1.3,1.4,1.9c0.6,0.6,1.3,1,2.2,1.3c0.9,0.3,1.8,0.5,2.9,0.5c1,0,1.9-0.1,2.7-0.4
		c0.8-0.2,1.6-0.7,2.2-1.3c0.6-0.6,1.1-1.4,1.5-2.4c0.4-1,0.5-2.3,0.5-3.9c0-1.6-0.2-2.9-0.5-3.9c-0.4-1-0.9-1.8-1.5-2.4
		c-0.6-0.6-1.4-1-2.2-1.3c-0.8-0.2-1.7-0.4-2.7-0.4c-1.1,0-2.1,0.2-2.9,0.5c-0.9,0.4-1.6,0.8-2.2,1.4c-0.6,0.6-1.1,1.2-1.4,2
		c-0.3,0.7-0.5,1.5-0.5,2.3V38.7z"/>
	<path id="XMLID_900_" class="st3" d="M-2162.6,28.7c-1.8,0-3.2,0.3-4,1c-0.9,0.7-1.3,1.6-1.3,2.9h-4.7c0-2.8,0.8-4.7,2.5-5.9
		c1.6-1.2,4.1-1.8,7.4-1.8c1.7,0,3.2,0.1,4.6,0.4c1.3,0.3,2.5,0.8,3.4,1.5c0.9,0.7,1.7,1.7,2.2,2.8c0.5,1.2,0.8,2.7,0.8,4.5v13.7
		h-4.8v-5h-0.2c-0.6,1.9-1.6,3.3-3,4.1c-1.4,0.9-3.2,1.3-5.3,1.3c-1.2,0-2.3-0.2-3.4-0.5c-1-0.3-1.9-0.8-2.7-1.4
		c-0.8-0.6-1.4-1.4-1.8-2.3c-0.4-0.9-0.7-1.9-0.7-3.1c0-2.2,0.8-3.8,2.3-5c1.5-1.2,3.7-1.8,6.4-1.8h8.3v-0.7c0-1.8-0.5-3.1-1.5-3.9
		C-2159,29.1-2160.5,28.7-2162.6,28.7z M-2156.6,37.5h-7.3c-1.7,0-3,0.3-3.7,1c-0.7,0.6-1.1,1.5-1.1,2.7c0,1.2,0.4,2.1,1.2,2.8
		c0.8,0.7,2,1.1,3.5,1.1c1.1,0,2.1-0.2,3-0.5c0.9-0.3,1.7-0.8,2.4-1.3c0.7-0.5,1.2-1.2,1.6-1.9c0.4-0.7,0.6-1.5,0.6-2.3V37.5z"/>
	<path id="XMLID_903_" class="st3" d="M-2146.5,47.8V25.3h5.1v5h0.2c0.5-1.9,1.3-3.3,2.2-4.1c0.9-0.9,2.1-1.3,3.6-1.3
		c0.8,0,1.6,0.2,2.6,0.5v5c-0.6-0.1-1.1-0.3-1.7-0.4c-0.6-0.1-1.1-0.2-1.7-0.2c-1,0-1.8,0.2-2.4,0.6c-0.7,0.4-1.2,0.9-1.6,1.5
		c-0.4,0.6-0.7,1.3-0.9,2.1c-0.2,0.8-0.3,1.6-0.3,2.5v11.4H-2146.5z"/>
	<path id="XMLID_905_" class="st3" d="M-2123.8,47.8h-5.1V16.3h5.1V34l9.5-8.6h6.4l-9.6,8.9l10,13.6h-6.2l-7.7-10.7l-2.4,2.3V47.8z"
		/>
</g>
<g id="XMLID_1013_" class="st2">
	<path id="XMLID_1014_" class="st4" d="M-3318.9,46.8h-6l-2.3-6.2h-14.3l-2.2,6.2h-5.6l11.5-31.5h6.5L-3318.9,46.8z M-3340,36.5
		h11.4l-5.6-15.4h-0.4L-3340,36.5z"/>
	<path id="XMLID_1017_" class="st4" d="M-3306.1,44.2c0.9,0,1.8-0.2,2.6-0.5s1.6-0.7,2.2-1.3c0.6-0.5,1.1-1.2,1.5-2
		c0.4-0.8,0.5-1.6,0.5-2.6V24.3h5v22.5h-5v-5h-0.4c-0.5,1.7-1.5,3.1-2.8,4c-1.4,0.9-3.1,1.4-5.2,1.4c-1.2,0-2.3-0.2-3.4-0.5
		c-1.1-0.3-2-0.8-2.8-1.6c-0.8-0.7-1.5-1.7-1.9-2.9c-0.5-1.2-0.7-2.7-0.7-4.5V24.3h5v13.5c0,2.3,0.5,3.9,1.4,4.9
		C-3309.1,43.7-3307.8,44.2-3306.1,44.2z"/>
	<path id="XMLID_1019_" class="st4" d="M-3265.7,46.8h-5v-5.4h-0.2c-0.6,1.9-1.7,3.3-3.3,4.3c-1.6,1-3.5,1.5-5.6,1.5
		c-1.2,0-2.4-0.2-3.6-0.5c-1.2-0.3-2.3-0.9-3.2-1.8c-1-0.9-1.7-2.1-2.3-3.6c-0.6-1.5-0.9-3.5-0.9-5.8c0-2.4,0.3-4.3,0.9-5.8
		c0.6-1.5,1.4-2.7,2.3-3.6c1-0.9,2-1.5,3.2-1.8c1.2-0.3,2.4-0.5,3.6-0.5c2.1,0,4,0.5,5.6,1.5c1.6,1,2.7,2.5,3.3,4.3h0.2V15.3h5V46.8
		z M-3277.8,43.6c1.1,0,2.1-0.2,2.9-0.5c0.9-0.4,1.6-0.8,2.3-1.4c0.6-0.6,1.1-1.2,1.4-2c0.3-0.7,0.5-1.5,0.5-2.3v-3.9
		c0-0.7-0.2-1.5-0.5-2.2c-0.3-0.7-0.8-1.3-1.4-1.9c-0.6-0.6-1.4-1-2.3-1.3c-0.9-0.3-1.9-0.5-2.9-0.5c-1,0-1.9,0.1-2.7,0.4
		c-0.8,0.2-1.6,0.7-2.2,1.3c-0.6,0.6-1.1,1.4-1.5,2.4c-0.4,1-0.5,2.3-0.5,3.9c0,1.6,0.2,2.9,0.5,3.9c0.4,1,0.9,1.8,1.5,2.4
		c0.6,0.6,1.4,1,2.2,1.3C-3279.7,43.4-3278.8,43.6-3277.8,43.6z"/>
	<path id="XMLID_1022_" class="st4" d="M-3254.5,20h-5.6v-4.6h5.6V20z M-3254.8,24.3v22.5h-5.1V24.3H-3254.8z"/>
	<path id="XMLID_1025_" class="st4" d="M-3250,35.6c0-1.9,0.3-3.5,0.9-5c0.6-1.5,1.4-2.7,2.5-3.7c1-1,2.3-1.7,3.7-2.3
		c1.4-0.5,2.9-0.8,4.4-0.8c1.6,0,3,0.2,4.4,0.7c1.4,0.5,2.6,1.2,3.7,2.2c1.1,1,1.9,2.2,2.5,3.6c0.6,1.5,0.9,3.2,0.9,5.1
		c0,1.9-0.3,3.5-0.9,5c-0.6,1.5-1.5,2.7-2.5,3.7c-1.1,1-2.3,1.7-3.7,2.3c-1.4,0.5-2.9,0.8-4.4,0.8c-1.6,0-3-0.3-4.4-0.8
		c-1.4-0.5-2.6-1.3-3.7-2.3c-1-1-1.9-2.2-2.5-3.7C-3249.7,39.2-3250,37.5-3250,35.6z M-3245.5,35.6c0,1.3,0.2,2.4,0.6,3.3
		c0.4,0.9,0.9,1.7,1.5,2.4c0.6,0.6,1.4,1.1,2.3,1.4c0.9,0.3,1.7,0.5,2.7,0.5c1,0,1.9-0.2,2.7-0.5c0.9-0.3,1.6-0.8,2.2-1.4
		c0.6-0.6,1.1-1.4,1.5-2.4c0.4-0.9,0.5-2,0.5-3.3c0-1.3-0.2-2.4-0.5-3.3c-0.4-0.9-0.9-1.7-1.5-2.4c-0.6-0.6-1.4-1.1-2.2-1.4
		c-0.9-0.3-1.8-0.5-2.7-0.5c-0.9,0-1.8,0.2-2.7,0.5c-0.9,0.3-1.6,0.8-2.3,1.4c-0.6,0.6-1.2,1.4-1.5,2.4
		C-3245.4,33.3-3245.5,34.4-3245.5,35.6z"/>
	<path id="XMLID_1028_" class="st4" d="M-3209.5,31.2c0-1.5-0.5-2.6-1.5-3.3c-1-0.7-2.3-1-3.8-1c-1.3,0-2.3,0.3-3.1,0.8
		c-0.8,0.5-1.3,1.3-1.3,2.3c0,0.6,0.1,1,0.4,1.4c0.3,0.4,0.7,0.7,1.2,0.9c0.5,0.3,1.1,0.5,1.8,0.7s1.4,0.4,2.1,0.6
		c1.2,0.4,2.3,0.7,3.3,1c1,0.3,1.9,0.7,2.7,1.2c0.8,0.5,1.4,1.1,1.8,1.8c0.4,0.8,0.7,1.7,0.7,2.9c0,1.2-0.2,2.3-0.7,3.1
		c-0.5,0.8-1.2,1.5-2,2c-0.9,0.5-1.9,0.9-3.1,1.1c-1.2,0.2-2.5,0.3-3.9,0.3c-1.4,0-2.6-0.2-3.8-0.5c-1.1-0.3-2.1-0.8-2.9-1.5
		c-0.8-0.7-1.4-1.5-1.9-2.6s-0.7-2.3-0.7-3.7h4.1c0,1.6,0.5,2.8,1.4,3.6c0.9,0.8,2.2,1.1,3.8,1.1c1.6,0,2.8-0.2,3.6-0.7
		c0.8-0.5,1.3-1.3,1.3-2.4c0-0.6-0.2-1.1-0.5-1.5c-0.3-0.4-0.8-0.8-1.5-1s-1.4-0.5-2.2-0.8c-0.8-0.2-1.7-0.5-2.7-0.7
		c-1-0.3-1.9-0.6-2.7-0.9c-0.9-0.3-1.6-0.7-2.3-1.1c-0.6-0.5-1.2-1-1.5-1.7c-0.4-0.7-0.6-1.5-0.6-2.6c0-2.3,0.8-3.9,2.3-5
		c1.6-1.1,3.7-1.6,6.4-1.6c3.3,0,5.7,0.7,7.2,2c1.4,1.4,2.2,3.2,2.2,5.5H-3209.5z"/>
	<path id="XMLID_1030_" class="st4" d="M-3200.8,24.3h5.1v5.4h0.2c0.6-1.9,1.7-3.3,3.3-4.3c1.6-1,3.5-1.5,5.6-1.5
		c1.2,0,2.4,0.2,3.6,0.5c1.2,0.3,2.3,0.9,3.2,1.8s1.7,2.1,2.3,3.6c0.6,1.5,0.9,3.5,0.9,5.8c0,2.4-0.3,4.3-0.9,5.8
		c-0.6,1.5-1.4,2.7-2.3,3.6s-2,1.5-3.2,1.8c-1.2,0.3-2.4,0.5-3.6,0.5c-2.1,0-4-0.5-5.6-1.5c-1.6-1-2.7-2.5-3.3-4.3h-0.2v14.4h-5.1
		V24.3z M-3195.7,37.7c0,0.8,0.2,1.5,0.5,2.2s0.8,1.3,1.4,1.9c0.6,0.6,1.3,1,2.2,1.3c0.9,0.3,1.8,0.5,2.9,0.5c1,0,1.9-0.1,2.7-0.4
		c0.8-0.2,1.6-0.7,2.2-1.3c0.6-0.6,1.1-1.4,1.5-2.4c0.4-1,0.5-2.3,0.5-3.9c0-1.6-0.2-2.9-0.5-3.9c-0.4-1-0.9-1.8-1.5-2.4
		c-0.6-0.6-1.4-1-2.2-1.3c-0.8-0.2-1.7-0.4-2.7-0.4c-1.1,0-2.1,0.2-2.9,0.5c-0.9,0.4-1.6,0.8-2.2,1.4c-0.6,0.6-1.1,1.2-1.4,2
		c-0.3,0.7-0.5,1.5-0.5,2.3V37.7z"/>
	<path id="XMLID_1033_" class="st4" d="M-3162.4,27.7c-1.8,0-3.2,0.3-4,1c-0.9,0.7-1.3,1.6-1.3,2.9h-4.7c0-2.8,0.8-4.7,2.5-5.9
		c1.6-1.2,4.1-1.8,7.4-1.8c1.7,0,3.2,0.1,4.6,0.4c1.3,0.3,2.5,0.8,3.4,1.5c0.9,0.7,1.7,1.7,2.2,2.8c0.5,1.2,0.8,2.7,0.8,4.5v13.7
		h-4.8v-5h-0.2c-0.6,1.9-1.6,3.3-3,4.1c-1.4,0.9-3.2,1.3-5.3,1.3c-1.2,0-2.3-0.2-3.4-0.5c-1-0.3-1.9-0.8-2.7-1.4
		c-0.8-0.6-1.4-1.4-1.8-2.3c-0.4-0.9-0.7-1.9-0.7-3.1c0-2.2,0.8-3.8,2.3-5c1.5-1.2,3.7-1.8,6.4-1.8h8.3v-0.7c0-1.8-0.5-3.1-1.5-3.9
		C-3158.8,28.1-3160.3,27.7-3162.4,27.7z M-3156.4,36.5h-7.3c-1.7,0-3,0.3-3.7,1c-0.7,0.6-1.1,1.5-1.1,2.7c0,1.2,0.4,2.1,1.2,2.8
		c0.8,0.7,2,1.1,3.5,1.1c1.1,0,2.1-0.2,3-0.5c0.9-0.3,1.7-0.8,2.4-1.3c0.7-0.5,1.2-1.2,1.6-1.9c0.4-0.7,0.6-1.5,0.6-2.3V36.5z"/>
	<path id="XMLID_1036_" class="st4" d="M-3146.3,46.8V24.3h5.1v5h0.2c0.5-1.9,1.3-3.3,2.2-4.1c0.9-0.9,2.1-1.3,3.6-1.3
		c0.8,0,1.6,0.2,2.6,0.5v5c-0.6-0.1-1.1-0.3-1.7-0.4c-0.6-0.1-1.1-0.2-1.7-0.2c-1,0-1.8,0.2-2.4,0.6c-0.7,0.4-1.2,0.9-1.6,1.5
		c-0.4,0.6-0.7,1.3-0.9,2.1c-0.2,0.8-0.3,1.6-0.3,2.5v11.4H-3146.3z"/>
	<path id="XMLID_1038_" class="st4" d="M-3123.6,46.8h-5.1V15.3h5.1V33l9.5-8.6h6.4l-9.6,8.9l10,13.6h-6.2l-7.7-10.7l-2.4,2.3V46.8z
		"/>
</g>
<g id="XMLID_320_" class="st2">
	<path id="XMLID_907_" class="st4" d="M-3318.9,46.8h-6l-2.3-6.2h-14.3l-2.2,6.2h-5.6l11.5-31.5h6.5L-3318.9,46.8z M-3340,36.5h11.4
		l-5.6-15.4h-0.4L-3340,36.5z"/>
	<path id="XMLID_910_" class="st4" d="M-3306.1,44.2c0.9,0,1.8-0.2,2.6-0.5s1.6-0.7,2.2-1.3c0.6-0.5,1.1-1.2,1.5-2
		c0.4-0.8,0.5-1.6,0.5-2.6V24.3h5v22.5h-5v-5h-0.4c-0.5,1.7-1.5,3.1-2.8,4c-1.4,0.9-3.1,1.4-5.2,1.4c-1.2,0-2.3-0.2-3.4-0.5
		c-1.1-0.3-2-0.8-2.8-1.6c-0.8-0.7-1.5-1.7-1.9-2.9c-0.5-1.2-0.7-2.7-0.7-4.5V24.3h5v13.5c0,2.3,0.5,3.9,1.4,4.9
		C-3309.1,43.7-3307.8,44.2-3306.1,44.2z"/>
	<path id="XMLID_912_" class="st4" d="M-3265.7,46.8h-5v-5.4h-0.2c-0.6,1.9-1.7,3.3-3.3,4.3c-1.6,1-3.5,1.5-5.6,1.5
		c-1.2,0-2.4-0.2-3.6-0.5c-1.2-0.3-2.3-0.9-3.2-1.8c-1-0.9-1.7-2.1-2.3-3.6c-0.6-1.5-0.9-3.5-0.9-5.8c0-2.4,0.3-4.3,0.9-5.8
		c0.6-1.5,1.4-2.7,2.3-3.6c1-0.9,2-1.5,3.2-1.8c1.2-0.3,2.4-0.5,3.6-0.5c2.1,0,4,0.5,5.6,1.5c1.6,1,2.7,2.5,3.3,4.3h0.2V15.3h5V46.8
		z M-3277.8,43.6c1.1,0,2.1-0.2,2.9-0.5c0.9-0.4,1.6-0.8,2.3-1.4c0.6-0.6,1.1-1.2,1.4-2c0.3-0.7,0.5-1.5,0.5-2.3v-3.9
		c0-0.7-0.2-1.5-0.5-2.2c-0.3-0.7-0.8-1.3-1.4-1.9c-0.6-0.6-1.4-1-2.3-1.3c-0.9-0.3-1.9-0.5-2.9-0.5c-1,0-1.9,0.1-2.7,0.4
		c-0.8,0.2-1.6,0.7-2.2,1.3c-0.6,0.6-1.1,1.4-1.5,2.4c-0.4,1-0.5,2.3-0.5,3.9c0,1.6,0.2,2.9,0.5,3.9c0.4,1,0.9,1.8,1.5,2.4
		c0.6,0.6,1.4,1,2.2,1.3C-3279.7,43.4-3278.8,43.6-3277.8,43.6z"/>
	<path id="XMLID_915_" class="st4" d="M-3254.5,20h-5.6v-4.6h5.6V20z M-3254.8,24.3v22.5h-5.1V24.3H-3254.8z"/>
	<path id="XMLID_918_" class="st4" d="M-3250,35.6c0-1.9,0.3-3.5,0.9-5c0.6-1.5,1.4-2.7,2.5-3.7c1-1,2.3-1.7,3.7-2.3
		c1.4-0.5,2.9-0.8,4.4-0.8c1.6,0,3,0.2,4.4,0.7c1.4,0.5,2.6,1.2,3.7,2.2c1.1,1,1.9,2.2,2.5,3.6c0.6,1.5,0.9,3.2,0.9,5.1
		c0,1.9-0.3,3.5-0.9,5c-0.6,1.5-1.5,2.7-2.5,3.7c-1.1,1-2.3,1.7-3.7,2.3c-1.4,0.5-2.9,0.8-4.4,0.8c-1.6,0-3-0.3-4.4-0.8
		c-1.4-0.5-2.6-1.3-3.7-2.3c-1-1-1.9-2.2-2.5-3.7C-3249.7,39.2-3250,37.5-3250,35.6z M-3245.5,35.6c0,1.3,0.2,2.4,0.6,3.3
		c0.4,0.9,0.9,1.7,1.5,2.4c0.6,0.6,1.4,1.1,2.3,1.4c0.9,0.3,1.7,0.5,2.7,0.5c1,0,1.9-0.2,2.7-0.5c0.9-0.3,1.6-0.8,2.2-1.4
		c0.6-0.6,1.1-1.4,1.5-2.4c0.4-0.9,0.5-2,0.5-3.3c0-1.3-0.2-2.4-0.5-3.3c-0.4-0.9-0.9-1.7-1.5-2.4c-0.6-0.6-1.4-1.1-2.2-1.4
		c-0.9-0.3-1.8-0.5-2.7-0.5c-0.9,0-1.8,0.2-2.7,0.5c-0.9,0.3-1.6,0.8-2.3,1.4c-0.6,0.6-1.2,1.4-1.5,2.4
		C-3245.4,33.3-3245.5,34.4-3245.5,35.6z"/>
	<path id="XMLID_921_" class="st4" d="M-3209.5,31.2c0-1.5-0.5-2.6-1.5-3.3c-1-0.7-2.3-1-3.8-1c-1.3,0-2.3,0.3-3.1,0.8
		c-0.8,0.5-1.3,1.3-1.3,2.3c0,0.6,0.1,1,0.4,1.4c0.3,0.4,0.7,0.7,1.2,0.9c0.5,0.3,1.1,0.5,1.8,0.7s1.4,0.4,2.1,0.6
		c1.2,0.4,2.3,0.7,3.3,1c1,0.3,1.9,0.7,2.7,1.2c0.8,0.5,1.4,1.1,1.8,1.8c0.4,0.8,0.7,1.7,0.7,2.9c0,1.2-0.2,2.3-0.7,3.1
		c-0.5,0.8-1.2,1.5-2,2c-0.9,0.5-1.9,0.9-3.1,1.1c-1.2,0.2-2.5,0.3-3.9,0.3c-1.4,0-2.6-0.2-3.8-0.5c-1.1-0.3-2.1-0.8-2.9-1.5
		c-0.8-0.7-1.4-1.5-1.9-2.6s-0.7-2.3-0.7-3.7h4.1c0,1.6,0.5,2.8,1.4,3.6c0.9,0.8,2.2,1.1,3.8,1.1c1.6,0,2.8-0.2,3.6-0.7
		c0.8-0.5,1.3-1.3,1.3-2.4c0-0.6-0.2-1.1-0.5-1.5c-0.3-0.4-0.8-0.8-1.5-1s-1.4-0.5-2.2-0.8c-0.8-0.2-1.7-0.5-2.7-0.7
		c-1-0.3-1.9-0.6-2.7-0.9c-0.9-0.3-1.6-0.7-2.3-1.1c-0.6-0.5-1.2-1-1.5-1.7c-0.4-0.7-0.6-1.5-0.6-2.6c0-2.3,0.8-3.9,2.3-5
		c1.6-1.1,3.7-1.6,6.4-1.6c3.3,0,5.7,0.7,7.2,2c1.4,1.4,2.2,3.2,2.2,5.5H-3209.5z"/>
	<path id="XMLID_923_" class="st4" d="M-3200.8,24.3h5.1v5.4h0.2c0.6-1.9,1.7-3.3,3.3-4.3c1.6-1,3.5-1.5,5.6-1.5
		c1.2,0,2.4,0.2,3.6,0.5c1.2,0.3,2.3,0.9,3.2,1.8s1.7,2.1,2.3,3.6c0.6,1.5,0.9,3.5,0.9,5.8c0,2.4-0.3,4.3-0.9,5.8
		c-0.6,1.5-1.4,2.7-2.3,3.6s-2,1.5-3.2,1.8c-1.2,0.3-2.4,0.5-3.6,0.5c-2.1,0-4-0.5-5.6-1.5c-1.6-1-2.7-2.5-3.3-4.3h-0.2v14.4h-5.1
		V24.3z M-3195.7,37.7c0,0.8,0.2,1.5,0.5,2.2s0.8,1.3,1.4,1.9c0.6,0.6,1.3,1,2.2,1.3c0.9,0.3,1.8,0.5,2.9,0.5c1,0,1.9-0.1,2.7-0.4
		c0.8-0.2,1.6-0.7,2.2-1.3c0.6-0.6,1.1-1.4,1.5-2.4c0.4-1,0.5-2.3,0.5-3.9c0-1.6-0.2-2.9-0.5-3.9c-0.4-1-0.9-1.8-1.5-2.4
		c-0.6-0.6-1.4-1-2.2-1.3c-0.8-0.2-1.7-0.4-2.7-0.4c-1.1,0-2.1,0.2-2.9,0.5c-0.9,0.4-1.6,0.8-2.2,1.4c-0.6,0.6-1.1,1.2-1.4,2
		c-0.3,0.7-0.5,1.5-0.5,2.3V37.7z"/>
	<path id="XMLID_926_" class="st4" d="M-3162.4,27.7c-1.8,0-3.2,0.3-4,1c-0.9,0.7-1.3,1.6-1.3,2.9h-4.7c0-2.8,0.8-4.7,2.5-5.9
		c1.6-1.2,4.1-1.8,7.4-1.8c1.7,0,3.2,0.1,4.6,0.4c1.3,0.3,2.5,0.8,3.4,1.5c0.9,0.7,1.7,1.7,2.2,2.8c0.5,1.2,0.8,2.7,0.8,4.5v13.7
		h-4.8v-5h-0.2c-0.6,1.9-1.6,3.3-3,4.1c-1.4,0.9-3.2,1.3-5.3,1.3c-1.2,0-2.3-0.2-3.4-0.5c-1-0.3-1.9-0.8-2.7-1.4
		c-0.8-0.6-1.4-1.4-1.8-2.3c-0.4-0.9-0.7-1.9-0.7-3.1c0-2.2,0.8-3.8,2.3-5c1.5-1.2,3.7-1.8,6.4-1.8h8.3v-0.7c0-1.8-0.5-3.1-1.5-3.9
		C-3158.8,28.1-3160.3,27.7-3162.4,27.7z M-3156.4,36.5h-7.3c-1.7,0-3,0.3-3.7,1c-0.7,0.6-1.1,1.5-1.1,2.7c0,1.2,0.4,2.1,1.2,2.8
		c0.8,0.7,2,1.1,3.5,1.1c1.1,0,2.1-0.2,3-0.5c0.9-0.3,1.7-0.8,2.4-1.3c0.7-0.5,1.2-1.2,1.6-1.9c0.4-0.7,0.6-1.5,0.6-2.3V36.5z"/>
	<path id="XMLID_929_" class="st4" d="M-3146.3,46.8V24.3h5.1v5h0.2c0.5-1.9,1.3-3.3,2.2-4.1c0.9-0.9,2.1-1.3,3.6-1.3
		c0.8,0,1.6,0.2,2.6,0.5v5c-0.6-0.1-1.1-0.3-1.7-0.4c-0.6-0.1-1.1-0.2-1.7-0.2c-1,0-1.8,0.2-2.4,0.6c-0.7,0.4-1.2,0.9-1.6,1.5
		c-0.4,0.6-0.7,1.3-0.9,2.1c-0.2,0.8-0.3,1.6-0.3,2.5v11.4H-3146.3z"/>
	<path id="XMLID_931_" class="st4" d="M-3123.6,46.8h-5.1V15.3h5.1V33l9.5-8.6h6.4l-9.6,8.9l10,13.6h-6.2l-7.7-10.7l-2.4,2.3V46.8z"
		/>
</g>
<g id="XMLID_3_" class="st2">
	<linearGradient id="XMLID_1040_" gradientUnits="userSpaceOnUse" x1="-4584.3965" y1="67.6866" x2="-4584.3965" y2="1.3196">
		<stop  offset="0" style="stop-color:#0000FF"/>
		<stop  offset="1" style="stop-color:#0370E6"/>
	</linearGradient>
	<path id="XMLID_5_" style="display:inline;fill:url(#XMLID_1040_);" d="M-4559.6,13.9L-4579,2.8c-3.4-1.9-7.5-1.9-10.9,0
		l-19.3,11.2c-3.4,1.9-5.4,5.5-5.4,9.4v22.3c0,3.9,2.1,7.5,5.4,9.4l19.3,11.2c3.4,1.9,7.5,1.9,10.9,0l19.3-11.2
		c3.4-1.9,5.4-5.5,5.4-9.4V23.3C-4554.2,19.5-4556.3,15.9-4559.6,13.9z M-4597.2,38.6c0,1-0.8,1.8-1.8,1.8s-1.8-0.8-1.8-1.8v-8.1
		c0-1,0.8-1.8,1.8-1.8s1.8,0.8,1.8,1.8V38.6z M-4589.9,44c0,1-0.8,1.8-1.8,1.8s-1.8-0.8-1.8-1.8V25c0-1,0.8-1.8,1.8-1.8
		s1.8,0.8,1.8,1.8V44z M-4582.6,49.8c0,1-0.8,1.8-1.8,1.8s-1.8-0.8-1.8-1.8V19.2c0-1,0.8-1.8,1.8-1.8s1.8,0.8,1.8,1.8V49.8z
		 M-4575.3,44c0,1-0.8,1.8-1.8,1.8s-1.8-0.8-1.8-1.8V25c0-1,0.8-1.8,1.8-1.8s1.8,0.8,1.8,1.8V44z M-4568,38.6c0,1-0.8,1.8-1.8,1.8
		s-1.8-0.8-1.8-1.8v-8.1c0-1,0.8-1.8,1.8-1.8s1.8,0.8,1.8,1.8V38.6z"/>
	<g id="XMLID_1041_" class="st4">
		<path id="XMLID_1042_" class="st0" d="M-4510.1,47.8h-6l-2.3-6.2h-14.3l-2.2,6.2h-5.6l11.5-31.5h6.5L-4510.1,47.8z M-4531.3,37.5
			h11.4l-5.6-15.4h-0.4L-4531.3,37.5z"/>
		<path id="XMLID_1045_" class="st0" d="M-4497.3,45.2c0.9,0,1.8-0.2,2.6-0.5s1.6-0.7,2.2-1.3c0.6-0.5,1.1-1.2,1.5-2
			c0.4-0.8,0.5-1.6,0.5-2.6V25.3h5v22.5h-5v-5h-0.4c-0.5,1.7-1.5,3.1-2.8,4c-1.4,0.9-3.1,1.4-5.2,1.4c-1.2,0-2.3-0.2-3.4-0.5
			c-1.1-0.3-2-0.8-2.8-1.6c-0.8-0.7-1.5-1.7-1.9-2.9c-0.5-1.2-0.7-2.7-0.7-4.5V25.3h5v13.5c0,2.3,0.5,3.9,1.4,4.9
			C-4500.3,44.7-4499,45.2-4497.3,45.2z"/>
		<path id="XMLID_1047_" class="st0" d="M-4456.9,47.8h-5v-5.4h-0.2c-0.6,1.9-1.7,3.3-3.3,4.3c-1.6,1-3.5,1.5-5.6,1.5
			c-1.2,0-2.4-0.2-3.6-0.5c-1.2-0.3-2.3-0.9-3.2-1.8c-1-0.9-1.7-2.1-2.3-3.6c-0.6-1.5-0.9-3.5-0.9-5.8c0-2.4,0.3-4.3,0.9-5.8
			c0.6-1.5,1.4-2.7,2.3-3.6c1-0.9,2-1.5,3.2-1.8c1.2-0.3,2.4-0.5,3.6-0.5c2.1,0,4,0.5,5.6,1.5c1.6,1,2.7,2.5,3.3,4.3h0.2V16.3h5
			V47.8z M-4469,44.6c1.1,0,2.1-0.2,2.9-0.5c0.9-0.4,1.6-0.8,2.3-1.4c0.6-0.6,1.1-1.2,1.4-2c0.3-0.7,0.5-1.5,0.5-2.3v-3.9
			c0-0.7-0.2-1.5-0.5-2.2c-0.3-0.7-0.8-1.3-1.4-1.9c-0.6-0.6-1.4-1-2.3-1.3c-0.9-0.3-1.9-0.5-2.9-0.5c-1,0-1.9,0.1-2.7,0.4
			c-0.8,0.2-1.6,0.7-2.2,1.3c-0.6,0.6-1.1,1.4-1.5,2.4c-0.4,1-0.5,2.3-0.5,3.9c0,1.6,0.2,2.9,0.5,3.9c0.4,1,0.9,1.8,1.5,2.4
			c0.6,0.6,1.4,1,2.2,1.3C-4470.9,44.4-4470,44.6-4469,44.6z"/>
		<path id="XMLID_1050_" class="st0" d="M-4445.8,21h-5.6v-4.6h5.6V21z M-4446,25.3v22.5h-5.1V25.3H-4446z"/>
		<path id="XMLID_1053_" class="st0" d="M-4441.3,36.6c0-1.9,0.3-3.5,0.9-5c0.6-1.5,1.4-2.7,2.5-3.7c1-1,2.3-1.7,3.7-2.3
			c1.4-0.5,2.9-0.8,4.4-0.8c1.6,0,3,0.2,4.4,0.7c1.4,0.5,2.6,1.2,3.7,2.2c1.1,1,1.9,2.2,2.5,3.6c0.6,1.5,0.9,3.2,0.9,5.1
			c0,1.9-0.3,3.5-0.9,5c-0.6,1.5-1.5,2.7-2.5,3.7c-1.1,1-2.3,1.7-3.7,2.3c-1.4,0.5-2.9,0.8-4.4,0.8c-1.6,0-3-0.3-4.4-0.8
			c-1.4-0.5-2.6-1.3-3.7-2.3c-1-1-1.9-2.2-2.5-3.7C-4441,40.2-4441.3,38.5-4441.3,36.6z M-4436.8,36.6c0,1.3,0.2,2.4,0.6,3.3
			c0.4,0.9,0.9,1.7,1.5,2.4c0.6,0.6,1.4,1.1,2.3,1.4c0.9,0.3,1.7,0.5,2.7,0.5c1,0,1.9-0.2,2.7-0.5c0.9-0.3,1.6-0.8,2.2-1.4
			c0.6-0.6,1.1-1.4,1.5-2.4c0.4-0.9,0.5-2,0.5-3.3c0-1.3-0.2-2.4-0.5-3.3c-0.4-0.9-0.9-1.7-1.5-2.4c-0.6-0.6-1.4-1.1-2.2-1.4
			c-0.9-0.3-1.8-0.5-2.7-0.5c-0.9,0-1.8,0.2-2.7,0.5c-0.9,0.3-1.6,0.8-2.3,1.4c-0.6,0.6-1.2,1.4-1.5,2.4
			C-4436.6,34.3-4436.8,35.4-4436.8,36.6z"/>
		<path id="XMLID_1056_" class="st0" d="M-4400.7,32.2c0-1.5-0.5-2.6-1.5-3.3c-1-0.7-2.3-1-3.8-1c-1.3,0-2.3,0.3-3.1,0.8
			c-0.8,0.5-1.3,1.3-1.3,2.3c0,0.6,0.1,1,0.4,1.4c0.3,0.4,0.7,0.7,1.2,0.9c0.5,0.3,1.1,0.5,1.8,0.7s1.4,0.4,2.1,0.6
			c1.2,0.4,2.3,0.7,3.3,1c1,0.3,1.9,0.7,2.7,1.2c0.8,0.5,1.4,1.1,1.8,1.8c0.4,0.8,0.7,1.7,0.7,2.9c0,1.2-0.2,2.3-0.7,3.1
			c-0.5,0.8-1.2,1.5-2,2c-0.9,0.5-1.9,0.9-3.1,1.1c-1.2,0.2-2.5,0.3-3.9,0.3c-1.4,0-2.6-0.2-3.8-0.5c-1.1-0.3-2.1-0.8-2.9-1.5
			c-0.8-0.7-1.4-1.5-1.9-2.6s-0.7-2.3-0.7-3.7h4.1c0,1.6,0.5,2.8,1.4,3.6c0.9,0.8,2.2,1.1,3.8,1.1c1.6,0,2.8-0.2,3.6-0.7
			c0.8-0.5,1.3-1.3,1.3-2.4c0-0.6-0.2-1.1-0.5-1.5c-0.3-0.4-0.8-0.8-1.5-1s-1.4-0.5-2.2-0.8c-0.8-0.2-1.7-0.5-2.7-0.7
			c-1-0.3-1.9-0.6-2.7-0.9c-0.9-0.3-1.6-0.7-2.3-1.1c-0.6-0.5-1.2-1-1.5-1.7c-0.4-0.7-0.6-1.5-0.6-2.6c0-2.3,0.8-3.9,2.3-5
			c1.6-1.1,3.7-1.6,6.4-1.6c3.3,0,5.7,0.7,7.2,2c1.4,1.4,2.2,3.2,2.2,5.5H-4400.7z"/>
		<path id="XMLID_1058_" class="st0" d="M-4392,25.3h5.1v5.4h0.2c0.6-1.9,1.7-3.3,3.3-4.3c1.6-1,3.5-1.5,5.6-1.5
			c1.2,0,2.4,0.2,3.6,0.5c1.2,0.3,2.3,0.9,3.2,1.8s1.7,2.1,2.3,3.6c0.6,1.5,0.9,3.5,0.9,5.8c0,2.4-0.3,4.3-0.9,5.8
			c-0.6,1.5-1.4,2.7-2.3,3.6s-2,1.5-3.2,1.8c-1.2,0.3-2.4,0.5-3.6,0.5c-2.1,0-4-0.5-5.6-1.5c-1.6-1-2.7-2.5-3.3-4.3h-0.2v14.4h-5.1
			V25.3z M-4386.9,38.7c0,0.8,0.2,1.5,0.5,2.2s0.8,1.3,1.4,1.9c0.6,0.6,1.3,1,2.2,1.3c0.9,0.3,1.8,0.5,2.9,0.5c1,0,1.9-0.1,2.7-0.4
			c0.8-0.2,1.6-0.7,2.2-1.3c0.6-0.6,1.1-1.4,1.5-2.4c0.4-1,0.5-2.3,0.5-3.9c0-1.6-0.2-2.9-0.5-3.9c-0.4-1-0.9-1.8-1.5-2.4
			c-0.6-0.6-1.4-1-2.2-1.3c-0.8-0.2-1.7-0.4-2.7-0.4c-1.1,0-2.1,0.2-2.9,0.5c-0.9,0.4-1.6,0.8-2.2,1.4c-0.6,0.6-1.1,1.2-1.4,2
			c-0.3,0.7-0.5,1.5-0.5,2.3V38.7z"/>
		<path id="XMLID_1061_" class="st0" d="M-4353.6,28.7c-1.8,0-3.2,0.3-4,1c-0.9,0.7-1.3,1.6-1.3,2.9h-4.7c0-2.8,0.8-4.7,2.5-5.9
			c1.6-1.2,4.1-1.8,7.4-1.8c1.7,0,3.2,0.1,4.6,0.4c1.3,0.3,2.5,0.8,3.4,1.5c0.9,0.7,1.7,1.7,2.2,2.8c0.5,1.2,0.8,2.7,0.8,4.5v13.7
			h-4.8v-5h-0.2c-0.6,1.9-1.6,3.3-3,4.1c-1.4,0.9-3.2,1.3-5.3,1.3c-1.2,0-2.3-0.2-3.4-0.5c-1-0.3-1.9-0.8-2.7-1.4
			c-0.8-0.6-1.4-1.4-1.8-2.3c-0.4-0.9-0.7-1.9-0.7-3.1c0-2.2,0.8-3.8,2.3-5c1.5-1.2,3.7-1.8,6.4-1.8h8.3v-0.7c0-1.8-0.5-3.1-1.5-3.9
			C-4350.1,29.1-4351.6,28.7-4353.6,28.7z M-4347.6,37.5h-7.3c-1.7,0-3,0.3-3.7,1c-0.7,0.6-1.1,1.5-1.1,2.7c0,1.2,0.4,2.1,1.2,2.8
			c0.8,0.7,2,1.1,3.5,1.1c1.1,0,2.1-0.2,3-0.5c0.9-0.3,1.7-0.8,2.4-1.3c0.7-0.5,1.2-1.2,1.6-1.9c0.4-0.7,0.6-1.5,0.6-2.3V37.5z"/>
		<path id="XMLID_1064_" class="st0" d="M-4337.5,47.8V25.3h5.1v5h0.2c0.5-1.9,1.3-3.3,2.2-4.1c0.9-0.9,2.1-1.3,3.6-1.3
			c0.8,0,1.6,0.2,2.6,0.5v5c-0.6-0.1-1.1-0.3-1.7-0.4c-0.6-0.1-1.1-0.2-1.7-0.2c-1,0-1.8,0.2-2.4,0.6c-0.7,0.4-1.2,0.9-1.6,1.5
			c-0.4,0.6-0.7,1.3-0.9,2.1c-0.2,0.8-0.3,1.6-0.3,2.5v11.4H-4337.5z"/>
		<path id="XMLID_1066_" class="st0" d="M-4314.9,47.8h-5.1V16.3h5.1V34l9.5-8.6h6.4l-9.6,8.9l10,13.6h-6.2l-7.7-10.7l-2.4,2.3V47.8
			z"/>
	</g>
	<g id="XMLID_4_" class="st4">
		<path id="XMLID_933_" class="st0" d="M-4510.1,47.8h-6l-2.3-6.2h-14.3l-2.2,6.2h-5.6l11.5-31.5h6.5L-4510.1,47.8z M-4531.3,37.5
			h11.4l-5.6-15.4h-0.4L-4531.3,37.5z"/>
		<path id="XMLID_936_" class="st0" d="M-4497.3,45.2c0.9,0,1.8-0.2,2.6-0.5s1.6-0.7,2.2-1.3c0.6-0.5,1.1-1.2,1.5-2
			c0.4-0.8,0.5-1.6,0.5-2.6V25.3h5v22.5h-5v-5h-0.4c-0.5,1.7-1.5,3.1-2.8,4c-1.4,0.9-3.1,1.4-5.2,1.4c-1.2,0-2.3-0.2-3.4-0.5
			c-1.1-0.3-2-0.8-2.8-1.6c-0.8-0.7-1.5-1.7-1.9-2.9c-0.5-1.2-0.7-2.7-0.7-4.5V25.3h5v13.5c0,2.3,0.5,3.9,1.4,4.9
			C-4500.3,44.7-4499,45.2-4497.3,45.2z"/>
		<path id="XMLID_938_" class="st0" d="M-4456.9,47.8h-5v-5.4h-0.2c-0.6,1.9-1.7,3.3-3.3,4.3c-1.6,1-3.5,1.5-5.6,1.5
			c-1.2,0-2.4-0.2-3.6-0.5c-1.2-0.3-2.3-0.9-3.2-1.8c-1-0.9-1.7-2.1-2.3-3.6c-0.6-1.5-0.9-3.5-0.9-5.8c0-2.4,0.3-4.3,0.9-5.8
			c0.6-1.5,1.4-2.7,2.3-3.6c1-0.9,2-1.5,3.2-1.8c1.2-0.3,2.4-0.5,3.6-0.5c2.1,0,4,0.5,5.6,1.5c1.6,1,2.7,2.5,3.3,4.3h0.2V16.3h5
			V47.8z M-4469,44.6c1.1,0,2.1-0.2,2.9-0.5c0.9-0.4,1.6-0.8,2.3-1.4c0.6-0.6,1.1-1.2,1.4-2c0.3-0.7,0.5-1.5,0.5-2.3v-3.9
			c0-0.7-0.2-1.5-0.5-2.2c-0.3-0.7-0.8-1.3-1.4-1.9c-0.6-0.6-1.4-1-2.3-1.3c-0.9-0.3-1.9-0.5-2.9-0.5c-1,0-1.9,0.1-2.7,0.4
			c-0.8,0.2-1.6,0.7-2.2,1.3c-0.6,0.6-1.1,1.4-1.5,2.4c-0.4,1-0.5,2.3-0.5,3.9c0,1.6,0.2,2.9,0.5,3.9c0.4,1,0.9,1.8,1.5,2.4
			c0.6,0.6,1.4,1,2.2,1.3C-4470.9,44.4-4470,44.6-4469,44.6z"/>
		<path id="XMLID_941_" class="st0" d="M-4445.8,21h-5.6v-4.6h5.6V21z M-4446,25.3v22.5h-5.1V25.3H-4446z"/>
		<path id="XMLID_944_" class="st0" d="M-4441.3,36.6c0-1.9,0.3-3.5,0.9-5c0.6-1.5,1.4-2.7,2.5-3.7c1-1,2.3-1.7,3.7-2.3
			c1.4-0.5,2.9-0.8,4.4-0.8c1.6,0,3,0.2,4.4,0.7c1.4,0.5,2.6,1.2,3.7,2.2c1.1,1,1.9,2.2,2.5,3.6c0.6,1.5,0.9,3.2,0.9,5.1
			c0,1.9-0.3,3.5-0.9,5c-0.6,1.5-1.5,2.7-2.5,3.7c-1.1,1-2.3,1.7-3.7,2.3c-1.4,0.5-2.9,0.8-4.4,0.8c-1.6,0-3-0.3-4.4-0.8
			c-1.4-0.5-2.6-1.3-3.7-2.3c-1-1-1.9-2.2-2.5-3.7C-4441,40.2-4441.3,38.5-4441.3,36.6z M-4436.8,36.6c0,1.3,0.2,2.4,0.6,3.3
			c0.4,0.9,0.9,1.7,1.5,2.4c0.6,0.6,1.4,1.1,2.3,1.4c0.9,0.3,1.7,0.5,2.7,0.5c1,0,1.9-0.2,2.7-0.5c0.9-0.3,1.6-0.8,2.2-1.4
			c0.6-0.6,1.1-1.4,1.5-2.4c0.4-0.9,0.5-2,0.5-3.3c0-1.3-0.2-2.4-0.5-3.3c-0.4-0.9-0.9-1.7-1.5-2.4c-0.6-0.6-1.4-1.1-2.2-1.4
			c-0.9-0.3-1.8-0.5-2.7-0.5c-0.9,0-1.8,0.2-2.7,0.5c-0.9,0.3-1.6,0.8-2.3,1.4c-0.6,0.6-1.2,1.4-1.5,2.4
			C-4436.6,34.3-4436.8,35.4-4436.8,36.6z"/>
		<path id="XMLID_947_" class="st0" d="M-4400.7,32.2c0-1.5-0.5-2.6-1.5-3.3c-1-0.7-2.3-1-3.8-1c-1.3,0-2.3,0.3-3.1,0.8
			c-0.8,0.5-1.3,1.3-1.3,2.3c0,0.6,0.1,1,0.4,1.4c0.3,0.4,0.7,0.7,1.2,0.9c0.5,0.3,1.1,0.5,1.8,0.7s1.4,0.4,2.1,0.6
			c1.2,0.4,2.3,0.7,3.3,1c1,0.3,1.9,0.7,2.7,1.2c0.8,0.5,1.4,1.1,1.8,1.8c0.4,0.8,0.7,1.7,0.7,2.9c0,1.2-0.2,2.3-0.7,3.1
			c-0.5,0.8-1.2,1.5-2,2c-0.9,0.5-1.9,0.9-3.1,1.1c-1.2,0.2-2.5,0.3-3.9,0.3c-1.4,0-2.6-0.2-3.8-0.5c-1.1-0.3-2.1-0.8-2.9-1.5
			c-0.8-0.7-1.4-1.5-1.9-2.6s-0.7-2.3-0.7-3.7h4.1c0,1.6,0.5,2.8,1.4,3.6c0.9,0.8,2.2,1.1,3.8,1.1c1.6,0,2.8-0.2,3.6-0.7
			c0.8-0.5,1.3-1.3,1.3-2.4c0-0.6-0.2-1.1-0.5-1.5c-0.3-0.4-0.8-0.8-1.5-1s-1.4-0.5-2.2-0.8c-0.8-0.2-1.7-0.5-2.7-0.7
			c-1-0.3-1.9-0.6-2.7-0.9c-0.9-0.3-1.6-0.7-2.3-1.1c-0.6-0.5-1.2-1-1.5-1.7c-0.4-0.7-0.6-1.5-0.6-2.6c0-2.3,0.8-3.9,2.3-5
			c1.6-1.1,3.7-1.6,6.4-1.6c3.3,0,5.7,0.7,7.2,2c1.4,1.4,2.2,3.2,2.2,5.5H-4400.7z"/>
		<path id="XMLID_949_" class="st0" d="M-4392,25.3h5.1v5.4h0.2c0.6-1.9,1.7-3.3,3.3-4.3c1.6-1,3.5-1.5,5.6-1.5
			c1.2,0,2.4,0.2,3.6,0.5c1.2,0.3,2.3,0.9,3.2,1.8s1.7,2.1,2.3,3.6c0.6,1.5,0.9,3.5,0.9,5.8c0,2.4-0.3,4.3-0.9,5.8
			c-0.6,1.5-1.4,2.7-2.3,3.6s-2,1.5-3.2,1.8c-1.2,0.3-2.4,0.5-3.6,0.5c-2.1,0-4-0.5-5.6-1.5c-1.6-1-2.7-2.5-3.3-4.3h-0.2v14.4h-5.1
			V25.3z M-4386.9,38.7c0,0.8,0.2,1.5,0.5,2.2s0.8,1.3,1.4,1.9c0.6,0.6,1.3,1,2.2,1.3c0.9,0.3,1.8,0.5,2.9,0.5c1,0,1.9-0.1,2.7-0.4
			c0.8-0.2,1.6-0.7,2.2-1.3c0.6-0.6,1.1-1.4,1.5-2.4c0.4-1,0.5-2.3,0.5-3.9c0-1.6-0.2-2.9-0.5-3.9c-0.4-1-0.9-1.8-1.5-2.4
			c-0.6-0.6-1.4-1-2.2-1.3c-0.8-0.2-1.7-0.4-2.7-0.4c-1.1,0-2.1,0.2-2.9,0.5c-0.9,0.4-1.6,0.8-2.2,1.4c-0.6,0.6-1.1,1.2-1.4,2
			c-0.3,0.7-0.5,1.5-0.5,2.3V38.7z"/>
		<path id="XMLID_952_" class="st0" d="M-4353.6,28.7c-1.8,0-3.2,0.3-4,1c-0.9,0.7-1.3,1.6-1.3,2.9h-4.7c0-2.8,0.8-4.7,2.5-5.9
			c1.6-1.2,4.1-1.8,7.4-1.8c1.7,0,3.2,0.1,4.6,0.4c1.3,0.3,2.5,0.8,3.4,1.5c0.9,0.7,1.7,1.7,2.2,2.8c0.5,1.2,0.8,2.7,0.8,4.5v13.7
			h-4.8v-5h-0.2c-0.6,1.9-1.6,3.3-3,4.1c-1.4,0.9-3.2,1.3-5.3,1.3c-1.2,0-2.3-0.2-3.4-0.5c-1-0.3-1.9-0.8-2.7-1.4
			c-0.8-0.6-1.4-1.4-1.8-2.3c-0.4-0.9-0.7-1.9-0.7-3.1c0-2.2,0.8-3.8,2.3-5c1.5-1.2,3.7-1.8,6.4-1.8h8.3v-0.7c0-1.8-0.5-3.1-1.5-3.9
			C-4350.1,29.1-4351.6,28.7-4353.6,28.7z M-4347.6,37.5h-7.3c-1.7,0-3,0.3-3.7,1c-0.7,0.6-1.1,1.5-1.1,2.7c0,1.2,0.4,2.1,1.2,2.8
			c0.8,0.7,2,1.1,3.5,1.1c1.1,0,2.1-0.2,3-0.5c0.9-0.3,1.7-0.8,2.4-1.3c0.7-0.5,1.2-1.2,1.6-1.9c0.4-0.7,0.6-1.5,0.6-2.3V37.5z"/>
		<path id="XMLID_955_" class="st0" d="M-4337.5,47.8V25.3h5.1v5h0.2c0.5-1.9,1.3-3.3,2.2-4.1c0.9-0.9,2.1-1.3,3.6-1.3
			c0.8,0,1.6,0.2,2.6,0.5v5c-0.6-0.1-1.1-0.3-1.7-0.4c-0.6-0.1-1.1-0.2-1.7-0.2c-1,0-1.8,0.2-2.4,0.6c-0.7,0.4-1.2,0.9-1.6,1.5
			c-0.4,0.6-0.7,1.3-0.9,2.1c-0.2,0.8-0.3,1.6-0.3,2.5v11.4H-4337.5z"/>
		<path id="XMLID_957_" class="st0" d="M-4314.9,47.8h-5.1V16.3h5.1V34l9.5-8.6h6.4l-9.6,8.9l10,13.6h-6.2l-7.7-10.7l-2.4,2.3V47.8z
			"/>
	</g>
</g>
<g id="XMLID_1_" class="st2">
	<linearGradient id="XMLID_1068_" gradientUnits="userSpaceOnUse" x1="-5596.397" y1="67.6866" x2="-5596.397" y2="1.3196">
		<stop  offset="0" style="stop-color:#0000FF"/>
		<stop  offset="1" style="stop-color:#0370E6"/>
	</linearGradient>
	<path id="XMLID_16_" style="display:inline;fill:url(#XMLID_1068_);" d="M-5571.6,13.9L-5591,2.8c-3.4-1.9-7.5-1.9-10.9,0
		l-19.3,11.2c-3.4,1.9-5.4,5.5-5.4,9.4v22.3c0,3.9,2.1,7.5,5.4,9.4l19.3,11.2c3.4,1.9,7.5,1.9,10.9,0l19.3-11.2
		c3.4-1.9,5.4-5.5,5.4-9.4V23.3C-5566.2,19.5-5568.3,15.9-5571.6,13.9z M-5609.2,38.6c0,1-0.8,1.8-1.8,1.8s-1.8-0.8-1.8-1.8v-8.1
		c0-1,0.8-1.8,1.8-1.8s1.8,0.8,1.8,1.8V38.6z M-5601.9,44c0,1-0.8,1.8-1.8,1.8s-1.8-0.8-1.8-1.8V25c0-1,0.8-1.8,1.8-1.8
		s1.8,0.8,1.8,1.8V44z M-5594.6,49.8c0,1-0.8,1.8-1.8,1.8s-1.8-0.8-1.8-1.8V19.2c0-1,0.8-1.8,1.8-1.8s1.8,0.8,1.8,1.8V49.8z
		 M-5587.3,44c0,1-0.8,1.8-1.8,1.8s-1.8-0.8-1.8-1.8V25c0-1,0.8-1.8,1.8-1.8s1.8,0.8,1.8,1.8V44z M-5580,38.6c0,1-0.8,1.8-1.8,1.8
		s-1.8-0.8-1.8-1.8v-8.1c0-1,0.8-1.8,1.8-1.8s1.8,0.8,1.8,1.8V38.6z"/>
	<g id="XMLID_1069_" class="st4">
		<path id="XMLID_1070_" d="M-5522.1,47.8h-6l-2.3-6.2h-14.3l-2.2,6.2h-5.6l11.5-31.5h6.5L-5522.1,47.8z M-5543.3,37.5h11.4
			l-5.6-15.4h-0.4L-5543.3,37.5z"/>
		<path id="XMLID_1073_" d="M-5509.3,45.2c0.9,0,1.8-0.2,2.6-0.5c0.8-0.3,1.6-0.7,2.2-1.3c0.6-0.5,1.1-1.2,1.5-2
			c0.4-0.8,0.5-1.6,0.5-2.6V25.3h5v22.5h-5v-5h-0.4c-0.5,1.7-1.5,3.1-2.8,4c-1.4,0.9-3.1,1.4-5.2,1.4c-1.2,0-2.3-0.2-3.4-0.5
			c-1.1-0.3-2-0.8-2.8-1.6c-0.8-0.7-1.5-1.7-1.9-2.9c-0.5-1.2-0.7-2.7-0.7-4.5V25.3h5v13.5c0,2.3,0.5,3.9,1.4,4.9
			C-5512.3,44.7-5511,45.2-5509.3,45.2z"/>
		<path id="XMLID_1075_" d="M-5468.9,47.8h-5v-5.4h-0.2c-0.6,1.9-1.7,3.3-3.3,4.3c-1.6,1-3.5,1.5-5.6,1.5c-1.2,0-2.4-0.2-3.6-0.5
			c-1.2-0.3-2.3-0.9-3.2-1.8c-1-0.9-1.7-2.1-2.3-3.6c-0.6-1.5-0.9-3.5-0.9-5.8c0-2.4,0.3-4.3,0.9-5.8c0.6-1.5,1.4-2.7,2.3-3.6
			c1-0.9,2-1.5,3.2-1.8c1.2-0.3,2.4-0.5,3.6-0.5c2.1,0,4,0.5,5.6,1.5c1.6,1,2.7,2.5,3.3,4.3h0.2V16.3h5V47.8z M-5481,44.6
			c1.1,0,2.1-0.2,2.9-0.5c0.9-0.4,1.6-0.8,2.3-1.4c0.6-0.6,1.1-1.2,1.4-2c0.3-0.7,0.5-1.5,0.5-2.3v-3.9c0-0.7-0.2-1.5-0.5-2.2
			c-0.3-0.7-0.8-1.3-1.4-1.9c-0.6-0.6-1.4-1-2.3-1.3c-0.9-0.3-1.9-0.5-2.9-0.5c-1,0-1.9,0.1-2.7,0.4c-0.8,0.2-1.6,0.7-2.2,1.3
			c-0.6,0.6-1.1,1.4-1.5,2.4c-0.4,1-0.5,2.3-0.5,3.9s0.2,2.9,0.5,3.9c0.4,1,0.9,1.8,1.5,2.4c0.6,0.6,1.4,1,2.2,1.3
			C-5482.9,44.4-5482,44.6-5481,44.6z"/>
		<path id="XMLID_1078_" d="M-5457.8,21h-5.6v-4.6h5.6V21z M-5458,25.3v22.5h-5.1V25.3H-5458z"/>
		<path id="XMLID_1081_" d="M-5453.3,36.6c0-1.9,0.3-3.5,0.9-5c0.6-1.5,1.4-2.7,2.5-3.7c1-1,2.3-1.7,3.7-2.3
			c1.4-0.5,2.9-0.8,4.4-0.8c1.6,0,3,0.2,4.4,0.7c1.4,0.5,2.6,1.2,3.7,2.2c1.1,1,1.9,2.2,2.5,3.6c0.6,1.5,0.9,3.2,0.9,5.1
			c0,1.9-0.3,3.5-0.9,5c-0.6,1.5-1.5,2.7-2.5,3.7c-1.1,1-2.3,1.7-3.7,2.3c-1.4,0.5-2.9,0.8-4.4,0.8c-1.6,0-3-0.3-4.4-0.8
			c-1.4-0.5-2.6-1.3-3.7-2.3c-1-1-1.9-2.2-2.5-3.7C-5453,40.2-5453.3,38.5-5453.3,36.6z M-5448.8,36.6c0,1.3,0.2,2.4,0.6,3.3
			s0.9,1.7,1.5,2.4c0.6,0.6,1.4,1.1,2.3,1.4c0.9,0.3,1.7,0.5,2.7,0.5c1,0,1.9-0.2,2.7-0.5c0.9-0.3,1.6-0.8,2.2-1.4
			c0.6-0.6,1.1-1.4,1.5-2.4s0.5-2,0.5-3.3s-0.2-2.4-0.5-3.3c-0.4-0.9-0.9-1.7-1.5-2.4c-0.6-0.6-1.4-1.1-2.2-1.4
			c-0.9-0.3-1.8-0.5-2.7-0.5c-0.9,0-1.8,0.2-2.7,0.5c-0.9,0.3-1.6,0.8-2.3,1.4c-0.6,0.6-1.2,1.4-1.5,2.4
			C-5448.6,34.3-5448.8,35.4-5448.8,36.6z"/>
		<path id="XMLID_1084_" d="M-5412.7,32.2c0-1.5-0.5-2.6-1.5-3.3c-1-0.7-2.3-1-3.8-1c-1.3,0-2.3,0.3-3.1,0.8
			c-0.8,0.5-1.3,1.3-1.3,2.3c0,0.6,0.1,1,0.4,1.4c0.3,0.4,0.7,0.7,1.2,0.9c0.5,0.3,1.1,0.5,1.8,0.7s1.4,0.4,2.1,0.6
			c1.2,0.4,2.3,0.7,3.3,1c1,0.3,1.9,0.7,2.7,1.2c0.8,0.5,1.4,1.1,1.8,1.8c0.4,0.8,0.7,1.7,0.7,2.9c0,1.2-0.2,2.3-0.7,3.1
			c-0.5,0.8-1.2,1.5-2,2c-0.9,0.5-1.9,0.9-3.1,1.1c-1.2,0.2-2.5,0.3-3.9,0.3c-1.4,0-2.6-0.2-3.8-0.5c-1.1-0.3-2.1-0.8-2.9-1.5
			c-0.8-0.7-1.4-1.5-1.9-2.6s-0.7-2.3-0.7-3.7h4.1c0,1.6,0.5,2.8,1.4,3.6c0.9,0.8,2.2,1.1,3.8,1.1c1.6,0,2.8-0.2,3.6-0.7
			c0.8-0.5,1.3-1.3,1.3-2.4c0-0.6-0.2-1.1-0.5-1.5c-0.3-0.4-0.8-0.8-1.5-1s-1.4-0.5-2.2-0.8c-0.8-0.2-1.7-0.5-2.7-0.7
			c-1-0.3-1.9-0.6-2.7-0.9c-0.9-0.3-1.6-0.7-2.3-1.1c-0.6-0.5-1.2-1-1.5-1.7c-0.4-0.7-0.6-1.5-0.6-2.6c0-2.3,0.8-3.9,2.3-5
			c1.6-1.1,3.7-1.6,6.4-1.6c3.3,0,5.7,0.7,7.2,2c1.4,1.4,2.2,3.2,2.2,5.5H-5412.7z"/>
		<path id="XMLID_1086_" d="M-5404,25.3h5.1v5.4h0.2c0.6-1.9,1.7-3.3,3.3-4.3c1.6-1,3.5-1.5,5.6-1.5c1.2,0,2.4,0.2,3.6,0.5
			c1.2,0.3,2.3,0.9,3.2,1.8s1.7,2.1,2.3,3.6c0.6,1.5,0.9,3.5,0.9,5.8c0,2.4-0.3,4.3-0.9,5.8c-0.6,1.5-1.4,2.7-2.3,3.6
			c-1,0.9-2,1.5-3.2,1.8c-1.2,0.3-2.4,0.5-3.6,0.5c-2.1,0-4-0.5-5.6-1.5s-2.7-2.5-3.3-4.3h-0.2v14.4h-5.1V25.3z M-5398.9,38.7
			c0,0.8,0.2,1.5,0.5,2.2c0.3,0.7,0.8,1.3,1.4,1.9c0.6,0.6,1.3,1,2.2,1.3c0.9,0.3,1.8,0.5,2.9,0.5c1,0,1.9-0.1,2.7-0.4
			c0.8-0.2,1.6-0.7,2.2-1.3c0.6-0.6,1.1-1.4,1.5-2.4c0.4-1,0.5-2.3,0.5-3.9s-0.2-2.9-0.5-3.9c-0.4-1-0.9-1.8-1.5-2.4
			c-0.6-0.6-1.4-1-2.2-1.3c-0.8-0.2-1.7-0.4-2.7-0.4c-1.1,0-2.1,0.2-2.9,0.5c-0.9,0.4-1.6,0.8-2.2,1.4c-0.6,0.6-1.1,1.2-1.4,2
			c-0.3,0.7-0.5,1.5-0.5,2.3V38.7z"/>
		<path id="XMLID_1089_" d="M-5365.6,28.7c-1.8,0-3.2,0.3-4,1c-0.9,0.7-1.3,1.6-1.3,2.9h-4.7c0-2.8,0.8-4.7,2.5-5.9
			c1.6-1.2,4.1-1.8,7.4-1.8c1.7,0,3.2,0.1,4.6,0.4c1.3,0.3,2.5,0.8,3.4,1.5c0.9,0.7,1.7,1.7,2.2,2.8c0.5,1.2,0.8,2.7,0.8,4.5v13.7
			h-4.8v-5h-0.2c-0.6,1.9-1.6,3.3-3,4.1c-1.4,0.9-3.2,1.3-5.3,1.3c-1.2,0-2.3-0.2-3.4-0.5c-1-0.3-1.9-0.8-2.7-1.4
			c-0.8-0.6-1.4-1.4-1.8-2.3c-0.4-0.9-0.7-1.9-0.7-3.1c0-2.2,0.8-3.8,2.3-5c1.5-1.2,3.7-1.8,6.4-1.8h8.3v-0.7c0-1.8-0.5-3.1-1.5-3.9
			C-5362.1,29.1-5363.6,28.7-5365.6,28.7z M-5359.6,37.5h-7.3c-1.7,0-3,0.3-3.7,1c-0.7,0.6-1.1,1.5-1.1,2.7c0,1.2,0.4,2.1,1.2,2.8
			s2,1.1,3.5,1.1c1.1,0,2.1-0.2,3-0.5c0.9-0.3,1.7-0.8,2.4-1.3c0.7-0.5,1.2-1.2,1.6-1.9c0.4-0.7,0.6-1.5,0.6-2.3V37.5z"/>
		<path id="XMLID_1092_" d="M-5349.5,47.8V25.3h5.1v5h0.2c0.5-1.9,1.3-3.3,2.2-4.1c0.9-0.9,2.1-1.3,3.6-1.3c0.8,0,1.6,0.2,2.6,0.5v5
			c-0.6-0.1-1.1-0.3-1.7-0.4c-0.6-0.1-1.1-0.2-1.7-0.2c-1,0-1.8,0.2-2.4,0.6c-0.7,0.4-1.2,0.9-1.6,1.5c-0.4,0.6-0.7,1.3-0.9,2.1
			c-0.2,0.8-0.3,1.6-0.3,2.5v11.4H-5349.5z"/>
		<path id="XMLID_1094_" d="M-5326.9,47.8h-5.1V16.3h5.1V34l9.5-8.6h6.4l-9.6,8.9l10,13.6h-6.2l-7.7-10.7l-2.4,2.3V47.8z"/>
	</g>
	<g id="XMLID_8_" class="st4">
		<path id="XMLID_959_" d="M-5522.1,47.8h-6l-2.3-6.2h-14.3l-2.2,6.2h-5.6l11.5-31.5h6.5L-5522.1,47.8z M-5543.3,37.5h11.4
			l-5.6-15.4h-0.4L-5543.3,37.5z"/>
		<path id="XMLID_962_" d="M-5509.3,45.2c0.9,0,1.8-0.2,2.6-0.5c0.8-0.3,1.6-0.7,2.2-1.3c0.6-0.5,1.1-1.2,1.5-2
			c0.4-0.8,0.5-1.6,0.5-2.6V25.3h5v22.5h-5v-5h-0.4c-0.5,1.7-1.5,3.1-2.8,4c-1.4,0.9-3.1,1.4-5.2,1.4c-1.2,0-2.3-0.2-3.4-0.5
			c-1.1-0.3-2-0.8-2.8-1.6c-0.8-0.7-1.5-1.7-1.9-2.9c-0.5-1.2-0.7-2.7-0.7-4.5V25.3h5v13.5c0,2.3,0.5,3.9,1.4,4.9
			C-5512.3,44.7-5511,45.2-5509.3,45.2z"/>
		<path id="XMLID_964_" d="M-5468.9,47.8h-5v-5.4h-0.2c-0.6,1.9-1.7,3.3-3.3,4.3c-1.6,1-3.5,1.5-5.6,1.5c-1.2,0-2.4-0.2-3.6-0.5
			c-1.2-0.3-2.3-0.9-3.2-1.8c-1-0.9-1.7-2.1-2.3-3.6c-0.6-1.5-0.9-3.5-0.9-5.8c0-2.4,0.3-4.3,0.9-5.8c0.6-1.5,1.4-2.7,2.3-3.6
			c1-0.9,2-1.5,3.2-1.8c1.2-0.3,2.4-0.5,3.6-0.5c2.1,0,4,0.5,5.6,1.5c1.6,1,2.7,2.5,3.3,4.3h0.2V16.3h5V47.8z M-5481,44.6
			c1.1,0,2.1-0.2,2.9-0.5c0.9-0.4,1.6-0.8,2.3-1.4c0.6-0.6,1.1-1.2,1.4-2c0.3-0.7,0.5-1.5,0.5-2.3v-3.9c0-0.7-0.2-1.5-0.5-2.2
			c-0.3-0.7-0.8-1.3-1.4-1.9c-0.6-0.6-1.4-1-2.3-1.3c-0.9-0.3-1.9-0.5-2.9-0.5c-1,0-1.9,0.1-2.7,0.4c-0.8,0.2-1.6,0.7-2.2,1.3
			c-0.6,0.6-1.1,1.4-1.5,2.4c-0.4,1-0.5,2.3-0.5,3.9s0.2,2.9,0.5,3.9c0.4,1,0.9,1.8,1.5,2.4c0.6,0.6,1.4,1,2.2,1.3
			C-5482.9,44.4-5482,44.6-5481,44.6z"/>
		<path id="XMLID_967_" d="M-5457.8,21h-5.6v-4.6h5.6V21z M-5458,25.3v22.5h-5.1V25.3H-5458z"/>
		<path id="XMLID_970_" d="M-5453.3,36.6c0-1.9,0.3-3.5,0.9-5c0.6-1.5,1.4-2.7,2.5-3.7c1-1,2.3-1.7,3.7-2.3c1.4-0.5,2.9-0.8,4.4-0.8
			c1.6,0,3,0.2,4.4,0.7c1.4,0.5,2.6,1.2,3.7,2.2c1.1,1,1.9,2.2,2.5,3.6c0.6,1.5,0.9,3.2,0.9,5.1c0,1.9-0.3,3.5-0.9,5
			c-0.6,1.5-1.5,2.7-2.5,3.7c-1.1,1-2.3,1.7-3.7,2.3c-1.4,0.5-2.9,0.8-4.4,0.8c-1.6,0-3-0.3-4.4-0.8c-1.4-0.5-2.6-1.3-3.7-2.3
			c-1-1-1.9-2.2-2.5-3.7C-5453,40.2-5453.3,38.5-5453.3,36.6z M-5448.8,36.6c0,1.3,0.2,2.4,0.6,3.3s0.9,1.7,1.5,2.4
			c0.6,0.6,1.4,1.1,2.3,1.4c0.9,0.3,1.7,0.5,2.7,0.5c1,0,1.9-0.2,2.7-0.5c0.9-0.3,1.6-0.8,2.2-1.4c0.6-0.6,1.1-1.4,1.5-2.4
			s0.5-2,0.5-3.3s-0.2-2.4-0.5-3.3c-0.4-0.9-0.9-1.7-1.5-2.4c-0.6-0.6-1.4-1.1-2.2-1.4c-0.9-0.3-1.8-0.5-2.7-0.5
			c-0.9,0-1.8,0.2-2.7,0.5c-0.9,0.3-1.6,0.8-2.3,1.4c-0.6,0.6-1.2,1.4-1.5,2.4C-5448.6,34.3-5448.8,35.4-5448.8,36.6z"/>
		<path id="XMLID_973_" d="M-5412.7,32.2c0-1.5-0.5-2.6-1.5-3.3c-1-0.7-2.3-1-3.8-1c-1.3,0-2.3,0.3-3.1,0.8
			c-0.8,0.5-1.3,1.3-1.3,2.3c0,0.6,0.1,1,0.4,1.4c0.3,0.4,0.7,0.7,1.2,0.9c0.5,0.3,1.1,0.5,1.8,0.7s1.4,0.4,2.1,0.6
			c1.2,0.4,2.3,0.7,3.3,1c1,0.3,1.9,0.7,2.7,1.2c0.8,0.5,1.4,1.1,1.8,1.8c0.4,0.8,0.7,1.7,0.7,2.9c0,1.2-0.2,2.3-0.7,3.1
			c-0.5,0.8-1.2,1.5-2,2c-0.9,0.5-1.9,0.9-3.1,1.1c-1.2,0.2-2.5,0.3-3.9,0.3c-1.4,0-2.6-0.2-3.8-0.5c-1.1-0.3-2.1-0.8-2.9-1.5
			c-0.8-0.7-1.4-1.5-1.9-2.6s-0.7-2.3-0.7-3.7h4.1c0,1.6,0.5,2.8,1.4,3.6c0.9,0.8,2.2,1.1,3.8,1.1c1.6,0,2.8-0.2,3.6-0.7
			c0.8-0.5,1.3-1.3,1.3-2.4c0-0.6-0.2-1.1-0.5-1.5c-0.3-0.4-0.8-0.8-1.5-1s-1.4-0.5-2.2-0.8c-0.8-0.2-1.7-0.5-2.7-0.7
			c-1-0.3-1.9-0.6-2.7-0.9c-0.9-0.3-1.6-0.7-2.3-1.1c-0.6-0.5-1.2-1-1.5-1.7c-0.4-0.7-0.6-1.5-0.6-2.6c0-2.3,0.8-3.9,2.3-5
			c1.6-1.1,3.7-1.6,6.4-1.6c3.3,0,5.7,0.7,7.2,2c1.4,1.4,2.2,3.2,2.2,5.5H-5412.7z"/>
		<path id="XMLID_975_" d="M-5404,25.3h5.1v5.4h0.2c0.6-1.9,1.7-3.3,3.3-4.3c1.6-1,3.5-1.5,5.6-1.5c1.2,0,2.4,0.2,3.6,0.5
			c1.2,0.3,2.3,0.9,3.2,1.8s1.7,2.1,2.3,3.6c0.6,1.5,0.9,3.5,0.9,5.8c0,2.4-0.3,4.3-0.9,5.8c-0.6,1.5-1.4,2.7-2.3,3.6
			c-1,0.9-2,1.5-3.2,1.8c-1.2,0.3-2.4,0.5-3.6,0.5c-2.1,0-4-0.5-5.6-1.5s-2.7-2.5-3.3-4.3h-0.2v14.4h-5.1V25.3z M-5398.9,38.7
			c0,0.8,0.2,1.5,0.5,2.2c0.3,0.7,0.8,1.3,1.4,1.9c0.6,0.6,1.3,1,2.2,1.3c0.9,0.3,1.8,0.5,2.9,0.5c1,0,1.9-0.1,2.7-0.4
			c0.8-0.2,1.6-0.7,2.2-1.3c0.6-0.6,1.1-1.4,1.5-2.4c0.4-1,0.5-2.3,0.5-3.9s-0.2-2.9-0.5-3.9c-0.4-1-0.9-1.8-1.5-2.4
			c-0.6-0.6-1.4-1-2.2-1.3c-0.8-0.2-1.7-0.4-2.7-0.4c-1.1,0-2.1,0.2-2.9,0.5c-0.9,0.4-1.6,0.8-2.2,1.4c-0.6,0.6-1.1,1.2-1.4,2
			c-0.3,0.7-0.5,1.5-0.5,2.3V38.7z"/>
		<path id="XMLID_978_" d="M-5365.6,28.7c-1.8,0-3.2,0.3-4,1c-0.9,0.7-1.3,1.6-1.3,2.9h-4.7c0-2.8,0.8-4.7,2.5-5.9
			c1.6-1.2,4.1-1.8,7.4-1.8c1.7,0,3.2,0.1,4.6,0.4c1.3,0.3,2.5,0.8,3.4,1.5c0.9,0.7,1.7,1.7,2.2,2.8c0.5,1.2,0.8,2.7,0.8,4.5v13.7
			h-4.8v-5h-0.2c-0.6,1.9-1.6,3.3-3,4.1c-1.4,0.9-3.2,1.3-5.3,1.3c-1.2,0-2.3-0.2-3.4-0.5c-1-0.3-1.9-0.8-2.7-1.4
			c-0.8-0.6-1.4-1.4-1.8-2.3c-0.4-0.9-0.7-1.9-0.7-3.1c0-2.2,0.8-3.8,2.3-5c1.5-1.2,3.7-1.8,6.4-1.8h8.3v-0.7c0-1.8-0.5-3.1-1.5-3.9
			C-5362.1,29.1-5363.6,28.7-5365.6,28.7z M-5359.6,37.5h-7.3c-1.7,0-3,0.3-3.7,1c-0.7,0.6-1.1,1.5-1.1,2.7c0,1.2,0.4,2.1,1.2,2.8
			s2,1.1,3.5,1.1c1.1,0,2.1-0.2,3-0.5c0.9-0.3,1.7-0.8,2.4-1.3c0.7-0.5,1.2-1.2,1.6-1.9c0.4-0.7,0.6-1.5,0.6-2.3V37.5z"/>
		<path id="XMLID_981_" d="M-5349.5,47.8V25.3h5.1v5h0.2c0.5-1.9,1.3-3.3,2.2-4.1c0.9-0.9,2.1-1.3,3.6-1.3c0.8,0,1.6,0.2,2.6,0.5v5
			c-0.6-0.1-1.1-0.3-1.7-0.4c-0.6-0.1-1.1-0.2-1.7-0.2c-1,0-1.8,0.2-2.4,0.6c-0.7,0.4-1.2,0.9-1.6,1.5c-0.4,0.6-0.7,1.3-0.9,2.1
			c-0.2,0.8-0.3,1.6-0.3,2.5v11.4H-5349.5z"/>
		<path id="XMLID_983_" d="M-5326.9,47.8h-5.1V16.3h5.1V34l9.5-8.6h6.4l-9.6,8.9l10,13.6h-6.2l-7.7-10.7l-2.4,2.3V47.8z"/>
	</g>
</g>
</svg>
