<?xml version="1.0" encoding="utf-8"?>
<!-- Generator: Adobe Illustrator 19.0.0, SVG Export Plug-In . SVG Version: 6.00 Build 0)  -->
<svg version="1.1" id="Layer_1" xmlns="http://www.w3.org/2000/svg" xmlns:xlink="http://www.w3.org/1999/xlink" x="0px" y="0px"
	 viewBox="0 0 319.5 78" style="enable-background:new 0 0 319.5 78;" xml:space="preserve">
<style type="text/css">
	.st0{display:none;fill:#FFFFFF;}
	.st1{display:none;fill:url(#XMLID_608_);}
	.st2{display:none;}
	.st3{display:inline;fill:#FFFFFF;}
	.st4{display:inline;}
	.st5{display:inline;fill:url(#XMLID_609_);}
	.st6{fill:#FFFFFF;}
	.st7{fill:url(#XMLID_610_);}
</style>
<path id="XMLID_100_" class="st0" d="M5684.9,18.7l-19.3-11.2c-3.4-1.9-7.5-1.9-10.9,0l-19.3,11.2c-3.4,1.9-5.4,5.5-5.4,9.4v22.3
	c0,3.9,2.1,7.5,5.4,9.4l19.3,11.2c3.4,1.9,7.5,1.9,10.9,0l19.3-11.2c3.4-1.9,5.4-5.5,5.4-9.4V28.1
	C5690.3,24.3,5688.2,20.7,5684.9,18.7z M5647.3,43.4c0,1-0.8,1.8-1.8,1.8s-1.8-0.8-1.8-1.8v-8.1c0-1,0.8-1.8,1.8-1.8
	s1.8,0.8,1.8,1.8V43.4z M5654.6,48.8c0,1-0.8,1.8-1.8,1.8s-1.8-0.8-1.8-1.8V29.8c0-1,0.8-1.8,1.8-1.8s1.8,0.8,1.8,1.8V48.8z
	 M5661.9,54.6c0,1-0.8,1.8-1.8,1.8s-1.8-0.8-1.8-1.8V24c0-1,0.8-1.8,1.8-1.8s1.8,0.8,1.8,1.8V54.6z M5669.2,48.8
	c0,1-0.8,1.8-1.8,1.8s-1.8-0.8-1.8-1.8V29.8c0-1,0.8-1.8,1.8-1.8s1.8,0.8,1.8,1.8V48.8z M5676.5,43.4c0,1-0.8,1.8-1.8,1.8
	s-1.8-0.8-1.8-1.8v-8.1c0-1,0.8-1.8,1.8-1.8s1.8,0.8,1.8,1.8V43.4z"/>
<linearGradient id="XMLID_608_" gradientUnits="userSpaceOnUse" x1="4632.1255" y1="72.4771" x2="4632.1255" y2="6.1101">
	<stop  offset="0" style="stop-color:#0000FF"/>
	<stop  offset="1" style="stop-color:#0370E6"/>
</linearGradient>
<path id="XMLID_101_" class="st1" d="M4656.9,18.7l-19.3-11.2c-3.4-1.9-7.5-1.9-10.9,0l-19.3,11.2c-3.4,1.9-5.4,5.5-5.4,9.4v22.3
	c0,3.9,2.1,7.5,5.4,9.4l19.3,11.2c3.4,1.9,7.5,1.9,10.9,0l19.3-11.2c3.4-1.9,5.4-5.5,5.4-9.4V28.1
	C4662.3,24.3,4660.2,20.7,4656.9,18.7z M4619.3,43.4c0,1-0.8,1.8-1.8,1.8s-1.8-0.8-1.8-1.8v-8.1c0-1,0.8-1.8,1.8-1.8
	s1.8,0.8,1.8,1.8V43.4z M4626.6,48.8c0,1-0.8,1.8-1.8,1.8s-1.8-0.8-1.8-1.8V29.8c0-1,0.8-1.8,1.8-1.8s1.8,0.8,1.8,1.8V48.8z
	 M4633.9,54.6c0,1-0.8,1.8-1.8,1.8s-1.8-0.8-1.8-1.8V24c0-1,0.8-1.8,1.8-1.8s1.8,0.8,1.8,1.8V54.6z M4641.2,48.8
	c0,1-0.8,1.8-1.8,1.8s-1.8-0.8-1.8-1.8V29.8c0-1,0.8-1.8,1.8-1.8s1.8,0.8,1.8,1.8V48.8z M4648.5,43.4c0,1-0.8,1.8-1.8,1.8
	s-1.8-0.8-1.8-1.8v-8.1c0-1,0.8-1.8,1.8-1.8s1.8,0.8,1.8,1.8V43.4z"/>
<g id="XMLID_609_" class="st2">
	<path id="XMLID_610_" class="st3" d="M3309.2,52.6h-6l-2.3-6.2h-14.3l-2.2,6.2h-5.6l11.5-31.5h6.5L3309.2,52.6z M3288.1,42.3h11.4
		l-5.6-15.4h-0.4L3288.1,42.3z"/>
	<path id="XMLID_640_" class="st3" d="M3322,50c0.9,0,1.8-0.2,2.6-0.5s1.6-0.7,2.2-1.3c0.6-0.5,1.1-1.2,1.5-2
		c0.4-0.8,0.5-1.6,0.5-2.6V30.1h5v22.5h-5v-5h-0.4c-0.5,1.7-1.5,3.1-2.8,4c-1.4,0.9-3.1,1.4-5.2,1.4c-1.2,0-2.3-0.2-3.4-0.5
		c-1.1-0.3-2-0.8-2.8-1.6c-0.8-0.7-1.5-1.7-1.9-2.9c-0.5-1.2-0.7-2.7-0.7-4.5V30.1h5v13.5c0,2.3,0.5,3.9,1.4,4.9
		C3319,49.5,3320.3,50,3322,50z"/>
	<path id="XMLID_642_" class="st3" d="M3362.4,52.6h-5v-5.4h-0.2c-0.6,1.9-1.7,3.3-3.3,4.3c-1.6,1-3.5,1.5-5.6,1.5
		c-1.2,0-2.4-0.2-3.6-0.5c-1.2-0.3-2.3-0.9-3.2-1.8c-1-0.9-1.7-2.1-2.3-3.6c-0.6-1.5-0.9-3.5-0.9-5.8c0-2.4,0.3-4.3,0.9-5.8
		c0.6-1.5,1.4-2.7,2.3-3.6c1-0.9,2-1.5,3.2-1.8c1.2-0.3,2.4-0.5,3.6-0.5c2.1,0,4,0.5,5.6,1.5c1.6,1,2.7,2.5,3.3,4.3h0.2V21h5V52.6z
		 M3350.3,49.4c1.1,0,2.1-0.2,2.9-0.5c0.9-0.4,1.6-0.8,2.3-1.4c0.6-0.6,1.1-1.2,1.4-2c0.3-0.7,0.5-1.5,0.5-2.3v-3.9
		c0-0.7-0.2-1.5-0.5-2.2c-0.3-0.7-0.8-1.3-1.4-1.9c-0.6-0.6-1.4-1-2.3-1.3c-0.9-0.3-1.9-0.5-2.9-0.5c-1,0-1.9,0.1-2.7,0.4
		c-0.8,0.2-1.6,0.7-2.2,1.3c-0.6,0.6-1.1,1.4-1.5,2.4c-0.4,1-0.5,2.3-0.5,3.9c0,1.6,0.2,2.9,0.5,3.9c0.4,1,0.9,1.8,1.5,2.4
		c0.6,0.6,1.4,1,2.2,1.3C3348.4,49.2,3349.3,49.4,3350.3,49.4z"/>
	<path id="XMLID_645_" class="st3" d="M3373.6,25.8h-5.6v-4.6h5.6V25.8z M3373.3,30.1v22.5h-5.1V30.1H3373.3z"/>
	<path id="XMLID_648_" class="st3" d="M3378.1,41.4c0-1.9,0.3-3.5,0.9-5c0.6-1.5,1.4-2.7,2.5-3.7c1-1,2.3-1.7,3.7-2.3
		c1.4-0.5,2.9-0.8,4.4-0.8c1.6,0,3,0.2,4.4,0.7c1.4,0.5,2.6,1.2,3.7,2.2c1.1,1,1.9,2.2,2.5,3.6c0.6,1.5,0.9,3.2,0.9,5.1
		c0,1.9-0.3,3.5-0.9,5c-0.6,1.5-1.5,2.7-2.5,3.7c-1.1,1-2.3,1.7-3.7,2.3c-1.4,0.5-2.9,0.8-4.4,0.8c-1.6,0-3-0.3-4.4-0.8
		c-1.4-0.5-2.6-1.3-3.7-2.3c-1-1-1.9-2.2-2.5-3.7C3378.4,44.9,3378.1,43.3,3378.1,41.4z M3382.6,41.4c0,1.3,0.2,2.4,0.6,3.3
		c0.4,0.9,0.9,1.7,1.5,2.4c0.6,0.6,1.4,1.1,2.3,1.4c0.9,0.3,1.7,0.5,2.7,0.5c1,0,1.9-0.2,2.7-0.5c0.9-0.3,1.6-0.8,2.2-1.4
		c0.6-0.6,1.1-1.4,1.5-2.4c0.4-0.9,0.5-2,0.5-3.3c0-1.3-0.2-2.4-0.5-3.3c-0.4-0.9-0.9-1.7-1.5-2.4c-0.6-0.6-1.4-1.1-2.2-1.4
		c-0.9-0.3-1.8-0.5-2.7-0.5c-0.9,0-1.8,0.2-2.7,0.5c-0.9,0.3-1.6,0.8-2.3,1.4c-0.6,0.6-1.2,1.4-1.5,2.4
		C3382.7,39.1,3382.6,40.2,3382.6,41.4z"/>
	<path id="XMLID_651_" class="st3" d="M3418.7,37c0-1.5-0.5-2.6-1.5-3.3c-1-0.7-2.3-1-3.8-1c-1.3,0-2.3,0.3-3.1,0.8
		c-0.8,0.5-1.3,1.3-1.3,2.3c0,0.6,0.1,1,0.4,1.4c0.3,0.4,0.7,0.7,1.2,0.9c0.5,0.3,1.1,0.5,1.8,0.7s1.4,0.4,2.1,0.6
		c1.2,0.4,2.3,0.7,3.3,1c1,0.3,1.9,0.7,2.7,1.2c0.8,0.5,1.4,1.1,1.8,1.8c0.4,0.8,0.7,1.7,0.7,2.9c0,1.2-0.2,2.3-0.7,3.1
		c-0.5,0.8-1.2,1.5-2,2c-0.9,0.5-1.9,0.9-3.1,1.1c-1.2,0.2-2.5,0.3-3.9,0.3c-1.4,0-2.6-0.2-3.8-0.5c-1.1-0.3-2.1-0.8-2.9-1.5
		c-0.8-0.7-1.4-1.5-1.9-2.6s-0.7-2.3-0.7-3.7h4.1c0,1.6,0.5,2.8,1.4,3.6c0.9,0.8,2.2,1.1,3.8,1.1c1.6,0,2.8-0.2,3.6-0.7
		c0.8-0.5,1.3-1.3,1.3-2.4c0-0.6-0.2-1.1-0.5-1.5c-0.3-0.4-0.8-0.8-1.5-1s-1.4-0.5-2.2-0.8c-0.8-0.2-1.7-0.5-2.7-0.7
		c-1-0.3-1.9-0.6-2.7-0.9c-0.9-0.3-1.6-0.7-2.3-1.1c-0.6-0.5-1.2-1-1.5-1.7c-0.4-0.7-0.6-1.5-0.6-2.6c0-2.3,0.8-3.9,2.3-5
		c1.6-1.1,3.7-1.6,6.4-1.6c3.3,0,5.7,0.7,7.2,2c1.4,1.4,2.2,3.2,2.2,5.5H3418.7z"/>
	<path id="XMLID_653_" class="st3" d="M3427.3,30.1h5.1v5.4h0.2c0.6-1.9,1.7-3.3,3.3-4.3c1.6-1,3.5-1.5,5.6-1.5
		c1.2,0,2.4,0.2,3.6,0.5c1.2,0.3,2.3,0.9,3.2,1.8c1,0.9,1.7,2.1,2.3,3.6c0.6,1.5,0.9,3.5,0.9,5.8c0,2.4-0.3,4.3-0.9,5.8
		c-0.6,1.5-1.4,2.7-2.3,3.6s-2,1.5-3.2,1.8c-1.2,0.3-2.4,0.5-3.6,0.5c-2.1,0-4-0.5-5.6-1.5c-1.6-1-2.7-2.5-3.3-4.3h-0.2v14.4h-5.1
		V30.1z M3432.4,43.5c0,0.8,0.2,1.5,0.5,2.2s0.8,1.3,1.4,1.9c0.6,0.6,1.3,1,2.2,1.3c0.9,0.3,1.8,0.5,2.9,0.5c1,0,1.9-0.1,2.7-0.4
		c0.8-0.2,1.6-0.7,2.2-1.3c0.6-0.6,1.1-1.4,1.5-2.4c0.4-1,0.5-2.3,0.5-3.9c0-1.6-0.2-2.9-0.5-3.9c-0.4-1-0.9-1.8-1.5-2.4
		c-0.6-0.6-1.4-1-2.2-1.3c-0.8-0.2-1.7-0.4-2.7-0.4c-1.1,0-2.1,0.2-2.9,0.5c-0.9,0.4-1.6,0.8-2.2,1.4c-0.6,0.6-1.1,1.2-1.4,2
		c-0.3,0.7-0.5,1.5-0.5,2.3V43.5z"/>
	<path id="XMLID_656_" class="st3" d="M3465.7,33.5c-1.8,0-3.2,0.3-4,1c-0.9,0.7-1.3,1.6-1.3,2.9h-4.7c0-2.8,0.8-4.7,2.5-5.9
		c1.6-1.2,4.1-1.8,7.4-1.8c1.7,0,3.2,0.1,4.6,0.4c1.3,0.3,2.5,0.8,3.4,1.5c0.9,0.7,1.7,1.7,2.2,2.8c0.5,1.2,0.8,2.7,0.8,4.5v13.7
		h-4.8v-5h-0.2c-0.6,1.9-1.6,3.3-3,4.1c-1.4,0.9-3.2,1.3-5.3,1.3c-1.2,0-2.3-0.2-3.4-0.5c-1-0.3-1.9-0.8-2.7-1.4
		c-0.8-0.6-1.4-1.4-1.8-2.3c-0.4-0.9-0.7-1.9-0.7-3.1c0-2.2,0.8-3.8,2.3-5c1.5-1.2,3.7-1.8,6.4-1.8h8.3v-0.7c0-1.8-0.5-3.1-1.5-3.9
		C3469.3,33.8,3467.8,33.5,3465.7,33.5z M3471.7,42.2h-7.3c-1.7,0-3,0.3-3.7,1c-0.7,0.6-1.1,1.5-1.1,2.7c0,1.2,0.4,2.1,1.2,2.8
		c0.8,0.7,2,1.1,3.5,1.1c1.1,0,2.1-0.2,3-0.5c0.9-0.3,1.7-0.8,2.4-1.3c0.7-0.5,1.2-1.2,1.6-1.9c0.4-0.7,0.6-1.5,0.6-2.3V42.2z"/>
	<path id="XMLID_659_" class="st3" d="M3481.8,52.6V30.1h5.1v5h0.2c0.5-1.9,1.3-3.3,2.2-4.1c0.9-0.9,2.1-1.3,3.6-1.3
		c0.8,0,1.6,0.2,2.6,0.5v5c-0.6-0.1-1.1-0.3-1.7-0.4c-0.6-0.1-1.1-0.2-1.7-0.2c-1,0-1.8,0.2-2.4,0.6c-0.7,0.4-1.2,0.9-1.6,1.5
		c-0.4,0.6-0.7,1.3-0.9,2.1c-0.2,0.8-0.3,1.6-0.3,2.5v11.4H3481.8z"/>
	<path id="XMLID_661_" class="st3" d="M3504.5,52.6h-5.1V21.1h5.1v17.7l9.5-8.6h6.4l-9.6,8.9l10,13.6h-6.2l-7.7-10.7l-2.4,2.3V52.6z
		"/>
</g>
<g id="XMLID_60_" class="st2">
	<path id="XMLID_504_" class="st3" d="M3309.2,52.6h-6l-2.3-6.2h-14.3l-2.2,6.2h-5.6l11.5-31.5h6.5L3309.2,52.6z M3288.1,42.3h11.4
		l-5.6-15.4h-0.4L3288.1,42.3z"/>
	<path id="XMLID_507_" class="st3" d="M3322,50c0.9,0,1.8-0.2,2.6-0.5s1.6-0.7,2.2-1.3c0.6-0.5,1.1-1.2,1.5-2
		c0.4-0.8,0.5-1.6,0.5-2.6V30.1h5v22.5h-5v-5h-0.4c-0.5,1.7-1.5,3.1-2.8,4c-1.4,0.9-3.1,1.4-5.2,1.4c-1.2,0-2.3-0.2-3.4-0.5
		c-1.1-0.3-2-0.8-2.8-1.6c-0.8-0.7-1.5-1.7-1.9-2.9c-0.5-1.2-0.7-2.7-0.7-4.5V30.1h5v13.5c0,2.3,0.5,3.9,1.4,4.9
		C3319,49.5,3320.3,50,3322,50z"/>
	<path id="XMLID_509_" class="st3" d="M3362.4,52.6h-5v-5.4h-0.2c-0.6,1.9-1.7,3.3-3.3,4.3c-1.6,1-3.5,1.5-5.6,1.5
		c-1.2,0-2.4-0.2-3.6-0.5c-1.2-0.3-2.3-0.9-3.2-1.8c-1-0.9-1.7-2.1-2.3-3.6c-0.6-1.5-0.9-3.5-0.9-5.8c0-2.4,0.3-4.3,0.9-5.8
		c0.6-1.5,1.4-2.7,2.3-3.6c1-0.9,2-1.5,3.2-1.8c1.2-0.3,2.4-0.5,3.6-0.5c2.1,0,4,0.5,5.6,1.5c1.6,1,2.7,2.5,3.3,4.3h0.2V21h5V52.6z
		 M3350.3,49.4c1.1,0,2.1-0.2,2.9-0.5c0.9-0.4,1.6-0.8,2.3-1.4c0.6-0.6,1.1-1.2,1.4-2c0.3-0.7,0.5-1.5,0.5-2.3v-3.9
		c0-0.7-0.2-1.5-0.5-2.2c-0.3-0.7-0.8-1.3-1.4-1.9c-0.6-0.6-1.4-1-2.3-1.3c-0.9-0.3-1.9-0.5-2.9-0.5c-1,0-1.9,0.1-2.7,0.4
		c-0.8,0.2-1.6,0.7-2.2,1.3c-0.6,0.6-1.1,1.4-1.5,2.4c-0.4,1-0.5,2.3-0.5,3.9c0,1.6,0.2,2.9,0.5,3.9c0.4,1,0.9,1.8,1.5,2.4
		c0.6,0.6,1.4,1,2.2,1.3C3348.4,49.2,3349.3,49.4,3350.3,49.4z"/>
	<path id="XMLID_512_" class="st3" d="M3373.6,25.8h-5.6v-4.6h5.6V25.8z M3373.3,30.1v22.5h-5.1V30.1H3373.3z"/>
	<path id="XMLID_515_" class="st3" d="M3378.1,41.4c0-1.9,0.3-3.5,0.9-5c0.6-1.5,1.4-2.7,2.5-3.7c1-1,2.3-1.7,3.7-2.3
		c1.4-0.5,2.9-0.8,4.4-0.8c1.6,0,3,0.2,4.4,0.7c1.4,0.5,2.6,1.2,3.7,2.2c1.1,1,1.9,2.2,2.5,3.6c0.6,1.5,0.9,3.2,0.9,5.1
		c0,1.9-0.3,3.5-0.9,5c-0.6,1.5-1.5,2.7-2.5,3.7c-1.1,1-2.3,1.7-3.7,2.3c-1.4,0.5-2.9,0.8-4.4,0.8c-1.6,0-3-0.3-4.4-0.8
		c-1.4-0.5-2.6-1.3-3.7-2.3c-1-1-1.9-2.2-2.5-3.7C3378.4,44.9,3378.1,43.3,3378.1,41.4z M3382.6,41.4c0,1.3,0.2,2.4,0.6,3.3
		c0.4,0.9,0.9,1.7,1.5,2.4c0.6,0.6,1.4,1.1,2.3,1.4c0.9,0.3,1.7,0.5,2.7,0.5c1,0,1.9-0.2,2.7-0.5c0.9-0.3,1.6-0.8,2.2-1.4
		c0.6-0.6,1.1-1.4,1.5-2.4c0.4-0.9,0.5-2,0.5-3.3c0-1.3-0.2-2.4-0.5-3.3c-0.4-0.9-0.9-1.7-1.5-2.4c-0.6-0.6-1.4-1.1-2.2-1.4
		c-0.9-0.3-1.8-0.5-2.7-0.5c-0.9,0-1.8,0.2-2.7,0.5c-0.9,0.3-1.6,0.8-2.3,1.4c-0.6,0.6-1.2,1.4-1.5,2.4
		C3382.7,39.1,3382.6,40.2,3382.6,41.4z"/>
	<path id="XMLID_518_" class="st3" d="M3418.7,37c0-1.5-0.5-2.6-1.5-3.3c-1-0.7-2.3-1-3.8-1c-1.3,0-2.3,0.3-3.1,0.8
		c-0.8,0.5-1.3,1.3-1.3,2.3c0,0.6,0.1,1,0.4,1.4c0.3,0.4,0.7,0.7,1.2,0.9c0.5,0.3,1.1,0.5,1.8,0.7s1.4,0.4,2.1,0.6
		c1.2,0.4,2.3,0.7,3.3,1c1,0.3,1.9,0.7,2.7,1.2c0.8,0.5,1.4,1.1,1.8,1.8c0.4,0.8,0.7,1.7,0.7,2.9c0,1.2-0.2,2.3-0.7,3.1
		c-0.5,0.8-1.2,1.5-2,2c-0.9,0.5-1.9,0.9-3.1,1.1c-1.2,0.2-2.5,0.3-3.9,0.3c-1.4,0-2.6-0.2-3.8-0.5c-1.1-0.3-2.1-0.8-2.9-1.5
		c-0.8-0.7-1.4-1.5-1.9-2.6s-0.7-2.3-0.7-3.7h4.1c0,1.6,0.5,2.8,1.4,3.6c0.9,0.8,2.2,1.1,3.8,1.1c1.6,0,2.8-0.2,3.6-0.7
		c0.8-0.5,1.3-1.3,1.3-2.4c0-0.6-0.2-1.1-0.5-1.5c-0.3-0.4-0.8-0.8-1.5-1s-1.4-0.5-2.2-0.8c-0.8-0.2-1.7-0.5-2.7-0.7
		c-1-0.3-1.9-0.6-2.7-0.9c-0.9-0.3-1.6-0.7-2.3-1.1c-0.6-0.5-1.2-1-1.5-1.7c-0.4-0.7-0.6-1.5-0.6-2.6c0-2.3,0.8-3.9,2.3-5
		c1.6-1.1,3.7-1.6,6.4-1.6c3.3,0,5.7,0.7,7.2,2c1.4,1.4,2.2,3.2,2.2,5.5H3418.7z"/>
	<path id="XMLID_520_" class="st3" d="M3427.3,30.1h5.1v5.4h0.2c0.6-1.9,1.7-3.3,3.3-4.3c1.6-1,3.5-1.5,5.6-1.5
		c1.2,0,2.4,0.2,3.6,0.5c1.2,0.3,2.3,0.9,3.2,1.8c1,0.9,1.7,2.1,2.3,3.6c0.6,1.5,0.9,3.5,0.9,5.8c0,2.4-0.3,4.3-0.9,5.8
		c-0.6,1.5-1.4,2.7-2.3,3.6s-2,1.5-3.2,1.8c-1.2,0.3-2.4,0.5-3.6,0.5c-2.1,0-4-0.5-5.6-1.5c-1.6-1-2.7-2.5-3.3-4.3h-0.2v14.4h-5.1
		V30.1z M3432.4,43.5c0,0.8,0.2,1.5,0.5,2.2s0.8,1.3,1.4,1.9c0.6,0.6,1.3,1,2.2,1.3c0.9,0.3,1.8,0.5,2.9,0.5c1,0,1.9-0.1,2.7-0.4
		c0.8-0.2,1.6-0.7,2.2-1.3c0.6-0.6,1.1-1.4,1.5-2.4c0.4-1,0.5-2.3,0.5-3.9c0-1.6-0.2-2.9-0.5-3.9c-0.4-1-0.9-1.8-1.5-2.4
		c-0.6-0.6-1.4-1-2.2-1.3c-0.8-0.2-1.7-0.4-2.7-0.4c-1.1,0-2.1,0.2-2.9,0.5c-0.9,0.4-1.6,0.8-2.2,1.4c-0.6,0.6-1.1,1.2-1.4,2
		c-0.3,0.7-0.5,1.5-0.5,2.3V43.5z"/>
	<path id="XMLID_523_" class="st3" d="M3465.7,33.5c-1.8,0-3.2,0.3-4,1c-0.9,0.7-1.3,1.6-1.3,2.9h-4.7c0-2.8,0.8-4.7,2.5-5.9
		c1.6-1.2,4.1-1.8,7.4-1.8c1.7,0,3.2,0.1,4.6,0.4c1.3,0.3,2.5,0.8,3.4,1.5c0.9,0.7,1.7,1.7,2.2,2.8c0.5,1.2,0.8,2.7,0.8,4.5v13.7
		h-4.8v-5h-0.2c-0.6,1.9-1.6,3.3-3,4.1c-1.4,0.9-3.2,1.3-5.3,1.3c-1.2,0-2.3-0.2-3.4-0.5c-1-0.3-1.9-0.8-2.7-1.4
		c-0.8-0.6-1.4-1.4-1.8-2.3c-0.4-0.9-0.7-1.9-0.7-3.1c0-2.2,0.8-3.8,2.3-5c1.5-1.2,3.7-1.8,6.4-1.8h8.3v-0.7c0-1.8-0.5-3.1-1.5-3.9
		C3469.3,33.8,3467.8,33.5,3465.7,33.5z M3471.7,42.2h-7.3c-1.7,0-3,0.3-3.7,1c-0.7,0.6-1.1,1.5-1.1,2.7c0,1.2,0.4,2.1,1.2,2.8
		c0.8,0.7,2,1.1,3.5,1.1c1.1,0,2.1-0.2,3-0.5c0.9-0.3,1.7-0.8,2.4-1.3c0.7-0.5,1.2-1.2,1.6-1.9c0.4-0.7,0.6-1.5,0.6-2.3V42.2z"/>
	<path id="XMLID_526_" class="st3" d="M3481.8,52.6V30.1h5.1v5h0.2c0.5-1.9,1.3-3.3,2.2-4.1c0.9-0.9,2.1-1.3,3.6-1.3
		c0.8,0,1.6,0.2,2.6,0.5v5c-0.6-0.1-1.1-0.3-1.7-0.4c-0.6-0.1-1.1-0.2-1.7-0.2c-1,0-1.8,0.2-2.4,0.6c-0.7,0.4-1.2,0.9-1.6,1.5
		c-0.4,0.6-0.7,1.3-0.9,2.1c-0.2,0.8-0.3,1.6-0.3,2.5v11.4H3481.8z"/>
	<path id="XMLID_528_" class="st3" d="M3504.5,52.6h-5.1V21.1h5.1v17.7l9.5-8.6h6.4l-9.6,8.9l10,13.6h-6.2l-7.7-10.7l-2.4,2.3V52.6z
		"/>
</g>
<g id="XMLID_663_" class="st2">
	<path id="XMLID_664_" class="st4" d="M2310.4,52.6h-6l-2.3-6.2h-14.3l-2.2,6.2h-5.6l11.5-31.5h6.5L2310.4,52.6z M2289.3,42.3h11.4
		l-5.6-15.4h-0.4L2289.3,42.3z"/>
	<path id="XMLID_667_" class="st4" d="M2323.2,50c0.9,0,1.8-0.2,2.6-0.5s1.6-0.7,2.2-1.3c0.6-0.5,1.1-1.2,1.5-2
		c0.4-0.8,0.5-1.6,0.5-2.6V30.1h5v22.5h-5v-5h-0.4c-0.5,1.7-1.5,3.1-2.8,4c-1.4,0.9-3.1,1.4-5.2,1.4c-1.2,0-2.3-0.2-3.4-0.5
		c-1.1-0.3-2-0.8-2.8-1.6c-0.8-0.7-1.5-1.7-1.9-2.9c-0.5-1.2-0.7-2.7-0.7-4.5V30.1h5v13.5c0,2.3,0.5,3.9,1.4,4.9
		C2320.2,49.5,2321.5,50,2323.2,50z"/>
	<path id="XMLID_669_" class="st4" d="M2363.6,52.6h-5v-5.4h-0.2c-0.6,1.9-1.7,3.3-3.3,4.3c-1.6,1-3.5,1.5-5.6,1.5
		c-1.2,0-2.4-0.2-3.6-0.5c-1.2-0.3-2.3-0.9-3.2-1.8c-1-0.9-1.7-2.1-2.3-3.6c-0.6-1.5-0.9-3.5-0.9-5.8c0-2.4,0.3-4.3,0.9-5.8
		c0.6-1.5,1.4-2.7,2.3-3.6c1-0.9,2-1.5,3.2-1.8c1.2-0.3,2.4-0.5,3.6-0.5c2.1,0,4,0.5,5.6,1.5c1.6,1,2.7,2.5,3.3,4.3h0.2V21h5V52.6z
		 M2351.5,49.4c1.1,0,2.1-0.2,2.9-0.5c0.9-0.4,1.6-0.8,2.3-1.4c0.6-0.6,1.1-1.2,1.4-2c0.3-0.7,0.5-1.5,0.5-2.3v-3.9
		c0-0.7-0.2-1.5-0.5-2.2c-0.3-0.7-0.8-1.3-1.4-1.9c-0.6-0.6-1.4-1-2.3-1.3c-0.9-0.3-1.9-0.5-2.9-0.5c-1,0-1.9,0.1-2.7,0.4
		c-0.8,0.2-1.6,0.7-2.2,1.3c-0.6,0.6-1.1,1.4-1.5,2.4c-0.4,1-0.5,2.3-0.5,3.9c0,1.6,0.2,2.9,0.5,3.9c0.4,1,0.9,1.8,1.5,2.4
		c0.6,0.6,1.4,1,2.2,1.3C2349.6,49.2,2350.5,49.4,2351.5,49.4z"/>
	<path id="XMLID_672_" class="st4" d="M2374.8,25.8h-5.6v-4.6h5.6V25.8z M2374.5,30.1v22.5h-5.1V30.1H2374.5z"/>
	<path id="XMLID_675_" class="st4" d="M2379.3,41.4c0-1.9,0.3-3.5,0.9-5c0.6-1.5,1.4-2.7,2.5-3.7c1-1,2.3-1.7,3.7-2.3
		c1.4-0.5,2.9-0.8,4.4-0.8c1.6,0,3,0.2,4.4,0.7c1.4,0.5,2.6,1.2,3.7,2.2c1.1,1,1.9,2.2,2.5,3.6c0.6,1.5,0.9,3.2,0.9,5.1
		c0,1.9-0.3,3.5-0.9,5c-0.6,1.5-1.5,2.7-2.5,3.7c-1.1,1-2.3,1.7-3.7,2.3c-1.4,0.5-2.9,0.8-4.4,0.8c-1.6,0-3-0.3-4.4-0.8
		c-1.4-0.5-2.6-1.3-3.7-2.3c-1-1-1.9-2.2-2.5-3.7C2379.6,44.9,2379.3,43.3,2379.3,41.4z M2383.8,41.4c0,1.3,0.2,2.4,0.6,3.3
		c0.4,0.9,0.9,1.7,1.5,2.4c0.6,0.6,1.4,1.1,2.3,1.4c0.9,0.3,1.7,0.5,2.7,0.5c1,0,1.9-0.2,2.7-0.5c0.9-0.3,1.6-0.8,2.2-1.4
		c0.6-0.6,1.1-1.4,1.5-2.4c0.4-0.9,0.5-2,0.5-3.3c0-1.3-0.2-2.4-0.5-3.3c-0.4-0.9-0.9-1.7-1.5-2.4c-0.6-0.6-1.4-1.1-2.2-1.4
		c-0.9-0.3-1.8-0.5-2.7-0.5c-0.9,0-1.8,0.2-2.7,0.5c-0.9,0.3-1.6,0.8-2.3,1.4c-0.6,0.6-1.2,1.4-1.5,2.4
		C2384,39.1,2383.8,40.2,2383.8,41.4z"/>
	<path id="XMLID_678_" class="st4" d="M2419.9,37c0-1.5-0.5-2.6-1.5-3.3c-1-0.7-2.3-1-3.8-1c-1.3,0-2.3,0.3-3.1,0.8
		c-0.8,0.5-1.3,1.3-1.3,2.3c0,0.6,0.1,1,0.4,1.4c0.3,0.4,0.7,0.7,1.2,0.9c0.5,0.3,1.1,0.5,1.8,0.7s1.4,0.4,2.1,0.6
		c1.2,0.4,2.3,0.7,3.3,1c1,0.3,1.9,0.7,2.7,1.2c0.8,0.5,1.4,1.1,1.8,1.8c0.4,0.8,0.7,1.7,0.7,2.9c0,1.2-0.2,2.3-0.7,3.1
		c-0.5,0.8-1.2,1.5-2,2c-0.9,0.5-1.9,0.9-3.1,1.1c-1.2,0.2-2.5,0.3-3.9,0.3c-1.4,0-2.6-0.2-3.8-0.5c-1.1-0.3-2.1-0.8-2.9-1.5
		c-0.8-0.7-1.4-1.5-1.9-2.6s-0.7-2.3-0.7-3.7h4.1c0,1.6,0.5,2.8,1.4,3.6c0.9,0.8,2.2,1.1,3.8,1.1c1.6,0,2.8-0.2,3.6-0.7
		c0.8-0.5,1.3-1.3,1.3-2.4c0-0.6-0.2-1.1-0.5-1.5c-0.3-0.4-0.8-0.8-1.5-1s-1.4-0.5-2.2-0.8c-0.8-0.2-1.7-0.5-2.7-0.7
		c-1-0.3-1.9-0.6-2.7-0.9c-0.9-0.3-1.6-0.7-2.3-1.1c-0.6-0.5-1.2-1-1.5-1.7c-0.4-0.7-0.6-1.5-0.6-2.6c0-2.3,0.8-3.9,2.3-5
		c1.6-1.1,3.7-1.6,6.4-1.6c3.3,0,5.7,0.7,7.2,2c1.4,1.4,2.2,3.2,2.2,5.5H2419.9z"/>
	<path id="XMLID_680_" class="st4" d="M2428.5,30.1h5.1v5.4h0.2c0.6-1.9,1.7-3.3,3.3-4.3c1.6-1,3.5-1.5,5.6-1.5
		c1.2,0,2.4,0.2,3.6,0.5c1.2,0.3,2.3,0.9,3.2,1.8c1,0.9,1.7,2.1,2.3,3.6c0.6,1.5,0.9,3.5,0.9,5.8c0,2.4-0.3,4.3-0.9,5.8
		c-0.6,1.5-1.4,2.7-2.3,3.6s-2,1.5-3.2,1.8c-1.2,0.3-2.4,0.5-3.6,0.5c-2.1,0-4-0.5-5.6-1.5c-1.6-1-2.7-2.5-3.3-4.3h-0.2v14.4h-5.1
		V30.1z M2433.6,43.5c0,0.8,0.2,1.5,0.5,2.2s0.8,1.3,1.4,1.9c0.6,0.6,1.3,1,2.2,1.3c0.9,0.3,1.8,0.5,2.9,0.5c1,0,1.9-0.1,2.7-0.4
		c0.8-0.2,1.6-0.7,2.2-1.3c0.6-0.6,1.1-1.4,1.5-2.4c0.4-1,0.5-2.3,0.5-3.9c0-1.6-0.2-2.9-0.5-3.9c-0.4-1-0.9-1.8-1.5-2.4
		c-0.6-0.6-1.4-1-2.2-1.3c-0.8-0.2-1.7-0.4-2.7-0.4c-1.1,0-2.1,0.2-2.9,0.5c-0.9,0.4-1.6,0.8-2.2,1.4c-0.6,0.6-1.1,1.2-1.4,2
		c-0.3,0.7-0.5,1.5-0.5,2.3V43.5z"/>
	<path id="XMLID_683_" class="st4" d="M2466.9,33.5c-1.8,0-3.2,0.3-4,1c-0.9,0.7-1.3,1.6-1.3,2.9h-4.7c0-2.8,0.8-4.7,2.5-5.9
		c1.6-1.2,4.1-1.8,7.4-1.8c1.7,0,3.2,0.1,4.6,0.4c1.3,0.3,2.5,0.8,3.4,1.5c0.9,0.7,1.7,1.7,2.2,2.8c0.5,1.2,0.8,2.7,0.8,4.5v13.7
		h-4.8v-5h-0.2c-0.6,1.9-1.6,3.3-3,4.1c-1.4,0.9-3.2,1.3-5.3,1.3c-1.2,0-2.3-0.2-3.4-0.5c-1-0.3-1.9-0.8-2.7-1.4
		c-0.8-0.6-1.4-1.4-1.8-2.3c-0.4-0.9-0.7-1.9-0.7-3.1c0-2.2,0.8-3.8,2.3-5c1.5-1.2,3.7-1.8,6.4-1.8h8.3v-0.7c0-1.8-0.5-3.1-1.5-3.9
		C2470.5,33.8,2469,33.5,2466.9,33.5z M2472.9,42.2h-7.3c-1.7,0-3,0.3-3.7,1c-0.7,0.6-1.1,1.5-1.1,2.7c0,1.2,0.4,2.1,1.2,2.8
		c0.8,0.7,2,1.1,3.5,1.1c1.1,0,2.1-0.2,3-0.5c0.9-0.3,1.7-0.8,2.4-1.3c0.7-0.5,1.2-1.2,1.6-1.9c0.4-0.7,0.6-1.5,0.6-2.3V42.2z"/>
	<path id="XMLID_686_" class="st4" d="M2483,52.6V30.1h5.1v5h0.2c0.5-1.9,1.3-3.3,2.2-4.1c0.9-0.9,2.1-1.3,3.6-1.3
		c0.8,0,1.6,0.2,2.6,0.5v5c-0.6-0.1-1.1-0.3-1.7-0.4c-0.6-0.1-1.1-0.2-1.7-0.2c-1,0-1.8,0.2-2.4,0.6c-0.7,0.4-1.2,0.9-1.6,1.5
		c-0.4,0.6-0.7,1.3-0.9,2.1c-0.2,0.8-0.3,1.6-0.3,2.5v11.4H2483z"/>
	<path id="XMLID_688_" class="st4" d="M2505.7,52.6h-5.1V21.1h5.1v17.7l9.5-8.6h6.4L2512,39l10,13.6h-6.2l-7.7-10.7l-2.4,2.3V52.6z"
		/>
</g>
<g id="XMLID_320_" class="st2">
	<path id="XMLID_530_" class="st4" d="M2310.4,52.6h-6l-2.3-6.2h-14.3l-2.2,6.2h-5.6l11.5-31.5h6.5L2310.4,52.6z M2289.3,42.3h11.4
		l-5.6-15.4h-0.4L2289.3,42.3z"/>
	<path id="XMLID_533_" class="st4" d="M2323.2,50c0.9,0,1.8-0.2,2.6-0.5s1.6-0.7,2.2-1.3c0.6-0.5,1.1-1.2,1.5-2
		c0.4-0.8,0.5-1.6,0.5-2.6V30.1h5v22.5h-5v-5h-0.4c-0.5,1.7-1.5,3.1-2.8,4c-1.4,0.9-3.1,1.4-5.2,1.4c-1.2,0-2.3-0.2-3.4-0.5
		c-1.1-0.3-2-0.8-2.8-1.6c-0.8-0.7-1.5-1.7-1.9-2.9c-0.5-1.2-0.7-2.7-0.7-4.5V30.1h5v13.5c0,2.3,0.5,3.9,1.4,4.9
		C2320.2,49.5,2321.5,50,2323.2,50z"/>
	<path id="XMLID_535_" class="st4" d="M2363.6,52.6h-5v-5.4h-0.2c-0.6,1.9-1.7,3.3-3.3,4.3c-1.6,1-3.5,1.5-5.6,1.5
		c-1.2,0-2.4-0.2-3.6-0.5c-1.2-0.3-2.3-0.9-3.2-1.8c-1-0.9-1.7-2.1-2.3-3.6c-0.6-1.5-0.9-3.5-0.9-5.8c0-2.4,0.3-4.3,0.9-5.8
		c0.6-1.5,1.4-2.7,2.3-3.6c1-0.9,2-1.5,3.2-1.8c1.2-0.3,2.4-0.5,3.6-0.5c2.1,0,4,0.5,5.6,1.5c1.6,1,2.7,2.5,3.3,4.3h0.2V21h5V52.6z
		 M2351.5,49.4c1.1,0,2.1-0.2,2.9-0.5c0.9-0.4,1.6-0.8,2.3-1.4c0.6-0.6,1.1-1.2,1.4-2c0.3-0.7,0.5-1.5,0.5-2.3v-3.9
		c0-0.7-0.2-1.5-0.5-2.2c-0.3-0.7-0.8-1.3-1.4-1.9c-0.6-0.6-1.4-1-2.3-1.3c-0.9-0.3-1.9-0.5-2.9-0.5c-1,0-1.9,0.1-2.7,0.4
		c-0.8,0.2-1.6,0.7-2.2,1.3c-0.6,0.6-1.1,1.4-1.5,2.4c-0.4,1-0.5,2.3-0.5,3.9c0,1.6,0.2,2.9,0.5,3.9c0.4,1,0.9,1.8,1.5,2.4
		c0.6,0.6,1.4,1,2.2,1.3C2349.6,49.2,2350.5,49.4,2351.5,49.4z"/>
	<path id="XMLID_538_" class="st4" d="M2374.8,25.8h-5.6v-4.6h5.6V25.8z M2374.5,30.1v22.5h-5.1V30.1H2374.5z"/>
	<path id="XMLID_541_" class="st4" d="M2379.3,41.4c0-1.9,0.3-3.5,0.9-5c0.6-1.5,1.4-2.7,2.5-3.7c1-1,2.3-1.7,3.7-2.3
		c1.4-0.5,2.9-0.8,4.4-0.8c1.6,0,3,0.2,4.4,0.7c1.4,0.5,2.6,1.2,3.7,2.2c1.1,1,1.9,2.2,2.5,3.6c0.6,1.5,0.9,3.2,0.9,5.1
		c0,1.9-0.3,3.5-0.9,5c-0.6,1.5-1.5,2.7-2.5,3.7c-1.1,1-2.3,1.7-3.7,2.3c-1.4,0.5-2.9,0.8-4.4,0.8c-1.6,0-3-0.3-4.4-0.8
		c-1.4-0.5-2.6-1.3-3.7-2.3c-1-1-1.9-2.2-2.5-3.7C2379.6,44.9,2379.3,43.3,2379.3,41.4z M2383.8,41.4c0,1.3,0.2,2.4,0.6,3.3
		c0.4,0.9,0.9,1.7,1.5,2.4c0.6,0.6,1.4,1.1,2.3,1.4c0.9,0.3,1.7,0.5,2.7,0.5c1,0,1.9-0.2,2.7-0.5c0.9-0.3,1.6-0.8,2.2-1.4
		c0.6-0.6,1.1-1.4,1.5-2.4c0.4-0.9,0.5-2,0.5-3.3c0-1.3-0.2-2.4-0.5-3.3c-0.4-0.9-0.9-1.7-1.5-2.4c-0.6-0.6-1.4-1.1-2.2-1.4
		c-0.9-0.3-1.8-0.5-2.7-0.5c-0.9,0-1.8,0.2-2.7,0.5c-0.9,0.3-1.6,0.8-2.3,1.4c-0.6,0.6-1.2,1.4-1.5,2.4
		C2384,39.1,2383.8,40.2,2383.8,41.4z"/>
	<path id="XMLID_544_" class="st4" d="M2419.9,37c0-1.5-0.5-2.6-1.5-3.3c-1-0.7-2.3-1-3.8-1c-1.3,0-2.3,0.3-3.1,0.8
		c-0.8,0.5-1.3,1.3-1.3,2.3c0,0.6,0.1,1,0.4,1.4c0.3,0.4,0.7,0.7,1.2,0.9c0.5,0.3,1.1,0.5,1.8,0.7s1.4,0.4,2.1,0.6
		c1.2,0.4,2.3,0.7,3.3,1c1,0.3,1.9,0.7,2.7,1.2c0.8,0.5,1.4,1.1,1.8,1.8c0.4,0.8,0.7,1.7,0.7,2.9c0,1.2-0.2,2.3-0.7,3.1
		c-0.5,0.8-1.2,1.5-2,2c-0.9,0.5-1.9,0.9-3.1,1.1c-1.2,0.2-2.5,0.3-3.9,0.3c-1.4,0-2.6-0.2-3.8-0.5c-1.1-0.3-2.1-0.8-2.9-1.5
		c-0.8-0.7-1.4-1.5-1.9-2.6s-0.7-2.3-0.7-3.7h4.1c0,1.6,0.5,2.8,1.4,3.6c0.9,0.8,2.2,1.1,3.8,1.1c1.6,0,2.8-0.2,3.6-0.7
		c0.8-0.5,1.3-1.3,1.3-2.4c0-0.6-0.2-1.1-0.5-1.5c-0.3-0.4-0.8-0.8-1.5-1s-1.4-0.5-2.2-0.8c-0.8-0.2-1.7-0.5-2.7-0.7
		c-1-0.3-1.9-0.6-2.7-0.9c-0.9-0.3-1.6-0.7-2.3-1.1c-0.6-0.5-1.2-1-1.5-1.7c-0.4-0.7-0.6-1.5-0.6-2.6c0-2.3,0.8-3.9,2.3-5
		c1.6-1.1,3.7-1.6,6.4-1.6c3.3,0,5.7,0.7,7.2,2c1.4,1.4,2.2,3.2,2.2,5.5H2419.9z"/>
	<path id="XMLID_546_" class="st4" d="M2428.5,30.1h5.1v5.4h0.2c0.6-1.9,1.7-3.3,3.3-4.3c1.6-1,3.5-1.5,5.6-1.5
		c1.2,0,2.4,0.2,3.6,0.5c1.2,0.3,2.3,0.9,3.2,1.8c1,0.9,1.7,2.1,2.3,3.6c0.6,1.5,0.9,3.5,0.9,5.8c0,2.4-0.3,4.3-0.9,5.8
		c-0.6,1.5-1.4,2.7-2.3,3.6s-2,1.5-3.2,1.8c-1.2,0.3-2.4,0.5-3.6,0.5c-2.1,0-4-0.5-5.6-1.5c-1.6-1-2.7-2.5-3.3-4.3h-0.2v14.4h-5.1
		V30.1z M2433.6,43.5c0,0.8,0.2,1.5,0.5,2.2s0.8,1.3,1.4,1.9c0.6,0.6,1.3,1,2.2,1.3c0.9,0.3,1.8,0.5,2.9,0.5c1,0,1.9-0.1,2.7-0.4
		c0.8-0.2,1.6-0.7,2.2-1.3c0.6-0.6,1.1-1.4,1.5-2.4c0.4-1,0.5-2.3,0.5-3.9c0-1.6-0.2-2.9-0.5-3.9c-0.4-1-0.9-1.8-1.5-2.4
		c-0.6-0.6-1.4-1-2.2-1.3c-0.8-0.2-1.7-0.4-2.7-0.4c-1.1,0-2.1,0.2-2.9,0.5c-0.9,0.4-1.6,0.8-2.2,1.4c-0.6,0.6-1.1,1.2-1.4,2
		c-0.3,0.7-0.5,1.5-0.5,2.3V43.5z"/>
	<path id="XMLID_549_" class="st4" d="M2466.9,33.5c-1.8,0-3.2,0.3-4,1c-0.9,0.7-1.3,1.6-1.3,2.9h-4.7c0-2.8,0.8-4.7,2.5-5.9
		c1.6-1.2,4.1-1.8,7.4-1.8c1.7,0,3.2,0.1,4.6,0.4c1.3,0.3,2.5,0.8,3.4,1.5c0.9,0.7,1.7,1.7,2.2,2.8c0.5,1.2,0.8,2.7,0.8,4.5v13.7
		h-4.8v-5h-0.2c-0.6,1.9-1.6,3.3-3,4.1c-1.4,0.9-3.2,1.3-5.3,1.3c-1.2,0-2.3-0.2-3.4-0.5c-1-0.3-1.9-0.8-2.7-1.4
		c-0.8-0.6-1.4-1.4-1.8-2.3c-0.4-0.9-0.7-1.9-0.7-3.1c0-2.2,0.8-3.8,2.3-5c1.5-1.2,3.7-1.8,6.4-1.8h8.3v-0.7c0-1.8-0.5-3.1-1.5-3.9
		C2470.5,33.8,2469,33.5,2466.9,33.5z M2472.9,42.2h-7.3c-1.7,0-3,0.3-3.7,1c-0.7,0.6-1.1,1.5-1.1,2.7c0,1.2,0.4,2.1,1.2,2.8
		c0.8,0.7,2,1.1,3.5,1.1c1.1,0,2.1-0.2,3-0.5c0.9-0.3,1.7-0.8,2.4-1.3c0.7-0.5,1.2-1.2,1.6-1.9c0.4-0.7,0.6-1.5,0.6-2.3V42.2z"/>
	<path id="XMLID_552_" class="st4" d="M2483,52.6V30.1h5.1v5h0.2c0.5-1.9,1.3-3.3,2.2-4.1c0.9-0.9,2.1-1.3,3.6-1.3
		c0.8,0,1.6,0.2,2.6,0.5v5c-0.6-0.1-1.1-0.3-1.7-0.4c-0.6-0.1-1.1-0.2-1.7-0.2c-1,0-1.8,0.2-2.4,0.6c-0.7,0.4-1.2,0.9-1.6,1.5
		c-0.4,0.6-0.7,1.3-0.9,2.1c-0.2,0.8-0.3,1.6-0.3,2.5v11.4H2483z"/>
	<path id="XMLID_554_" class="st4" d="M2505.7,52.6h-5.1V21.1h5.1v17.7l9.5-8.6h6.4L2512,39l10,13.6h-6.2l-7.7-10.7l-2.4,2.3V52.6z"
		/>
</g>
<g id="XMLID_3_" class="st2">
	<linearGradient id="XMLID_690_" gradientUnits="userSpaceOnUse" x1="1043.9104" y1="72.4771" x2="1043.9104" y2="6.1101">
		<stop  offset="0" style="stop-color:#0000FF"/>
		<stop  offset="1" style="stop-color:#0370E6"/>
	</linearGradient>
	<path id="XMLID_5_" style="display:inline;fill:url(#XMLID_690_);" d="M1068.7,18.7l-19.3-11.2c-3.4-1.9-7.5-1.9-10.9,0l-19.3,11.2
		c-3.4,1.9-5.4,5.5-5.4,9.4v22.3c0,3.9,2.1,7.5,5.4,9.4l19.3,11.2c3.4,1.9,7.5,1.9,10.9,0l19.3-11.2c3.4-1.9,5.4-5.5,5.4-9.4V28.1
		C1074.1,24.3,1072,20.7,1068.7,18.7z M1031.1,43.4c0,1-0.8,1.8-1.8,1.8s-1.8-0.8-1.8-1.8v-8.1c0-1,0.8-1.8,1.8-1.8s1.8,0.8,1.8,1.8
		V43.4z M1038.4,48.8c0,1-0.8,1.8-1.8,1.8s-1.8-0.8-1.8-1.8V29.8c0-1,0.8-1.8,1.8-1.8s1.8,0.8,1.8,1.8V48.8z M1045.7,54.6
		c0,1-0.8,1.8-1.8,1.8s-1.8-0.8-1.8-1.8V24c0-1,0.8-1.8,1.8-1.8s1.8,0.8,1.8,1.8V54.6z M1053,48.8c0,1-0.8,1.8-1.8,1.8
		s-1.8-0.8-1.8-1.8V29.8c0-1,0.8-1.8,1.8-1.8s1.8,0.8,1.8,1.8V48.8z M1060.3,43.4c0,1-0.8,1.8-1.8,1.8s-1.8-0.8-1.8-1.8v-8.1
		c0-1,0.8-1.8,1.8-1.8s1.8,0.8,1.8,1.8V43.4z"/>
	<g id="XMLID_691_" class="st4">
		<path id="XMLID_692_" class="st6" d="M1118.2,52.6h-6l-2.3-6.2h-14.3l-2.2,6.2h-5.6l11.5-31.5h6.5L1118.2,52.6z M1097,42.3h11.4
			l-5.6-15.4h-0.4L1097,42.3z"/>
		<path id="XMLID_695_" class="st6" d="M1131,50c0.9,0,1.8-0.2,2.6-0.5s1.6-0.7,2.2-1.3c0.6-0.5,1.1-1.2,1.5-2
			c0.4-0.8,0.5-1.6,0.5-2.6V30.1h5v22.5h-5v-5h-0.4c-0.5,1.7-1.5,3.1-2.8,4c-1.4,0.9-3.1,1.4-5.2,1.4c-1.2,0-2.3-0.2-3.4-0.5
			c-1.1-0.3-2-0.8-2.8-1.6c-0.8-0.7-1.5-1.7-1.9-2.9c-0.5-1.2-0.7-2.7-0.7-4.5V30.1h5v13.5c0,2.3,0.5,3.9,1.4,4.9
			C1128,49.5,1129.3,50,1131,50z"/>
		<path id="XMLID_697_" class="st6" d="M1171.4,52.6h-5v-5.4h-0.2c-0.6,1.9-1.7,3.3-3.3,4.3c-1.6,1-3.5,1.5-5.6,1.5
			c-1.2,0-2.4-0.2-3.6-0.5c-1.2-0.3-2.3-0.9-3.2-1.8c-1-0.9-1.7-2.1-2.3-3.6c-0.6-1.5-0.9-3.5-0.9-5.8c0-2.4,0.3-4.3,0.9-5.8
			c0.6-1.5,1.4-2.7,2.3-3.6c1-0.9,2-1.5,3.2-1.8c1.2-0.3,2.4-0.5,3.6-0.5c2.1,0,4,0.5,5.6,1.5c1.6,1,2.7,2.5,3.3,4.3h0.2V21h5V52.6z
			 M1159.3,49.4c1.1,0,2.1-0.2,2.9-0.5c0.9-0.4,1.6-0.8,2.3-1.4c0.6-0.6,1.1-1.2,1.4-2c0.3-0.7,0.5-1.5,0.5-2.3v-3.9
			c0-0.7-0.2-1.5-0.5-2.2c-0.3-0.7-0.8-1.3-1.4-1.9c-0.6-0.6-1.4-1-2.3-1.3c-0.9-0.3-1.9-0.5-2.9-0.5c-1,0-1.9,0.1-2.7,0.4
			c-0.8,0.2-1.6,0.7-2.2,1.3c-0.6,0.6-1.1,1.4-1.5,2.4c-0.4,1-0.5,2.3-0.5,3.9c0,1.6,0.2,2.9,0.5,3.9c0.4,1,0.9,1.8,1.5,2.4
			c0.6,0.6,1.4,1,2.2,1.3C1157.4,49.2,1158.3,49.4,1159.3,49.4z"/>
		<path id="XMLID_700_" class="st6" d="M1182.5,25.8h-5.6v-4.6h5.6V25.8z M1182.3,30.1v22.5h-5.1V30.1H1182.3z"/>
		<path id="XMLID_703_" class="st6" d="M1187,41.4c0-1.9,0.3-3.5,0.9-5c0.6-1.5,1.4-2.7,2.5-3.7c1-1,2.3-1.7,3.7-2.3
			c1.4-0.5,2.9-0.8,4.4-0.8c1.6,0,3,0.2,4.4,0.7c1.4,0.5,2.6,1.2,3.7,2.2c1.1,1,1.9,2.2,2.5,3.6c0.6,1.5,0.9,3.2,0.9,5.1
			c0,1.9-0.3,3.5-0.9,5c-0.6,1.5-1.5,2.7-2.5,3.7c-1.1,1-2.3,1.7-3.7,2.3c-1.4,0.5-2.9,0.8-4.4,0.8c-1.6,0-3-0.3-4.4-0.8
			c-1.4-0.5-2.6-1.3-3.7-2.3c-1-1-1.9-2.2-2.5-3.7C1187.3,44.9,1187,43.3,1187,41.4z M1191.5,41.4c0,1.3,0.2,2.4,0.6,3.3
			c0.4,0.9,0.9,1.7,1.5,2.4c0.6,0.6,1.4,1.1,2.3,1.4c0.9,0.3,1.7,0.5,2.7,0.5c1,0,1.9-0.2,2.7-0.5c0.9-0.3,1.6-0.8,2.2-1.4
			c0.6-0.6,1.1-1.4,1.5-2.4c0.4-0.9,0.5-2,0.5-3.3c0-1.3-0.2-2.4-0.5-3.3c-0.4-0.9-0.9-1.7-1.5-2.4c-0.6-0.6-1.4-1.1-2.2-1.4
			c-0.9-0.3-1.8-0.5-2.7-0.5c-0.9,0-1.8,0.2-2.7,0.5c-0.9,0.3-1.6,0.8-2.3,1.4c-0.6,0.6-1.2,1.4-1.5,2.4
			C1191.7,39.1,1191.5,40.2,1191.5,41.4z"/>
		<path id="XMLID_706_" class="st6" d="M1227.6,37c0-1.5-0.5-2.6-1.5-3.3c-1-0.7-2.3-1-3.8-1c-1.3,0-2.3,0.3-3.1,0.8
			c-0.8,0.5-1.3,1.3-1.3,2.3c0,0.6,0.1,1,0.4,1.4c0.3,0.4,0.7,0.7,1.2,0.9c0.5,0.3,1.1,0.5,1.8,0.7s1.4,0.4,2.1,0.6
			c1.2,0.4,2.3,0.7,3.3,1c1,0.3,1.9,0.7,2.7,1.2c0.8,0.5,1.4,1.1,1.8,1.8c0.4,0.8,0.7,1.7,0.7,2.9c0,1.2-0.2,2.3-0.7,3.1
			c-0.5,0.8-1.2,1.5-2,2c-0.9,0.5-1.9,0.9-3.1,1.1c-1.2,0.2-2.5,0.3-3.9,0.3c-1.4,0-2.6-0.2-3.8-0.5c-1.1-0.3-2.1-0.8-2.9-1.5
			c-0.8-0.7-1.4-1.5-1.9-2.6s-0.7-2.3-0.7-3.7h4.1c0,1.6,0.5,2.8,1.4,3.6c0.9,0.8,2.2,1.1,3.8,1.1c1.6,0,2.8-0.2,3.6-0.7
			c0.8-0.5,1.3-1.3,1.3-2.4c0-0.6-0.2-1.1-0.5-1.5c-0.3-0.4-0.8-0.8-1.5-1s-1.4-0.5-2.2-0.8c-0.8-0.2-1.7-0.5-2.7-0.7
			c-1-0.3-1.9-0.6-2.7-0.9c-0.9-0.3-1.6-0.7-2.3-1.1c-0.6-0.5-1.2-1-1.5-1.7c-0.4-0.7-0.6-1.5-0.6-2.6c0-2.3,0.8-3.9,2.3-5
			c1.6-1.1,3.7-1.6,6.4-1.6c3.3,0,5.7,0.7,7.2,2c1.4,1.4,2.2,3.2,2.2,5.5H1227.6z"/>
		<path id="XMLID_708_" class="st6" d="M1236.3,30.1h5.1v5.4h0.2c0.6-1.9,1.7-3.3,3.3-4.3c1.6-1,3.5-1.5,5.6-1.5
			c1.2,0,2.4,0.2,3.6,0.5c1.2,0.3,2.3,0.9,3.2,1.8c1,0.9,1.7,2.1,2.3,3.6c0.6,1.5,0.9,3.5,0.9,5.8c0,2.4-0.3,4.3-0.9,5.8
			c-0.6,1.5-1.4,2.7-2.3,3.6s-2,1.5-3.2,1.8c-1.2,0.3-2.4,0.5-3.6,0.5c-2.1,0-4-0.5-5.6-1.5c-1.6-1-2.7-2.5-3.3-4.3h-0.2v14.4h-5.1
			V30.1z M1241.4,43.5c0,0.8,0.2,1.5,0.5,2.2s0.8,1.3,1.4,1.9c0.6,0.6,1.3,1,2.2,1.3c0.9,0.3,1.8,0.5,2.9,0.5c1,0,1.9-0.1,2.7-0.4
			c0.8-0.2,1.6-0.7,2.2-1.3c0.6-0.6,1.1-1.4,1.5-2.4c0.4-1,0.5-2.3,0.5-3.9c0-1.6-0.2-2.9-0.5-3.9c-0.4-1-0.9-1.8-1.5-2.4
			c-0.6-0.6-1.4-1-2.2-1.3c-0.8-0.2-1.7-0.4-2.7-0.4c-1.1,0-2.1,0.2-2.9,0.5c-0.9,0.4-1.6,0.8-2.2,1.4c-0.6,0.6-1.1,1.2-1.4,2
			c-0.3,0.7-0.5,1.5-0.5,2.3V43.5z"/>
		<path id="XMLID_711_" class="st6" d="M1274.7,33.5c-1.8,0-3.2,0.3-4,1c-0.9,0.7-1.3,1.6-1.3,2.9h-4.7c0-2.8,0.8-4.7,2.5-5.9
			c1.6-1.2,4.1-1.8,7.4-1.8c1.7,0,3.2,0.1,4.6,0.4c1.3,0.3,2.5,0.8,3.4,1.5c0.9,0.7,1.7,1.7,2.2,2.8c0.5,1.2,0.8,2.7,0.8,4.5v13.7
			h-4.8v-5h-0.2c-0.6,1.9-1.6,3.3-3,4.1c-1.4,0.9-3.2,1.3-5.3,1.3c-1.2,0-2.3-0.2-3.4-0.5c-1-0.3-1.9-0.8-2.7-1.4
			c-0.8-0.6-1.4-1.4-1.8-2.3c-0.4-0.9-0.7-1.9-0.7-3.1c0-2.2,0.8-3.8,2.3-5c1.5-1.2,3.7-1.8,6.4-1.8h8.3v-0.7c0-1.8-0.5-3.1-1.5-3.9
			C1278.2,33.8,1276.7,33.5,1274.7,33.5z M1280.7,42.2h-7.3c-1.7,0-3,0.3-3.7,1c-0.7,0.6-1.1,1.5-1.1,2.7c0,1.2,0.4,2.1,1.2,2.8
			c0.8,0.7,2,1.1,3.5,1.1c1.1,0,2.1-0.2,3-0.5c0.9-0.3,1.7-0.8,2.4-1.3c0.7-0.5,1.2-1.2,1.6-1.9c0.4-0.7,0.6-1.5,0.6-2.3V42.2z"/>
		<path id="XMLID_714_" class="st6" d="M1290.8,52.6V30.1h5.1v5h0.2c0.5-1.9,1.3-3.3,2.2-4.1c0.9-0.9,2.1-1.3,3.6-1.3
			c0.8,0,1.6,0.2,2.6,0.5v5c-0.6-0.1-1.1-0.3-1.7-0.4c-0.6-0.1-1.1-0.2-1.7-0.2c-1,0-1.8,0.2-2.4,0.6c-0.7,0.4-1.2,0.9-1.6,1.5
			c-0.4,0.6-0.7,1.3-0.9,2.1c-0.2,0.8-0.3,1.6-0.3,2.5v11.4H1290.8z"/>
		<path id="XMLID_716_" class="st6" d="M1313.4,52.6h-5.1V21.1h5.1v17.7l9.5-8.6h6.4l-9.6,8.9l10,13.6h-6.2l-7.7-10.7l-2.4,2.3V52.6
			z"/>
	</g>
	<g id="XMLID_4_" class="st4">
		<path id="XMLID_556_" class="st6" d="M1118.2,52.6h-6l-2.3-6.2h-14.3l-2.2,6.2h-5.6l11.5-31.5h6.5L1118.2,52.6z M1097,42.3h11.4
			l-5.6-15.4h-0.4L1097,42.3z"/>
		<path id="XMLID_559_" class="st6" d="M1131,50c0.9,0,1.8-0.2,2.6-0.5s1.6-0.7,2.2-1.3c0.6-0.5,1.1-1.2,1.5-2
			c0.4-0.8,0.5-1.6,0.5-2.6V30.1h5v22.5h-5v-5h-0.4c-0.5,1.7-1.5,3.1-2.8,4c-1.4,0.9-3.1,1.4-5.2,1.4c-1.2,0-2.3-0.2-3.4-0.5
			c-1.1-0.3-2-0.8-2.8-1.6c-0.8-0.7-1.5-1.7-1.9-2.9c-0.5-1.2-0.7-2.7-0.7-4.5V30.1h5v13.5c0,2.3,0.5,3.9,1.4,4.9
			C1128,49.5,1129.3,50,1131,50z"/>
		<path id="XMLID_561_" class="st6" d="M1171.4,52.6h-5v-5.4h-0.2c-0.6,1.9-1.7,3.3-3.3,4.3c-1.6,1-3.5,1.5-5.6,1.5
			c-1.2,0-2.4-0.2-3.6-0.5c-1.2-0.3-2.3-0.9-3.2-1.8c-1-0.9-1.7-2.1-2.3-3.6c-0.6-1.5-0.9-3.5-0.9-5.8c0-2.4,0.3-4.3,0.9-5.8
			c0.6-1.5,1.4-2.7,2.3-3.6c1-0.9,2-1.5,3.2-1.8c1.2-0.3,2.4-0.5,3.6-0.5c2.1,0,4,0.5,5.6,1.5c1.6,1,2.7,2.5,3.3,4.3h0.2V21h5V52.6z
			 M1159.3,49.4c1.1,0,2.1-0.2,2.9-0.5c0.9-0.4,1.6-0.8,2.3-1.4c0.6-0.6,1.1-1.2,1.4-2c0.3-0.7,0.5-1.5,0.5-2.3v-3.9
			c0-0.7-0.2-1.5-0.5-2.2c-0.3-0.7-0.8-1.3-1.4-1.9c-0.6-0.6-1.4-1-2.3-1.3c-0.9-0.3-1.9-0.5-2.9-0.5c-1,0-1.9,0.1-2.7,0.4
			c-0.8,0.2-1.6,0.7-2.2,1.3c-0.6,0.6-1.1,1.4-1.5,2.4c-0.4,1-0.5,2.3-0.5,3.9c0,1.6,0.2,2.9,0.5,3.9c0.4,1,0.9,1.8,1.5,2.4
			c0.6,0.6,1.4,1,2.2,1.3C1157.4,49.2,1158.3,49.4,1159.3,49.4z"/>
		<path id="XMLID_564_" class="st6" d="M1182.5,25.8h-5.6v-4.6h5.6V25.8z M1182.3,30.1v22.5h-5.1V30.1H1182.3z"/>
		<path id="XMLID_567_" class="st6" d="M1187,41.4c0-1.9,0.3-3.5,0.9-5c0.6-1.5,1.4-2.7,2.5-3.7c1-1,2.3-1.7,3.7-2.3
			c1.4-0.5,2.9-0.8,4.4-0.8c1.6,0,3,0.2,4.4,0.7c1.4,0.5,2.6,1.2,3.7,2.2c1.1,1,1.9,2.2,2.5,3.6c0.6,1.5,0.9,3.2,0.9,5.1
			c0,1.9-0.3,3.5-0.9,5c-0.6,1.5-1.5,2.7-2.5,3.7c-1.1,1-2.3,1.7-3.7,2.3c-1.4,0.5-2.9,0.8-4.4,0.8c-1.6,0-3-0.3-4.4-0.8
			c-1.4-0.5-2.6-1.3-3.7-2.3c-1-1-1.9-2.2-2.5-3.7C1187.3,44.9,1187,43.3,1187,41.4z M1191.5,41.4c0,1.3,0.2,2.4,0.6,3.3
			c0.4,0.9,0.9,1.7,1.5,2.4c0.6,0.6,1.4,1.1,2.3,1.4c0.9,0.3,1.7,0.5,2.7,0.5c1,0,1.9-0.2,2.7-0.5c0.9-0.3,1.6-0.8,2.2-1.4
			c0.6-0.6,1.1-1.4,1.5-2.4c0.4-0.9,0.5-2,0.5-3.3c0-1.3-0.2-2.4-0.5-3.3c-0.4-0.9-0.9-1.7-1.5-2.4c-0.6-0.6-1.4-1.1-2.2-1.4
			c-0.9-0.3-1.8-0.5-2.7-0.5c-0.9,0-1.8,0.2-2.7,0.5c-0.9,0.3-1.6,0.8-2.3,1.4c-0.6,0.6-1.2,1.4-1.5,2.4
			C1191.7,39.1,1191.5,40.2,1191.5,41.4z"/>
		<path id="XMLID_570_" class="st6" d="M1227.6,37c0-1.5-0.5-2.6-1.5-3.3c-1-0.7-2.3-1-3.8-1c-1.3,0-2.3,0.3-3.1,0.8
			c-0.8,0.5-1.3,1.3-1.3,2.3c0,0.6,0.1,1,0.4,1.4c0.3,0.4,0.7,0.7,1.2,0.9c0.5,0.3,1.1,0.5,1.8,0.7s1.4,0.4,2.1,0.6
			c1.2,0.4,2.3,0.7,3.3,1c1,0.3,1.9,0.7,2.7,1.2c0.8,0.5,1.4,1.1,1.8,1.8c0.4,0.8,0.7,1.7,0.7,2.9c0,1.2-0.2,2.3-0.7,3.1
			c-0.5,0.8-1.2,1.5-2,2c-0.9,0.5-1.9,0.9-3.1,1.1c-1.2,0.2-2.5,0.3-3.9,0.3c-1.4,0-2.6-0.2-3.8-0.5c-1.1-0.3-2.1-0.8-2.9-1.5
			c-0.8-0.7-1.4-1.5-1.9-2.6s-0.7-2.3-0.7-3.7h4.1c0,1.6,0.5,2.8,1.4,3.6c0.9,0.8,2.2,1.1,3.8,1.1c1.6,0,2.8-0.2,3.6-0.7
			c0.8-0.5,1.3-1.3,1.3-2.4c0-0.6-0.2-1.1-0.5-1.5c-0.3-0.4-0.8-0.8-1.5-1s-1.4-0.5-2.2-0.8c-0.8-0.2-1.7-0.5-2.7-0.7
			c-1-0.3-1.9-0.6-2.7-0.9c-0.9-0.3-1.6-0.7-2.3-1.1c-0.6-0.5-1.2-1-1.5-1.7c-0.4-0.7-0.6-1.5-0.6-2.6c0-2.3,0.8-3.9,2.3-5
			c1.6-1.1,3.7-1.6,6.4-1.6c3.3,0,5.7,0.7,7.2,2c1.4,1.4,2.2,3.2,2.2,5.5H1227.6z"/>
		<path id="XMLID_572_" class="st6" d="M1236.3,30.1h5.1v5.4h0.2c0.6-1.9,1.7-3.3,3.3-4.3c1.6-1,3.5-1.5,5.6-1.5
			c1.2,0,2.4,0.2,3.6,0.5c1.2,0.3,2.3,0.9,3.2,1.8c1,0.9,1.7,2.1,2.3,3.6c0.6,1.5,0.9,3.5,0.9,5.8c0,2.4-0.3,4.3-0.9,5.8
			c-0.6,1.5-1.4,2.7-2.3,3.6s-2,1.5-3.2,1.8c-1.2,0.3-2.4,0.5-3.6,0.5c-2.1,0-4-0.5-5.6-1.5c-1.6-1-2.7-2.5-3.3-4.3h-0.2v14.4h-5.1
			V30.1z M1241.4,43.5c0,0.8,0.2,1.5,0.5,2.2s0.8,1.3,1.4,1.9c0.6,0.6,1.3,1,2.2,1.3c0.9,0.3,1.8,0.5,2.9,0.5c1,0,1.9-0.1,2.7-0.4
			c0.8-0.2,1.6-0.7,2.2-1.3c0.6-0.6,1.1-1.4,1.5-2.4c0.4-1,0.5-2.3,0.5-3.9c0-1.6-0.2-2.9-0.5-3.9c-0.4-1-0.9-1.8-1.5-2.4
			c-0.6-0.6-1.4-1-2.2-1.3c-0.8-0.2-1.7-0.4-2.7-0.4c-1.1,0-2.1,0.2-2.9,0.5c-0.9,0.4-1.6,0.8-2.2,1.4c-0.6,0.6-1.1,1.2-1.4,2
			c-0.3,0.7-0.5,1.5-0.5,2.3V43.5z"/>
		<path id="XMLID_575_" class="st6" d="M1274.7,33.5c-1.8,0-3.2,0.3-4,1c-0.9,0.7-1.3,1.6-1.3,2.9h-4.7c0-2.8,0.8-4.7,2.5-5.9
			c1.6-1.2,4.1-1.8,7.4-1.8c1.7,0,3.2,0.1,4.6,0.4c1.3,0.3,2.5,0.8,3.4,1.5c0.9,0.7,1.7,1.7,2.2,2.8c0.5,1.2,0.8,2.7,0.8,4.5v13.7
			h-4.8v-5h-0.2c-0.6,1.9-1.6,3.3-3,4.1c-1.4,0.9-3.2,1.3-5.3,1.3c-1.2,0-2.3-0.2-3.4-0.5c-1-0.3-1.9-0.8-2.7-1.4
			c-0.8-0.6-1.4-1.4-1.8-2.3c-0.4-0.9-0.7-1.9-0.7-3.1c0-2.2,0.8-3.8,2.3-5c1.5-1.2,3.7-1.8,6.4-1.8h8.3v-0.7c0-1.8-0.5-3.1-1.5-3.9
			C1278.2,33.8,1276.7,33.5,1274.7,33.5z M1280.7,42.2h-7.3c-1.7,0-3,0.3-3.7,1c-0.7,0.6-1.1,1.5-1.1,2.7c0,1.2,0.4,2.1,1.2,2.8
			c0.8,0.7,2,1.1,3.5,1.1c1.1,0,2.1-0.2,3-0.5c0.9-0.3,1.7-0.8,2.4-1.3c0.7-0.5,1.2-1.2,1.6-1.9c0.4-0.7,0.6-1.5,0.6-2.3V42.2z"/>
		<path id="XMLID_578_" class="st6" d="M1290.8,52.6V30.1h5.1v5h0.2c0.5-1.9,1.3-3.3,2.2-4.1c0.9-0.9,2.1-1.3,3.6-1.3
			c0.8,0,1.6,0.2,2.6,0.5v5c-0.6-0.1-1.1-0.3-1.7-0.4c-0.6-0.1-1.1-0.2-1.7-0.2c-1,0-1.8,0.2-2.4,0.6c-0.7,0.4-1.2,0.9-1.6,1.5
			c-0.4,0.6-0.7,1.3-0.9,2.1c-0.2,0.8-0.3,1.6-0.3,2.5v11.4H1290.8z"/>
		<path id="XMLID_580_" class="st6" d="M1313.4,52.6h-5.1V21.1h5.1v17.7l9.5-8.6h6.4l-9.6,8.9l10,13.6h-6.2l-7.7-10.7l-2.4,2.3V52.6
			z"/>
	</g>
</g>
<g id="XMLID_1_">
	<linearGradient id="XMLID_718_" gradientUnits="userSpaceOnUse" x1="31.9102" y1="72.4771" x2="31.9102" y2="6.1101">
		<stop  offset="0" style="stop-color:#0000FF"/>
		<stop  offset="1" style="stop-color:#0370E6"/>
	</linearGradient>
	<path id="XMLID_16_" style="fill:url(#XMLID_718_);" d="M56.7,18.7L37.3,7.6c-3.4-1.9-7.5-1.9-10.9,0L7.2,18.7
		c-3.4,1.9-5.4,5.5-5.4,9.4v22.3c0,3.9,2.1,7.5,5.4,9.4L26.5,71C29.8,73,34,73,37.3,71l19.3-11.2c3.4-1.9,5.4-5.5,5.4-9.4V28.1
		C62.1,24.3,60,20.7,56.7,18.7z M19.1,43.4c0,1-0.8,1.8-1.8,1.8s-1.8-0.8-1.8-1.8v-8.1c0-1,0.8-1.8,1.8-1.8s1.8,0.8,1.8,1.8V43.4z
		 M26.4,48.8c0,1-0.8,1.8-1.8,1.8c-1,0-1.8-0.8-1.8-1.8V29.8c0-1,0.8-1.8,1.8-1.8c1,0,1.8,0.8,1.8,1.8V48.8z M33.7,54.6
		c0,1-0.8,1.8-1.8,1.8c-1,0-1.8-0.8-1.8-1.8V24c0-1,0.8-1.8,1.8-1.8c1,0,1.8,0.8,1.8,1.8V54.6z M41,48.8c0,1-0.8,1.8-1.8,1.8
		c-1,0-1.8-0.8-1.8-1.8V29.8c0-1,0.8-1.8,1.8-1.8c1,0,1.8,0.8,1.8,1.8V48.8z M48.3,43.4c0,1-0.8,1.8-1.8,1.8c-1,0-1.8-0.8-1.8-1.8
		v-8.1c0-1,0.8-1.8,1.8-1.8c1,0,1.8,0.8,1.8,1.8V43.4z"/>
	<g id="XMLID_719_">
		<path id="XMLID_720_" d="M106.2,52.6h-6l-2.3-6.2H83.6l-2.2,6.2h-5.6l11.5-31.5h6.5L106.2,52.6z M85,42.3h11.4l-5.6-15.4h-0.4
			L85,42.3z"/>
		<path id="XMLID_723_" d="M119,50c0.9,0,1.8-0.2,2.6-0.5c0.8-0.3,1.6-0.7,2.2-1.3c0.6-0.5,1.1-1.2,1.5-2c0.4-0.8,0.5-1.6,0.5-2.6
			V30.1h5v22.5h-5v-5h-0.4c-0.5,1.7-1.5,3.1-2.8,4c-1.4,0.9-3.1,1.4-5.2,1.4c-1.2,0-2.3-0.2-3.4-0.5c-1.1-0.3-2-0.8-2.8-1.6
			c-0.8-0.7-1.5-1.7-1.9-2.9c-0.5-1.2-0.7-2.7-0.7-4.5V30.1h5v13.5c0,2.3,0.5,3.9,1.4,4.9C116,49.5,117.3,50,119,50z"/>
		<path id="XMLID_725_" d="M159.4,52.6h-5v-5.4h-0.2c-0.6,1.9-1.7,3.3-3.3,4.3c-1.6,1-3.5,1.5-5.6,1.5c-1.2,0-2.4-0.2-3.6-0.5
			c-1.2-0.3-2.3-0.9-3.2-1.8c-1-0.9-1.7-2.1-2.3-3.6c-0.6-1.5-0.9-3.5-0.9-5.8c0-2.4,0.3-4.3,0.9-5.8c0.6-1.5,1.4-2.7,2.3-3.6
			c1-0.9,2-1.5,3.2-1.8c1.2-0.3,2.4-0.5,3.6-0.5c2.1,0,4,0.5,5.6,1.5c1.6,1,2.7,2.5,3.3,4.3h0.2V21h5V52.6z M147.3,49.4
			c1.1,0,2.1-0.2,2.9-0.5c0.9-0.4,1.6-0.8,2.3-1.4c0.6-0.6,1.1-1.2,1.4-2c0.3-0.7,0.5-1.5,0.5-2.3v-3.9c0-0.7-0.2-1.5-0.5-2.2
			c-0.3-0.7-0.8-1.3-1.4-1.9c-0.6-0.6-1.4-1-2.3-1.3c-0.9-0.3-1.9-0.5-2.9-0.5c-1,0-1.9,0.1-2.7,0.4c-0.8,0.2-1.6,0.7-2.2,1.3
			c-0.6,0.6-1.1,1.4-1.5,2.4c-0.4,1-0.5,2.3-0.5,3.9s0.2,2.9,0.5,3.9c0.4,1,0.9,1.8,1.5,2.4c0.6,0.6,1.4,1,2.2,1.3
			C145.4,49.2,146.3,49.4,147.3,49.4z"/>
		<path id="XMLID_728_" d="M170.5,25.8h-5.6v-4.6h5.6V25.8z M170.3,30.1v22.5h-5.1V30.1H170.3z"/>
		<path id="XMLID_731_" d="M175,41.4c0-1.9,0.3-3.5,0.9-5c0.6-1.5,1.4-2.7,2.5-3.7c1-1,2.3-1.7,3.7-2.3c1.4-0.5,2.9-0.8,4.4-0.8
			c1.6,0,3,0.2,4.4,0.7c1.4,0.5,2.6,1.2,3.7,2.2c1.1,1,1.9,2.2,2.5,3.6c0.6,1.5,0.9,3.2,0.9,5.1c0,1.9-0.3,3.5-0.9,5
			c-0.6,1.5-1.5,2.7-2.5,3.7c-1.1,1-2.3,1.7-3.7,2.3c-1.4,0.5-2.9,0.8-4.4,0.8c-1.6,0-3-0.3-4.4-0.8c-1.4-0.5-2.6-1.3-3.7-2.3
			c-1-1-1.9-2.2-2.5-3.7C175.3,44.9,175,43.3,175,41.4z M179.5,41.4c0,1.3,0.2,2.4,0.6,3.3s0.9,1.7,1.5,2.4c0.6,0.6,1.4,1.1,2.3,1.4
			c0.9,0.3,1.7,0.5,2.7,0.5c1,0,1.9-0.2,2.7-0.5c0.9-0.3,1.6-0.8,2.2-1.4c0.6-0.6,1.1-1.4,1.5-2.4s0.5-2,0.5-3.3s-0.2-2.4-0.5-3.3
			c-0.4-0.9-0.9-1.7-1.5-2.4c-0.6-0.6-1.4-1.1-2.2-1.4c-0.9-0.3-1.8-0.5-2.7-0.5c-0.9,0-1.8,0.2-2.7,0.5c-0.9,0.3-1.6,0.8-2.3,1.4
			c-0.6,0.6-1.2,1.4-1.5,2.4C179.7,39.1,179.5,40.2,179.5,41.4z"/>
		<path id="XMLID_734_" d="M215.6,37c0-1.5-0.5-2.6-1.5-3.3c-1-0.7-2.3-1-3.8-1c-1.3,0-2.3,0.3-3.1,0.8c-0.8,0.5-1.3,1.3-1.3,2.3
			c0,0.6,0.1,1,0.4,1.4c0.3,0.4,0.7,0.7,1.2,0.9c0.5,0.3,1.1,0.5,1.8,0.7s1.4,0.4,2.1,0.6c1.2,0.4,2.3,0.7,3.3,1
			c1,0.3,1.9,0.7,2.7,1.2c0.8,0.5,1.4,1.1,1.8,1.8c0.4,0.8,0.7,1.7,0.7,2.9c0,1.2-0.2,2.3-0.7,3.1c-0.5,0.8-1.2,1.5-2,2
			c-0.9,0.5-1.9,0.9-3.1,1.1c-1.2,0.2-2.5,0.3-3.9,0.3c-1.4,0-2.6-0.2-3.8-0.5c-1.1-0.3-2.1-0.8-2.9-1.5c-0.8-0.7-1.4-1.5-1.9-2.6
			s-0.7-2.3-0.7-3.7h4.1c0,1.6,0.5,2.8,1.4,3.6c0.9,0.8,2.2,1.1,3.8,1.1c1.6,0,2.8-0.2,3.6-0.7c0.8-0.5,1.3-1.3,1.3-2.4
			c0-0.6-0.2-1.1-0.5-1.5c-0.3-0.4-0.8-0.8-1.5-1s-1.4-0.5-2.2-0.8c-0.8-0.2-1.7-0.5-2.7-0.7c-1-0.3-1.9-0.6-2.7-0.9
			c-0.9-0.3-1.6-0.7-2.3-1.1c-0.6-0.5-1.2-1-1.5-1.7c-0.4-0.7-0.6-1.5-0.6-2.6c0-2.3,0.8-3.9,2.3-5c1.6-1.1,3.7-1.6,6.4-1.6
			c3.3,0,5.7,0.7,7.2,2c1.4,1.4,2.2,3.2,2.2,5.5H215.6z"/>
		<path id="XMLID_736_" d="M224.3,30.1h5.1v5.4h0.2c0.6-1.9,1.7-3.3,3.3-4.3c1.6-1,3.5-1.5,5.6-1.5c1.2,0,2.4,0.2,3.6,0.5
			c1.2,0.3,2.3,0.9,3.2,1.8c1,0.9,1.7,2.1,2.3,3.6c0.6,1.5,0.9,3.5,0.9,5.8c0,2.4-0.3,4.3-0.9,5.8c-0.6,1.5-1.4,2.7-2.3,3.6
			c-1,0.9-2,1.5-3.2,1.8c-1.2,0.3-2.4,0.5-3.6,0.5c-2.1,0-4-0.5-5.6-1.5s-2.7-2.5-3.3-4.3h-0.2v14.4h-5.1V30.1z M229.4,43.5
			c0,0.8,0.2,1.5,0.5,2.2c0.3,0.7,0.8,1.3,1.4,1.9c0.6,0.6,1.3,1,2.2,1.3c0.9,0.3,1.8,0.5,2.9,0.5c1,0,1.9-0.1,2.7-0.4
			c0.8-0.2,1.6-0.7,2.2-1.3c0.6-0.6,1.1-1.4,1.5-2.4c0.4-1,0.5-2.3,0.5-3.9s-0.2-2.9-0.5-3.9c-0.4-1-0.9-1.8-1.5-2.4
			c-0.6-0.6-1.4-1-2.2-1.3c-0.8-0.2-1.7-0.4-2.7-0.4c-1.1,0-2.1,0.2-2.9,0.5c-0.9,0.4-1.6,0.8-2.2,1.4c-0.6,0.6-1.1,1.2-1.4,2
			c-0.3,0.7-0.5,1.5-0.5,2.3V43.5z"/>
		<path id="XMLID_739_" d="M262.7,33.5c-1.8,0-3.2,0.3-4,1c-0.9,0.7-1.3,1.6-1.3,2.9h-4.7c0-2.8,0.8-4.7,2.5-5.9
			c1.6-1.2,4.1-1.8,7.4-1.8c1.7,0,3.2,0.1,4.6,0.4c1.3,0.3,2.5,0.8,3.4,1.5c0.9,0.7,1.7,1.7,2.2,2.8c0.5,1.2,0.8,2.7,0.8,4.5v13.7
			h-4.8v-5h-0.2c-0.6,1.9-1.6,3.3-3,4.1c-1.4,0.9-3.2,1.3-5.3,1.3c-1.2,0-2.3-0.2-3.4-0.5c-1-0.3-1.9-0.8-2.7-1.4
			c-0.8-0.6-1.4-1.4-1.8-2.3c-0.4-0.9-0.7-1.9-0.7-3.1c0-2.2,0.8-3.8,2.3-5c1.5-1.2,3.7-1.8,6.4-1.8h8.3v-0.7c0-1.8-0.5-3.1-1.5-3.9
			C266.2,33.8,264.7,33.5,262.7,33.5z M268.7,42.2h-7.3c-1.7,0-3,0.3-3.7,1c-0.7,0.6-1.1,1.5-1.1,2.7c0,1.2,0.4,2.1,1.2,2.8
			s2,1.1,3.5,1.1c1.1,0,2.1-0.2,3-0.5c0.9-0.3,1.7-0.8,2.4-1.3c0.7-0.5,1.2-1.2,1.6-1.9c0.4-0.7,0.6-1.5,0.6-2.3V42.2z"/>
		<path id="XMLID_742_" d="M278.8,52.6V30.1h5.1v5h0.2c0.5-1.9,1.3-3.3,2.2-4.1c0.9-0.9,2.1-1.3,3.6-1.3c0.8,0,1.6,0.2,2.6,0.5v5
			c-0.6-0.1-1.1-0.3-1.7-0.4c-0.6-0.1-1.1-0.2-1.7-0.2c-1,0-1.8,0.2-2.4,0.6c-0.7,0.4-1.2,0.9-1.6,1.5c-0.4,0.6-0.7,1.3-0.9,2.1
			c-0.2,0.8-0.3,1.6-0.3,2.5v11.4H278.8z"/>
		<path id="XMLID_744_" d="M301.4,52.6h-5.1V21.1h5.1v17.7l9.5-8.6h6.4l-9.6,8.9l10,13.6h-6.2L303.8,42l-2.4,2.3V52.6z"/>
	</g>
	<g id="XMLID_611_">
		<path id="XMLID_612_" d="M106.2,52.6h-6l-2.3-6.2H83.6l-2.2,6.2h-5.6l11.5-31.5h6.5L106.2,52.6z M85,42.3h11.4l-5.6-15.4h-0.4
			L85,42.3z"/>
		<path id="XMLID_615_" d="M119,50c0.9,0,1.8-0.2,2.6-0.5c0.8-0.3,1.6-0.7,2.2-1.3c0.6-0.5,1.1-1.2,1.5-2c0.4-0.8,0.5-1.6,0.5-2.6
			V30.1h5v22.5h-5v-5h-0.4c-0.5,1.7-1.5,3.1-2.8,4c-1.4,0.9-3.1,1.4-5.2,1.4c-1.2,0-2.3-0.2-3.4-0.5c-1.1-0.3-2-0.8-2.8-1.6
			c-0.8-0.7-1.5-1.7-1.9-2.9c-0.5-1.2-0.7-2.7-0.7-4.5V30.1h5v13.5c0,2.3,0.5,3.9,1.4,4.9C116,49.5,117.3,50,119,50z"/>
		<path id="XMLID_617_" d="M159.4,52.6h-5v-5.4h-0.2c-0.6,1.9-1.7,3.3-3.3,4.3c-1.6,1-3.5,1.5-5.6,1.5c-1.2,0-2.4-0.2-3.6-0.5
			c-1.2-0.3-2.3-0.9-3.2-1.8c-1-0.9-1.7-2.1-2.3-3.6c-0.6-1.5-0.9-3.5-0.9-5.8c0-2.4,0.3-4.3,0.9-5.8c0.6-1.5,1.4-2.7,2.3-3.6
			c1-0.9,2-1.5,3.2-1.8c1.2-0.3,2.4-0.5,3.6-0.5c2.1,0,4,0.5,5.6,1.5c1.6,1,2.7,2.5,3.3,4.3h0.2V21h5V52.6z M147.3,49.4
			c1.1,0,2.1-0.2,2.9-0.5c0.9-0.4,1.6-0.8,2.3-1.4c0.6-0.6,1.1-1.2,1.4-2c0.3-0.7,0.5-1.5,0.5-2.3v-3.9c0-0.7-0.2-1.5-0.5-2.2
			c-0.3-0.7-0.8-1.3-1.4-1.9c-0.6-0.6-1.4-1-2.3-1.3c-0.9-0.3-1.9-0.5-2.9-0.5c-1,0-1.9,0.1-2.7,0.4c-0.8,0.2-1.6,0.7-2.2,1.3
			c-0.6,0.6-1.1,1.4-1.5,2.4c-0.4,1-0.5,2.3-0.5,3.9s0.2,2.9,0.5,3.9c0.4,1,0.9,1.8,1.5,2.4c0.6,0.6,1.4,1,2.2,1.3
			C145.4,49.2,146.3,49.4,147.3,49.4z"/>
		<path id="XMLID_620_" d="M170.5,25.8h-5.6v-4.6h5.6V25.8z M170.3,30.1v22.5h-5.1V30.1H170.3z"/>
		<path id="XMLID_623_" d="M175,41.4c0-1.9,0.3-3.5,0.9-5c0.6-1.5,1.4-2.7,2.5-3.7c1-1,2.3-1.7,3.7-2.3c1.4-0.5,2.9-0.8,4.4-0.8
			c1.6,0,3,0.2,4.4,0.7c1.4,0.5,2.6,1.2,3.7,2.2c1.1,1,1.9,2.2,2.5,3.6c0.6,1.5,0.9,3.2,0.9,5.1c0,1.9-0.3,3.5-0.9,5
			c-0.6,1.5-1.5,2.7-2.5,3.7c-1.1,1-2.3,1.7-3.7,2.3c-1.4,0.5-2.9,0.8-4.4,0.8c-1.6,0-3-0.3-4.4-0.8c-1.4-0.5-2.6-1.3-3.7-2.3
			c-1-1-1.9-2.2-2.5-3.7C175.3,44.9,175,43.3,175,41.4z M179.5,41.4c0,1.3,0.2,2.4,0.6,3.3s0.9,1.7,1.5,2.4c0.6,0.6,1.4,1.1,2.3,1.4
			c0.9,0.3,1.7,0.5,2.7,0.5c1,0,1.9-0.2,2.7-0.5c0.9-0.3,1.6-0.8,2.2-1.4c0.6-0.6,1.1-1.4,1.5-2.4s0.5-2,0.5-3.3s-0.2-2.4-0.5-3.3
			c-0.4-0.9-0.9-1.7-1.5-2.4c-0.6-0.6-1.4-1.1-2.2-1.4c-0.9-0.3-1.8-0.5-2.7-0.5c-0.9,0-1.8,0.2-2.7,0.5c-0.9,0.3-1.6,0.8-2.3,1.4
			c-0.6,0.6-1.2,1.4-1.5,2.4C179.7,39.1,179.5,40.2,179.5,41.4z"/>
		<path id="XMLID_626_" d="M215.6,37c0-1.5-0.5-2.6-1.5-3.3c-1-0.7-2.3-1-3.8-1c-1.3,0-2.3,0.3-3.1,0.8c-0.8,0.5-1.3,1.3-1.3,2.3
			c0,0.6,0.1,1,0.4,1.4c0.3,0.4,0.7,0.7,1.2,0.9c0.5,0.3,1.1,0.5,1.8,0.7s1.4,0.4,2.1,0.6c1.2,0.4,2.3,0.7,3.3,1
			c1,0.3,1.9,0.7,2.7,1.2c0.8,0.5,1.4,1.1,1.8,1.8c0.4,0.8,0.7,1.7,0.7,2.9c0,1.2-0.2,2.3-0.7,3.1c-0.5,0.8-1.2,1.5-2,2
			c-0.9,0.5-1.9,0.9-3.1,1.1c-1.2,0.2-2.5,0.3-3.9,0.3c-1.4,0-2.6-0.2-3.8-0.5c-1.1-0.3-2.1-0.8-2.9-1.5c-0.8-0.7-1.4-1.5-1.9-2.6
			s-0.7-2.3-0.7-3.7h4.1c0,1.6,0.5,2.8,1.4,3.6c0.9,0.8,2.2,1.1,3.8,1.1c1.6,0,2.8-0.2,3.6-0.7c0.8-0.5,1.3-1.3,1.3-2.4
			c0-0.6-0.2-1.1-0.5-1.5c-0.3-0.4-0.8-0.8-1.5-1s-1.4-0.5-2.2-0.8c-0.8-0.2-1.7-0.5-2.7-0.7c-1-0.3-1.9-0.6-2.7-0.9
			c-0.9-0.3-1.6-0.7-2.3-1.1c-0.6-0.5-1.2-1-1.5-1.7c-0.4-0.7-0.6-1.5-0.6-2.6c0-2.3,0.8-3.9,2.3-5c1.6-1.1,3.7-1.6,6.4-1.6
			c3.3,0,5.7,0.7,7.2,2c1.4,1.4,2.2,3.2,2.2,5.5H215.6z"/>
		<path id="XMLID_628_" d="M224.3,30.1h5.1v5.4h0.2c0.6-1.9,1.7-3.3,3.3-4.3c1.6-1,3.5-1.5,5.6-1.5c1.2,0,2.4,0.2,3.6,0.5
			c1.2,0.3,2.3,0.9,3.2,1.8c1,0.9,1.7,2.1,2.3,3.6c0.6,1.5,0.9,3.5,0.9,5.8c0,2.4-0.3,4.3-0.9,5.8c-0.6,1.5-1.4,2.7-2.3,3.6
			c-1,0.9-2,1.5-3.2,1.8c-1.2,0.3-2.4,0.5-3.6,0.5c-2.1,0-4-0.5-5.6-1.5s-2.7-2.5-3.3-4.3h-0.2v14.4h-5.1V30.1z M229.4,43.5
			c0,0.8,0.2,1.5,0.5,2.2c0.3,0.7,0.8,1.3,1.4,1.9c0.6,0.6,1.3,1,2.2,1.3c0.9,0.3,1.8,0.5,2.9,0.5c1,0,1.9-0.1,2.7-0.4
			c0.8-0.2,1.6-0.7,2.2-1.3c0.6-0.6,1.1-1.4,1.5-2.4c0.4-1,0.5-2.3,0.5-3.9s-0.2-2.9-0.5-3.9c-0.4-1-0.9-1.8-1.5-2.4
			c-0.6-0.6-1.4-1-2.2-1.3c-0.8-0.2-1.7-0.4-2.7-0.4c-1.1,0-2.1,0.2-2.9,0.5c-0.9,0.4-1.6,0.8-2.2,1.4c-0.6,0.6-1.1,1.2-1.4,2
			c-0.3,0.7-0.5,1.5-0.5,2.3V43.5z"/>
		<path id="XMLID_631_" d="M262.7,33.5c-1.8,0-3.2,0.3-4,1c-0.9,0.7-1.3,1.6-1.3,2.9h-4.7c0-2.8,0.8-4.7,2.5-5.9
			c1.6-1.2,4.1-1.8,7.4-1.8c1.7,0,3.2,0.1,4.6,0.4c1.3,0.3,2.5,0.8,3.4,1.5c0.9,0.7,1.7,1.7,2.2,2.8c0.5,1.2,0.8,2.7,0.8,4.5v13.7
			h-4.8v-5h-0.2c-0.6,1.9-1.6,3.3-3,4.1c-1.4,0.9-3.2,1.3-5.3,1.3c-1.2,0-2.3-0.2-3.4-0.5c-1-0.3-1.9-0.8-2.7-1.4
			c-0.8-0.6-1.4-1.4-1.8-2.3c-0.4-0.9-0.7-1.9-0.7-3.1c0-2.2,0.8-3.8,2.3-5c1.5-1.2,3.7-1.8,6.4-1.8h8.3v-0.7c0-1.8-0.5-3.1-1.5-3.9
			C266.2,33.8,264.7,33.5,262.7,33.5z M268.7,42.2h-7.3c-1.7,0-3,0.3-3.7,1c-0.7,0.6-1.1,1.5-1.1,2.7c0,1.2,0.4,2.1,1.2,2.8
			s2,1.1,3.5,1.1c1.1,0,2.1-0.2,3-0.5c0.9-0.3,1.7-0.8,2.4-1.3c0.7-0.5,1.2-1.2,1.6-1.9c0.4-0.7,0.6-1.5,0.6-2.3V42.2z"/>
		<path id="XMLID_634_" d="M278.8,52.6V30.1h5.1v5h0.2c0.5-1.9,1.3-3.3,2.2-4.1c0.9-0.9,2.1-1.3,3.6-1.3c0.8,0,1.6,0.2,2.6,0.5v5
			c-0.6-0.1-1.1-0.3-1.7-0.4c-0.6-0.1-1.1-0.2-1.7-0.2c-1,0-1.8,0.2-2.4,0.6c-0.7,0.4-1.2,0.9-1.6,1.5c-0.4,0.6-0.7,1.3-0.9,2.1
			c-0.2,0.8-0.3,1.6-0.3,2.5v11.4H278.8z"/>
		<path id="XMLID_636_" d="M301.4,52.6h-5.1V21.1h5.1v17.7l9.5-8.6h6.4l-9.6,8.9l10,13.6h-6.2L303.8,42l-2.4,2.3V52.6z"/>
	</g>
	<g id="XMLID_8_">
		<path id="XMLID_582_" d="M106.2,52.6h-6l-2.3-6.2H83.6l-2.2,6.2h-5.6l11.5-31.5h6.5L106.2,52.6z M85,42.3h11.4l-5.6-15.4h-0.4
			L85,42.3z"/>
		<path id="XMLID_585_" d="M119,50c0.9,0,1.8-0.2,2.6-0.5c0.8-0.3,1.6-0.7,2.2-1.3c0.6-0.5,1.1-1.2,1.5-2c0.4-0.8,0.5-1.6,0.5-2.6
			V30.1h5v22.5h-5v-5h-0.4c-0.5,1.7-1.5,3.1-2.8,4c-1.4,0.9-3.1,1.4-5.2,1.4c-1.2,0-2.3-0.2-3.4-0.5c-1.1-0.3-2-0.8-2.8-1.6
			c-0.8-0.7-1.5-1.7-1.9-2.9c-0.5-1.2-0.7-2.7-0.7-4.5V30.1h5v13.5c0,2.3,0.5,3.9,1.4,4.9C116,49.5,117.3,50,119,50z"/>
		<path id="XMLID_587_" d="M159.4,52.6h-5v-5.4h-0.2c-0.6,1.9-1.7,3.3-3.3,4.3c-1.6,1-3.5,1.5-5.6,1.5c-1.2,0-2.4-0.2-3.6-0.5
			c-1.2-0.3-2.3-0.9-3.2-1.8c-1-0.9-1.7-2.1-2.3-3.6c-0.6-1.5-0.9-3.5-0.9-5.8c0-2.4,0.3-4.3,0.9-5.8c0.6-1.5,1.4-2.7,2.3-3.6
			c1-0.9,2-1.5,3.2-1.8c1.2-0.3,2.4-0.5,3.6-0.5c2.1,0,4,0.5,5.6,1.5c1.6,1,2.7,2.5,3.3,4.3h0.2V21h5V52.6z M147.3,49.4
			c1.1,0,2.1-0.2,2.9-0.5c0.9-0.4,1.6-0.8,2.3-1.4c0.6-0.6,1.1-1.2,1.4-2c0.3-0.7,0.5-1.5,0.5-2.3v-3.9c0-0.7-0.2-1.5-0.5-2.2
			c-0.3-0.7-0.8-1.3-1.4-1.9c-0.6-0.6-1.4-1-2.3-1.3c-0.9-0.3-1.9-0.5-2.9-0.5c-1,0-1.9,0.1-2.7,0.4c-0.8,0.2-1.6,0.7-2.2,1.3
			c-0.6,0.6-1.1,1.4-1.5,2.4c-0.4,1-0.5,2.3-0.5,3.9s0.2,2.9,0.5,3.9c0.4,1,0.9,1.8,1.5,2.4c0.6,0.6,1.4,1,2.2,1.3
			C145.4,49.2,146.3,49.4,147.3,49.4z"/>
		<path id="XMLID_590_" d="M170.5,25.8h-5.6v-4.6h5.6V25.8z M170.3,30.1v22.5h-5.1V30.1H170.3z"/>
		<path id="XMLID_593_" d="M175,41.4c0-1.9,0.3-3.5,0.9-5c0.6-1.5,1.4-2.7,2.5-3.7c1-1,2.3-1.7,3.7-2.3c1.4-0.5,2.9-0.8,4.4-0.8
			c1.6,0,3,0.2,4.4,0.7c1.4,0.5,2.6,1.2,3.7,2.2c1.1,1,1.9,2.2,2.5,3.6c0.6,1.5,0.9,3.2,0.9,5.1c0,1.9-0.3,3.5-0.9,5
			c-0.6,1.5-1.5,2.7-2.5,3.7c-1.1,1-2.3,1.7-3.7,2.3c-1.4,0.5-2.9,0.8-4.4,0.8c-1.6,0-3-0.3-4.4-0.8c-1.4-0.5-2.6-1.3-3.7-2.3
			c-1-1-1.9-2.2-2.5-3.7C175.3,44.9,175,43.3,175,41.4z M179.5,41.4c0,1.3,0.2,2.4,0.6,3.3s0.9,1.7,1.5,2.4c0.6,0.6,1.4,1.1,2.3,1.4
			c0.9,0.3,1.7,0.5,2.7,0.5c1,0,1.9-0.2,2.7-0.5c0.9-0.3,1.6-0.8,2.2-1.4c0.6-0.6,1.1-1.4,1.5-2.4s0.5-2,0.5-3.3s-0.2-2.4-0.5-3.3
			c-0.4-0.9-0.9-1.7-1.5-2.4c-0.6-0.6-1.4-1.1-2.2-1.4c-0.9-0.3-1.8-0.5-2.7-0.5c-0.9,0-1.8,0.2-2.7,0.5c-0.9,0.3-1.6,0.8-2.3,1.4
			c-0.6,0.6-1.2,1.4-1.5,2.4C179.7,39.1,179.5,40.2,179.5,41.4z"/>
		<path id="XMLID_596_" d="M215.6,37c0-1.5-0.5-2.6-1.5-3.3c-1-0.7-2.3-1-3.8-1c-1.3,0-2.3,0.3-3.1,0.8c-0.8,0.5-1.3,1.3-1.3,2.3
			c0,0.6,0.1,1,0.4,1.4c0.3,0.4,0.7,0.7,1.2,0.9c0.5,0.3,1.1,0.5,1.8,0.7s1.4,0.4,2.1,0.6c1.2,0.4,2.3,0.7,3.3,1
			c1,0.3,1.9,0.7,2.7,1.2c0.8,0.5,1.4,1.1,1.8,1.8c0.4,0.8,0.7,1.7,0.7,2.9c0,1.2-0.2,2.3-0.7,3.1c-0.5,0.8-1.2,1.5-2,2
			c-0.9,0.5-1.9,0.9-3.1,1.1c-1.2,0.2-2.5,0.3-3.9,0.3c-1.4,0-2.6-0.2-3.8-0.5c-1.1-0.3-2.1-0.8-2.9-1.5c-0.8-0.7-1.4-1.5-1.9-2.6
			s-0.7-2.3-0.7-3.7h4.1c0,1.6,0.5,2.8,1.4,3.6c0.9,0.8,2.2,1.1,3.8,1.1c1.6,0,2.8-0.2,3.6-0.7c0.8-0.5,1.3-1.3,1.3-2.4
			c0-0.6-0.2-1.1-0.5-1.5c-0.3-0.4-0.8-0.8-1.5-1s-1.4-0.5-2.2-0.8c-0.8-0.2-1.7-0.5-2.7-0.7c-1-0.3-1.9-0.6-2.7-0.9
			c-0.9-0.3-1.6-0.7-2.3-1.1c-0.6-0.5-1.2-1-1.5-1.7c-0.4-0.7-0.6-1.5-0.6-2.6c0-2.3,0.8-3.9,2.3-5c1.6-1.1,3.7-1.6,6.4-1.6
			c3.3,0,5.7,0.7,7.2,2c1.4,1.4,2.2,3.2,2.2,5.5H215.6z"/>
		<path id="XMLID_598_" d="M224.3,30.1h5.1v5.4h0.2c0.6-1.9,1.7-3.3,3.3-4.3c1.6-1,3.5-1.5,5.6-1.5c1.2,0,2.4,0.2,3.6,0.5
			c1.2,0.3,2.3,0.9,3.2,1.8c1,0.9,1.7,2.1,2.3,3.6c0.6,1.5,0.9,3.5,0.9,5.8c0,2.4-0.3,4.3-0.9,5.8c-0.6,1.5-1.4,2.7-2.3,3.6
			c-1,0.9-2,1.5-3.2,1.8c-1.2,0.3-2.4,0.5-3.6,0.5c-2.1,0-4-0.5-5.6-1.5s-2.7-2.5-3.3-4.3h-0.2v14.4h-5.1V30.1z M229.4,43.5
			c0,0.8,0.2,1.5,0.5,2.2c0.3,0.7,0.8,1.3,1.4,1.9c0.6,0.6,1.3,1,2.2,1.3c0.9,0.3,1.8,0.5,2.9,0.5c1,0,1.9-0.1,2.7-0.4
			c0.8-0.2,1.6-0.7,2.2-1.3c0.6-0.6,1.1-1.4,1.5-2.4c0.4-1,0.5-2.3,0.5-3.9s-0.2-2.9-0.5-3.9c-0.4-1-0.9-1.8-1.5-2.4
			c-0.6-0.6-1.4-1-2.2-1.3c-0.8-0.2-1.7-0.4-2.7-0.4c-1.1,0-2.1,0.2-2.9,0.5c-0.9,0.4-1.6,0.8-2.2,1.4c-0.6,0.6-1.1,1.2-1.4,2
			c-0.3,0.7-0.5,1.5-0.5,2.3V43.5z"/>
		<path id="XMLID_601_" d="M262.7,33.5c-1.8,0-3.2,0.3-4,1c-0.9,0.7-1.3,1.6-1.3,2.9h-4.7c0-2.8,0.8-4.7,2.5-5.9
			c1.6-1.2,4.1-1.8,7.4-1.8c1.7,0,3.2,0.1,4.6,0.4c1.3,0.3,2.5,0.8,3.4,1.5c0.9,0.7,1.7,1.7,2.2,2.8c0.5,1.2,0.8,2.7,0.8,4.5v13.7
			h-4.8v-5h-0.2c-0.6,1.9-1.6,3.3-3,4.1c-1.4,0.9-3.2,1.3-5.3,1.3c-1.2,0-2.3-0.2-3.4-0.5c-1-0.3-1.9-0.8-2.7-1.4
			c-0.8-0.6-1.4-1.4-1.8-2.3c-0.4-0.9-0.7-1.9-0.7-3.1c0-2.2,0.8-3.8,2.3-5c1.5-1.2,3.7-1.8,6.4-1.8h8.3v-0.7c0-1.8-0.5-3.1-1.5-3.9
			C266.2,33.8,264.7,33.5,262.7,33.5z M268.7,42.2h-7.3c-1.7,0-3,0.3-3.7,1c-0.7,0.6-1.1,1.5-1.1,2.7c0,1.2,0.4,2.1,1.2,2.8
			s2,1.1,3.5,1.1c1.1,0,2.1-0.2,3-0.5c0.9-0.3,1.7-0.8,2.4-1.3c0.7-0.5,1.2-1.2,1.6-1.9c0.4-0.7,0.6-1.5,0.6-2.3V42.2z"/>
		<path id="XMLID_604_" d="M278.8,52.6V30.1h5.1v5h0.2c0.5-1.9,1.3-3.3,2.2-4.1c0.9-0.9,2.1-1.3,3.6-1.3c0.8,0,1.6,0.2,2.6,0.5v5
			c-0.6-0.1-1.1-0.3-1.7-0.4c-0.6-0.1-1.1-0.2-1.7-0.2c-1,0-1.8,0.2-2.4,0.6c-0.7,0.4-1.2,0.9-1.6,1.5c-0.4,0.6-0.7,1.3-0.9,2.1
			c-0.2,0.8-0.3,1.6-0.3,2.5v11.4H278.8z"/>
		<path id="XMLID_606_" d="M301.4,52.6h-5.1V21.1h5.1v17.7l9.5-8.6h6.4l-9.6,8.9l10,13.6h-6.2L303.8,42l-2.4,2.3V52.6z"/>
	</g>
</g>
</svg>
