<?xml version="1.0" encoding="utf-8"?>
<!-- Generator: Adobe Illustrator 19.0.0, SVG Export Plug-In . SVG Version: 6.00 Build 0)  -->
<svg version="1.1" id="Layer_1" xmlns="http://www.w3.org/2000/svg" xmlns:xlink="http://www.w3.org/1999/xlink" x="0px" y="0px"
	 viewBox="0 0 245.8 43.8" style="enable-background:new 0 0 245.8 43.8;" xml:space="preserve">
<style type="text/css">
	.st0{display:none;fill:#FFFFFF;}
	.st1{display:none;fill:url(#XMLID_881_);}
	.st2{fill:#FFFFFF;}
	.st3{display:none;}
	.st4{display:inline;}
	.st5{display:inline;fill:url(#XMLID_909_);}
	.st6{display:inline;fill:url(#XMLID_910_);}
</style>
<path id="XMLID_100_" class="st0" d="M2408-0.6l-19.3-11.2c-3.4-1.9-7.5-1.9-10.9,0l-19.3,11.2c-3.4,1.9-5.4,5.5-5.4,9.4v22.3
	c0,3.9,2.1,7.5,5.4,9.4l19.3,11.2c3.4,1.9,7.5,1.9,10.9,0l19.3-11.2c3.4-1.9,5.4-5.5,5.4-9.4V8.8C2413.5,5,2411.4,1.4,2408-0.6z
	 M2370.4,24.1c0,1-0.8,1.8-1.8,1.8s-1.8-0.8-1.8-1.8v-8.1c0-1,0.8-1.8,1.8-1.8s1.8,0.8,1.8,1.8V24.1z M2377.7,29.5
	c0,1-0.8,1.8-1.8,1.8s-1.8-0.8-1.8-1.8V10.5c0-1,0.8-1.8,1.8-1.8s1.8,0.8,1.8,1.8V29.5z M2385.1,35.3c0,1-0.8,1.8-1.8,1.8
	s-1.8-0.8-1.8-1.8V4.7c0-1,0.8-1.8,1.8-1.8s1.8,0.8,1.8,1.8V35.3z M2392.4,29.5c0,1-0.8,1.8-1.8,1.8c-1,0-1.8-0.8-1.8-1.8V10.5
	c0-1,0.8-1.8,1.8-1.8c1,0,1.8,0.8,1.8,1.8V29.5z M2399.7,24.1c0,1-0.8,1.8-1.8,1.8s-1.8-0.8-1.8-1.8v-8.1c0-1,0.8-1.8,1.8-1.8
	s1.8,0.8,1.8,1.8V24.1z"/>
<linearGradient id="XMLID_881_" gradientUnits="userSpaceOnUse" x1="1355.267" y1="53.1835" x2="1355.267" y2="-13.1835">
	<stop  offset="0" style="stop-color:#0000FF"/>
	<stop  offset="1" style="stop-color:#0370E6"/>
</linearGradient>
<path id="XMLID_101_" class="st1" d="M1380-0.6l-19.3-11.2c-3.4-1.9-7.5-1.9-10.9,0l-19.3,11.2c-3.4,1.9-5.4,5.5-5.4,9.4v22.3
	c0,3.9,2.1,7.5,5.4,9.4l19.3,11.2c3.4,1.9,7.5,1.9,10.9,0l19.3-11.2c3.4-1.9,5.4-5.5,5.4-9.4V8.8C1385.5,5,1383.4,1.4,1380-0.6z
	 M1342.4,24.1c0,1-0.8,1.8-1.8,1.8s-1.8-0.8-1.8-1.8v-8.1c0-1,0.8-1.8,1.8-1.8s1.8,0.8,1.8,1.8V24.1z M1349.7,29.5
	c0,1-0.8,1.8-1.8,1.8s-1.8-0.8-1.8-1.8V10.5c0-1,0.8-1.8,1.8-1.8s1.8,0.8,1.8,1.8V29.5z M1357.1,35.3c0,1-0.8,1.8-1.8,1.8
	s-1.8-0.8-1.8-1.8V4.7c0-1,0.8-1.8,1.8-1.8s1.8,0.8,1.8,1.8V35.3z M1364.4,29.5c0,1-0.8,1.8-1.8,1.8s-1.8-0.8-1.8-1.8V10.5
	c0-1,0.8-1.8,1.8-1.8s1.8,0.8,1.8,1.8V29.5z M1371.7,24.1c0,1-0.8,1.8-1.8,1.8c-1,0-1.8-0.8-1.8-1.8v-8.1c0-1,0.8-1.8,1.8-1.8
	c1,0,1.8,0.8,1.8,1.8V24.1z"/>
<g id="XMLID_909_">
	<path id="XMLID_910_" class="st2" d="M32.4,33.3h-6l-2.3-6.2H9.8l-2.2,6.2H2L13.5,1.8H20L32.4,33.3z M11.2,23h11.4L17,7.6h-0.4
		L11.2,23z"/>
	<path id="XMLID_913_" class="st2" d="M45.2,30.7c0.9,0,1.8-0.2,2.6-0.5s1.6-0.7,2.2-1.3c0.6-0.5,1.1-1.2,1.5-2
		c0.4-0.8,0.5-1.6,0.5-2.6V10.8h5v22.5h-5v-5h-0.4c-0.5,1.7-1.5,3.1-2.8,4c-1.4,0.9-3.1,1.4-5.2,1.4c-1.2,0-2.3-0.2-3.4-0.5
		c-1.1-0.3-2-0.8-2.8-1.6c-0.8-0.7-1.5-1.7-1.9-2.9c-0.5-1.2-0.7-2.7-0.7-4.5V10.8h5v13.5c0,2.3,0.5,3.9,1.4,4.9
		C42.1,30.2,43.5,30.7,45.2,30.7z"/>
	<path id="XMLID_915_" class="st2" d="M85.5,33.3h-5v-5.4h-0.2c-0.6,1.9-1.7,3.3-3.3,4.3c-1.6,1-3.5,1.5-5.6,1.5
		c-1.2,0-2.4-0.2-3.6-0.5c-1.2-0.3-2.3-0.9-3.2-1.8c-1-0.9-1.7-2.1-2.3-3.6c-0.6-1.5-0.9-3.5-0.9-5.8c0-2.4,0.3-4.3,0.9-5.8
		c0.6-1.5,1.4-2.7,2.3-3.6c1-0.9,2-1.5,3.2-1.8c1.2-0.3,2.4-0.5,3.6-0.5c2.1,0,4,0.5,5.6,1.5c1.6,1,2.7,2.5,3.3,4.3h0.2V1.8h5V33.3z
		 M73.4,30.1c1.1,0,2.1-0.2,2.9-0.5c0.9-0.4,1.6-0.8,2.3-1.4c0.6-0.6,1.1-1.2,1.4-2c0.3-0.7,0.5-1.5,0.5-2.3V20
		c0-0.7-0.2-1.5-0.5-2.2c-0.3-0.7-0.8-1.3-1.4-1.9c-0.6-0.6-1.4-1-2.3-1.3c-0.9-0.3-1.9-0.5-2.9-0.5c-1,0-1.9,0.1-2.7,0.4
		c-0.8,0.2-1.6,0.7-2.2,1.3c-0.6,0.6-1.1,1.4-1.5,2.4c-0.4,1-0.5,2.3-0.5,3.9c0,1.6,0.2,2.9,0.5,3.9c0.4,1,0.9,1.8,1.5,2.4
		c0.6,0.6,1.4,1,2.2,1.3C71.6,29.9,72.5,30.1,73.4,30.1z"/>
	<path id="XMLID_918_" class="st2" d="M96.7,6.5h-5.6V1.8h5.6V6.5z M96.4,10.8v22.5h-5.1V10.8H96.4z"/>
	<path id="XMLID_921_" class="st2" d="M101.2,22.1c0-1.9,0.3-3.5,0.9-5c0.6-1.5,1.4-2.7,2.5-3.7c1-1,2.3-1.7,3.7-2.3
		c1.4-0.5,2.9-0.8,4.4-0.8c1.6,0,3,0.2,4.4,0.7c1.4,0.5,2.6,1.2,3.7,2.2c1.1,1,1.9,2.2,2.5,3.6c0.6,1.5,0.9,3.2,0.9,5.1
		c0,1.9-0.3,3.5-0.9,5c-0.6,1.5-1.5,2.7-2.5,3.7c-1.1,1-2.3,1.7-3.7,2.3c-1.4,0.5-2.9,0.8-4.4,0.8c-1.6,0-3-0.3-4.4-0.8
		c-1.4-0.5-2.6-1.3-3.7-2.3c-1-1-1.9-2.2-2.5-3.7C101.5,25.7,101.2,24,101.2,22.1z M105.7,22.1c0,1.3,0.2,2.4,0.6,3.3
		c0.4,0.9,0.9,1.7,1.5,2.4c0.6,0.6,1.4,1.1,2.3,1.4c0.9,0.3,1.7,0.5,2.7,0.5c1,0,1.9-0.2,2.7-0.5c0.9-0.3,1.6-0.8,2.2-1.4
		c0.6-0.6,1.1-1.4,1.5-2.4c0.4-0.9,0.5-2,0.5-3.3c0-1.3-0.2-2.4-0.5-3.3c-0.4-0.9-0.9-1.7-1.5-2.4c-0.6-0.6-1.4-1.1-2.2-1.4
		c-0.9-0.3-1.8-0.5-2.7-0.5c-0.9,0-1.8,0.2-2.7,0.5c-0.9,0.3-1.6,0.8-2.3,1.4c-0.6,0.6-1.2,1.4-1.5,2.4
		C105.9,19.8,105.7,20.9,105.7,22.1z"/>
	<path id="XMLID_924_" class="st2" d="M141.8,17.7c0-1.5-0.5-2.6-1.5-3.3c-1-0.7-2.3-1-3.8-1c-1.3,0-2.3,0.3-3.1,0.8
		c-0.8,0.5-1.3,1.3-1.3,2.3c0,0.6,0.1,1,0.4,1.4c0.3,0.4,0.7,0.7,1.2,0.9c0.5,0.3,1.1,0.5,1.8,0.7s1.4,0.4,2.1,0.6
		c1.2,0.4,2.3,0.7,3.3,1c1,0.3,1.9,0.7,2.7,1.2c0.8,0.5,1.4,1.1,1.8,1.8c0.4,0.8,0.7,1.7,0.7,2.9c0,1.2-0.2,2.3-0.7,3.1
		c-0.5,0.8-1.2,1.5-2,2c-0.9,0.5-1.9,0.9-3.1,1.1c-1.2,0.2-2.5,0.3-3.9,0.3c-1.4,0-2.6-0.2-3.8-0.5c-1.1-0.3-2.1-0.8-2.9-1.5
		c-0.8-0.7-1.4-1.5-1.9-2.6s-0.7-2.3-0.7-3.7h4.1c0,1.6,0.5,2.8,1.4,3.6c0.9,0.8,2.2,1.1,3.8,1.1c1.6,0,2.8-0.2,3.6-0.7
		c0.8-0.5,1.3-1.3,1.3-2.4c0-0.6-0.2-1.1-0.5-1.5c-0.3-0.4-0.8-0.8-1.5-1s-1.4-0.5-2.2-0.8c-0.8-0.2-1.7-0.5-2.7-0.7
		c-1-0.3-1.9-0.6-2.7-0.9c-0.9-0.3-1.6-0.7-2.3-1.1c-0.6-0.5-1.2-1-1.5-1.7c-0.4-0.7-0.6-1.5-0.6-2.6c0-2.3,0.8-3.9,2.3-5
		c1.6-1.1,3.7-1.6,6.4-1.6c3.3,0,5.7,0.7,7.2,2c1.4,1.4,2.2,3.2,2.2,5.5H141.8z"/>
	<path id="XMLID_926_" class="st2" d="M150.5,10.8h5.1v5.4h0.2c0.6-1.9,1.7-3.3,3.3-4.3c1.6-1,3.5-1.5,5.6-1.5
		c1.2,0,2.4,0.2,3.6,0.5c1.2,0.3,2.3,0.9,3.2,1.8s1.7,2.1,2.3,3.6c0.6,1.5,0.9,3.5,0.9,5.8c0,2.4-0.3,4.3-0.9,5.8
		c-0.6,1.5-1.4,2.7-2.3,3.6s-2,1.5-3.2,1.8c-1.2,0.3-2.4,0.5-3.6,0.5c-2.1,0-4-0.5-5.6-1.5c-1.6-1-2.7-2.5-3.3-4.3h-0.2v14.4h-5.1
		V10.8z M155.6,24.2c0,0.8,0.2,1.5,0.5,2.2s0.8,1.3,1.4,1.9c0.6,0.6,1.3,1,2.2,1.3c0.9,0.3,1.8,0.5,2.9,0.5c1,0,1.9-0.1,2.7-0.4
		c0.8-0.2,1.6-0.7,2.2-1.3c0.6-0.6,1.1-1.4,1.5-2.4c0.4-1,0.5-2.3,0.5-3.9c0-1.6-0.2-2.9-0.5-3.9c-0.4-1-0.9-1.8-1.5-2.4
		c-0.6-0.6-1.4-1-2.2-1.3c-0.8-0.2-1.7-0.4-2.7-0.4c-1.1,0-2.1,0.2-2.9,0.5c-0.9,0.4-1.6,0.8-2.2,1.4c-0.6,0.6-1.1,1.2-1.4,2
		c-0.3,0.7-0.5,1.5-0.5,2.3V24.2z"/>
	<path id="XMLID_929_" class="st2" d="M188.9,14.2c-1.8,0-3.2,0.3-4,1c-0.9,0.7-1.3,1.6-1.3,2.9h-4.7c0-2.8,0.8-4.7,2.5-5.9
		c1.6-1.2,4.1-1.8,7.4-1.8c1.7,0,3.2,0.1,4.6,0.4c1.3,0.3,2.5,0.8,3.4,1.5c0.9,0.7,1.7,1.7,2.2,2.8c0.5,1.2,0.8,2.7,0.8,4.5v13.7
		h-4.8v-5h-0.2c-0.6,1.9-1.6,3.3-3,4.1c-1.4,0.9-3.2,1.3-5.3,1.3c-1.2,0-2.3-0.2-3.4-0.5c-1-0.3-1.9-0.8-2.7-1.4
		c-0.8-0.6-1.4-1.4-1.8-2.3c-0.4-0.9-0.7-1.9-0.7-3.1c0-2.2,0.8-3.8,2.3-5c1.5-1.2,3.7-1.8,6.4-1.8h8.3v-0.7c0-1.8-0.5-3.1-1.5-3.9
		C192.4,14.5,190.9,14.2,188.9,14.2z M194.8,22.9h-7.3c-1.7,0-3,0.3-3.7,1c-0.7,0.6-1.1,1.5-1.1,2.7c0,1.2,0.4,2.1,1.2,2.8
		c0.8,0.7,2,1.1,3.5,1.1c1.1,0,2.1-0.2,3-0.5c0.9-0.3,1.7-0.8,2.4-1.3c0.7-0.5,1.2-1.2,1.6-1.9c0.4-0.7,0.6-1.5,0.6-2.3V22.9z"/>
	<path id="XMLID_932_" class="st2" d="M205,33.3V10.8h5.1v5h0.2c0.5-1.9,1.3-3.3,2.2-4.1c0.9-0.9,2.1-1.3,3.6-1.3
		c0.8,0,1.6,0.2,2.6,0.5v5c-0.6-0.1-1.1-0.3-1.7-0.4c-0.6-0.1-1.1-0.2-1.7-0.2c-1,0-1.8,0.2-2.4,0.6c-0.7,0.4-1.2,0.9-1.6,1.5
		c-0.4,0.6-0.7,1.3-0.9,2.1c-0.2,0.8-0.3,1.6-0.3,2.5v11.4H205z"/>
	<path id="XMLID_934_" class="st2" d="M227.6,33.3h-5.1V1.8h5.1v17.7l9.5-8.6h6.4l-9.6,8.9l10,13.6h-6.2L230,22.7l-2.4,2.3V33.3z"/>
</g>
<g id="XMLID_882_">
	<path id="XMLID_883_" class="st2" d="M32.4,33.3h-6l-2.3-6.2H9.8l-2.2,6.2H2L13.5,1.8H20L32.4,33.3z M11.2,23h11.4L17,7.6h-0.4
		L11.2,23z"/>
	<path id="XMLID_886_" class="st2" d="M45.2,30.7c0.9,0,1.8-0.2,2.6-0.5s1.6-0.7,2.2-1.3c0.6-0.5,1.1-1.2,1.5-2
		c0.4-0.8,0.5-1.6,0.5-2.6V10.8h5v22.5h-5v-5h-0.4c-0.5,1.7-1.5,3.1-2.8,4c-1.4,0.9-3.1,1.4-5.2,1.4c-1.2,0-2.3-0.2-3.4-0.5
		c-1.1-0.3-2-0.8-2.8-1.6c-0.8-0.7-1.5-1.7-1.9-2.9c-0.5-1.2-0.7-2.7-0.7-4.5V10.8h5v13.5c0,2.3,0.5,3.9,1.4,4.9
		C42.1,30.2,43.5,30.7,45.2,30.7z"/>
	<path id="XMLID_888_" class="st2" d="M85.5,33.3h-5v-5.4h-0.2c-0.6,1.9-1.7,3.3-3.3,4.3c-1.6,1-3.5,1.5-5.6,1.5
		c-1.2,0-2.4-0.2-3.6-0.5c-1.2-0.3-2.3-0.9-3.2-1.8c-1-0.9-1.7-2.1-2.3-3.6c-0.6-1.5-0.9-3.5-0.9-5.8c0-2.4,0.3-4.3,0.9-5.8
		c0.6-1.5,1.4-2.7,2.3-3.6c1-0.9,2-1.5,3.2-1.8c1.2-0.3,2.4-0.5,3.6-0.5c2.1,0,4,0.5,5.6,1.5c1.6,1,2.7,2.5,3.3,4.3h0.2V1.8h5V33.3z
		 M73.4,30.1c1.1,0,2.1-0.2,2.9-0.5c0.9-0.4,1.6-0.8,2.3-1.4c0.6-0.6,1.1-1.2,1.4-2c0.3-0.7,0.5-1.5,0.5-2.3V20
		c0-0.7-0.2-1.5-0.5-2.2c-0.3-0.7-0.8-1.3-1.4-1.9c-0.6-0.6-1.4-1-2.3-1.3c-0.9-0.3-1.9-0.5-2.9-0.5c-1,0-1.9,0.1-2.7,0.4
		c-0.8,0.2-1.6,0.7-2.2,1.3c-0.6,0.6-1.1,1.4-1.5,2.4c-0.4,1-0.5,2.3-0.5,3.9c0,1.6,0.2,2.9,0.5,3.9c0.4,1,0.9,1.8,1.5,2.4
		c0.6,0.6,1.4,1,2.2,1.3C71.6,29.9,72.5,30.1,73.4,30.1z"/>
	<path id="XMLID_891_" class="st2" d="M96.7,6.5h-5.6V1.8h5.6V6.5z M96.4,10.8v22.5h-5.1V10.8H96.4z"/>
	<path id="XMLID_894_" class="st2" d="M101.2,22.1c0-1.9,0.3-3.5,0.9-5c0.6-1.5,1.4-2.7,2.5-3.7c1-1,2.3-1.7,3.7-2.3
		c1.4-0.5,2.9-0.8,4.4-0.8c1.6,0,3,0.2,4.4,0.7c1.4,0.5,2.6,1.2,3.7,2.2c1.1,1,1.9,2.2,2.5,3.6c0.6,1.5,0.9,3.2,0.9,5.1
		c0,1.9-0.3,3.5-0.9,5c-0.6,1.5-1.5,2.7-2.5,3.7c-1.1,1-2.3,1.7-3.7,2.3c-1.4,0.5-2.9,0.8-4.4,0.8c-1.6,0-3-0.3-4.4-0.8
		c-1.4-0.5-2.6-1.3-3.7-2.3c-1-1-1.9-2.2-2.5-3.7C101.5,25.7,101.2,24,101.2,22.1z M105.7,22.1c0,1.3,0.2,2.4,0.6,3.3
		c0.4,0.9,0.9,1.7,1.5,2.4c0.6,0.6,1.4,1.1,2.3,1.4c0.9,0.3,1.7,0.5,2.7,0.5c1,0,1.9-0.2,2.7-0.5c0.9-0.3,1.6-0.8,2.2-1.4
		c0.6-0.6,1.1-1.4,1.5-2.4c0.4-0.9,0.5-2,0.5-3.3c0-1.3-0.2-2.4-0.5-3.3c-0.4-0.9-0.9-1.7-1.5-2.4c-0.6-0.6-1.4-1.1-2.2-1.4
		c-0.9-0.3-1.8-0.5-2.7-0.5c-0.9,0-1.8,0.2-2.7,0.5c-0.9,0.3-1.6,0.8-2.3,1.4c-0.6,0.6-1.2,1.4-1.5,2.4
		C105.9,19.8,105.7,20.9,105.7,22.1z"/>
	<path id="XMLID_897_" class="st2" d="M141.8,17.7c0-1.5-0.5-2.6-1.5-3.3c-1-0.7-2.3-1-3.8-1c-1.3,0-2.3,0.3-3.1,0.8
		c-0.8,0.5-1.3,1.3-1.3,2.3c0,0.6,0.1,1,0.4,1.4c0.3,0.4,0.7,0.7,1.2,0.9c0.5,0.3,1.1,0.5,1.8,0.7s1.4,0.4,2.1,0.6
		c1.2,0.4,2.3,0.7,3.3,1c1,0.3,1.9,0.7,2.7,1.2c0.8,0.5,1.4,1.1,1.8,1.8c0.4,0.8,0.7,1.7,0.7,2.9c0,1.2-0.2,2.3-0.7,3.1
		c-0.5,0.8-1.2,1.5-2,2c-0.9,0.5-1.9,0.9-3.1,1.1c-1.2,0.2-2.5,0.3-3.9,0.3c-1.4,0-2.6-0.2-3.8-0.5c-1.1-0.3-2.1-0.8-2.9-1.5
		c-0.8-0.7-1.4-1.5-1.9-2.6s-0.7-2.3-0.7-3.7h4.1c0,1.6,0.5,2.8,1.4,3.6c0.9,0.8,2.2,1.1,3.8,1.1c1.6,0,2.8-0.2,3.6-0.7
		c0.8-0.5,1.3-1.3,1.3-2.4c0-0.6-0.2-1.1-0.5-1.5c-0.3-0.4-0.8-0.8-1.5-1s-1.4-0.5-2.2-0.8c-0.8-0.2-1.7-0.5-2.7-0.7
		c-1-0.3-1.9-0.6-2.7-0.9c-0.9-0.3-1.6-0.7-2.3-1.1c-0.6-0.5-1.2-1-1.5-1.7c-0.4-0.7-0.6-1.5-0.6-2.6c0-2.3,0.8-3.9,2.3-5
		c1.6-1.1,3.7-1.6,6.4-1.6c3.3,0,5.7,0.7,7.2,2c1.4,1.4,2.2,3.2,2.2,5.5H141.8z"/>
	<path id="XMLID_899_" class="st2" d="M150.5,10.8h5.1v5.4h0.2c0.6-1.9,1.7-3.3,3.3-4.3c1.6-1,3.5-1.5,5.6-1.5
		c1.2,0,2.4,0.2,3.6,0.5c1.2,0.3,2.3,0.9,3.2,1.8s1.7,2.1,2.3,3.6c0.6,1.5,0.9,3.5,0.9,5.8c0,2.4-0.3,4.3-0.9,5.8
		c-0.6,1.5-1.4,2.7-2.3,3.6s-2,1.5-3.2,1.8c-1.2,0.3-2.4,0.5-3.6,0.5c-2.1,0-4-0.5-5.6-1.5c-1.6-1-2.7-2.5-3.3-4.3h-0.2v14.4h-5.1
		V10.8z M155.6,24.2c0,0.8,0.2,1.5,0.5,2.2s0.8,1.3,1.4,1.9c0.6,0.6,1.3,1,2.2,1.3c0.9,0.3,1.8,0.5,2.9,0.5c1,0,1.9-0.1,2.7-0.4
		c0.8-0.2,1.6-0.7,2.2-1.3c0.6-0.6,1.1-1.4,1.5-2.4c0.4-1,0.5-2.3,0.5-3.9c0-1.6-0.2-2.9-0.5-3.9c-0.4-1-0.9-1.8-1.5-2.4
		c-0.6-0.6-1.4-1-2.2-1.3c-0.8-0.2-1.7-0.4-2.7-0.4c-1.1,0-2.1,0.2-2.9,0.5c-0.9,0.4-1.6,0.8-2.2,1.4c-0.6,0.6-1.1,1.2-1.4,2
		c-0.3,0.7-0.5,1.5-0.5,2.3V24.2z"/>
	<path id="XMLID_902_" class="st2" d="M188.9,14.2c-1.8,0-3.2,0.3-4,1c-0.9,0.7-1.3,1.6-1.3,2.9h-4.7c0-2.8,0.8-4.7,2.5-5.9
		c1.6-1.2,4.1-1.8,7.4-1.8c1.7,0,3.2,0.1,4.6,0.4c1.3,0.3,2.5,0.8,3.4,1.5c0.9,0.7,1.7,1.7,2.2,2.8c0.5,1.2,0.8,2.7,0.8,4.5v13.7
		h-4.8v-5h-0.2c-0.6,1.9-1.6,3.3-3,4.1c-1.4,0.9-3.2,1.3-5.3,1.3c-1.2,0-2.3-0.2-3.4-0.5c-1-0.3-1.9-0.8-2.7-1.4
		c-0.8-0.6-1.4-1.4-1.8-2.3c-0.4-0.9-0.7-1.9-0.7-3.1c0-2.2,0.8-3.8,2.3-5c1.5-1.2,3.7-1.8,6.4-1.8h8.3v-0.7c0-1.8-0.5-3.1-1.5-3.9
		C192.4,14.5,190.9,14.2,188.9,14.2z M194.8,22.9h-7.3c-1.7,0-3,0.3-3.7,1c-0.7,0.6-1.1,1.5-1.1,2.7c0,1.2,0.4,2.1,1.2,2.8
		c0.8,0.7,2,1.1,3.5,1.1c1.1,0,2.1-0.2,3-0.5c0.9-0.3,1.7-0.8,2.4-1.3c0.7-0.5,1.2-1.2,1.6-1.9c0.4-0.7,0.6-1.5,0.6-2.3V22.9z"/>
	<path id="XMLID_905_" class="st2" d="M205,33.3V10.8h5.1v5h0.2c0.5-1.9,1.3-3.3,2.2-4.1c0.9-0.9,2.1-1.3,3.6-1.3
		c0.8,0,1.6,0.2,2.6,0.5v5c-0.6-0.1-1.1-0.3-1.7-0.4c-0.6-0.1-1.1-0.2-1.7-0.2c-1,0-1.8,0.2-2.4,0.6c-0.7,0.4-1.2,0.9-1.6,1.5
		c-0.4,0.6-0.7,1.3-0.9,2.1c-0.2,0.8-0.3,1.6-0.3,2.5v11.4H205z"/>
	<path id="XMLID_907_" class="st2" d="M227.6,33.3h-5.1V1.8h5.1v17.7l9.5-8.6h6.4l-9.6,8.9l10,13.6h-6.2L230,22.7l-2.4,2.3V33.3z"/>
</g>
<g id="XMLID_60_">
	<path id="XMLID_777_" class="st2" d="M32.4,33.3h-6l-2.3-6.2H9.8l-2.2,6.2H2L13.5,1.8H20L32.4,33.3z M11.2,23h11.4L17,7.6h-0.4
		L11.2,23z"/>
	<path id="XMLID_780_" class="st2" d="M45.2,30.7c0.9,0,1.8-0.2,2.6-0.5s1.6-0.7,2.2-1.3c0.6-0.5,1.1-1.2,1.5-2
		c0.4-0.8,0.5-1.6,0.5-2.6V10.8h5v22.5h-5v-5h-0.4c-0.5,1.7-1.5,3.1-2.8,4c-1.4,0.9-3.1,1.4-5.2,1.4c-1.2,0-2.3-0.2-3.4-0.5
		c-1.1-0.3-2-0.8-2.8-1.6c-0.8-0.7-1.5-1.7-1.9-2.9c-0.5-1.2-0.7-2.7-0.7-4.5V10.8h5v13.5c0,2.3,0.5,3.9,1.4,4.9
		C42.1,30.2,43.5,30.7,45.2,30.7z"/>
	<path id="XMLID_782_" class="st2" d="M85.5,33.3h-5v-5.4h-0.2c-0.6,1.9-1.7,3.3-3.3,4.3c-1.6,1-3.5,1.5-5.6,1.5
		c-1.2,0-2.4-0.2-3.6-0.5c-1.2-0.3-2.3-0.9-3.2-1.8c-1-0.9-1.7-2.1-2.3-3.6c-0.6-1.5-0.9-3.5-0.9-5.8c0-2.4,0.3-4.3,0.9-5.8
		c0.6-1.5,1.4-2.7,2.3-3.6c1-0.9,2-1.5,3.2-1.8c1.2-0.3,2.4-0.5,3.6-0.5c2.1,0,4,0.5,5.6,1.5c1.6,1,2.7,2.5,3.3,4.3h0.2V1.8h5V33.3z
		 M73.4,30.1c1.1,0,2.1-0.2,2.9-0.5c0.9-0.4,1.6-0.8,2.3-1.4c0.6-0.6,1.1-1.2,1.4-2c0.3-0.7,0.5-1.5,0.5-2.3V20
		c0-0.7-0.2-1.5-0.5-2.2c-0.3-0.7-0.8-1.3-1.4-1.9c-0.6-0.6-1.4-1-2.3-1.3c-0.9-0.3-1.9-0.5-2.9-0.5c-1,0-1.9,0.1-2.7,0.4
		c-0.8,0.2-1.6,0.7-2.2,1.3c-0.6,0.6-1.1,1.4-1.5,2.4c-0.4,1-0.5,2.3-0.5,3.9c0,1.6,0.2,2.9,0.5,3.9c0.4,1,0.9,1.8,1.5,2.4
		c0.6,0.6,1.4,1,2.2,1.3C71.6,29.9,72.5,30.1,73.4,30.1z"/>
	<path id="XMLID_785_" class="st2" d="M96.7,6.5h-5.6V1.8h5.6V6.5z M96.4,10.8v22.5h-5.1V10.8H96.4z"/>
	<path id="XMLID_788_" class="st2" d="M101.2,22.1c0-1.9,0.3-3.5,0.9-5c0.6-1.5,1.4-2.7,2.5-3.7c1-1,2.3-1.7,3.7-2.3
		c1.4-0.5,2.9-0.8,4.4-0.8c1.6,0,3,0.2,4.4,0.7c1.4,0.5,2.6,1.2,3.7,2.2c1.1,1,1.9,2.2,2.5,3.6c0.6,1.5,0.9,3.2,0.9,5.1
		c0,1.9-0.3,3.5-0.9,5c-0.6,1.5-1.5,2.7-2.5,3.7c-1.1,1-2.3,1.7-3.7,2.3c-1.4,0.5-2.9,0.8-4.4,0.8c-1.6,0-3-0.3-4.4-0.8
		c-1.4-0.5-2.6-1.3-3.7-2.3c-1-1-1.9-2.2-2.5-3.7C101.5,25.7,101.2,24,101.2,22.1z M105.7,22.1c0,1.3,0.2,2.4,0.6,3.3
		c0.4,0.9,0.9,1.7,1.5,2.4c0.6,0.6,1.4,1.1,2.3,1.4c0.9,0.3,1.7,0.5,2.7,0.5c1,0,1.9-0.2,2.7-0.5c0.9-0.3,1.6-0.8,2.2-1.4
		c0.6-0.6,1.1-1.4,1.5-2.4c0.4-0.9,0.5-2,0.5-3.3c0-1.3-0.2-2.4-0.5-3.3c-0.4-0.9-0.9-1.7-1.5-2.4c-0.6-0.6-1.4-1.1-2.2-1.4
		c-0.9-0.3-1.8-0.5-2.7-0.5c-0.9,0-1.8,0.2-2.7,0.5c-0.9,0.3-1.6,0.8-2.3,1.4c-0.6,0.6-1.2,1.4-1.5,2.4
		C105.9,19.8,105.7,20.9,105.7,22.1z"/>
	<path id="XMLID_791_" class="st2" d="M141.8,17.7c0-1.5-0.5-2.6-1.5-3.3c-1-0.7-2.3-1-3.8-1c-1.3,0-2.3,0.3-3.1,0.8
		c-0.8,0.5-1.3,1.3-1.3,2.3c0,0.6,0.1,1,0.4,1.4c0.3,0.4,0.7,0.7,1.2,0.9c0.5,0.3,1.1,0.5,1.8,0.7s1.4,0.4,2.1,0.6
		c1.2,0.4,2.3,0.7,3.3,1c1,0.3,1.9,0.7,2.7,1.2c0.8,0.5,1.4,1.1,1.8,1.8c0.4,0.8,0.7,1.7,0.7,2.9c0,1.2-0.2,2.3-0.7,3.1
		c-0.5,0.8-1.2,1.5-2,2c-0.9,0.5-1.9,0.9-3.1,1.1c-1.2,0.2-2.5,0.3-3.9,0.3c-1.4,0-2.6-0.2-3.8-0.5c-1.1-0.3-2.1-0.8-2.9-1.5
		c-0.8-0.7-1.4-1.5-1.9-2.6s-0.7-2.3-0.7-3.7h4.1c0,1.6,0.5,2.8,1.4,3.6c0.9,0.8,2.2,1.1,3.8,1.1c1.6,0,2.8-0.2,3.6-0.7
		c0.8-0.5,1.3-1.3,1.3-2.4c0-0.6-0.2-1.1-0.5-1.5c-0.3-0.4-0.8-0.8-1.5-1s-1.4-0.5-2.2-0.8c-0.8-0.2-1.7-0.5-2.7-0.7
		c-1-0.3-1.9-0.6-2.7-0.9c-0.9-0.3-1.6-0.7-2.3-1.1c-0.6-0.5-1.2-1-1.5-1.7c-0.4-0.7-0.6-1.5-0.6-2.6c0-2.3,0.8-3.9,2.3-5
		c1.6-1.1,3.7-1.6,6.4-1.6c3.3,0,5.7,0.7,7.2,2c1.4,1.4,2.2,3.2,2.2,5.5H141.8z"/>
	<path id="XMLID_793_" class="st2" d="M150.5,10.8h5.1v5.4h0.2c0.6-1.9,1.7-3.3,3.3-4.3c1.6-1,3.5-1.5,5.6-1.5
		c1.2,0,2.4,0.2,3.6,0.5c1.2,0.3,2.3,0.9,3.2,1.8s1.7,2.1,2.3,3.6c0.6,1.5,0.9,3.5,0.9,5.8c0,2.4-0.3,4.3-0.9,5.8
		c-0.6,1.5-1.4,2.7-2.3,3.6s-2,1.5-3.2,1.8c-1.2,0.3-2.4,0.5-3.6,0.5c-2.1,0-4-0.5-5.6-1.5c-1.6-1-2.7-2.5-3.3-4.3h-0.2v14.4h-5.1
		V10.8z M155.6,24.2c0,0.8,0.2,1.5,0.5,2.2s0.8,1.3,1.4,1.9c0.6,0.6,1.3,1,2.2,1.3c0.9,0.3,1.8,0.5,2.9,0.5c1,0,1.9-0.1,2.7-0.4
		c0.8-0.2,1.6-0.7,2.2-1.3c0.6-0.6,1.1-1.4,1.5-2.4c0.4-1,0.5-2.3,0.5-3.9c0-1.6-0.2-2.9-0.5-3.9c-0.4-1-0.9-1.8-1.5-2.4
		c-0.6-0.6-1.4-1-2.2-1.3c-0.8-0.2-1.7-0.4-2.7-0.4c-1.1,0-2.1,0.2-2.9,0.5c-0.9,0.4-1.6,0.8-2.2,1.4c-0.6,0.6-1.1,1.2-1.4,2
		c-0.3,0.7-0.5,1.5-0.5,2.3V24.2z"/>
	<path id="XMLID_796_" class="st2" d="M188.9,14.2c-1.8,0-3.2,0.3-4,1c-0.9,0.7-1.3,1.6-1.3,2.9h-4.7c0-2.8,0.8-4.7,2.5-5.9
		c1.6-1.2,4.1-1.8,7.4-1.8c1.7,0,3.2,0.1,4.6,0.4c1.3,0.3,2.5,0.8,3.4,1.5c0.9,0.7,1.7,1.7,2.2,2.8c0.5,1.2,0.8,2.7,0.8,4.5v13.7
		h-4.8v-5h-0.2c-0.6,1.9-1.6,3.3-3,4.1c-1.4,0.9-3.2,1.3-5.3,1.3c-1.2,0-2.3-0.2-3.4-0.5c-1-0.3-1.9-0.8-2.7-1.4
		c-0.8-0.6-1.4-1.4-1.8-2.3c-0.4-0.9-0.7-1.9-0.7-3.1c0-2.2,0.8-3.8,2.3-5c1.5-1.2,3.7-1.8,6.4-1.8h8.3v-0.7c0-1.8-0.5-3.1-1.5-3.9
		C192.4,14.5,190.9,14.2,188.9,14.2z M194.8,22.9h-7.3c-1.7,0-3,0.3-3.7,1c-0.7,0.6-1.1,1.5-1.1,2.7c0,1.2,0.4,2.1,1.2,2.8
		c0.8,0.7,2,1.1,3.5,1.1c1.1,0,2.1-0.2,3-0.5c0.9-0.3,1.7-0.8,2.4-1.3c0.7-0.5,1.2-1.2,1.6-1.9c0.4-0.7,0.6-1.5,0.6-2.3V22.9z"/>
	<path id="XMLID_799_" class="st2" d="M205,33.3V10.8h5.1v5h0.2c0.5-1.9,1.3-3.3,2.2-4.1c0.9-0.9,2.1-1.3,3.6-1.3
		c0.8,0,1.6,0.2,2.6,0.5v5c-0.6-0.1-1.1-0.3-1.7-0.4c-0.6-0.1-1.1-0.2-1.7-0.2c-1,0-1.8,0.2-2.4,0.6c-0.7,0.4-1.2,0.9-1.6,1.5
		c-0.4,0.6-0.7,1.3-0.9,2.1c-0.2,0.8-0.3,1.6-0.3,2.5v11.4H205z"/>
	<path id="XMLID_801_" class="st2" d="M227.6,33.3h-5.1V1.8h5.1v17.7l9.5-8.6h6.4l-9.6,8.9l10,13.6h-6.2L230,22.7l-2.4,2.3V33.3z"/>
</g>
<g id="XMLID_936_" class="st3">
	<path id="XMLID_937_" class="st4" d="M-967.4,32.3h-6l-2.3-6.2H-990l-2.2,6.2h-5.6l11.5-31.5h6.5L-967.4,32.3z M-988.6,22h11.4
		l-5.6-15.4h-0.4L-988.6,22z"/>
	<path id="XMLID_940_" class="st4" d="M-954.6,29.7c0.9,0,1.8-0.2,2.6-0.5s1.6-0.7,2.2-1.3c0.6-0.5,1.1-1.2,1.5-2
		c0.4-0.8,0.5-1.6,0.5-2.6V9.8h5v22.5h-5v-5h-0.4c-0.5,1.7-1.5,3.1-2.8,4c-1.4,0.9-3.1,1.4-5.2,1.4c-1.2,0-2.3-0.2-3.4-0.5
		c-1.1-0.3-2-0.8-2.8-1.6c-0.8-0.7-1.5-1.7-1.9-2.9c-0.5-1.2-0.7-2.7-0.7-4.5V9.8h5v13.5c0,2.3,0.5,3.9,1.4,4.9
		C-957.7,29.2-956.3,29.7-954.6,29.7z"/>
	<path id="XMLID_942_" class="st4" d="M-914.3,32.3h-5v-5.4h-0.2c-0.6,1.9-1.7,3.3-3.3,4.3c-1.6,1-3.5,1.5-5.6,1.5
		c-1.2,0-2.4-0.2-3.6-0.5c-1.2-0.3-2.3-0.9-3.2-1.8c-1-0.9-1.7-2.1-2.3-3.6c-0.6-1.5-0.9-3.5-0.9-5.8c0-2.4,0.3-4.3,0.9-5.8
		c0.6-1.5,1.4-2.7,2.3-3.6c1-0.9,2-1.5,3.2-1.8c1.2-0.3,2.4-0.5,3.6-0.5c2.1,0,4,0.5,5.6,1.5c1.6,1,2.7,2.5,3.3,4.3h0.2V0.8h5V32.3z
		 M-926.4,29.1c1.1,0,2.1-0.2,2.9-0.5c0.9-0.4,1.6-0.8,2.3-1.4c0.6-0.6,1.1-1.2,1.4-2c0.3-0.7,0.5-1.5,0.5-2.3V19
		c0-0.7-0.2-1.5-0.5-2.2c-0.3-0.7-0.8-1.3-1.4-1.9c-0.6-0.6-1.4-1-2.3-1.3c-0.9-0.3-1.9-0.5-2.9-0.5c-1,0-1.9,0.1-2.7,0.4
		c-0.8,0.2-1.6,0.7-2.2,1.3c-0.6,0.6-1.1,1.4-1.5,2.4c-0.4,1-0.5,2.3-0.5,3.9c0,1.6,0.2,2.9,0.5,3.9c0.4,1,0.9,1.8,1.5,2.4
		c0.6,0.6,1.4,1,2.2,1.3C-928.2,28.9-927.3,29.1-926.4,29.1z"/>
	<path id="XMLID_945_" class="st4" d="M-903.1,5.5h-5.6V0.8h5.6V5.5z M-903.4,9.8v22.5h-5.1V9.8H-903.4z"/>
	<path id="XMLID_948_" class="st4" d="M-898.6,21.1c0-1.9,0.3-3.5,0.9-5c0.6-1.5,1.4-2.7,2.5-3.7c1-1,2.3-1.7,3.7-2.3
		c1.4-0.5,2.9-0.8,4.4-0.8c1.6,0,3,0.2,4.4,0.7c1.4,0.5,2.6,1.2,3.7,2.2c1.1,1,1.9,2.2,2.5,3.6c0.6,1.5,0.9,3.2,0.9,5.1
		c0,1.9-0.3,3.5-0.9,5c-0.6,1.5-1.5,2.7-2.5,3.7c-1.1,1-2.3,1.7-3.7,2.3c-1.4,0.5-2.9,0.8-4.4,0.8c-1.6,0-3-0.3-4.4-0.8
		c-1.4-0.5-2.6-1.3-3.7-2.3c-1-1-1.9-2.2-2.5-3.7C-898.3,24.7-898.6,23-898.6,21.1z M-894.1,21.1c0,1.3,0.2,2.4,0.6,3.3
		c0.4,0.9,0.9,1.7,1.5,2.4c0.6,0.6,1.4,1.1,2.3,1.4c0.9,0.3,1.7,0.5,2.7,0.5c1,0,1.9-0.2,2.7-0.5c0.9-0.3,1.6-0.8,2.2-1.4
		c0.6-0.6,1.1-1.4,1.5-2.4c0.4-0.9,0.5-2,0.5-3.3c0-1.3-0.2-2.4-0.5-3.3c-0.4-0.9-0.9-1.7-1.5-2.4c-0.6-0.6-1.4-1.1-2.2-1.4
		c-0.9-0.3-1.8-0.5-2.7-0.5c-0.9,0-1.8,0.2-2.7,0.5c-0.9,0.3-1.6,0.8-2.3,1.4c-0.6,0.6-1.2,1.4-1.5,2.4
		C-893.9,18.8-894.1,19.9-894.1,21.1z"/>
	<path id="XMLID_951_" class="st4" d="M-858,16.7c0-1.5-0.5-2.6-1.5-3.3c-1-0.7-2.3-1-3.8-1c-1.3,0-2.3,0.3-3.1,0.8
		c-0.8,0.5-1.3,1.3-1.3,2.3c0,0.6,0.1,1,0.4,1.4c0.3,0.4,0.7,0.7,1.2,0.9c0.5,0.3,1.1,0.5,1.8,0.7s1.4,0.4,2.1,0.6
		c1.2,0.4,2.3,0.7,3.3,1c1,0.3,1.9,0.7,2.7,1.2c0.8,0.5,1.4,1.1,1.8,1.8c0.4,0.8,0.7,1.7,0.7,2.9c0,1.2-0.2,2.3-0.7,3.1
		c-0.5,0.8-1.2,1.5-2,2c-0.9,0.5-1.9,0.9-3.1,1.1c-1.2,0.2-2.5,0.3-3.9,0.3c-1.4,0-2.6-0.2-3.8-0.5c-1.1-0.3-2.1-0.8-2.9-1.5
		c-0.8-0.7-1.4-1.5-1.9-2.6s-0.7-2.3-0.7-3.7h4.1c0,1.6,0.5,2.8,1.4,3.6c0.9,0.8,2.2,1.1,3.8,1.1c1.6,0,2.8-0.2,3.6-0.7
		c0.8-0.5,1.3-1.3,1.3-2.4c0-0.6-0.2-1.1-0.5-1.5c-0.3-0.4-0.8-0.8-1.5-1s-1.4-0.5-2.2-0.8c-0.8-0.2-1.7-0.5-2.7-0.7
		c-1-0.3-1.9-0.6-2.7-0.9c-0.9-0.3-1.6-0.7-2.3-1.1c-0.6-0.5-1.2-1-1.5-1.7c-0.4-0.7-0.6-1.5-0.6-2.6c0-2.3,0.8-3.9,2.3-5
		c1.6-1.1,3.7-1.6,6.4-1.6c3.3,0,5.7,0.7,7.2,2c1.4,1.4,2.2,3.2,2.2,5.5H-858z"/>
	<path id="XMLID_953_" class="st4" d="M-849.3,9.8h5.1v5.4h0.2c0.6-1.9,1.7-3.3,3.3-4.3c1.6-1,3.5-1.5,5.6-1.5
		c1.2,0,2.4,0.2,3.6,0.5c1.2,0.3,2.3,0.9,3.2,1.8s1.7,2.1,2.3,3.6c0.6,1.5,0.9,3.5,0.9,5.8c0,2.4-0.3,4.3-0.9,5.8
		c-0.6,1.5-1.4,2.7-2.3,3.6s-2,1.5-3.2,1.8c-1.2,0.3-2.4,0.5-3.6,0.5c-2.1,0-4-0.5-5.6-1.5c-1.6-1-2.7-2.5-3.3-4.3h-0.2v14.4h-5.1
		V9.8z M-844.2,23.2c0,0.8,0.2,1.5,0.5,2.2s0.8,1.3,1.4,1.9c0.6,0.6,1.3,1,2.2,1.3c0.9,0.3,1.8,0.5,2.9,0.5c1,0,1.9-0.1,2.7-0.4
		c0.8-0.2,1.6-0.7,2.2-1.3c0.6-0.6,1.1-1.4,1.5-2.4c0.4-1,0.5-2.3,0.5-3.9c0-1.6-0.2-2.9-0.5-3.9c-0.4-1-0.9-1.8-1.5-2.4
		c-0.6-0.6-1.4-1-2.2-1.3c-0.8-0.2-1.7-0.4-2.7-0.4c-1.1,0-2.1,0.2-2.9,0.5c-0.9,0.4-1.6,0.8-2.2,1.4c-0.6,0.6-1.1,1.2-1.4,2
		c-0.3,0.7-0.5,1.5-0.5,2.3V23.2z"/>
	<path id="XMLID_956_" class="st4" d="M-810.9,13.2c-1.8,0-3.2,0.3-4,1c-0.9,0.7-1.3,1.6-1.3,2.9h-4.7c0-2.8,0.8-4.7,2.5-5.9
		c1.6-1.2,4.1-1.8,7.4-1.8c1.7,0,3.2,0.1,4.6,0.4c1.3,0.3,2.5,0.8,3.4,1.5c0.9,0.7,1.7,1.7,2.2,2.8c0.5,1.2,0.8,2.7,0.8,4.5v13.7
		h-4.8v-5h-0.2c-0.6,1.9-1.6,3.3-3,4.1c-1.4,0.9-3.2,1.3-5.3,1.3c-1.2,0-2.3-0.2-3.4-0.5c-1-0.3-1.9-0.8-2.7-1.4
		c-0.8-0.6-1.4-1.4-1.8-2.3c-0.4-0.9-0.7-1.9-0.7-3.1c0-2.2,0.8-3.8,2.3-5c1.5-1.2,3.7-1.8,6.4-1.8h8.3v-0.7c0-1.8-0.5-3.1-1.5-3.9
		C-807.4,13.5-808.9,13.2-810.9,13.2z M-804.9,21.9h-7.3c-1.7,0-3,0.3-3.7,1c-0.7,0.6-1.1,1.5-1.1,2.7c0,1.2,0.4,2.1,1.2,2.8
		c0.8,0.7,2,1.1,3.5,1.1c1.1,0,2.1-0.2,3-0.5c0.9-0.3,1.7-0.8,2.4-1.3c0.7-0.5,1.2-1.2,1.6-1.9c0.4-0.7,0.6-1.5,0.6-2.3V21.9z"/>
	<path id="XMLID_959_" class="st4" d="M-794.8,32.3V9.8h5.1v5h0.2c0.5-1.9,1.3-3.3,2.2-4.1c0.9-0.9,2.1-1.3,3.6-1.3
		c0.8,0,1.6,0.2,2.6,0.5v5c-0.6-0.1-1.1-0.3-1.7-0.4c-0.6-0.1-1.1-0.2-1.7-0.2c-1,0-1.8,0.2-2.4,0.6c-0.7,0.4-1.2,0.9-1.6,1.5
		c-0.4,0.6-0.7,1.3-0.9,2.1c-0.2,0.8-0.3,1.6-0.3,2.5v11.4H-794.8z"/>
	<path id="XMLID_961_" class="st4" d="M-772.2,32.3h-5.1V0.8h5.1v17.7l9.5-8.6h6.4l-9.6,8.9l10,13.6h-6.2l-7.7-10.7l-2.4,2.3V32.3z"
		/>
</g>
<g id="XMLID_320_" class="st3">
	<path id="XMLID_803_" class="st4" d="M-967.4,32.3h-6l-2.3-6.2H-990l-2.2,6.2h-5.6l11.5-31.5h6.5L-967.4,32.3z M-988.6,22h11.4
		l-5.6-15.4h-0.4L-988.6,22z"/>
	<path id="XMLID_806_" class="st4" d="M-954.6,29.7c0.9,0,1.8-0.2,2.6-0.5s1.6-0.7,2.2-1.3c0.6-0.5,1.1-1.2,1.5-2
		c0.4-0.8,0.5-1.6,0.5-2.6V9.8h5v22.5h-5v-5h-0.4c-0.5,1.7-1.5,3.1-2.8,4c-1.4,0.9-3.1,1.4-5.2,1.4c-1.2,0-2.3-0.2-3.4-0.5
		c-1.1-0.3-2-0.8-2.8-1.6c-0.8-0.7-1.5-1.7-1.9-2.9c-0.5-1.2-0.7-2.7-0.7-4.5V9.8h5v13.5c0,2.3,0.5,3.9,1.4,4.9
		C-957.7,29.2-956.3,29.7-954.6,29.7z"/>
	<path id="XMLID_808_" class="st4" d="M-914.3,32.3h-5v-5.4h-0.2c-0.6,1.9-1.7,3.3-3.3,4.3c-1.6,1-3.5,1.5-5.6,1.5
		c-1.2,0-2.4-0.2-3.6-0.5c-1.2-0.3-2.3-0.9-3.2-1.8c-1-0.9-1.7-2.1-2.3-3.6c-0.6-1.5-0.9-3.5-0.9-5.8c0-2.4,0.3-4.3,0.9-5.8
		c0.6-1.5,1.4-2.7,2.3-3.6c1-0.9,2-1.5,3.2-1.8c1.2-0.3,2.4-0.5,3.6-0.5c2.1,0,4,0.5,5.6,1.5c1.6,1,2.7,2.5,3.3,4.3h0.2V0.8h5V32.3z
		 M-926.4,29.1c1.1,0,2.1-0.2,2.9-0.5c0.9-0.4,1.6-0.8,2.3-1.4c0.6-0.6,1.1-1.2,1.4-2c0.3-0.7,0.5-1.5,0.5-2.3V19
		c0-0.7-0.2-1.5-0.5-2.2c-0.3-0.7-0.8-1.3-1.4-1.9c-0.6-0.6-1.4-1-2.3-1.3c-0.9-0.3-1.9-0.5-2.9-0.5c-1,0-1.9,0.1-2.7,0.4
		c-0.8,0.2-1.6,0.7-2.2,1.3c-0.6,0.6-1.1,1.4-1.5,2.4c-0.4,1-0.5,2.3-0.5,3.9c0,1.6,0.2,2.9,0.5,3.9c0.4,1,0.9,1.8,1.5,2.4
		c0.6,0.6,1.4,1,2.2,1.3C-928.2,28.9-927.3,29.1-926.4,29.1z"/>
	<path id="XMLID_811_" class="st4" d="M-903.1,5.5h-5.6V0.8h5.6V5.5z M-903.4,9.8v22.5h-5.1V9.8H-903.4z"/>
	<path id="XMLID_814_" class="st4" d="M-898.6,21.1c0-1.9,0.3-3.5,0.9-5c0.6-1.5,1.4-2.7,2.5-3.7c1-1,2.3-1.7,3.7-2.3
		c1.4-0.5,2.9-0.8,4.4-0.8c1.6,0,3,0.2,4.4,0.7c1.4,0.5,2.6,1.2,3.7,2.2c1.1,1,1.9,2.2,2.5,3.6c0.6,1.5,0.9,3.2,0.9,5.1
		c0,1.9-0.3,3.5-0.9,5c-0.6,1.5-1.5,2.7-2.5,3.7c-1.1,1-2.3,1.7-3.7,2.3c-1.4,0.5-2.9,0.8-4.4,0.8c-1.6,0-3-0.3-4.4-0.8
		c-1.4-0.5-2.6-1.3-3.7-2.3c-1-1-1.9-2.2-2.5-3.7C-898.3,24.7-898.6,23-898.6,21.1z M-894.1,21.1c0,1.3,0.2,2.4,0.6,3.3
		c0.4,0.9,0.9,1.7,1.5,2.4c0.6,0.6,1.4,1.1,2.3,1.4c0.9,0.3,1.7,0.5,2.7,0.5c1,0,1.9-0.2,2.7-0.5c0.9-0.3,1.6-0.8,2.2-1.4
		c0.6-0.6,1.1-1.4,1.5-2.4c0.4-0.9,0.5-2,0.5-3.3c0-1.3-0.2-2.4-0.5-3.3c-0.4-0.9-0.9-1.7-1.5-2.4c-0.6-0.6-1.4-1.1-2.2-1.4
		c-0.9-0.3-1.8-0.5-2.7-0.5c-0.9,0-1.8,0.2-2.7,0.5c-0.9,0.3-1.6,0.8-2.3,1.4c-0.6,0.6-1.2,1.4-1.5,2.4
		C-893.9,18.8-894.1,19.9-894.1,21.1z"/>
	<path id="XMLID_817_" class="st4" d="M-858,16.7c0-1.5-0.5-2.6-1.5-3.3c-1-0.7-2.3-1-3.8-1c-1.3,0-2.3,0.3-3.1,0.8
		c-0.8,0.5-1.3,1.3-1.3,2.3c0,0.6,0.1,1,0.4,1.4c0.3,0.4,0.7,0.7,1.2,0.9c0.5,0.3,1.1,0.5,1.8,0.7s1.4,0.4,2.1,0.6
		c1.2,0.4,2.3,0.7,3.3,1c1,0.3,1.9,0.7,2.7,1.2c0.8,0.5,1.4,1.1,1.8,1.8c0.4,0.8,0.7,1.7,0.7,2.9c0,1.2-0.2,2.3-0.7,3.1
		c-0.5,0.8-1.2,1.5-2,2c-0.9,0.5-1.9,0.9-3.1,1.1c-1.2,0.2-2.5,0.3-3.9,0.3c-1.4,0-2.6-0.2-3.8-0.5c-1.1-0.3-2.1-0.8-2.9-1.5
		c-0.8-0.7-1.4-1.5-1.9-2.6s-0.7-2.3-0.7-3.7h4.1c0,1.6,0.5,2.8,1.4,3.6c0.9,0.8,2.2,1.1,3.8,1.1c1.6,0,2.8-0.2,3.6-0.7
		c0.8-0.5,1.3-1.3,1.3-2.4c0-0.6-0.2-1.1-0.5-1.5c-0.3-0.4-0.8-0.8-1.5-1s-1.4-0.5-2.2-0.8c-0.8-0.2-1.7-0.5-2.7-0.7
		c-1-0.3-1.9-0.6-2.7-0.9c-0.9-0.3-1.6-0.7-2.3-1.1c-0.6-0.5-1.2-1-1.5-1.7c-0.4-0.7-0.6-1.5-0.6-2.6c0-2.3,0.8-3.9,2.3-5
		c1.6-1.1,3.7-1.6,6.4-1.6c3.3,0,5.7,0.7,7.2,2c1.4,1.4,2.2,3.2,2.2,5.5H-858z"/>
	<path id="XMLID_819_" class="st4" d="M-849.3,9.8h5.1v5.4h0.2c0.6-1.9,1.7-3.3,3.3-4.3c1.6-1,3.5-1.5,5.6-1.5
		c1.2,0,2.4,0.2,3.6,0.5c1.2,0.3,2.3,0.9,3.2,1.8s1.7,2.1,2.3,3.6c0.6,1.5,0.9,3.5,0.9,5.8c0,2.4-0.3,4.3-0.9,5.8
		c-0.6,1.5-1.4,2.7-2.3,3.6s-2,1.5-3.2,1.8c-1.2,0.3-2.4,0.5-3.6,0.5c-2.1,0-4-0.5-5.6-1.5c-1.6-1-2.7-2.5-3.3-4.3h-0.2v14.4h-5.1
		V9.8z M-844.2,23.2c0,0.8,0.2,1.5,0.5,2.2s0.8,1.3,1.4,1.9c0.6,0.6,1.3,1,2.2,1.3c0.9,0.3,1.8,0.5,2.9,0.5c1,0,1.9-0.1,2.7-0.4
		c0.8-0.2,1.6-0.7,2.2-1.3c0.6-0.6,1.1-1.4,1.5-2.4c0.4-1,0.5-2.3,0.5-3.9c0-1.6-0.2-2.9-0.5-3.9c-0.4-1-0.9-1.8-1.5-2.4
		c-0.6-0.6-1.4-1-2.2-1.3c-0.8-0.2-1.7-0.4-2.7-0.4c-1.1,0-2.1,0.2-2.9,0.5c-0.9,0.4-1.6,0.8-2.2,1.4c-0.6,0.6-1.1,1.2-1.4,2
		c-0.3,0.7-0.5,1.5-0.5,2.3V23.2z"/>
	<path id="XMLID_822_" class="st4" d="M-810.9,13.2c-1.8,0-3.2,0.3-4,1c-0.9,0.7-1.3,1.6-1.3,2.9h-4.7c0-2.8,0.8-4.7,2.5-5.9
		c1.6-1.2,4.1-1.8,7.4-1.8c1.7,0,3.2,0.1,4.6,0.4c1.3,0.3,2.5,0.8,3.4,1.5c0.9,0.7,1.7,1.7,2.2,2.8c0.5,1.2,0.8,2.7,0.8,4.5v13.7
		h-4.8v-5h-0.2c-0.6,1.9-1.6,3.3-3,4.1c-1.4,0.9-3.2,1.3-5.3,1.3c-1.2,0-2.3-0.2-3.4-0.5c-1-0.3-1.9-0.8-2.7-1.4
		c-0.8-0.6-1.4-1.4-1.8-2.3c-0.4-0.9-0.7-1.9-0.7-3.1c0-2.2,0.8-3.8,2.3-5c1.5-1.2,3.7-1.8,6.4-1.8h8.3v-0.7c0-1.8-0.5-3.1-1.5-3.9
		C-807.4,13.5-808.9,13.2-810.9,13.2z M-804.9,21.9h-7.3c-1.7,0-3,0.3-3.7,1c-0.7,0.6-1.1,1.5-1.1,2.7c0,1.2,0.4,2.1,1.2,2.8
		c0.8,0.7,2,1.1,3.5,1.1c1.1,0,2.1-0.2,3-0.5c0.9-0.3,1.7-0.8,2.4-1.3c0.7-0.5,1.2-1.2,1.6-1.9c0.4-0.7,0.6-1.5,0.6-2.3V21.9z"/>
	<path id="XMLID_825_" class="st4" d="M-794.8,32.3V9.8h5.1v5h0.2c0.5-1.9,1.3-3.3,2.2-4.1c0.9-0.9,2.1-1.3,3.6-1.3
		c0.8,0,1.6,0.2,2.6,0.5v5c-0.6-0.1-1.1-0.3-1.7-0.4c-0.6-0.1-1.1-0.2-1.7-0.2c-1,0-1.8,0.2-2.4,0.6c-0.7,0.4-1.2,0.9-1.6,1.5
		c-0.4,0.6-0.7,1.3-0.9,2.1c-0.2,0.8-0.3,1.6-0.3,2.5v11.4H-794.8z"/>
	<path id="XMLID_827_" class="st4" d="M-772.2,32.3h-5.1V0.8h5.1v17.7l9.5-8.6h6.4l-9.6,8.9l10,13.6h-6.2l-7.7-10.7l-2.4,2.3V32.3z"
		/>
</g>
<g id="XMLID_3_" class="st3">
	<linearGradient id="XMLID_963_" gradientUnits="userSpaceOnUse" x1="-2232.9482" y1="53.1835" x2="-2232.9482" y2="-13.1835">
		<stop  offset="0" style="stop-color:#0000FF"/>
		<stop  offset="1" style="stop-color:#0370E6"/>
	</linearGradient>
	<path id="XMLID_5_" style="display:inline;fill:url(#XMLID_963_);" d="M-2208.2-0.6l-19.3-11.2c-3.4-1.9-7.5-1.9-10.9,0l-19.3,11.2
		c-3.4,1.9-5.4,5.5-5.4,9.4v22.3c0,3.9,2.1,7.5,5.4,9.4l19.3,11.2c3.4,1.9,7.5,1.9,10.9,0l19.3-11.2c3.4-1.9,5.4-5.5,5.4-9.4V8.8
		C-2202.8,5-2204.8,1.4-2208.2-0.6z M-2245.8,24.1c0,1-0.8,1.8-1.8,1.8s-1.8-0.8-1.8-1.8v-8.1c0-1,0.8-1.8,1.8-1.8s1.8,0.8,1.8,1.8
		V24.1z M-2238.5,29.5c0,1-0.8,1.8-1.8,1.8s-1.8-0.8-1.8-1.8V10.5c0-1,0.8-1.8,1.8-1.8s1.8,0.8,1.8,1.8V29.5z M-2231.2,35.3
		c0,1-0.8,1.8-1.8,1.8s-1.8-0.8-1.8-1.8V4.7c0-1,0.8-1.8,1.8-1.8s1.8,0.8,1.8,1.8V35.3z M-2223.8,29.5c0,1-0.8,1.8-1.8,1.8
		s-1.8-0.8-1.8-1.8V10.5c0-1,0.8-1.8,1.8-1.8s1.8,0.8,1.8,1.8V29.5z M-2216.5,24.1c0,1-0.8,1.8-1.8,1.8s-1.8-0.8-1.8-1.8v-8.1
		c0-1,0.8-1.8,1.8-1.8s1.8,0.8,1.8,1.8V24.1z"/>
	<g id="XMLID_964_" class="st4">
		<path id="XMLID_965_" class="st2" d="M-2158.7,33.3h-6l-2.3-6.2h-14.3l-2.2,6.2h-5.6l11.5-31.5h6.5L-2158.7,33.3z M-2179.8,23
			h11.4l-5.6-15.4h-0.4L-2179.8,23z"/>
		<path id="XMLID_968_" class="st2" d="M-2145.8,30.7c0.9,0,1.8-0.2,2.6-0.5s1.6-0.7,2.2-1.3c0.6-0.5,1.1-1.2,1.5-2
			c0.4-0.8,0.5-1.6,0.5-2.6V10.8h5v22.5h-5v-5h-0.4c-0.5,1.7-1.5,3.1-2.8,4c-1.4,0.9-3.1,1.4-5.2,1.4c-1.2,0-2.3-0.2-3.4-0.5
			c-1.1-0.3-2-0.8-2.8-1.6c-0.8-0.7-1.5-1.7-1.9-2.9c-0.5-1.2-0.7-2.7-0.7-4.5V10.8h5v13.5c0,2.3,0.5,3.9,1.4,4.9
			C-2148.9,30.2-2147.6,30.7-2145.8,30.7z"/>
		<path id="XMLID_970_" class="st2" d="M-2105.5,33.3h-5v-5.4h-0.2c-0.6,1.9-1.7,3.3-3.3,4.3c-1.6,1-3.5,1.5-5.6,1.5
			c-1.2,0-2.4-0.2-3.6-0.5c-1.2-0.3-2.3-0.9-3.2-1.8c-1-0.9-1.7-2.1-2.3-3.6c-0.6-1.5-0.9-3.5-0.9-5.8c0-2.4,0.3-4.3,0.9-5.8
			c0.6-1.5,1.4-2.7,2.3-3.6c1-0.9,2-1.5,3.2-1.8c1.2-0.3,2.4-0.5,3.6-0.5c2.1,0,4,0.5,5.6,1.5c1.6,1,2.7,2.5,3.3,4.3h0.2V1.8h5V33.3
			z M-2117.6,30.1c1.1,0,2.1-0.2,2.9-0.5c0.9-0.4,1.6-0.8,2.3-1.4c0.6-0.6,1.1-1.2,1.4-2c0.3-0.7,0.5-1.5,0.5-2.3V20
			c0-0.7-0.2-1.5-0.5-2.2c-0.3-0.7-0.8-1.3-1.4-1.9c-0.6-0.6-1.4-1-2.3-1.3c-0.9-0.3-1.9-0.5-2.9-0.5c-1,0-1.9,0.1-2.7,0.4
			c-0.8,0.2-1.6,0.7-2.2,1.3c-0.6,0.6-1.1,1.4-1.5,2.4c-0.4,1-0.5,2.3-0.5,3.9c0,1.6,0.2,2.9,0.5,3.9c0.4,1,0.9,1.8,1.5,2.4
			c0.6,0.6,1.4,1,2.2,1.3C-2119.4,29.9-2118.5,30.1-2117.6,30.1z"/>
		<path id="XMLID_973_" class="st2" d="M-2094.3,6.5h-5.6V1.8h5.6V6.5z M-2094.6,10.8v22.5h-5.1V10.8H-2094.6z"/>
		<path id="XMLID_976_" class="st2" d="M-2089.8,22.1c0-1.9,0.3-3.5,0.9-5c0.6-1.5,1.4-2.7,2.5-3.7c1-1,2.3-1.7,3.7-2.3
			c1.4-0.5,2.9-0.8,4.4-0.8c1.6,0,3,0.2,4.4,0.7c1.4,0.5,2.6,1.2,3.7,2.2c1.1,1,1.9,2.2,2.5,3.6c0.6,1.5,0.9,3.2,0.9,5.1
			c0,1.9-0.3,3.5-0.9,5c-0.6,1.5-1.5,2.7-2.5,3.7c-1.1,1-2.3,1.7-3.7,2.3c-1.4,0.5-2.9,0.8-4.4,0.8c-1.6,0-3-0.3-4.4-0.8
			c-1.4-0.5-2.6-1.3-3.7-2.3c-1-1-1.9-2.2-2.5-3.7C-2089.5,25.7-2089.8,24-2089.8,22.1z M-2085.3,22.1c0,1.3,0.2,2.4,0.6,3.3
			c0.4,0.9,0.9,1.7,1.5,2.4c0.6,0.6,1.4,1.1,2.3,1.4c0.9,0.3,1.7,0.5,2.7,0.5c1,0,1.9-0.2,2.7-0.5c0.9-0.3,1.6-0.8,2.2-1.4
			c0.6-0.6,1.1-1.4,1.5-2.4c0.4-0.9,0.5-2,0.5-3.3c0-1.3-0.2-2.4-0.5-3.3c-0.4-0.9-0.9-1.7-1.5-2.4c-0.6-0.6-1.4-1.1-2.2-1.4
			c-0.9-0.3-1.8-0.5-2.7-0.5c-0.9,0-1.8,0.2-2.7,0.5c-0.9,0.3-1.6,0.8-2.3,1.4c-0.6,0.6-1.2,1.4-1.5,2.4
			C-2085.1,19.8-2085.3,20.9-2085.3,22.1z"/>
		<path id="XMLID_979_" class="st2" d="M-2049.2,17.7c0-1.5-0.5-2.6-1.5-3.3c-1-0.7-2.3-1-3.8-1c-1.3,0-2.3,0.3-3.1,0.8
			c-0.8,0.5-1.3,1.3-1.3,2.3c0,0.6,0.1,1,0.4,1.4c0.3,0.4,0.7,0.7,1.2,0.9c0.5,0.3,1.1,0.5,1.8,0.7s1.4,0.4,2.1,0.6
			c1.2,0.4,2.3,0.7,3.3,1c1,0.3,1.9,0.7,2.7,1.2c0.8,0.5,1.4,1.1,1.8,1.8c0.4,0.8,0.7,1.7,0.7,2.9c0,1.2-0.2,2.3-0.7,3.1
			c-0.5,0.8-1.2,1.5-2,2c-0.9,0.5-1.9,0.9-3.1,1.1c-1.2,0.2-2.5,0.3-3.9,0.3c-1.4,0-2.6-0.2-3.8-0.5c-1.1-0.3-2.1-0.8-2.9-1.5
			c-0.8-0.7-1.4-1.5-1.9-2.6s-0.7-2.3-0.7-3.7h4.1c0,1.6,0.5,2.8,1.4,3.6c0.9,0.8,2.2,1.1,3.8,1.1c1.6,0,2.8-0.2,3.6-0.7
			c0.8-0.5,1.3-1.3,1.3-2.4c0-0.6-0.2-1.1-0.5-1.5c-0.3-0.4-0.8-0.8-1.5-1s-1.4-0.5-2.2-0.8c-0.8-0.2-1.7-0.5-2.7-0.7
			c-1-0.3-1.9-0.6-2.7-0.9c-0.9-0.3-1.6-0.7-2.3-1.1c-0.6-0.5-1.2-1-1.5-1.7c-0.4-0.7-0.6-1.5-0.6-2.6c0-2.3,0.8-3.9,2.3-5
			c1.6-1.1,3.7-1.6,6.4-1.6c3.3,0,5.7,0.7,7.2,2c1.4,1.4,2.2,3.2,2.2,5.5H-2049.2z"/>
		<path id="XMLID_981_" class="st2" d="M-2040.5,10.8h5.1v5.4h0.2c0.6-1.9,1.7-3.3,3.3-4.3c1.6-1,3.5-1.5,5.6-1.5
			c1.2,0,2.4,0.2,3.6,0.5c1.2,0.3,2.3,0.9,3.2,1.8s1.7,2.1,2.3,3.6c0.6,1.5,0.9,3.5,0.9,5.8c0,2.4-0.3,4.3-0.9,5.8
			c-0.6,1.5-1.4,2.7-2.3,3.6s-2,1.5-3.2,1.8c-1.2,0.3-2.4,0.5-3.6,0.5c-2.1,0-4-0.5-5.6-1.5c-1.6-1-2.7-2.5-3.3-4.3h-0.2v14.4h-5.1
			V10.8z M-2035.5,24.2c0,0.8,0.2,1.5,0.5,2.2s0.8,1.3,1.4,1.9c0.6,0.6,1.3,1,2.2,1.3c0.9,0.3,1.8,0.5,2.9,0.5c1,0,1.9-0.1,2.7-0.4
			c0.8-0.2,1.6-0.7,2.2-1.3c0.6-0.6,1.1-1.4,1.5-2.4c0.4-1,0.5-2.3,0.5-3.9c0-1.6-0.2-2.9-0.5-3.9c-0.4-1-0.9-1.8-1.5-2.4
			c-0.6-0.6-1.4-1-2.2-1.3c-0.8-0.2-1.7-0.4-2.7-0.4c-1.1,0-2.1,0.2-2.9,0.5c-0.9,0.4-1.6,0.8-2.2,1.4c-0.6,0.6-1.1,1.2-1.4,2
			c-0.3,0.7-0.5,1.5-0.5,2.3V24.2z"/>
		<path id="XMLID_984_" class="st2" d="M-2002.2,14.2c-1.8,0-3.2,0.3-4,1c-0.9,0.7-1.3,1.6-1.3,2.9h-4.7c0-2.8,0.8-4.7,2.5-5.9
			c1.6-1.2,4.1-1.8,7.4-1.8c1.7,0,3.2,0.1,4.6,0.4c1.3,0.3,2.5,0.8,3.4,1.5c0.9,0.7,1.7,1.7,2.2,2.8c0.5,1.2,0.8,2.7,0.8,4.5v13.7
			h-4.8v-5h-0.2c-0.6,1.9-1.6,3.3-3,4.1c-1.4,0.9-3.2,1.3-5.3,1.3c-1.2,0-2.3-0.2-3.4-0.5c-1-0.3-1.9-0.8-2.7-1.4
			c-0.8-0.6-1.4-1.4-1.8-2.3c-0.4-0.9-0.7-1.9-0.7-3.1c0-2.2,0.8-3.8,2.3-5c1.5-1.2,3.7-1.8,6.4-1.8h8.3v-0.7c0-1.8-0.5-3.1-1.5-3.9
			C-1998.6,14.5-2000.1,14.2-2002.2,14.2z M-1996.2,22.9h-7.3c-1.7,0-3,0.3-3.7,1c-0.7,0.6-1.1,1.5-1.1,2.7c0,1.2,0.4,2.1,1.2,2.8
			c0.8,0.7,2,1.1,3.5,1.1c1.1,0,2.1-0.2,3-0.5c0.9-0.3,1.7-0.8,2.4-1.3c0.7-0.5,1.2-1.2,1.6-1.9c0.4-0.7,0.6-1.5,0.6-2.3V22.9z"/>
		<path id="XMLID_987_" class="st2" d="M-1986.1,33.3V10.8h5.1v5h0.2c0.5-1.9,1.3-3.3,2.2-4.1c0.9-0.9,2.1-1.3,3.6-1.3
			c0.8,0,1.6,0.2,2.6,0.5v5c-0.6-0.1-1.1-0.3-1.7-0.4c-0.6-0.1-1.1-0.2-1.7-0.2c-1,0-1.8,0.2-2.4,0.6c-0.7,0.4-1.2,0.9-1.6,1.5
			c-0.4,0.6-0.7,1.3-0.9,2.1c-0.2,0.8-0.3,1.6-0.3,2.5v11.4H-1986.1z"/>
		<path id="XMLID_989_" class="st2" d="M-1963.4,33.3h-5.1V1.8h5.1v17.7l9.5-8.6h6.4l-9.6,8.9l10,13.6h-6.2l-7.7-10.7l-2.4,2.3V33.3
			z"/>
	</g>
	<g id="XMLID_4_" class="st4">
		<path id="XMLID_829_" class="st2" d="M-2158.7,33.3h-6l-2.3-6.2h-14.3l-2.2,6.2h-5.6l11.5-31.5h6.5L-2158.7,33.3z M-2179.8,23
			h11.4l-5.6-15.4h-0.4L-2179.8,23z"/>
		<path id="XMLID_832_" class="st2" d="M-2145.8,30.7c0.9,0,1.8-0.2,2.6-0.5s1.6-0.7,2.2-1.3c0.6-0.5,1.1-1.2,1.5-2
			c0.4-0.8,0.5-1.6,0.5-2.6V10.8h5v22.5h-5v-5h-0.4c-0.5,1.7-1.5,3.1-2.8,4c-1.4,0.9-3.1,1.4-5.2,1.4c-1.2,0-2.3-0.2-3.4-0.5
			c-1.1-0.3-2-0.8-2.8-1.6c-0.8-0.7-1.5-1.7-1.9-2.9c-0.5-1.2-0.7-2.7-0.7-4.5V10.8h5v13.5c0,2.3,0.5,3.9,1.4,4.9
			C-2148.9,30.2-2147.6,30.7-2145.8,30.7z"/>
		<path id="XMLID_834_" class="st2" d="M-2105.5,33.3h-5v-5.4h-0.2c-0.6,1.9-1.7,3.3-3.3,4.3c-1.6,1-3.5,1.5-5.6,1.5
			c-1.2,0-2.4-0.2-3.6-0.5c-1.2-0.3-2.3-0.9-3.2-1.8c-1-0.9-1.7-2.1-2.3-3.6c-0.6-1.5-0.9-3.5-0.9-5.8c0-2.4,0.3-4.3,0.9-5.8
			c0.6-1.5,1.4-2.7,2.3-3.6c1-0.9,2-1.5,3.2-1.8c1.2-0.3,2.4-0.5,3.6-0.5c2.1,0,4,0.5,5.6,1.5c1.6,1,2.7,2.5,3.3,4.3h0.2V1.8h5V33.3
			z M-2117.6,30.1c1.1,0,2.1-0.2,2.9-0.5c0.9-0.4,1.6-0.8,2.3-1.4c0.6-0.6,1.1-1.2,1.4-2c0.3-0.7,0.5-1.5,0.5-2.3V20
			c0-0.7-0.2-1.5-0.5-2.2c-0.3-0.7-0.8-1.3-1.4-1.9c-0.6-0.6-1.4-1-2.3-1.3c-0.9-0.3-1.9-0.5-2.9-0.5c-1,0-1.9,0.1-2.7,0.4
			c-0.8,0.2-1.6,0.7-2.2,1.3c-0.6,0.6-1.1,1.4-1.5,2.4c-0.4,1-0.5,2.3-0.5,3.9c0,1.6,0.2,2.9,0.5,3.9c0.4,1,0.9,1.8,1.5,2.4
			c0.6,0.6,1.4,1,2.2,1.3C-2119.4,29.9-2118.5,30.1-2117.6,30.1z"/>
		<path id="XMLID_837_" class="st2" d="M-2094.3,6.5h-5.6V1.8h5.6V6.5z M-2094.6,10.8v22.5h-5.1V10.8H-2094.6z"/>
		<path id="XMLID_840_" class="st2" d="M-2089.8,22.1c0-1.9,0.3-3.5,0.9-5c0.6-1.5,1.4-2.7,2.5-3.7c1-1,2.3-1.7,3.7-2.3
			c1.4-0.5,2.9-0.8,4.4-0.8c1.6,0,3,0.2,4.4,0.7c1.4,0.5,2.6,1.2,3.7,2.2c1.1,1,1.9,2.2,2.5,3.6c0.6,1.5,0.9,3.2,0.9,5.1
			c0,1.9-0.3,3.5-0.9,5c-0.6,1.5-1.5,2.7-2.5,3.7c-1.1,1-2.3,1.7-3.7,2.3c-1.4,0.5-2.9,0.8-4.4,0.8c-1.6,0-3-0.3-4.4-0.8
			c-1.4-0.5-2.6-1.3-3.7-2.3c-1-1-1.9-2.2-2.5-3.7C-2089.5,25.7-2089.8,24-2089.8,22.1z M-2085.3,22.1c0,1.3,0.2,2.4,0.6,3.3
			c0.4,0.9,0.9,1.7,1.5,2.4c0.6,0.6,1.4,1.1,2.3,1.4c0.9,0.3,1.7,0.5,2.7,0.5c1,0,1.9-0.2,2.7-0.5c0.9-0.3,1.6-0.8,2.2-1.4
			c0.6-0.6,1.1-1.4,1.5-2.4c0.4-0.9,0.5-2,0.5-3.3c0-1.3-0.2-2.4-0.5-3.3c-0.4-0.9-0.9-1.7-1.5-2.4c-0.6-0.6-1.4-1.1-2.2-1.4
			c-0.9-0.3-1.8-0.5-2.7-0.5c-0.9,0-1.8,0.2-2.7,0.5c-0.9,0.3-1.6,0.8-2.3,1.4c-0.6,0.6-1.2,1.4-1.5,2.4
			C-2085.1,19.8-2085.3,20.9-2085.3,22.1z"/>
		<path id="XMLID_843_" class="st2" d="M-2049.2,17.7c0-1.5-0.5-2.6-1.5-3.3c-1-0.7-2.3-1-3.8-1c-1.3,0-2.3,0.3-3.1,0.8
			c-0.8,0.5-1.3,1.3-1.3,2.3c0,0.6,0.1,1,0.4,1.4c0.3,0.4,0.7,0.7,1.2,0.9c0.5,0.3,1.1,0.5,1.8,0.7s1.4,0.4,2.1,0.6
			c1.2,0.4,2.3,0.7,3.3,1c1,0.3,1.9,0.7,2.7,1.2c0.8,0.5,1.4,1.1,1.8,1.8c0.4,0.8,0.7,1.7,0.7,2.9c0,1.2-0.2,2.3-0.7,3.1
			c-0.5,0.8-1.2,1.5-2,2c-0.9,0.5-1.9,0.9-3.1,1.1c-1.2,0.2-2.5,0.3-3.9,0.3c-1.4,0-2.6-0.2-3.8-0.5c-1.1-0.3-2.1-0.8-2.9-1.5
			c-0.8-0.7-1.4-1.5-1.9-2.6s-0.7-2.3-0.7-3.7h4.1c0,1.6,0.5,2.8,1.4,3.6c0.9,0.8,2.2,1.1,3.8,1.1c1.6,0,2.8-0.2,3.6-0.7
			c0.8-0.5,1.3-1.3,1.3-2.4c0-0.6-0.2-1.1-0.5-1.5c-0.3-0.4-0.8-0.8-1.5-1s-1.4-0.5-2.2-0.8c-0.8-0.2-1.7-0.5-2.7-0.7
			c-1-0.3-1.9-0.6-2.7-0.9c-0.9-0.3-1.6-0.7-2.3-1.1c-0.6-0.5-1.2-1-1.5-1.7c-0.4-0.7-0.6-1.5-0.6-2.6c0-2.3,0.8-3.9,2.3-5
			c1.6-1.1,3.7-1.6,6.4-1.6c3.3,0,5.7,0.7,7.2,2c1.4,1.4,2.2,3.2,2.2,5.5H-2049.2z"/>
		<path id="XMLID_845_" class="st2" d="M-2040.5,10.8h5.1v5.4h0.2c0.6-1.9,1.7-3.3,3.3-4.3c1.6-1,3.5-1.5,5.6-1.5
			c1.2,0,2.4,0.2,3.6,0.5c1.2,0.3,2.3,0.9,3.2,1.8s1.7,2.1,2.3,3.6c0.6,1.5,0.9,3.5,0.9,5.8c0,2.4-0.3,4.3-0.9,5.8
			c-0.6,1.5-1.4,2.7-2.3,3.6s-2,1.5-3.2,1.8c-1.2,0.3-2.4,0.5-3.6,0.5c-2.1,0-4-0.5-5.6-1.5c-1.6-1-2.7-2.5-3.3-4.3h-0.2v14.4h-5.1
			V10.8z M-2035.5,24.2c0,0.8,0.2,1.5,0.5,2.2s0.8,1.3,1.4,1.9c0.6,0.6,1.3,1,2.2,1.3c0.9,0.3,1.8,0.5,2.9,0.5c1,0,1.9-0.1,2.7-0.4
			c0.8-0.2,1.6-0.7,2.2-1.3c0.6-0.6,1.1-1.4,1.5-2.4c0.4-1,0.5-2.3,0.5-3.9c0-1.6-0.2-2.9-0.5-3.9c-0.4-1-0.9-1.8-1.5-2.4
			c-0.6-0.6-1.4-1-2.2-1.3c-0.8-0.2-1.7-0.4-2.7-0.4c-1.1,0-2.1,0.2-2.9,0.5c-0.9,0.4-1.6,0.8-2.2,1.4c-0.6,0.6-1.1,1.2-1.4,2
			c-0.3,0.7-0.5,1.5-0.5,2.3V24.2z"/>
		<path id="XMLID_848_" class="st2" d="M-2002.2,14.2c-1.8,0-3.2,0.3-4,1c-0.9,0.7-1.3,1.6-1.3,2.9h-4.7c0-2.8,0.8-4.7,2.5-5.9
			c1.6-1.2,4.1-1.8,7.4-1.8c1.7,0,3.2,0.1,4.6,0.4c1.3,0.3,2.5,0.8,3.4,1.5c0.9,0.7,1.7,1.7,2.2,2.8c0.5,1.2,0.8,2.7,0.8,4.5v13.7
			h-4.8v-5h-0.2c-0.6,1.9-1.6,3.3-3,4.1c-1.4,0.9-3.2,1.3-5.3,1.3c-1.2,0-2.3-0.2-3.4-0.5c-1-0.3-1.9-0.8-2.7-1.4
			c-0.8-0.6-1.4-1.4-1.8-2.3c-0.4-0.9-0.7-1.9-0.7-3.1c0-2.2,0.8-3.8,2.3-5c1.5-1.2,3.7-1.8,6.4-1.8h8.3v-0.7c0-1.8-0.5-3.1-1.5-3.9
			C-1998.6,14.5-2000.1,14.2-2002.2,14.2z M-1996.2,22.9h-7.3c-1.7,0-3,0.3-3.7,1c-0.7,0.6-1.1,1.5-1.1,2.7c0,1.2,0.4,2.1,1.2,2.8
			c0.8,0.7,2,1.1,3.5,1.1c1.1,0,2.1-0.2,3-0.5c0.9-0.3,1.7-0.8,2.4-1.3c0.7-0.5,1.2-1.2,1.6-1.9c0.4-0.7,0.6-1.5,0.6-2.3V22.9z"/>
		<path id="XMLID_851_" class="st2" d="M-1986.1,33.3V10.8h5.1v5h0.2c0.5-1.9,1.3-3.3,2.2-4.1c0.9-0.9,2.1-1.3,3.6-1.3
			c0.8,0,1.6,0.2,2.6,0.5v5c-0.6-0.1-1.1-0.3-1.7-0.4c-0.6-0.1-1.1-0.2-1.7-0.2c-1,0-1.8,0.2-2.4,0.6c-0.7,0.4-1.2,0.9-1.6,1.5
			c-0.4,0.6-0.7,1.3-0.9,2.1c-0.2,0.8-0.3,1.6-0.3,2.5v11.4H-1986.1z"/>
		<path id="XMLID_853_" class="st2" d="M-1963.4,33.3h-5.1V1.8h5.1v17.7l9.5-8.6h6.4l-9.6,8.9l10,13.6h-6.2l-7.7-10.7l-2.4,2.3V33.3
			z"/>
	</g>
</g>
<g id="XMLID_1_" class="st3">
	<linearGradient id="XMLID_991_" gradientUnits="userSpaceOnUse" x1="-3244.9485" y1="53.1835" x2="-3244.9485" y2="-13.1835">
		<stop  offset="0" style="stop-color:#0000FF"/>
		<stop  offset="1" style="stop-color:#0370E6"/>
	</linearGradient>
	<path id="XMLID_16_" style="display:inline;fill:url(#XMLID_991_);" d="M-3220.2-0.6l-19.3-11.2c-3.4-1.9-7.5-1.9-10.9,0
		l-19.3,11.2c-3.4,1.9-5.4,5.5-5.4,9.4v22.3c0,3.9,2.1,7.5,5.4,9.4l19.3,11.2c3.4,1.9,7.5,1.9,10.9,0l19.3-11.2
		c3.4-1.9,5.4-5.5,5.4-9.4V8.8C-3214.8,5-3216.8,1.4-3220.2-0.6z M-3257.8,24.1c0,1-0.8,1.8-1.8,1.8s-1.8-0.8-1.8-1.8v-8.1
		c0-1,0.8-1.8,1.8-1.8s1.8,0.8,1.8,1.8V24.1z M-3250.5,29.5c0,1-0.8,1.8-1.8,1.8c-1,0-1.8-0.8-1.8-1.8V10.5c0-1,0.8-1.8,1.8-1.8
		c1,0,1.8,0.8,1.8,1.8V29.5z M-3243.2,35.3c0,1-0.8,1.8-1.8,1.8s-1.8-0.8-1.8-1.8V4.7c0-1,0.8-1.8,1.8-1.8s1.8,0.8,1.8,1.8V35.3z
		 M-3235.8,29.5c0,1-0.8,1.8-1.8,1.8s-1.8-0.8-1.8-1.8V10.5c0-1,0.8-1.8,1.8-1.8s1.8,0.8,1.8,1.8V29.5z M-3228.5,24.1
		c0,1-0.8,1.8-1.8,1.8s-1.8-0.8-1.8-1.8v-8.1c0-1,0.8-1.8,1.8-1.8s1.8,0.8,1.8,1.8V24.1z"/>
	<g id="XMLID_992_" class="st4">
		<path id="XMLID_993_" d="M-3170.7,33.3h-6l-2.3-6.2h-14.3l-2.2,6.2h-5.6l11.5-31.5h6.5L-3170.7,33.3z M-3191.8,23h11.4l-5.6-15.4
			h-0.4L-3191.8,23z"/>
		<path id="XMLID_996_" d="M-3157.8,30.7c0.9,0,1.8-0.2,2.6-0.5c0.8-0.3,1.6-0.7,2.2-1.3c0.6-0.5,1.1-1.2,1.5-2
			c0.4-0.8,0.5-1.6,0.5-2.6V10.8h5v22.5h-5v-5h-0.4c-0.5,1.7-1.5,3.1-2.8,4c-1.4,0.9-3.1,1.4-5.2,1.4c-1.2,0-2.3-0.2-3.4-0.5
			c-1.1-0.3-2-0.8-2.8-1.6c-0.8-0.7-1.5-1.7-1.9-2.9c-0.5-1.2-0.7-2.7-0.7-4.5V10.8h5v13.5c0,2.3,0.5,3.9,1.4,4.9
			C-3160.9,30.2-3159.6,30.7-3157.8,30.7z"/>
		<path id="XMLID_998_" d="M-3117.5,33.3h-5v-5.4h-0.2c-0.6,1.9-1.7,3.3-3.3,4.3c-1.6,1-3.5,1.5-5.6,1.5c-1.2,0-2.4-0.2-3.6-0.5
			c-1.2-0.3-2.3-0.9-3.2-1.8c-1-0.9-1.7-2.1-2.3-3.6c-0.6-1.5-0.9-3.5-0.9-5.8c0-2.4,0.3-4.3,0.9-5.8c0.6-1.5,1.4-2.7,2.3-3.6
			c1-0.9,2-1.5,3.2-1.8c1.2-0.3,2.4-0.5,3.6-0.5c2.1,0,4,0.5,5.6,1.5c1.6,1,2.7,2.5,3.3,4.3h0.2V1.8h5V33.3z M-3129.6,30.1
			c1.1,0,2.1-0.2,2.9-0.5c0.9-0.4,1.6-0.8,2.3-1.4c0.6-0.6,1.1-1.2,1.4-2c0.3-0.7,0.5-1.5,0.5-2.3V20c0-0.7-0.2-1.5-0.5-2.2
			c-0.3-0.7-0.8-1.3-1.4-1.9c-0.6-0.6-1.4-1-2.3-1.3c-0.9-0.3-1.9-0.5-2.9-0.5c-1,0-1.9,0.1-2.7,0.4c-0.8,0.2-1.6,0.7-2.2,1.3
			c-0.6,0.6-1.1,1.4-1.5,2.4c-0.4,1-0.5,2.3-0.5,3.9s0.2,2.9,0.5,3.9c0.4,1,0.9,1.8,1.5,2.4c0.6,0.6,1.4,1,2.2,1.3
			C-3131.4,29.9-3130.5,30.1-3129.6,30.1z"/>
		<path id="XMLID_1001_" d="M-3106.3,6.5h-5.6V1.8h5.6V6.5z M-3106.6,10.8v22.5h-5.1V10.8H-3106.6z"/>
		<path id="XMLID_1004_" d="M-3101.8,22.1c0-1.9,0.3-3.5,0.9-5c0.6-1.5,1.4-2.7,2.5-3.7c1-1,2.3-1.7,3.7-2.3
			c1.4-0.5,2.9-0.8,4.4-0.8c1.6,0,3,0.2,4.4,0.7c1.4,0.5,2.6,1.2,3.7,2.2c1.1,1,1.9,2.2,2.5,3.6c0.6,1.5,0.9,3.2,0.9,5.1
			c0,1.9-0.3,3.5-0.9,5c-0.6,1.5-1.5,2.7-2.5,3.7c-1.1,1-2.3,1.7-3.7,2.3c-1.4,0.5-2.9,0.8-4.4,0.8c-1.6,0-3-0.3-4.4-0.8
			c-1.4-0.5-2.6-1.3-3.7-2.3c-1-1-1.9-2.2-2.5-3.7C-3101.5,25.7-3101.8,24-3101.8,22.1z M-3097.3,22.1c0,1.3,0.2,2.4,0.6,3.3
			s0.9,1.7,1.5,2.4c0.6,0.6,1.4,1.1,2.3,1.4c0.9,0.3,1.7,0.5,2.7,0.5c1,0,1.9-0.2,2.7-0.5c0.9-0.3,1.6-0.8,2.2-1.4
			c0.6-0.6,1.1-1.4,1.5-2.4s0.5-2,0.5-3.3s-0.2-2.4-0.5-3.3c-0.4-0.9-0.9-1.7-1.5-2.4c-0.6-0.6-1.4-1.1-2.2-1.4
			c-0.9-0.3-1.8-0.5-2.7-0.5c-0.9,0-1.8,0.2-2.7,0.5c-0.9,0.3-1.6,0.8-2.3,1.4c-0.6,0.6-1.2,1.4-1.5,2.4
			C-3097.1,19.8-3097.3,20.9-3097.3,22.1z"/>
		<path id="XMLID_1007_" d="M-3061.2,17.7c0-1.5-0.5-2.6-1.5-3.3c-1-0.7-2.3-1-3.8-1c-1.3,0-2.3,0.3-3.1,0.8
			c-0.8,0.5-1.3,1.3-1.3,2.3c0,0.6,0.1,1,0.4,1.4c0.3,0.4,0.7,0.7,1.2,0.9c0.5,0.3,1.1,0.5,1.8,0.7s1.4,0.4,2.1,0.6
			c1.2,0.4,2.3,0.7,3.3,1c1,0.3,1.9,0.7,2.7,1.2c0.8,0.5,1.4,1.1,1.8,1.8c0.4,0.8,0.7,1.7,0.7,2.9c0,1.2-0.2,2.3-0.7,3.1
			c-0.5,0.8-1.2,1.5-2,2c-0.9,0.5-1.9,0.9-3.1,1.1c-1.2,0.2-2.5,0.3-3.9,0.3c-1.4,0-2.6-0.2-3.8-0.5c-1.1-0.3-2.1-0.8-2.9-1.5
			c-0.8-0.7-1.4-1.5-1.9-2.6s-0.7-2.3-0.7-3.7h4.1c0,1.6,0.5,2.8,1.4,3.6c0.9,0.8,2.2,1.1,3.8,1.1c1.6,0,2.8-0.2,3.6-0.7
			c0.8-0.5,1.3-1.3,1.3-2.4c0-0.6-0.2-1.1-0.5-1.5c-0.3-0.4-0.8-0.8-1.5-1s-1.4-0.5-2.2-0.8c-0.8-0.2-1.7-0.5-2.7-0.7
			c-1-0.3-1.9-0.6-2.7-0.9c-0.9-0.3-1.6-0.7-2.3-1.1c-0.6-0.5-1.2-1-1.5-1.7c-0.4-0.7-0.6-1.5-0.6-2.6c0-2.3,0.8-3.9,2.3-5
			c1.6-1.1,3.7-1.6,6.4-1.6c3.3,0,5.7,0.7,7.2,2c1.4,1.4,2.2,3.2,2.2,5.5H-3061.2z"/>
		<path id="XMLID_1009_" d="M-3052.5,10.8h5.1v5.4h0.2c0.6-1.9,1.7-3.3,3.3-4.3c1.6-1,3.5-1.5,5.6-1.5c1.2,0,2.4,0.2,3.6,0.5
			c1.2,0.3,2.3,0.9,3.2,1.8s1.7,2.1,2.3,3.6c0.6,1.5,0.9,3.5,0.9,5.8c0,2.4-0.3,4.3-0.9,5.8c-0.6,1.5-1.4,2.7-2.3,3.6
			c-1,0.9-2,1.5-3.2,1.8c-1.2,0.3-2.4,0.5-3.6,0.5c-2.1,0-4-0.5-5.6-1.5s-2.7-2.5-3.3-4.3h-0.2v14.4h-5.1V10.8z M-3047.5,24.2
			c0,0.8,0.2,1.5,0.5,2.2c0.3,0.7,0.8,1.3,1.4,1.9c0.6,0.6,1.3,1,2.2,1.3c0.9,0.3,1.8,0.5,2.9,0.5c1,0,1.9-0.1,2.7-0.4
			c0.8-0.2,1.6-0.7,2.2-1.3c0.6-0.6,1.1-1.4,1.5-2.4c0.4-1,0.5-2.3,0.5-3.9s-0.2-2.9-0.5-3.9c-0.4-1-0.9-1.8-1.5-2.4
			c-0.6-0.6-1.4-1-2.2-1.3c-0.8-0.2-1.7-0.4-2.7-0.4c-1.1,0-2.1,0.2-2.9,0.5c-0.9,0.4-1.6,0.8-2.2,1.4c-0.6,0.6-1.1,1.2-1.4,2
			c-0.3,0.7-0.5,1.5-0.5,2.3V24.2z"/>
		<path id="XMLID_1012_" d="M-3014.2,14.2c-1.8,0-3.2,0.3-4,1c-0.9,0.7-1.3,1.6-1.3,2.9h-4.7c0-2.8,0.8-4.7,2.5-5.9
			c1.6-1.2,4.1-1.8,7.4-1.8c1.7,0,3.2,0.1,4.6,0.4c1.3,0.3,2.5,0.8,3.4,1.5c0.9,0.7,1.7,1.7,2.2,2.8c0.5,1.2,0.8,2.7,0.8,4.5v13.7
			h-4.8v-5h-0.2c-0.6,1.9-1.6,3.3-3,4.1c-1.4,0.9-3.2,1.3-5.3,1.3c-1.2,0-2.3-0.2-3.4-0.5c-1-0.3-1.9-0.8-2.7-1.4
			c-0.8-0.6-1.4-1.4-1.8-2.3c-0.4-0.9-0.7-1.9-0.7-3.1c0-2.2,0.8-3.8,2.3-5c1.5-1.2,3.7-1.8,6.4-1.8h8.3v-0.7c0-1.8-0.5-3.1-1.5-3.9
			C-3010.6,14.5-3012.1,14.2-3014.2,14.2z M-3008.2,22.9h-7.3c-1.7,0-3,0.3-3.7,1c-0.7,0.6-1.1,1.5-1.1,2.7c0,1.2,0.4,2.1,1.2,2.8
			s2,1.1,3.5,1.1c1.1,0,2.1-0.2,3-0.5c0.9-0.3,1.7-0.8,2.4-1.3c0.7-0.5,1.2-1.2,1.6-1.9c0.4-0.7,0.6-1.5,0.6-2.3V22.9z"/>
		<path id="XMLID_1015_" d="M-2998.1,33.3V10.8h5.1v5h0.2c0.5-1.9,1.3-3.3,2.2-4.1c0.9-0.9,2.1-1.3,3.6-1.3c0.8,0,1.6,0.2,2.6,0.5v5
			c-0.6-0.1-1.1-0.3-1.7-0.4c-0.6-0.1-1.1-0.2-1.7-0.2c-1,0-1.8,0.2-2.4,0.6c-0.7,0.4-1.2,0.9-1.6,1.5c-0.4,0.6-0.7,1.3-0.9,2.1
			c-0.2,0.8-0.3,1.6-0.3,2.5v11.4H-2998.1z"/>
		<path id="XMLID_1017_" d="M-2975.4,33.3h-5.1V1.8h5.1v17.7l9.5-8.6h6.4l-9.6,8.9l10,13.6h-6.2l-7.7-10.7l-2.4,2.3V33.3z"/>
	</g>
	<g id="XMLID_8_" class="st4">
		<path id="XMLID_855_" d="M-3170.7,33.3h-6l-2.3-6.2h-14.3l-2.2,6.2h-5.6l11.5-31.5h6.5L-3170.7,33.3z M-3191.8,23h11.4l-5.6-15.4
			h-0.4L-3191.8,23z"/>
		<path id="XMLID_858_" d="M-3157.8,30.7c0.9,0,1.8-0.2,2.6-0.5c0.8-0.3,1.6-0.7,2.2-1.3c0.6-0.5,1.1-1.2,1.5-2
			c0.4-0.8,0.5-1.6,0.5-2.6V10.8h5v22.5h-5v-5h-0.4c-0.5,1.7-1.5,3.1-2.8,4c-1.4,0.9-3.1,1.4-5.2,1.4c-1.2,0-2.3-0.2-3.4-0.5
			c-1.1-0.3-2-0.8-2.8-1.6c-0.8-0.7-1.5-1.7-1.9-2.9c-0.5-1.2-0.7-2.7-0.7-4.5V10.8h5v13.5c0,2.3,0.5,3.9,1.4,4.9
			C-3160.9,30.2-3159.6,30.7-3157.8,30.7z"/>
		<path id="XMLID_860_" d="M-3117.5,33.3h-5v-5.4h-0.2c-0.6,1.9-1.7,3.3-3.3,4.3c-1.6,1-3.5,1.5-5.6,1.5c-1.2,0-2.4-0.2-3.6-0.5
			c-1.2-0.3-2.3-0.9-3.2-1.8c-1-0.9-1.7-2.1-2.3-3.6c-0.6-1.5-0.9-3.5-0.9-5.8c0-2.4,0.3-4.3,0.9-5.8c0.6-1.5,1.4-2.7,2.3-3.6
			c1-0.9,2-1.5,3.2-1.8c1.2-0.3,2.4-0.5,3.6-0.5c2.1,0,4,0.5,5.6,1.5c1.6,1,2.7,2.5,3.3,4.3h0.2V1.8h5V33.3z M-3129.6,30.1
			c1.1,0,2.1-0.2,2.9-0.5c0.9-0.4,1.6-0.8,2.3-1.4c0.6-0.6,1.1-1.2,1.4-2c0.3-0.7,0.5-1.5,0.5-2.3V20c0-0.7-0.2-1.5-0.5-2.2
			c-0.3-0.7-0.8-1.3-1.4-1.9c-0.6-0.6-1.4-1-2.3-1.3c-0.9-0.3-1.9-0.5-2.9-0.5c-1,0-1.9,0.1-2.7,0.4c-0.8,0.2-1.6,0.7-2.2,1.3
			c-0.6,0.6-1.1,1.4-1.5,2.4c-0.4,1-0.5,2.3-0.5,3.9s0.2,2.9,0.5,3.9c0.4,1,0.9,1.8,1.5,2.4c0.6,0.6,1.4,1,2.2,1.3
			C-3131.4,29.9-3130.5,30.1-3129.6,30.1z"/>
		<path id="XMLID_863_" d="M-3106.3,6.5h-5.6V1.8h5.6V6.5z M-3106.6,10.8v22.5h-5.1V10.8H-3106.6z"/>
		<path id="XMLID_866_" d="M-3101.8,22.1c0-1.9,0.3-3.5,0.9-5c0.6-1.5,1.4-2.7,2.5-3.7c1-1,2.3-1.7,3.7-2.3c1.4-0.5,2.9-0.8,4.4-0.8
			c1.6,0,3,0.2,4.4,0.7c1.4,0.5,2.6,1.2,3.7,2.2c1.1,1,1.9,2.2,2.5,3.6c0.6,1.5,0.9,3.2,0.9,5.1c0,1.9-0.3,3.5-0.9,5
			c-0.6,1.5-1.5,2.7-2.5,3.7c-1.1,1-2.3,1.7-3.7,2.3c-1.4,0.5-2.9,0.8-4.4,0.8c-1.6,0-3-0.3-4.4-0.8c-1.4-0.5-2.6-1.3-3.7-2.3
			c-1-1-1.9-2.2-2.5-3.7C-3101.5,25.7-3101.8,24-3101.8,22.1z M-3097.3,22.1c0,1.3,0.2,2.4,0.6,3.3s0.9,1.7,1.5,2.4
			c0.6,0.6,1.4,1.1,2.3,1.4c0.9,0.3,1.7,0.5,2.7,0.5c1,0,1.9-0.2,2.7-0.5c0.9-0.3,1.6-0.8,2.2-1.4c0.6-0.6,1.1-1.4,1.5-2.4
			s0.5-2,0.5-3.3s-0.2-2.4-0.5-3.3c-0.4-0.9-0.9-1.7-1.5-2.4c-0.6-0.6-1.4-1.1-2.2-1.4c-0.9-0.3-1.8-0.5-2.7-0.5
			c-0.9,0-1.8,0.2-2.7,0.5c-0.9,0.3-1.6,0.8-2.3,1.4c-0.6,0.6-1.2,1.4-1.5,2.4C-3097.1,19.8-3097.3,20.9-3097.3,22.1z"/>
		<path id="XMLID_869_" d="M-3061.2,17.7c0-1.5-0.5-2.6-1.5-3.3c-1-0.7-2.3-1-3.8-1c-1.3,0-2.3,0.3-3.1,0.8
			c-0.8,0.5-1.3,1.3-1.3,2.3c0,0.6,0.1,1,0.4,1.4c0.3,0.4,0.7,0.7,1.2,0.9c0.5,0.3,1.1,0.5,1.8,0.7s1.4,0.4,2.1,0.6
			c1.2,0.4,2.3,0.7,3.3,1c1,0.3,1.9,0.7,2.7,1.2c0.8,0.5,1.4,1.1,1.8,1.8c0.4,0.8,0.7,1.7,0.7,2.9c0,1.2-0.2,2.3-0.7,3.1
			c-0.5,0.8-1.2,1.5-2,2c-0.9,0.5-1.9,0.9-3.1,1.1c-1.2,0.2-2.5,0.3-3.9,0.3c-1.4,0-2.6-0.2-3.8-0.5c-1.1-0.3-2.1-0.8-2.9-1.5
			c-0.8-0.7-1.4-1.5-1.9-2.6s-0.7-2.3-0.7-3.7h4.1c0,1.6,0.5,2.8,1.4,3.6c0.9,0.8,2.2,1.1,3.8,1.1c1.6,0,2.8-0.2,3.6-0.7
			c0.8-0.5,1.3-1.3,1.3-2.4c0-0.6-0.2-1.1-0.5-1.5c-0.3-0.4-0.8-0.8-1.5-1s-1.4-0.5-2.2-0.8c-0.8-0.2-1.7-0.5-2.7-0.7
			c-1-0.3-1.9-0.6-2.7-0.9c-0.9-0.3-1.6-0.7-2.3-1.1c-0.6-0.5-1.2-1-1.5-1.7c-0.4-0.7-0.6-1.5-0.6-2.6c0-2.3,0.8-3.9,2.3-5
			c1.6-1.1,3.7-1.6,6.4-1.6c3.3,0,5.7,0.7,7.2,2c1.4,1.4,2.2,3.2,2.2,5.5H-3061.2z"/>
		<path id="XMLID_871_" d="M-3052.5,10.8h5.1v5.4h0.2c0.6-1.9,1.7-3.3,3.3-4.3c1.6-1,3.5-1.5,5.6-1.5c1.2,0,2.4,0.2,3.6,0.5
			c1.2,0.3,2.3,0.9,3.2,1.8s1.7,2.1,2.3,3.6c0.6,1.5,0.9,3.5,0.9,5.8c0,2.4-0.3,4.3-0.9,5.8c-0.6,1.5-1.4,2.7-2.3,3.6
			c-1,0.9-2,1.5-3.2,1.8c-1.2,0.3-2.4,0.5-3.6,0.5c-2.1,0-4-0.5-5.6-1.5s-2.7-2.5-3.3-4.3h-0.2v14.4h-5.1V10.8z M-3047.5,24.2
			c0,0.8,0.2,1.5,0.5,2.2c0.3,0.7,0.8,1.3,1.4,1.9c0.6,0.6,1.3,1,2.2,1.3c0.9,0.3,1.8,0.5,2.9,0.5c1,0,1.9-0.1,2.7-0.4
			c0.8-0.2,1.6-0.7,2.2-1.3c0.6-0.6,1.1-1.4,1.5-2.4c0.4-1,0.5-2.3,0.5-3.9s-0.2-2.9-0.5-3.9c-0.4-1-0.9-1.8-1.5-2.4
			c-0.6-0.6-1.4-1-2.2-1.3c-0.8-0.2-1.7-0.4-2.7-0.4c-1.1,0-2.1,0.2-2.9,0.5c-0.9,0.4-1.6,0.8-2.2,1.4c-0.6,0.6-1.1,1.2-1.4,2
			c-0.3,0.7-0.5,1.5-0.5,2.3V24.2z"/>
		<path id="XMLID_874_" d="M-3014.2,14.2c-1.8,0-3.2,0.3-4,1c-0.9,0.7-1.3,1.6-1.3,2.9h-4.7c0-2.8,0.8-4.7,2.5-5.9
			c1.6-1.2,4.1-1.8,7.4-1.8c1.7,0,3.2,0.1,4.6,0.4c1.3,0.3,2.5,0.8,3.4,1.5c0.9,0.7,1.7,1.7,2.2,2.8c0.5,1.2,0.8,2.7,0.8,4.5v13.7
			h-4.8v-5h-0.2c-0.6,1.9-1.6,3.3-3,4.1c-1.4,0.9-3.2,1.3-5.3,1.3c-1.2,0-2.3-0.2-3.4-0.5c-1-0.3-1.9-0.8-2.7-1.4
			c-0.8-0.6-1.4-1.4-1.8-2.3c-0.4-0.9-0.7-1.9-0.7-3.1c0-2.2,0.8-3.8,2.3-5c1.5-1.2,3.7-1.8,6.4-1.8h8.3v-0.7c0-1.8-0.5-3.1-1.5-3.9
			C-3010.6,14.5-3012.1,14.2-3014.2,14.2z M-3008.2,22.9h-7.3c-1.7,0-3,0.3-3.7,1c-0.7,0.6-1.1,1.5-1.1,2.7c0,1.2,0.4,2.1,1.2,2.8
			s2,1.1,3.5,1.1c1.1,0,2.1-0.2,3-0.5c0.9-0.3,1.7-0.8,2.4-1.3c0.7-0.5,1.2-1.2,1.6-1.9c0.4-0.7,0.6-1.5,0.6-2.3V22.9z"/>
		<path id="XMLID_877_" d="M-2998.1,33.3V10.8h5.1v5h0.2c0.5-1.9,1.3-3.3,2.2-4.1c0.9-0.9,2.1-1.3,3.6-1.3c0.8,0,1.6,0.2,2.6,0.5v5
			c-0.6-0.1-1.1-0.3-1.7-0.4c-0.6-0.1-1.1-0.2-1.7-0.2c-1,0-1.8,0.2-2.4,0.6c-0.7,0.4-1.2,0.9-1.6,1.5c-0.4,0.6-0.7,1.3-0.9,2.1
			c-0.2,0.8-0.3,1.6-0.3,2.5v11.4H-2998.1z"/>
		<path id="XMLID_879_" d="M-2975.4,33.3h-5.1V1.8h5.1v17.7l9.5-8.6h6.4l-9.6,8.9l10,13.6h-6.2l-7.7-10.7l-2.4,2.3V33.3z"/>
	</g>
</g>
</svg>
