<?xml version="1.0" encoding="utf-8"?>
<!-- Generator: Adobe Illustrator 19.0.0, SVG Export Plug-In . SVG Version: 6.00 Build 0)  -->
<svg version="1.1" id="Layer_1" xmlns="http://www.w3.org/2000/svg" xmlns:xlink="http://www.w3.org/1999/xlink" x="0px" y="0px"
	 viewBox="0 0 247.5 47.1" style="enable-background:new 0 0 247.5 47.1;" xml:space="preserve">
<style type="text/css">
	.st0{display:none;fill:#FFFFFF;}
	.st1{display:none;fill:url(#XMLID_790_);}
	.st2{display:none;}
	.st3{display:inline;fill:#FFFFFF;}
	.st4{display:inline;fill:url(#XMLID_818_);}
	.st5{display:inline;}
	.st6{fill:#FFFFFF;}
	.st7{display:inline;fill:url(#XMLID_819_);}
</style>
<path id="XMLID_100_" class="st0" d="M3408.5,2.4l-19.3-11.2c-3.4-1.9-7.5-1.9-10.9,0L3359,2.4c-3.4,1.9-5.4,5.5-5.4,9.4v22.3
	c0,3.9,2.1,7.5,5.4,9.4l19.3,11.2c3.4,1.9,7.5,1.9,10.9,0l19.3-11.2c3.4-1.9,5.4-5.5,5.4-9.4V11.8C3414,8,3411.9,4.4,3408.5,2.4z
	 M3370.9,27.1c0,1-0.8,1.8-1.8,1.8s-1.8-0.8-1.8-1.8v-8.1c0-1,0.8-1.8,1.8-1.8s1.8,0.8,1.8,1.8V27.1z M3378.2,32.5
	c0,1-0.8,1.8-1.8,1.8s-1.8-0.8-1.8-1.8V13.5c0-1,0.8-1.8,1.8-1.8s1.8,0.8,1.8,1.8V32.5z M3385.6,38.3c0,1-0.8,1.8-1.8,1.8
	s-1.8-0.8-1.8-1.8V7.7c0-1,0.8-1.8,1.8-1.8s1.8,0.8,1.8,1.8V38.3z M3392.9,32.5c0,1-0.8,1.8-1.8,1.8c-1,0-1.8-0.8-1.8-1.8V13.5
	c0-1,0.8-1.8,1.8-1.8c1,0,1.8,0.8,1.8,1.8V32.5z M3400.2,27.1c0,1-0.8,1.8-1.8,1.8s-1.8-0.8-1.8-1.8v-8.1c0-1,0.8-1.8,1.8-1.8
	s1.8,0.8,1.8,1.8V27.1z"/>
<linearGradient id="XMLID_790_" gradientUnits="userSpaceOnUse" x1="2355.7671" y1="56.1835" x2="2355.7671" y2="-10.1835">
	<stop  offset="0" style="stop-color:#0000FF"/>
	<stop  offset="1" style="stop-color:#0370E6"/>
</linearGradient>
<path id="XMLID_101_" class="st1" d="M2380.5,2.4l-19.3-11.2c-3.4-1.9-7.5-1.9-10.9,0L2331,2.4c-3.4,1.9-5.4,5.5-5.4,9.4v22.3
	c0,3.9,2.1,7.5,5.4,9.4l19.3,11.2c3.4,1.9,7.5,1.9,10.9,0l19.3-11.2c3.4-1.9,5.4-5.5,5.4-9.4V11.8C2386,8,2383.9,4.4,2380.5,2.4z
	 M2342.9,27.1c0,1-0.8,1.8-1.8,1.8s-1.8-0.8-1.8-1.8v-8.1c0-1,0.8-1.8,1.8-1.8s1.8,0.8,1.8,1.8V27.1z M2350.2,32.5
	c0,1-0.8,1.8-1.8,1.8s-1.8-0.8-1.8-1.8V13.5c0-1,0.8-1.8,1.8-1.8s1.8,0.8,1.8,1.8V32.5z M2357.6,38.3c0,1-0.8,1.8-1.8,1.8
	s-1.8-0.8-1.8-1.8V7.7c0-1,0.8-1.8,1.8-1.8s1.8,0.8,1.8,1.8V38.3z M2364.9,32.5c0,1-0.8,1.8-1.8,1.8c-1,0-1.8-0.8-1.8-1.8V13.5
	c0-1,0.8-1.8,1.8-1.8c1,0,1.8,0.8,1.8,1.8V32.5z M2372.2,27.1c0,1-0.8,1.8-1.8,1.8s-1.8-0.8-1.8-1.8v-8.1c0-1,0.8-1.8,1.8-1.8
	s1.8,0.8,1.8,1.8V27.1z"/>
<g id="XMLID_818_" class="st2">
	<path id="XMLID_819_" class="st3" d="M1032.9,36.3h-6l-2.3-6.2h-14.3l-2.2,6.2h-5.6L1014,4.8h6.5L1032.9,36.3z M1011.7,26h11.4
		l-5.6-15.4h-0.4L1011.7,26z"/>
	<path id="XMLID_822_" class="st3" d="M1045.7,33.7c0.9,0,1.8-0.2,2.6-0.5s1.6-0.7,2.2-1.3c0.6-0.5,1.1-1.2,1.5-2
		c0.4-0.8,0.5-1.6,0.5-2.6V13.8h5v22.5h-5v-5h-0.4c-0.5,1.7-1.5,3.1-2.8,4c-1.4,0.9-3.1,1.4-5.2,1.4c-1.2,0-2.3-0.2-3.4-0.5
		c-1.1-0.3-2-0.8-2.8-1.6c-0.8-0.7-1.5-1.7-1.9-2.9c-0.5-1.2-0.7-2.7-0.7-4.5V13.8h5v13.5c0,2.3,0.5,3.9,1.4,4.9
		C1042.6,33.2,1044,33.7,1045.7,33.7z"/>
	<path id="XMLID_824_" class="st3" d="M1086,36.3h-5v-5.4h-0.2c-0.6,1.9-1.7,3.3-3.3,4.3c-1.6,1-3.5,1.5-5.6,1.5
		c-1.2,0-2.4-0.2-3.6-0.5c-1.2-0.3-2.3-0.9-3.2-1.8c-1-0.9-1.7-2.1-2.3-3.6c-0.6-1.5-0.9-3.5-0.9-5.8c0-2.4,0.3-4.3,0.9-5.8
		c0.6-1.5,1.4-2.7,2.3-3.6c1-0.9,2-1.5,3.2-1.8c1.2-0.3,2.4-0.5,3.6-0.5c2.1,0,4,0.5,5.6,1.5c1.6,1,2.7,2.5,3.3,4.3h0.2V4.8h5V36.3z
		 M1073.9,33.1c1.1,0,2.1-0.2,2.9-0.5c0.9-0.4,1.6-0.8,2.3-1.4c0.6-0.6,1.1-1.2,1.4-2c0.3-0.7,0.5-1.5,0.5-2.3V23
		c0-0.7-0.2-1.5-0.5-2.2c-0.3-0.7-0.8-1.3-1.4-1.9c-0.6-0.6-1.4-1-2.3-1.3c-0.9-0.3-1.9-0.5-2.9-0.5c-1,0-1.9,0.1-2.7,0.4
		c-0.8,0.2-1.6,0.7-2.2,1.3c-0.6,0.6-1.1,1.4-1.5,2.4c-0.4,1-0.5,2.3-0.5,3.9c0,1.6,0.2,2.9,0.5,3.9c0.4,1,0.9,1.8,1.5,2.4
		c0.6,0.6,1.4,1,2.2,1.3C1072.1,32.9,1073,33.1,1073.9,33.1z"/>
	<path id="XMLID_827_" class="st3" d="M1097.2,9.5h-5.6V4.8h5.6V9.5z M1096.9,13.8v22.5h-5.1V13.8H1096.9z"/>
	<path id="XMLID_830_" class="st3" d="M1101.7,25.1c0-1.9,0.3-3.5,0.9-5c0.6-1.5,1.4-2.7,2.5-3.7c1-1,2.3-1.7,3.7-2.3
		c1.4-0.5,2.9-0.8,4.4-0.8c1.6,0,3,0.2,4.4,0.7c1.4,0.5,2.6,1.2,3.7,2.2c1.1,1,1.9,2.2,2.5,3.6c0.6,1.5,0.9,3.2,0.9,5.1
		c0,1.9-0.3,3.5-0.9,5c-0.6,1.5-1.5,2.7-2.5,3.7c-1.1,1-2.3,1.7-3.7,2.3c-1.4,0.5-2.9,0.8-4.4,0.8c-1.6,0-3-0.3-4.4-0.8
		c-1.4-0.5-2.6-1.3-3.7-2.3c-1-1-1.9-2.2-2.5-3.7C1102,28.7,1101.7,27,1101.7,25.1z M1106.2,25.1c0,1.3,0.2,2.4,0.6,3.3
		c0.4,0.9,0.9,1.7,1.5,2.4c0.6,0.6,1.4,1.1,2.3,1.4c0.9,0.3,1.7,0.5,2.7,0.5c1,0,1.9-0.2,2.7-0.5c0.9-0.3,1.6-0.8,2.2-1.4
		c0.6-0.6,1.1-1.4,1.5-2.4c0.4-0.9,0.5-2,0.5-3.3c0-1.3-0.2-2.4-0.5-3.3c-0.4-0.9-0.9-1.7-1.5-2.4c-0.6-0.6-1.4-1.1-2.2-1.4
		c-0.9-0.3-1.8-0.5-2.7-0.5c-0.9,0-1.8,0.2-2.7,0.5c-0.9,0.3-1.6,0.8-2.3,1.4c-0.6,0.6-1.2,1.4-1.5,2.4
		C1106.4,22.8,1106.2,23.9,1106.2,25.1z"/>
	<path id="XMLID_833_" class="st3" d="M1142.3,20.7c0-1.5-0.5-2.6-1.5-3.3c-1-0.7-2.3-1-3.8-1c-1.3,0-2.3,0.3-3.1,0.8
		c-0.8,0.5-1.3,1.3-1.3,2.3c0,0.6,0.1,1,0.4,1.4c0.3,0.4,0.7,0.7,1.2,0.9c0.5,0.3,1.1,0.5,1.8,0.7s1.4,0.4,2.1,0.6
		c1.2,0.4,2.3,0.7,3.3,1c1,0.3,1.9,0.7,2.7,1.2c0.8,0.5,1.4,1.1,1.8,1.8c0.4,0.8,0.7,1.7,0.7,2.9c0,1.2-0.2,2.3-0.7,3.1
		c-0.5,0.8-1.2,1.5-2,2c-0.9,0.5-1.9,0.9-3.1,1.1c-1.2,0.2-2.5,0.3-3.9,0.3c-1.4,0-2.6-0.2-3.8-0.5c-1.1-0.3-2.1-0.8-2.9-1.5
		c-0.8-0.7-1.4-1.5-1.9-2.6s-0.7-2.3-0.7-3.7h4.1c0,1.6,0.5,2.8,1.4,3.6c0.9,0.8,2.2,1.1,3.8,1.1c1.6,0,2.8-0.2,3.6-0.7
		c0.8-0.5,1.3-1.3,1.3-2.4c0-0.6-0.2-1.1-0.5-1.5c-0.3-0.4-0.8-0.8-1.5-1s-1.4-0.5-2.2-0.8c-0.8-0.2-1.7-0.5-2.7-0.7
		c-1-0.3-1.9-0.6-2.7-0.9c-0.9-0.3-1.6-0.7-2.3-1.1c-0.6-0.5-1.2-1-1.5-1.7c-0.4-0.7-0.6-1.5-0.6-2.6c0-2.3,0.8-3.9,2.3-5
		c1.6-1.1,3.7-1.6,6.4-1.6c3.3,0,5.7,0.7,7.2,2c1.4,1.4,2.2,3.2,2.2,5.5H1142.3z"/>
	<path id="XMLID_835_" class="st3" d="M1151,13.8h5.1v5.4h0.2c0.6-1.9,1.7-3.3,3.3-4.3c1.6-1,3.5-1.5,5.6-1.5c1.2,0,2.4,0.2,3.6,0.5
		c1.2,0.3,2.3,0.9,3.2,1.8s1.7,2.1,2.3,3.6c0.6,1.5,0.9,3.5,0.9,5.8c0,2.4-0.3,4.3-0.9,5.8c-0.6,1.5-1.4,2.7-2.3,3.6s-2,1.5-3.2,1.8
		c-1.2,0.3-2.4,0.5-3.6,0.5c-2.1,0-4-0.5-5.6-1.5c-1.6-1-2.7-2.5-3.3-4.3h-0.2v14.4h-5.1V13.8z M1156.1,27.2c0,0.8,0.2,1.5,0.5,2.2
		s0.8,1.3,1.4,1.9c0.6,0.6,1.3,1,2.2,1.3c0.9,0.3,1.8,0.5,2.9,0.5c1,0,1.9-0.1,2.7-0.4c0.8-0.2,1.6-0.7,2.2-1.3
		c0.6-0.6,1.1-1.4,1.5-2.4c0.4-1,0.5-2.3,0.5-3.9c0-1.6-0.2-2.9-0.5-3.9c-0.4-1-0.9-1.8-1.5-2.4c-0.6-0.6-1.4-1-2.2-1.3
		c-0.8-0.2-1.7-0.4-2.7-0.4c-1.1,0-2.1,0.2-2.9,0.5c-0.9,0.4-1.6,0.8-2.2,1.4c-0.6,0.6-1.1,1.2-1.4,2c-0.3,0.7-0.5,1.5-0.5,2.3V27.2
		z"/>
	<path id="XMLID_838_" class="st3" d="M1189.4,17.2c-1.8,0-3.2,0.3-4,1c-0.9,0.7-1.3,1.6-1.3,2.9h-4.7c0-2.8,0.8-4.7,2.5-5.9
		c1.6-1.2,4.1-1.8,7.4-1.8c1.7,0,3.2,0.1,4.6,0.4c1.3,0.3,2.5,0.8,3.4,1.5c0.9,0.7,1.7,1.7,2.2,2.8c0.5,1.2,0.8,2.7,0.8,4.5v13.7
		h-4.8v-5h-0.2c-0.6,1.9-1.6,3.3-3,4.1c-1.4,0.9-3.2,1.3-5.3,1.3c-1.2,0-2.3-0.2-3.4-0.5c-1-0.3-1.9-0.8-2.7-1.4
		c-0.8-0.6-1.4-1.4-1.8-2.3c-0.4-0.9-0.7-1.9-0.7-3.1c0-2.2,0.8-3.8,2.3-5c1.5-1.2,3.7-1.8,6.4-1.8h8.3v-0.7c0-1.8-0.5-3.1-1.5-3.9
		C1192.9,17.5,1191.4,17.2,1189.4,17.2z M1195.3,25.9h-7.3c-1.7,0-3,0.3-3.7,1c-0.7,0.6-1.1,1.5-1.1,2.7c0,1.2,0.4,2.1,1.2,2.8
		c0.8,0.7,2,1.1,3.5,1.1c1.1,0,2.1-0.2,3-0.5c0.9-0.3,1.7-0.8,2.4-1.3c0.7-0.5,1.2-1.2,1.6-1.9c0.4-0.7,0.6-1.5,0.6-2.3V25.9z"/>
	<path id="XMLID_841_" class="st3" d="M1205.5,36.3V13.8h5.1v5h0.2c0.5-1.9,1.3-3.3,2.2-4.1c0.9-0.9,2.1-1.3,3.6-1.3
		c0.8,0,1.6,0.2,2.6,0.5v5c-0.6-0.1-1.1-0.3-1.7-0.4c-0.6-0.1-1.1-0.2-1.7-0.2c-1,0-1.8,0.2-2.4,0.6c-0.7,0.4-1.2,0.9-1.6,1.5
		c-0.4,0.6-0.7,1.3-0.9,2.1c-0.2,0.8-0.3,1.6-0.3,2.5v11.4H1205.5z"/>
	<path id="XMLID_843_" class="st3" d="M1228.1,36.3h-5.1V4.8h5.1v17.7l9.5-8.6h6.4l-9.6,8.9l10,13.6h-6.2l-7.7-10.7l-2.4,2.3V36.3z"
		/>
</g>
<g id="XMLID_60_" class="st2">
	<path id="XMLID_686_" class="st3" d="M1032.9,36.3h-6l-2.3-6.2h-14.3l-2.2,6.2h-5.6L1014,4.8h6.5L1032.9,36.3z M1011.7,26h11.4
		l-5.6-15.4h-0.4L1011.7,26z"/>
	<path id="XMLID_689_" class="st3" d="M1045.7,33.7c0.9,0,1.8-0.2,2.6-0.5s1.6-0.7,2.2-1.3c0.6-0.5,1.1-1.2,1.5-2
		c0.4-0.8,0.5-1.6,0.5-2.6V13.8h5v22.5h-5v-5h-0.4c-0.5,1.7-1.5,3.1-2.8,4c-1.4,0.9-3.1,1.4-5.2,1.4c-1.2,0-2.3-0.2-3.4-0.5
		c-1.1-0.3-2-0.8-2.8-1.6c-0.8-0.7-1.5-1.7-1.9-2.9c-0.5-1.2-0.7-2.7-0.7-4.5V13.8h5v13.5c0,2.3,0.5,3.9,1.4,4.9
		C1042.6,33.2,1044,33.7,1045.7,33.7z"/>
	<path id="XMLID_691_" class="st3" d="M1086,36.3h-5v-5.4h-0.2c-0.6,1.9-1.7,3.3-3.3,4.3c-1.6,1-3.5,1.5-5.6,1.5
		c-1.2,0-2.4-0.2-3.6-0.5c-1.2-0.3-2.3-0.9-3.2-1.8c-1-0.9-1.7-2.1-2.3-3.6c-0.6-1.5-0.9-3.5-0.9-5.8c0-2.4,0.3-4.3,0.9-5.8
		c0.6-1.5,1.4-2.7,2.3-3.6c1-0.9,2-1.5,3.2-1.8c1.2-0.3,2.4-0.5,3.6-0.5c2.1,0,4,0.5,5.6,1.5c1.6,1,2.7,2.5,3.3,4.3h0.2V4.8h5V36.3z
		 M1073.9,33.1c1.1,0,2.1-0.2,2.9-0.5c0.9-0.4,1.6-0.8,2.3-1.4c0.6-0.6,1.1-1.2,1.4-2c0.3-0.7,0.5-1.5,0.5-2.3V23
		c0-0.7-0.2-1.5-0.5-2.2c-0.3-0.7-0.8-1.3-1.4-1.9c-0.6-0.6-1.4-1-2.3-1.3c-0.9-0.3-1.9-0.5-2.9-0.5c-1,0-1.9,0.1-2.7,0.4
		c-0.8,0.2-1.6,0.7-2.2,1.3c-0.6,0.6-1.1,1.4-1.5,2.4c-0.4,1-0.5,2.3-0.5,3.9c0,1.6,0.2,2.9,0.5,3.9c0.4,1,0.9,1.8,1.5,2.4
		c0.6,0.6,1.4,1,2.2,1.3C1072.1,32.9,1073,33.1,1073.9,33.1z"/>
	<path id="XMLID_694_" class="st3" d="M1097.2,9.5h-5.6V4.8h5.6V9.5z M1096.9,13.8v22.5h-5.1V13.8H1096.9z"/>
	<path id="XMLID_697_" class="st3" d="M1101.7,25.1c0-1.9,0.3-3.5,0.9-5c0.6-1.5,1.4-2.7,2.5-3.7c1-1,2.3-1.7,3.7-2.3
		c1.4-0.5,2.9-0.8,4.4-0.8c1.6,0,3,0.2,4.4,0.7c1.4,0.5,2.6,1.2,3.7,2.2c1.1,1,1.9,2.2,2.5,3.6c0.6,1.5,0.9,3.2,0.9,5.1
		c0,1.9-0.3,3.5-0.9,5c-0.6,1.5-1.5,2.7-2.5,3.7c-1.1,1-2.3,1.7-3.7,2.3c-1.4,0.5-2.9,0.8-4.4,0.8c-1.6,0-3-0.3-4.4-0.8
		c-1.4-0.5-2.6-1.3-3.7-2.3c-1-1-1.9-2.2-2.5-3.7C1102,28.7,1101.7,27,1101.7,25.1z M1106.2,25.1c0,1.3,0.2,2.4,0.6,3.3
		c0.4,0.9,0.9,1.7,1.5,2.4c0.6,0.6,1.4,1.1,2.3,1.4c0.9,0.3,1.7,0.5,2.7,0.5c1,0,1.9-0.2,2.7-0.5c0.9-0.3,1.6-0.8,2.2-1.4
		c0.6-0.6,1.1-1.4,1.5-2.4c0.4-0.9,0.5-2,0.5-3.3c0-1.3-0.2-2.4-0.5-3.3c-0.4-0.9-0.9-1.7-1.5-2.4c-0.6-0.6-1.4-1.1-2.2-1.4
		c-0.9-0.3-1.8-0.5-2.7-0.5c-0.9,0-1.8,0.2-2.7,0.5c-0.9,0.3-1.6,0.8-2.3,1.4c-0.6,0.6-1.2,1.4-1.5,2.4
		C1106.4,22.8,1106.2,23.9,1106.2,25.1z"/>
	<path id="XMLID_700_" class="st3" d="M1142.3,20.7c0-1.5-0.5-2.6-1.5-3.3c-1-0.7-2.3-1-3.8-1c-1.3,0-2.3,0.3-3.1,0.8
		c-0.8,0.5-1.3,1.3-1.3,2.3c0,0.6,0.1,1,0.4,1.4c0.3,0.4,0.7,0.7,1.2,0.9c0.5,0.3,1.1,0.5,1.8,0.7s1.4,0.4,2.1,0.6
		c1.2,0.4,2.3,0.7,3.3,1c1,0.3,1.9,0.7,2.7,1.2c0.8,0.5,1.4,1.1,1.8,1.8c0.4,0.8,0.7,1.7,0.7,2.9c0,1.2-0.2,2.3-0.7,3.1
		c-0.5,0.8-1.2,1.5-2,2c-0.9,0.5-1.9,0.9-3.1,1.1c-1.2,0.2-2.5,0.3-3.9,0.3c-1.4,0-2.6-0.2-3.8-0.5c-1.1-0.3-2.1-0.8-2.9-1.5
		c-0.8-0.7-1.4-1.5-1.9-2.6s-0.7-2.3-0.7-3.7h4.1c0,1.6,0.5,2.8,1.4,3.6c0.9,0.8,2.2,1.1,3.8,1.1c1.6,0,2.8-0.2,3.6-0.7
		c0.8-0.5,1.3-1.3,1.3-2.4c0-0.6-0.2-1.1-0.5-1.5c-0.3-0.4-0.8-0.8-1.5-1s-1.4-0.5-2.2-0.8c-0.8-0.2-1.7-0.5-2.7-0.7
		c-1-0.3-1.9-0.6-2.7-0.9c-0.9-0.3-1.6-0.7-2.3-1.1c-0.6-0.5-1.2-1-1.5-1.7c-0.4-0.7-0.6-1.5-0.6-2.6c0-2.3,0.8-3.9,2.3-5
		c1.6-1.1,3.7-1.6,6.4-1.6c3.3,0,5.7,0.7,7.2,2c1.4,1.4,2.2,3.2,2.2,5.5H1142.3z"/>
	<path id="XMLID_702_" class="st3" d="M1151,13.8h5.1v5.4h0.2c0.6-1.9,1.7-3.3,3.3-4.3c1.6-1,3.5-1.5,5.6-1.5c1.2,0,2.4,0.2,3.6,0.5
		c1.2,0.3,2.3,0.9,3.2,1.8s1.7,2.1,2.3,3.6c0.6,1.5,0.9,3.5,0.9,5.8c0,2.4-0.3,4.3-0.9,5.8c-0.6,1.5-1.4,2.7-2.3,3.6s-2,1.5-3.2,1.8
		c-1.2,0.3-2.4,0.5-3.6,0.5c-2.1,0-4-0.5-5.6-1.5c-1.6-1-2.7-2.5-3.3-4.3h-0.2v14.4h-5.1V13.8z M1156.1,27.2c0,0.8,0.2,1.5,0.5,2.2
		s0.8,1.3,1.4,1.9c0.6,0.6,1.3,1,2.2,1.3c0.9,0.3,1.8,0.5,2.9,0.5c1,0,1.9-0.1,2.7-0.4c0.8-0.2,1.6-0.7,2.2-1.3
		c0.6-0.6,1.1-1.4,1.5-2.4c0.4-1,0.5-2.3,0.5-3.9c0-1.6-0.2-2.9-0.5-3.9c-0.4-1-0.9-1.8-1.5-2.4c-0.6-0.6-1.4-1-2.2-1.3
		c-0.8-0.2-1.7-0.4-2.7-0.4c-1.1,0-2.1,0.2-2.9,0.5c-0.9,0.4-1.6,0.8-2.2,1.4c-0.6,0.6-1.1,1.2-1.4,2c-0.3,0.7-0.5,1.5-0.5,2.3V27.2
		z"/>
	<path id="XMLID_705_" class="st3" d="M1189.4,17.2c-1.8,0-3.2,0.3-4,1c-0.9,0.7-1.3,1.6-1.3,2.9h-4.7c0-2.8,0.8-4.7,2.5-5.9
		c1.6-1.2,4.1-1.8,7.4-1.8c1.7,0,3.2,0.1,4.6,0.4c1.3,0.3,2.5,0.8,3.4,1.5c0.9,0.7,1.7,1.7,2.2,2.8c0.5,1.2,0.8,2.7,0.8,4.5v13.7
		h-4.8v-5h-0.2c-0.6,1.9-1.6,3.3-3,4.1c-1.4,0.9-3.2,1.3-5.3,1.3c-1.2,0-2.3-0.2-3.4-0.5c-1-0.3-1.9-0.8-2.7-1.4
		c-0.8-0.6-1.4-1.4-1.8-2.3c-0.4-0.9-0.7-1.9-0.7-3.1c0-2.2,0.8-3.8,2.3-5c1.5-1.2,3.7-1.8,6.4-1.8h8.3v-0.7c0-1.8-0.5-3.1-1.5-3.9
		C1192.9,17.5,1191.4,17.2,1189.4,17.2z M1195.3,25.9h-7.3c-1.7,0-3,0.3-3.7,1c-0.7,0.6-1.1,1.5-1.1,2.7c0,1.2,0.4,2.1,1.2,2.8
		c0.8,0.7,2,1.1,3.5,1.1c1.1,0,2.1-0.2,3-0.5c0.9-0.3,1.7-0.8,2.4-1.3c0.7-0.5,1.2-1.2,1.6-1.9c0.4-0.7,0.6-1.5,0.6-2.3V25.9z"/>
	<path id="XMLID_708_" class="st3" d="M1205.5,36.3V13.8h5.1v5h0.2c0.5-1.9,1.3-3.3,2.2-4.1c0.9-0.9,2.1-1.3,3.6-1.3
		c0.8,0,1.6,0.2,2.6,0.5v5c-0.6-0.1-1.1-0.3-1.7-0.4c-0.6-0.1-1.1-0.2-1.7-0.2c-1,0-1.8,0.2-2.4,0.6c-0.7,0.4-1.2,0.9-1.6,1.5
		c-0.4,0.6-0.7,1.3-0.9,2.1c-0.2,0.8-0.3,1.6-0.3,2.5v11.4H1205.5z"/>
	<path id="XMLID_710_" class="st3" d="M1228.1,36.3h-5.1V4.8h5.1v17.7l9.5-8.6h6.4l-9.6,8.9l10,13.6h-6.2l-7.7-10.7l-2.4,2.3V36.3z"
		/>
</g>
<g id="XMLID_845_">
	<path id="XMLID_846_" d="M33.1,35.3h-6l-2.3-6.2H10.5l-2.2,6.2H2.7L14.2,3.8h6.5L33.1,35.3z M11.9,25h11.4L17.7,9.6h-0.4L11.9,25z"
		/>
	<path id="XMLID_849_" d="M45.9,32.7c0.9,0,1.8-0.2,2.6-0.5s1.6-0.7,2.2-1.3c0.6-0.5,1.1-1.2,1.5-2c0.4-0.8,0.5-1.6,0.5-2.6V12.8h5
		v22.5h-5v-5h-0.4c-0.5,1.7-1.5,3.1-2.8,4c-1.4,0.9-3.1,1.4-5.2,1.4c-1.2,0-2.3-0.2-3.4-0.5c-1.1-0.3-2-0.8-2.8-1.6
		c-0.8-0.7-1.5-1.7-1.9-2.9c-0.5-1.2-0.7-2.7-0.7-4.5V12.8h5v13.5c0,2.3,0.5,3.9,1.4,4.9C42.8,32.2,44.2,32.7,45.9,32.7z"/>
	<path id="XMLID_851_" d="M86.2,35.3h-5v-5.4H81c-0.6,1.9-1.7,3.3-3.3,4.3c-1.6,1-3.5,1.5-5.6,1.5c-1.2,0-2.4-0.2-3.6-0.5
		c-1.2-0.3-2.3-0.9-3.2-1.8c-1-0.9-1.7-2.1-2.3-3.6c-0.6-1.5-0.9-3.5-0.9-5.8c0-2.4,0.3-4.3,0.9-5.8c0.6-1.5,1.4-2.7,2.3-3.6
		c1-0.9,2-1.5,3.2-1.8c1.2-0.3,2.4-0.5,3.6-0.5c2.1,0,4,0.5,5.6,1.5c1.6,1,2.7,2.5,3.3,4.3h0.2V3.8h5V35.3z M74.1,32.1
		c1.1,0,2.1-0.2,2.9-0.5c0.9-0.4,1.6-0.8,2.3-1.4c0.6-0.6,1.1-1.2,1.4-2c0.3-0.7,0.5-1.5,0.5-2.3V22c0-0.7-0.2-1.5-0.5-2.2
		c-0.3-0.7-0.8-1.3-1.4-1.9c-0.6-0.6-1.4-1-2.3-1.3c-0.9-0.3-1.9-0.5-2.9-0.5c-1,0-1.9,0.1-2.7,0.4c-0.8,0.2-1.6,0.7-2.2,1.3
		c-0.6,0.6-1.1,1.4-1.5,2.4c-0.4,1-0.5,2.3-0.5,3.9c0,1.6,0.2,2.9,0.5,3.9c0.4,1,0.9,1.8,1.5,2.4c0.6,0.6,1.4,1,2.2,1.3
		C72.3,31.9,73.2,32.1,74.1,32.1z"/>
	<path id="XMLID_854_" d="M97.4,8.5h-5.6V3.8h5.6V8.5z M97.1,12.8v22.5h-5.1V12.8H97.1z"/>
	<path id="XMLID_857_" d="M101.9,24.1c0-1.9,0.3-3.5,0.9-5c0.6-1.5,1.4-2.7,2.5-3.7c1-1,2.3-1.7,3.7-2.3c1.4-0.5,2.9-0.8,4.4-0.8
		c1.6,0,3,0.2,4.4,0.7c1.4,0.5,2.6,1.2,3.7,2.2c1.1,1,1.9,2.2,2.5,3.6c0.6,1.5,0.9,3.2,0.9,5.1c0,1.9-0.3,3.5-0.9,5
		c-0.6,1.5-1.5,2.7-2.5,3.7c-1.1,1-2.3,1.7-3.7,2.3c-1.4,0.5-2.9,0.8-4.4,0.8c-1.6,0-3-0.3-4.4-0.8c-1.4-0.5-2.6-1.3-3.7-2.3
		c-1-1-1.9-2.2-2.5-3.7C102.2,27.7,101.9,26,101.9,24.1z M106.4,24.1c0,1.3,0.2,2.4,0.6,3.3c0.4,0.9,0.9,1.7,1.5,2.4
		c0.6,0.6,1.4,1.1,2.3,1.4c0.9,0.3,1.7,0.5,2.7,0.5c1,0,1.9-0.2,2.7-0.5c0.9-0.3,1.6-0.8,2.2-1.4c0.6-0.6,1.1-1.4,1.5-2.4
		c0.4-0.9,0.5-2,0.5-3.3c0-1.3-0.2-2.4-0.5-3.3c-0.4-0.9-0.9-1.7-1.5-2.4c-0.6-0.6-1.4-1.1-2.2-1.4c-0.9-0.3-1.8-0.5-2.7-0.5
		c-0.9,0-1.8,0.2-2.7,0.5c-0.9,0.3-1.6,0.8-2.3,1.4c-0.6,0.6-1.2,1.4-1.5,2.4C106.6,21.8,106.4,22.9,106.4,24.1z"/>
	<path id="XMLID_860_" d="M142.5,19.7c0-1.5-0.5-2.6-1.5-3.3c-1-0.7-2.3-1-3.8-1c-1.3,0-2.3,0.3-3.1,0.8c-0.8,0.5-1.3,1.3-1.3,2.3
		c0,0.6,0.1,1,0.4,1.4c0.3,0.4,0.7,0.7,1.2,0.9c0.5,0.3,1.1,0.5,1.8,0.7s1.4,0.4,2.1,0.6c1.2,0.4,2.3,0.7,3.3,1
		c1,0.3,1.9,0.7,2.7,1.2c0.8,0.5,1.4,1.1,1.8,1.8c0.4,0.8,0.7,1.7,0.7,2.9c0,1.2-0.2,2.3-0.7,3.1c-0.5,0.8-1.2,1.5-2,2
		c-0.9,0.5-1.9,0.9-3.1,1.1c-1.2,0.2-2.5,0.3-3.9,0.3c-1.4,0-2.6-0.2-3.8-0.5c-1.1-0.3-2.1-0.8-2.9-1.5c-0.8-0.7-1.4-1.5-1.9-2.6
		S128,29,128,27.6h4.1c0,1.6,0.5,2.8,1.4,3.6c0.9,0.8,2.2,1.1,3.8,1.1c1.6,0,2.8-0.2,3.6-0.7c0.8-0.5,1.3-1.3,1.3-2.4
		c0-0.6-0.2-1.1-0.5-1.5c-0.3-0.4-0.8-0.8-1.5-1s-1.4-0.5-2.2-0.8c-0.8-0.2-1.7-0.5-2.7-0.7c-1-0.3-1.9-0.6-2.7-0.9
		c-0.9-0.3-1.6-0.7-2.3-1.1c-0.6-0.5-1.2-1-1.5-1.7c-0.4-0.7-0.6-1.5-0.6-2.6c0-2.3,0.8-3.9,2.3-5c1.6-1.1,3.7-1.6,6.4-1.6
		c3.3,0,5.7,0.7,7.2,2c1.4,1.4,2.2,3.2,2.2,5.5H142.5z"/>
	<path id="XMLID_862_" d="M151.2,12.8h5.1v5.4h0.2c0.6-1.9,1.7-3.3,3.3-4.3c1.6-1,3.5-1.5,5.6-1.5c1.2,0,2.4,0.2,3.6,0.5
		c1.2,0.3,2.3,0.9,3.2,1.8s1.7,2.1,2.3,3.6c0.6,1.5,0.9,3.5,0.9,5.8c0,2.4-0.3,4.3-0.9,5.8c-0.6,1.5-1.4,2.7-2.3,3.6s-2,1.5-3.2,1.8
		c-1.2,0.3-2.4,0.5-3.6,0.5c-2.1,0-4-0.5-5.6-1.5c-1.6-1-2.7-2.5-3.3-4.3h-0.2v14.4h-5.1V12.8z M156.3,26.2c0,0.8,0.2,1.5,0.5,2.2
		s0.8,1.3,1.4,1.9c0.6,0.6,1.3,1,2.2,1.3c0.9,0.3,1.8,0.5,2.9,0.5c1,0,1.9-0.1,2.7-0.4c0.8-0.2,1.6-0.7,2.2-1.3
		c0.6-0.6,1.1-1.4,1.5-2.4c0.4-1,0.5-2.3,0.5-3.9c0-1.6-0.2-2.9-0.5-3.9c-0.4-1-0.9-1.8-1.5-2.4c-0.6-0.6-1.4-1-2.2-1.3
		c-0.8-0.2-1.7-0.4-2.7-0.4c-1.1,0-2.1,0.2-2.9,0.5c-0.9,0.4-1.6,0.8-2.2,1.4c-0.6,0.6-1.1,1.2-1.4,2c-0.3,0.7-0.5,1.5-0.5,2.3V26.2
		z"/>
	<path id="XMLID_865_" d="M189.6,16.2c-1.8,0-3.2,0.3-4,1c-0.9,0.7-1.3,1.6-1.3,2.9h-4.7c0-2.8,0.8-4.7,2.5-5.9
		c1.6-1.2,4.1-1.8,7.4-1.8c1.7,0,3.2,0.1,4.6,0.4c1.3,0.3,2.5,0.8,3.4,1.5c0.9,0.7,1.7,1.7,2.2,2.8c0.5,1.2,0.8,2.7,0.8,4.5v13.7
		h-4.8v-5h-0.2c-0.6,1.9-1.6,3.3-3,4.1c-1.4,0.9-3.2,1.3-5.3,1.3c-1.2,0-2.3-0.2-3.4-0.5c-1-0.3-1.9-0.8-2.7-1.4
		c-0.8-0.6-1.4-1.4-1.8-2.3c-0.4-0.9-0.7-1.9-0.7-3.1c0-2.2,0.8-3.8,2.3-5c1.5-1.2,3.7-1.8,6.4-1.8h8.3v-0.7c0-1.8-0.5-3.1-1.5-3.9
		C193.1,16.5,191.6,16.2,189.6,16.2z M195.6,24.9h-7.3c-1.7,0-3,0.3-3.7,1c-0.7,0.6-1.1,1.5-1.1,2.7c0,1.2,0.4,2.1,1.2,2.8
		c0.8,0.7,2,1.1,3.5,1.1c1.1,0,2.1-0.2,3-0.5c0.9-0.3,1.7-0.8,2.4-1.3c0.7-0.5,1.2-1.2,1.6-1.9c0.4-0.7,0.6-1.5,0.6-2.3V24.9z"/>
	<path id="XMLID_868_" d="M205.7,35.3V12.8h5.1v5h0.2c0.5-1.9,1.3-3.3,2.2-4.1c0.9-0.9,2.1-1.3,3.6-1.3c0.8,0,1.6,0.2,2.6,0.5v5
		c-0.6-0.1-1.1-0.3-1.7-0.4c-0.6-0.1-1.1-0.2-1.7-0.2c-1,0-1.8,0.2-2.4,0.6c-0.7,0.4-1.2,0.9-1.6,1.5c-0.4,0.6-0.7,1.3-0.9,2.1
		c-0.2,0.8-0.3,1.6-0.3,2.5v11.4H205.7z"/>
	<path id="XMLID_870_" d="M228.3,35.3h-5.1V3.8h5.1v17.7l9.5-8.6h6.4l-9.6,8.9l10,13.6h-6.2l-7.7-10.7l-2.4,2.3V35.3z"/>
</g>
<g id="XMLID_791_">
	<path id="XMLID_792_" d="M33.1,35.3h-6l-2.3-6.2H10.5l-2.2,6.2H2.7L14.2,3.8h6.5L33.1,35.3z M11.9,25h11.4L17.7,9.6h-0.4L11.9,25z"
		/>
	<path id="XMLID_795_" d="M45.9,32.7c0.9,0,1.8-0.2,2.6-0.5s1.6-0.7,2.2-1.3c0.6-0.5,1.1-1.2,1.5-2c0.4-0.8,0.5-1.6,0.5-2.6V12.8h5
		v22.5h-5v-5h-0.4c-0.5,1.7-1.5,3.1-2.8,4c-1.4,0.9-3.1,1.4-5.2,1.4c-1.2,0-2.3-0.2-3.4-0.5c-1.1-0.3-2-0.8-2.8-1.6
		c-0.8-0.7-1.5-1.7-1.9-2.9c-0.5-1.2-0.7-2.7-0.7-4.5V12.8h5v13.5c0,2.3,0.5,3.9,1.4,4.9C42.8,32.2,44.2,32.7,45.9,32.7z"/>
	<path id="XMLID_797_" d="M86.2,35.3h-5v-5.4H81c-0.6,1.9-1.7,3.3-3.3,4.3c-1.6,1-3.5,1.5-5.6,1.5c-1.2,0-2.4-0.2-3.6-0.5
		c-1.2-0.3-2.3-0.9-3.2-1.8c-1-0.9-1.7-2.1-2.3-3.6c-0.6-1.5-0.9-3.5-0.9-5.8c0-2.4,0.3-4.3,0.9-5.8c0.6-1.5,1.4-2.7,2.3-3.6
		c1-0.9,2-1.5,3.2-1.8c1.2-0.3,2.4-0.5,3.6-0.5c2.1,0,4,0.5,5.6,1.5c1.6,1,2.7,2.5,3.3,4.3h0.2V3.8h5V35.3z M74.1,32.1
		c1.1,0,2.1-0.2,2.9-0.5c0.9-0.4,1.6-0.8,2.3-1.4c0.6-0.6,1.1-1.2,1.4-2c0.3-0.7,0.5-1.5,0.5-2.3V22c0-0.7-0.2-1.5-0.5-2.2
		c-0.3-0.7-0.8-1.3-1.4-1.9c-0.6-0.6-1.4-1-2.3-1.3c-0.9-0.3-1.9-0.5-2.9-0.5c-1,0-1.9,0.1-2.7,0.4c-0.8,0.2-1.6,0.7-2.2,1.3
		c-0.6,0.6-1.1,1.4-1.5,2.4c-0.4,1-0.5,2.3-0.5,3.9c0,1.6,0.2,2.9,0.5,3.9c0.4,1,0.9,1.8,1.5,2.4c0.6,0.6,1.4,1,2.2,1.3
		C72.3,31.9,73.2,32.1,74.1,32.1z"/>
	<path id="XMLID_800_" d="M97.4,8.5h-5.6V3.8h5.6V8.5z M97.1,12.8v22.5h-5.1V12.8H97.1z"/>
	<path id="XMLID_803_" d="M101.9,24.1c0-1.9,0.3-3.5,0.9-5c0.6-1.5,1.4-2.7,2.5-3.7c1-1,2.3-1.7,3.7-2.3c1.4-0.5,2.9-0.8,4.4-0.8
		c1.6,0,3,0.2,4.4,0.7c1.4,0.5,2.6,1.2,3.7,2.2c1.1,1,1.9,2.2,2.5,3.6c0.6,1.5,0.9,3.2,0.9,5.1c0,1.9-0.3,3.5-0.9,5
		c-0.6,1.5-1.5,2.7-2.5,3.7c-1.1,1-2.3,1.7-3.7,2.3c-1.4,0.5-2.9,0.8-4.4,0.8c-1.6,0-3-0.3-4.4-0.8c-1.4-0.5-2.6-1.3-3.7-2.3
		c-1-1-1.9-2.2-2.5-3.7C102.2,27.7,101.9,26,101.9,24.1z M106.4,24.1c0,1.3,0.2,2.4,0.6,3.3c0.4,0.9,0.9,1.7,1.5,2.4
		c0.6,0.6,1.4,1.1,2.3,1.4c0.9,0.3,1.7,0.5,2.7,0.5c1,0,1.9-0.2,2.7-0.5c0.9-0.3,1.6-0.8,2.2-1.4c0.6-0.6,1.1-1.4,1.5-2.4
		c0.4-0.9,0.5-2,0.5-3.3c0-1.3-0.2-2.4-0.5-3.3c-0.4-0.9-0.9-1.7-1.5-2.4c-0.6-0.6-1.4-1.1-2.2-1.4c-0.9-0.3-1.8-0.5-2.7-0.5
		c-0.9,0-1.8,0.2-2.7,0.5c-0.9,0.3-1.6,0.8-2.3,1.4c-0.6,0.6-1.2,1.4-1.5,2.4C106.6,21.8,106.4,22.9,106.4,24.1z"/>
	<path id="XMLID_806_" d="M142.5,19.7c0-1.5-0.5-2.6-1.5-3.3c-1-0.7-2.3-1-3.8-1c-1.3,0-2.3,0.3-3.1,0.8c-0.8,0.5-1.3,1.3-1.3,2.3
		c0,0.6,0.1,1,0.4,1.4c0.3,0.4,0.7,0.7,1.2,0.9c0.5,0.3,1.1,0.5,1.8,0.7s1.4,0.4,2.1,0.6c1.2,0.4,2.3,0.7,3.3,1
		c1,0.3,1.9,0.7,2.7,1.2c0.8,0.5,1.4,1.1,1.8,1.8c0.4,0.8,0.7,1.7,0.7,2.9c0,1.2-0.2,2.3-0.7,3.1c-0.5,0.8-1.2,1.5-2,2
		c-0.9,0.5-1.9,0.9-3.1,1.1c-1.2,0.2-2.5,0.3-3.9,0.3c-1.4,0-2.6-0.2-3.8-0.5c-1.1-0.3-2.1-0.8-2.9-1.5c-0.8-0.7-1.4-1.5-1.9-2.6
		S128,29,128,27.6h4.1c0,1.6,0.5,2.8,1.4,3.6c0.9,0.8,2.2,1.1,3.8,1.1c1.6,0,2.8-0.2,3.6-0.7c0.8-0.5,1.3-1.3,1.3-2.4
		c0-0.6-0.2-1.1-0.5-1.5c-0.3-0.4-0.8-0.8-1.5-1s-1.4-0.5-2.2-0.8c-0.8-0.2-1.7-0.5-2.7-0.7c-1-0.3-1.9-0.6-2.7-0.9
		c-0.9-0.3-1.6-0.7-2.3-1.1c-0.6-0.5-1.2-1-1.5-1.7c-0.4-0.7-0.6-1.5-0.6-2.6c0-2.3,0.8-3.9,2.3-5c1.6-1.1,3.7-1.6,6.4-1.6
		c3.3,0,5.7,0.7,7.2,2c1.4,1.4,2.2,3.2,2.2,5.5H142.5z"/>
	<path id="XMLID_808_" d="M151.2,12.8h5.1v5.4h0.2c0.6-1.9,1.7-3.3,3.3-4.3c1.6-1,3.5-1.5,5.6-1.5c1.2,0,2.4,0.2,3.6,0.5
		c1.2,0.3,2.3,0.9,3.2,1.8s1.7,2.1,2.3,3.6c0.6,1.5,0.9,3.5,0.9,5.8c0,2.4-0.3,4.3-0.9,5.8c-0.6,1.5-1.4,2.7-2.3,3.6s-2,1.5-3.2,1.8
		c-1.2,0.3-2.4,0.5-3.6,0.5c-2.1,0-4-0.5-5.6-1.5c-1.6-1-2.7-2.5-3.3-4.3h-0.2v14.4h-5.1V12.8z M156.3,26.2c0,0.8,0.2,1.5,0.5,2.2
		s0.8,1.3,1.4,1.9c0.6,0.6,1.3,1,2.2,1.3c0.9,0.3,1.8,0.5,2.9,0.5c1,0,1.9-0.1,2.7-0.4c0.8-0.2,1.6-0.7,2.2-1.3
		c0.6-0.6,1.1-1.4,1.5-2.4c0.4-1,0.5-2.3,0.5-3.9c0-1.6-0.2-2.9-0.5-3.9c-0.4-1-0.9-1.8-1.5-2.4c-0.6-0.6-1.4-1-2.2-1.3
		c-0.8-0.2-1.7-0.4-2.7-0.4c-1.1,0-2.1,0.2-2.9,0.5c-0.9,0.4-1.6,0.8-2.2,1.4c-0.6,0.6-1.1,1.2-1.4,2c-0.3,0.7-0.5,1.5-0.5,2.3V26.2
		z"/>
	<path id="XMLID_811_" d="M189.6,16.2c-1.8,0-3.2,0.3-4,1c-0.9,0.7-1.3,1.6-1.3,2.9h-4.7c0-2.8,0.8-4.7,2.5-5.9
		c1.6-1.2,4.1-1.8,7.4-1.8c1.7,0,3.2,0.1,4.6,0.4c1.3,0.3,2.5,0.8,3.4,1.5c0.9,0.7,1.7,1.7,2.2,2.8c0.5,1.2,0.8,2.7,0.8,4.5v13.7
		h-4.8v-5h-0.2c-0.6,1.9-1.6,3.3-3,4.1c-1.4,0.9-3.2,1.3-5.3,1.3c-1.2,0-2.3-0.2-3.4-0.5c-1-0.3-1.9-0.8-2.7-1.4
		c-0.8-0.6-1.4-1.4-1.8-2.3c-0.4-0.9-0.7-1.9-0.7-3.1c0-2.2,0.8-3.8,2.3-5c1.5-1.2,3.7-1.8,6.4-1.8h8.3v-0.7c0-1.8-0.5-3.1-1.5-3.9
		C193.1,16.5,191.6,16.2,189.6,16.2z M195.6,24.9h-7.3c-1.7,0-3,0.3-3.7,1c-0.7,0.6-1.1,1.5-1.1,2.7c0,1.2,0.4,2.1,1.2,2.8
		c0.8,0.7,2,1.1,3.5,1.1c1.1,0,2.1-0.2,3-0.5c0.9-0.3,1.7-0.8,2.4-1.3c0.7-0.5,1.2-1.2,1.6-1.9c0.4-0.7,0.6-1.5,0.6-2.3V24.9z"/>
	<path id="XMLID_814_" d="M205.7,35.3V12.8h5.1v5h0.2c0.5-1.9,1.3-3.3,2.2-4.1c0.9-0.9,2.1-1.3,3.6-1.3c0.8,0,1.6,0.2,2.6,0.5v5
		c-0.6-0.1-1.1-0.3-1.7-0.4c-0.6-0.1-1.1-0.2-1.7-0.2c-1,0-1.8,0.2-2.4,0.6c-0.7,0.4-1.2,0.9-1.6,1.5c-0.4,0.6-0.7,1.3-0.9,2.1
		c-0.2,0.8-0.3,1.6-0.3,2.5v11.4H205.7z"/>
	<path id="XMLID_816_" d="M228.3,35.3h-5.1V3.8h5.1v17.7l9.5-8.6h6.4l-9.6,8.9l10,13.6h-6.2l-7.7-10.7l-2.4,2.3V35.3z"/>
</g>
<g id="XMLID_320_">
	<path id="XMLID_712_" d="M33.1,35.3h-6l-2.3-6.2H10.5l-2.2,6.2H2.7L14.2,3.8h6.5L33.1,35.3z M11.9,25h11.4L17.7,9.6h-0.4L11.9,25z"
		/>
	<path id="XMLID_715_" d="M45.9,32.7c0.9,0,1.8-0.2,2.6-0.5s1.6-0.7,2.2-1.3c0.6-0.5,1.1-1.2,1.5-2c0.4-0.8,0.5-1.6,0.5-2.6V12.8h5
		v22.5h-5v-5h-0.4c-0.5,1.7-1.5,3.1-2.8,4c-1.4,0.9-3.1,1.4-5.2,1.4c-1.2,0-2.3-0.2-3.4-0.5c-1.1-0.3-2-0.8-2.8-1.6
		c-0.8-0.7-1.5-1.7-1.9-2.9c-0.5-1.2-0.7-2.7-0.7-4.5V12.8h5v13.5c0,2.3,0.5,3.9,1.4,4.9C42.8,32.2,44.2,32.7,45.9,32.7z"/>
	<path id="XMLID_717_" d="M86.2,35.3h-5v-5.4H81c-0.6,1.9-1.7,3.3-3.3,4.3c-1.6,1-3.5,1.5-5.6,1.5c-1.2,0-2.4-0.2-3.6-0.5
		c-1.2-0.3-2.3-0.9-3.2-1.8c-1-0.9-1.7-2.1-2.3-3.6c-0.6-1.5-0.9-3.5-0.9-5.8c0-2.4,0.3-4.3,0.9-5.8c0.6-1.5,1.4-2.7,2.3-3.6
		c1-0.9,2-1.5,3.2-1.8c1.2-0.3,2.4-0.5,3.6-0.5c2.1,0,4,0.5,5.6,1.5c1.6,1,2.7,2.5,3.3,4.3h0.2V3.8h5V35.3z M74.1,32.1
		c1.1,0,2.1-0.2,2.9-0.5c0.9-0.4,1.6-0.8,2.3-1.4c0.6-0.6,1.1-1.2,1.4-2c0.3-0.7,0.5-1.5,0.5-2.3V22c0-0.7-0.2-1.5-0.5-2.2
		c-0.3-0.7-0.8-1.3-1.4-1.9c-0.6-0.6-1.4-1-2.3-1.3c-0.9-0.3-1.9-0.5-2.9-0.5c-1,0-1.9,0.1-2.7,0.4c-0.8,0.2-1.6,0.7-2.2,1.3
		c-0.6,0.6-1.1,1.4-1.5,2.4c-0.4,1-0.5,2.3-0.5,3.9c0,1.6,0.2,2.9,0.5,3.9c0.4,1,0.9,1.8,1.5,2.4c0.6,0.6,1.4,1,2.2,1.3
		C72.3,31.9,73.2,32.1,74.1,32.1z"/>
	<path id="XMLID_720_" d="M97.4,8.5h-5.6V3.8h5.6V8.5z M97.1,12.8v22.5h-5.1V12.8H97.1z"/>
	<path id="XMLID_723_" d="M101.9,24.1c0-1.9,0.3-3.5,0.9-5c0.6-1.5,1.4-2.7,2.5-3.7c1-1,2.3-1.7,3.7-2.3c1.4-0.5,2.9-0.8,4.4-0.8
		c1.6,0,3,0.2,4.4,0.7c1.4,0.5,2.6,1.2,3.7,2.2c1.1,1,1.9,2.2,2.5,3.6c0.6,1.5,0.9,3.2,0.9,5.1c0,1.9-0.3,3.5-0.9,5
		c-0.6,1.5-1.5,2.7-2.5,3.7c-1.1,1-2.3,1.7-3.7,2.3c-1.4,0.5-2.9,0.8-4.4,0.8c-1.6,0-3-0.3-4.4-0.8c-1.4-0.5-2.6-1.3-3.7-2.3
		c-1-1-1.9-2.2-2.5-3.7C102.2,27.7,101.9,26,101.9,24.1z M106.4,24.1c0,1.3,0.2,2.4,0.6,3.3c0.4,0.9,0.9,1.7,1.5,2.4
		c0.6,0.6,1.4,1.1,2.3,1.4c0.9,0.3,1.7,0.5,2.7,0.5c1,0,1.9-0.2,2.7-0.5c0.9-0.3,1.6-0.8,2.2-1.4c0.6-0.6,1.1-1.4,1.5-2.4
		c0.4-0.9,0.5-2,0.5-3.3c0-1.3-0.2-2.4-0.5-3.3c-0.4-0.9-0.9-1.7-1.5-2.4c-0.6-0.6-1.4-1.1-2.2-1.4c-0.9-0.3-1.8-0.5-2.7-0.5
		c-0.9,0-1.8,0.2-2.7,0.5c-0.9,0.3-1.6,0.8-2.3,1.4c-0.6,0.6-1.2,1.4-1.5,2.4C106.6,21.8,106.4,22.9,106.4,24.1z"/>
	<path id="XMLID_726_" d="M142.5,19.7c0-1.5-0.5-2.6-1.5-3.3c-1-0.7-2.3-1-3.8-1c-1.3,0-2.3,0.3-3.1,0.8c-0.8,0.5-1.3,1.3-1.3,2.3
		c0,0.6,0.1,1,0.4,1.4c0.3,0.4,0.7,0.7,1.2,0.9c0.5,0.3,1.1,0.5,1.8,0.7s1.4,0.4,2.1,0.6c1.2,0.4,2.3,0.7,3.3,1
		c1,0.3,1.9,0.7,2.7,1.2c0.8,0.5,1.4,1.1,1.8,1.8c0.4,0.8,0.7,1.7,0.7,2.9c0,1.2-0.2,2.3-0.7,3.1c-0.5,0.8-1.2,1.5-2,2
		c-0.9,0.5-1.9,0.9-3.1,1.1c-1.2,0.2-2.5,0.3-3.9,0.3c-1.4,0-2.6-0.2-3.8-0.5c-1.1-0.3-2.1-0.8-2.9-1.5c-0.8-0.7-1.4-1.5-1.9-2.6
		S128,29,128,27.6h4.1c0,1.6,0.5,2.8,1.4,3.6c0.9,0.8,2.2,1.1,3.8,1.1c1.6,0,2.8-0.2,3.6-0.7c0.8-0.5,1.3-1.3,1.3-2.4
		c0-0.6-0.2-1.1-0.5-1.5c-0.3-0.4-0.8-0.8-1.5-1s-1.4-0.5-2.2-0.8c-0.8-0.2-1.7-0.5-2.7-0.7c-1-0.3-1.9-0.6-2.7-0.9
		c-0.9-0.3-1.6-0.7-2.3-1.1c-0.6-0.5-1.2-1-1.5-1.7c-0.4-0.7-0.6-1.5-0.6-2.6c0-2.3,0.8-3.9,2.3-5c1.6-1.1,3.7-1.6,6.4-1.6
		c3.3,0,5.7,0.7,7.2,2c1.4,1.4,2.2,3.2,2.2,5.5H142.5z"/>
	<path id="XMLID_728_" d="M151.2,12.8h5.1v5.4h0.2c0.6-1.9,1.7-3.3,3.3-4.3c1.6-1,3.5-1.5,5.6-1.5c1.2,0,2.4,0.2,3.6,0.5
		c1.2,0.3,2.3,0.9,3.2,1.8s1.7,2.1,2.3,3.6c0.6,1.5,0.9,3.5,0.9,5.8c0,2.4-0.3,4.3-0.9,5.8c-0.6,1.5-1.4,2.7-2.3,3.6s-2,1.5-3.2,1.8
		c-1.2,0.3-2.4,0.5-3.6,0.5c-2.1,0-4-0.5-5.6-1.5c-1.6-1-2.7-2.5-3.3-4.3h-0.2v14.4h-5.1V12.8z M156.3,26.2c0,0.8,0.2,1.5,0.5,2.2
		s0.8,1.3,1.4,1.9c0.6,0.6,1.3,1,2.2,1.3c0.9,0.3,1.8,0.5,2.9,0.5c1,0,1.9-0.1,2.7-0.4c0.8-0.2,1.6-0.7,2.2-1.3
		c0.6-0.6,1.1-1.4,1.5-2.4c0.4-1,0.5-2.3,0.5-3.9c0-1.6-0.2-2.9-0.5-3.9c-0.4-1-0.9-1.8-1.5-2.4c-0.6-0.6-1.4-1-2.2-1.3
		c-0.8-0.2-1.7-0.4-2.7-0.4c-1.1,0-2.1,0.2-2.9,0.5c-0.9,0.4-1.6,0.8-2.2,1.4c-0.6,0.6-1.1,1.2-1.4,2c-0.3,0.7-0.5,1.5-0.5,2.3V26.2
		z"/>
	<path id="XMLID_731_" d="M189.6,16.2c-1.8,0-3.2,0.3-4,1c-0.9,0.7-1.3,1.6-1.3,2.9h-4.7c0-2.8,0.8-4.7,2.5-5.9
		c1.6-1.2,4.1-1.8,7.4-1.8c1.7,0,3.2,0.1,4.6,0.4c1.3,0.3,2.5,0.8,3.4,1.5c0.9,0.7,1.7,1.7,2.2,2.8c0.5,1.2,0.8,2.7,0.8,4.5v13.7
		h-4.8v-5h-0.2c-0.6,1.9-1.6,3.3-3,4.1c-1.4,0.9-3.2,1.3-5.3,1.3c-1.2,0-2.3-0.2-3.4-0.5c-1-0.3-1.9-0.8-2.7-1.4
		c-0.8-0.6-1.4-1.4-1.8-2.3c-0.4-0.9-0.7-1.9-0.7-3.1c0-2.2,0.8-3.8,2.3-5c1.5-1.2,3.7-1.8,6.4-1.8h8.3v-0.7c0-1.8-0.5-3.1-1.5-3.9
		C193.1,16.5,191.6,16.2,189.6,16.2z M195.6,24.9h-7.3c-1.7,0-3,0.3-3.7,1c-0.7,0.6-1.1,1.5-1.1,2.7c0,1.2,0.4,2.1,1.2,2.8
		c0.8,0.7,2,1.1,3.5,1.1c1.1,0,2.1-0.2,3-0.5c0.9-0.3,1.7-0.8,2.4-1.3c0.7-0.5,1.2-1.2,1.6-1.9c0.4-0.7,0.6-1.5,0.6-2.3V24.9z"/>
	<path id="XMLID_734_" d="M205.7,35.3V12.8h5.1v5h0.2c0.5-1.9,1.3-3.3,2.2-4.1c0.9-0.9,2.1-1.3,3.6-1.3c0.8,0,1.6,0.2,2.6,0.5v5
		c-0.6-0.1-1.1-0.3-1.7-0.4c-0.6-0.1-1.1-0.2-1.7-0.2c-1,0-1.8,0.2-2.4,0.6c-0.7,0.4-1.2,0.9-1.6,1.5c-0.4,0.6-0.7,1.3-0.9,2.1
		c-0.2,0.8-0.3,1.6-0.3,2.5v11.4H205.7z"/>
	<path id="XMLID_736_" d="M228.3,35.3h-5.1V3.8h5.1v17.7l9.5-8.6h6.4l-9.6,8.9l10,13.6h-6.2l-7.7-10.7l-2.4,2.3V35.3z"/>
</g>
<g id="XMLID_3_" class="st2">
	<linearGradient id="XMLID_872_" gradientUnits="userSpaceOnUse" x1="-1232.4484" y1="56.1835" x2="-1232.4484" y2="-10.1835">
		<stop  offset="0" style="stop-color:#0000FF"/>
		<stop  offset="1" style="stop-color:#0370E6"/>
	</linearGradient>
	<path id="XMLID_5_" style="display:inline;fill:url(#XMLID_872_);" d="M-1207.7,2.4L-1227-8.7c-3.4-1.9-7.5-1.9-10.9,0l-19.3,11.2
		c-3.4,1.9-5.4,5.5-5.4,9.4v22.3c0,3.9,2.1,7.5,5.4,9.4l19.3,11.2c3.4,1.9,7.5,1.9,10.9,0l19.3-11.2c3.4-1.9,5.4-5.5,5.4-9.4V11.8
		C-1202.3,8-1204.3,4.4-1207.7,2.4z M-1245.3,27.1c0,1-0.8,1.8-1.8,1.8s-1.8-0.8-1.8-1.8v-8.1c0-1,0.8-1.8,1.8-1.8s1.8,0.8,1.8,1.8
		V27.1z M-1238,32.5c0,1-0.8,1.8-1.8,1.8s-1.8-0.8-1.8-1.8V13.5c0-1,0.8-1.8,1.8-1.8s1.8,0.8,1.8,1.8V32.5z M-1230.7,38.3
		c0,1-0.8,1.8-1.8,1.8s-1.8-0.8-1.8-1.8V7.7c0-1,0.8-1.8,1.8-1.8s1.8,0.8,1.8,1.8V38.3z M-1223.3,32.5c0,1-0.8,1.8-1.8,1.8
		s-1.8-0.8-1.8-1.8V13.5c0-1,0.8-1.8,1.8-1.8s1.8,0.8,1.8,1.8V32.5z M-1216,27.1c0,1-0.8,1.8-1.8,1.8c-1,0-1.8-0.8-1.8-1.8v-8.1
		c0-1,0.8-1.8,1.8-1.8c1,0,1.8,0.8,1.8,1.8V27.1z"/>
	<g id="XMLID_873_" class="st5">
		<path id="XMLID_874_" class="st6" d="M-1158.2,36.3h-6l-2.3-6.2h-14.3l-2.2,6.2h-5.6l11.5-31.5h6.5L-1158.2,36.3z M-1179.3,26
			h11.4l-5.6-15.4h-0.4L-1179.3,26z"/>
		<path id="XMLID_877_" class="st6" d="M-1145.3,33.7c0.9,0,1.8-0.2,2.6-0.5s1.6-0.7,2.2-1.3c0.6-0.5,1.1-1.2,1.5-2
			c0.4-0.8,0.5-1.6,0.5-2.6V13.8h5v22.5h-5v-5h-0.4c-0.5,1.7-1.5,3.1-2.8,4c-1.4,0.9-3.1,1.4-5.2,1.4c-1.2,0-2.3-0.2-3.4-0.5
			c-1.1-0.3-2-0.8-2.8-1.6c-0.8-0.7-1.5-1.7-1.9-2.9c-0.5-1.2-0.7-2.7-0.7-4.5V13.8h5v13.5c0,2.3,0.5,3.9,1.4,4.9
			C-1148.4,33.2-1147.1,33.7-1145.3,33.7z"/>
		<path id="XMLID_879_" class="st6" d="M-1105,36.3h-5v-5.4h-0.2c-0.6,1.9-1.7,3.3-3.3,4.3c-1.6,1-3.5,1.5-5.6,1.5
			c-1.2,0-2.4-0.2-3.6-0.5c-1.2-0.3-2.3-0.9-3.2-1.8c-1-0.9-1.7-2.1-2.3-3.6c-0.6-1.5-0.9-3.5-0.9-5.8c0-2.4,0.3-4.3,0.9-5.8
			c0.6-1.5,1.4-2.7,2.3-3.6c1-0.9,2-1.5,3.2-1.8c1.2-0.3,2.4-0.5,3.6-0.5c2.1,0,4,0.5,5.6,1.5c1.6,1,2.7,2.5,3.3,4.3h0.2V4.8h5V36.3
			z M-1117.1,33.1c1.1,0,2.1-0.2,2.9-0.5c0.9-0.4,1.6-0.8,2.3-1.4c0.6-0.6,1.1-1.2,1.4-2c0.3-0.7,0.5-1.5,0.5-2.3V23
			c0-0.7-0.2-1.5-0.5-2.2c-0.3-0.7-0.8-1.3-1.4-1.9c-0.6-0.6-1.4-1-2.3-1.3c-0.9-0.3-1.9-0.5-2.9-0.5c-1,0-1.9,0.1-2.7,0.4
			c-0.8,0.2-1.6,0.7-2.2,1.3c-0.6,0.6-1.1,1.4-1.5,2.4c-0.4,1-0.5,2.3-0.5,3.9c0,1.6,0.2,2.9,0.5,3.9c0.4,1,0.9,1.8,1.5,2.4
			c0.6,0.6,1.4,1,2.2,1.3C-1118.9,32.9-1118,33.1-1117.1,33.1z"/>
		<path id="XMLID_882_" class="st6" d="M-1093.8,9.5h-5.6V4.8h5.6V9.5z M-1094.1,13.8v22.5h-5.1V13.8H-1094.1z"/>
		<path id="XMLID_885_" class="st6" d="M-1089.3,25.1c0-1.9,0.3-3.5,0.9-5c0.6-1.5,1.4-2.7,2.5-3.7c1-1,2.3-1.7,3.7-2.3
			c1.4-0.5,2.9-0.8,4.4-0.8c1.6,0,3,0.2,4.4,0.7c1.4,0.5,2.6,1.2,3.7,2.2c1.1,1,1.9,2.2,2.5,3.6c0.6,1.5,0.9,3.2,0.9,5.1
			c0,1.9-0.3,3.5-0.9,5c-0.6,1.5-1.5,2.7-2.5,3.7c-1.1,1-2.3,1.7-3.7,2.3c-1.4,0.5-2.9,0.8-4.4,0.8c-1.6,0-3-0.3-4.4-0.8
			c-1.4-0.5-2.6-1.3-3.7-2.3c-1-1-1.9-2.2-2.5-3.7C-1089,28.7-1089.3,27-1089.3,25.1z M-1084.8,25.1c0,1.3,0.2,2.4,0.6,3.3
			c0.4,0.9,0.9,1.7,1.5,2.4c0.6,0.6,1.4,1.1,2.3,1.4c0.9,0.3,1.7,0.5,2.7,0.5c1,0,1.9-0.2,2.7-0.5c0.9-0.3,1.6-0.8,2.2-1.4
			c0.6-0.6,1.1-1.4,1.5-2.4c0.4-0.9,0.5-2,0.5-3.3c0-1.3-0.2-2.4-0.5-3.3c-0.4-0.9-0.9-1.7-1.5-2.4c-0.6-0.6-1.4-1.1-2.2-1.4
			c-0.9-0.3-1.8-0.5-2.7-0.5c-0.9,0-1.8,0.2-2.7,0.5c-0.9,0.3-1.6,0.8-2.3,1.4c-0.6,0.6-1.2,1.4-1.5,2.4
			C-1084.6,22.8-1084.8,23.9-1084.8,25.1z"/>
		<path id="XMLID_888_" class="st6" d="M-1048.7,20.7c0-1.5-0.5-2.6-1.5-3.3c-1-0.7-2.3-1-3.8-1c-1.3,0-2.3,0.3-3.1,0.8
			c-0.8,0.5-1.3,1.3-1.3,2.3c0,0.6,0.1,1,0.4,1.4c0.3,0.4,0.7,0.7,1.2,0.9c0.5,0.3,1.1,0.5,1.8,0.7s1.4,0.4,2.1,0.6
			c1.2,0.4,2.3,0.7,3.3,1c1,0.3,1.9,0.7,2.7,1.2c0.8,0.5,1.4,1.1,1.8,1.8c0.4,0.8,0.7,1.7,0.7,2.9c0,1.2-0.2,2.3-0.7,3.1
			c-0.5,0.8-1.2,1.5-2,2c-0.9,0.5-1.9,0.9-3.1,1.1c-1.2,0.2-2.5,0.3-3.9,0.3c-1.4,0-2.6-0.2-3.8-0.5c-1.1-0.3-2.1-0.8-2.9-1.5
			c-0.8-0.7-1.4-1.5-1.9-2.6s-0.7-2.3-0.7-3.7h4.1c0,1.6,0.5,2.8,1.4,3.6c0.9,0.8,2.2,1.1,3.8,1.1c1.6,0,2.8-0.2,3.6-0.7
			c0.8-0.5,1.3-1.3,1.3-2.4c0-0.6-0.2-1.1-0.5-1.5c-0.3-0.4-0.8-0.8-1.5-1s-1.4-0.5-2.2-0.8c-0.8-0.2-1.7-0.5-2.7-0.7
			c-1-0.3-1.9-0.6-2.7-0.9c-0.9-0.3-1.6-0.7-2.3-1.1c-0.6-0.5-1.2-1-1.5-1.7c-0.4-0.7-0.6-1.5-0.6-2.6c0-2.3,0.8-3.9,2.3-5
			c1.6-1.1,3.7-1.6,6.4-1.6c3.3,0,5.7,0.7,7.2,2c1.4,1.4,2.2,3.2,2.2,5.5H-1048.7z"/>
		<path id="XMLID_890_" class="st6" d="M-1040,13.8h5.1v5.4h0.2c0.6-1.9,1.7-3.3,3.3-4.3c1.6-1,3.5-1.5,5.6-1.5
			c1.2,0,2.4,0.2,3.6,0.5c1.2,0.3,2.3,0.9,3.2,1.8s1.7,2.1,2.3,3.6c0.6,1.5,0.9,3.5,0.9,5.8c0,2.4-0.3,4.3-0.9,5.8
			c-0.6,1.5-1.4,2.7-2.3,3.6s-2,1.5-3.2,1.8c-1.2,0.3-2.4,0.5-3.6,0.5c-2.1,0-4-0.5-5.6-1.5c-1.6-1-2.7-2.5-3.3-4.3h-0.2v14.4h-5.1
			V13.8z M-1035,27.2c0,0.8,0.2,1.5,0.5,2.2s0.8,1.3,1.4,1.9c0.6,0.6,1.3,1,2.2,1.3c0.9,0.3,1.8,0.5,2.9,0.5c1,0,1.9-0.1,2.7-0.4
			c0.8-0.2,1.6-0.7,2.2-1.3c0.6-0.6,1.1-1.4,1.5-2.4c0.4-1,0.5-2.3,0.5-3.9c0-1.6-0.2-2.9-0.5-3.9c-0.4-1-0.9-1.8-1.5-2.4
			c-0.6-0.6-1.4-1-2.2-1.3c-0.8-0.2-1.7-0.4-2.7-0.4c-1.1,0-2.1,0.2-2.9,0.5c-0.9,0.4-1.6,0.8-2.2,1.4c-0.6,0.6-1.1,1.2-1.4,2
			c-0.3,0.7-0.5,1.5-0.5,2.3V27.2z"/>
		<path id="XMLID_893_" class="st6" d="M-1001.7,17.2c-1.8,0-3.2,0.3-4,1c-0.9,0.7-1.3,1.6-1.3,2.9h-4.7c0-2.8,0.8-4.7,2.5-5.9
			c1.6-1.2,4.1-1.8,7.4-1.8c1.7,0,3.2,0.1,4.6,0.4c1.3,0.3,2.5,0.8,3.4,1.5c0.9,0.7,1.7,1.7,2.2,2.8c0.5,1.2,0.8,2.7,0.8,4.5v13.7
			h-4.8v-5h-0.2c-0.6,1.9-1.6,3.3-3,4.1c-1.4,0.9-3.2,1.3-5.3,1.3c-1.2,0-2.3-0.2-3.4-0.5c-1-0.3-1.9-0.8-2.7-1.4
			c-0.8-0.6-1.4-1.4-1.8-2.3c-0.4-0.9-0.7-1.9-0.7-3.1c0-2.2,0.8-3.8,2.3-5c1.5-1.2,3.7-1.8,6.4-1.8h8.3v-0.7c0-1.8-0.5-3.1-1.5-3.9
			C-998.1,17.5-999.6,17.2-1001.7,17.2z M-995.7,25.9h-7.3c-1.7,0-3,0.3-3.7,1c-0.7,0.6-1.1,1.5-1.1,2.7c0,1.2,0.4,2.1,1.2,2.8
			c0.8,0.7,2,1.1,3.5,1.1c1.1,0,2.1-0.2,3-0.5c0.9-0.3,1.7-0.8,2.4-1.3c0.7-0.5,1.2-1.2,1.6-1.9c0.4-0.7,0.6-1.5,0.6-2.3V25.9z"/>
		<path id="XMLID_896_" class="st6" d="M-985.6,36.3V13.8h5.1v5h0.2c0.5-1.9,1.3-3.3,2.2-4.1c0.9-0.9,2.1-1.3,3.6-1.3
			c0.8,0,1.6,0.2,2.6,0.5v5c-0.6-0.1-1.1-0.3-1.7-0.4c-0.6-0.1-1.1-0.2-1.7-0.2c-1,0-1.8,0.2-2.4,0.6c-0.7,0.4-1.2,0.9-1.6,1.5
			c-0.4,0.6-0.7,1.3-0.9,2.1c-0.2,0.8-0.3,1.6-0.3,2.5v11.4H-985.6z"/>
		<path id="XMLID_898_" class="st6" d="M-962.9,36.3h-5.1V4.8h5.1v17.7l9.5-8.6h6.4l-9.6,8.9l10,13.6h-6.2l-7.7-10.7l-2.4,2.3V36.3z
			"/>
	</g>
	<g id="XMLID_4_" class="st5">
		<path id="XMLID_738_" class="st6" d="M-1158.2,36.3h-6l-2.3-6.2h-14.3l-2.2,6.2h-5.6l11.5-31.5h6.5L-1158.2,36.3z M-1179.3,26
			h11.4l-5.6-15.4h-0.4L-1179.3,26z"/>
		<path id="XMLID_741_" class="st6" d="M-1145.3,33.7c0.9,0,1.8-0.2,2.6-0.5s1.6-0.7,2.2-1.3c0.6-0.5,1.1-1.2,1.5-2
			c0.4-0.8,0.5-1.6,0.5-2.6V13.8h5v22.5h-5v-5h-0.4c-0.5,1.7-1.5,3.1-2.8,4c-1.4,0.9-3.1,1.4-5.2,1.4c-1.2,0-2.3-0.2-3.4-0.5
			c-1.1-0.3-2-0.8-2.8-1.6c-0.8-0.7-1.5-1.7-1.9-2.9c-0.5-1.2-0.7-2.7-0.7-4.5V13.8h5v13.5c0,2.3,0.5,3.9,1.4,4.9
			C-1148.4,33.2-1147.1,33.7-1145.3,33.7z"/>
		<path id="XMLID_743_" class="st6" d="M-1105,36.3h-5v-5.4h-0.2c-0.6,1.9-1.7,3.3-3.3,4.3c-1.6,1-3.5,1.5-5.6,1.5
			c-1.2,0-2.4-0.2-3.6-0.5c-1.2-0.3-2.3-0.9-3.2-1.8c-1-0.9-1.7-2.1-2.3-3.6c-0.6-1.5-0.9-3.5-0.9-5.8c0-2.4,0.3-4.3,0.9-5.8
			c0.6-1.5,1.4-2.7,2.3-3.6c1-0.9,2-1.5,3.2-1.8c1.2-0.3,2.4-0.5,3.6-0.5c2.1,0,4,0.5,5.6,1.5c1.6,1,2.7,2.5,3.3,4.3h0.2V4.8h5V36.3
			z M-1117.1,33.1c1.1,0,2.1-0.2,2.9-0.5c0.9-0.4,1.6-0.8,2.3-1.4c0.6-0.6,1.1-1.2,1.4-2c0.3-0.7,0.5-1.5,0.5-2.3V23
			c0-0.7-0.2-1.5-0.5-2.2c-0.3-0.7-0.8-1.3-1.4-1.9c-0.6-0.6-1.4-1-2.3-1.3c-0.9-0.3-1.9-0.5-2.9-0.5c-1,0-1.9,0.1-2.7,0.4
			c-0.8,0.2-1.6,0.7-2.2,1.3c-0.6,0.6-1.1,1.4-1.5,2.4c-0.4,1-0.5,2.3-0.5,3.9c0,1.6,0.2,2.9,0.5,3.9c0.4,1,0.9,1.8,1.5,2.4
			c0.6,0.6,1.4,1,2.2,1.3C-1118.9,32.9-1118,33.1-1117.1,33.1z"/>
		<path id="XMLID_746_" class="st6" d="M-1093.8,9.5h-5.6V4.8h5.6V9.5z M-1094.1,13.8v22.5h-5.1V13.8H-1094.1z"/>
		<path id="XMLID_749_" class="st6" d="M-1089.3,25.1c0-1.9,0.3-3.5,0.9-5c0.6-1.5,1.4-2.7,2.5-3.7c1-1,2.3-1.7,3.7-2.3
			c1.4-0.5,2.9-0.8,4.4-0.8c1.6,0,3,0.2,4.4,0.7c1.4,0.5,2.6,1.2,3.7,2.2c1.1,1,1.9,2.2,2.5,3.6c0.6,1.5,0.9,3.2,0.9,5.1
			c0,1.9-0.3,3.5-0.9,5c-0.6,1.5-1.5,2.7-2.5,3.7c-1.1,1-2.3,1.7-3.7,2.3c-1.4,0.5-2.9,0.8-4.4,0.8c-1.6,0-3-0.3-4.4-0.8
			c-1.4-0.5-2.6-1.3-3.7-2.3c-1-1-1.9-2.2-2.5-3.7C-1089,28.7-1089.3,27-1089.3,25.1z M-1084.8,25.1c0,1.3,0.2,2.4,0.6,3.3
			c0.4,0.9,0.9,1.7,1.5,2.4c0.6,0.6,1.4,1.1,2.3,1.4c0.9,0.3,1.7,0.5,2.7,0.5c1,0,1.9-0.2,2.7-0.5c0.9-0.3,1.6-0.8,2.2-1.4
			c0.6-0.6,1.1-1.4,1.5-2.4c0.4-0.9,0.5-2,0.5-3.3c0-1.3-0.2-2.4-0.5-3.3c-0.4-0.9-0.9-1.7-1.5-2.4c-0.6-0.6-1.4-1.1-2.2-1.4
			c-0.9-0.3-1.8-0.5-2.7-0.5c-0.9,0-1.8,0.2-2.7,0.5c-0.9,0.3-1.6,0.8-2.3,1.4c-0.6,0.6-1.2,1.4-1.5,2.4
			C-1084.6,22.8-1084.8,23.9-1084.8,25.1z"/>
		<path id="XMLID_752_" class="st6" d="M-1048.7,20.7c0-1.5-0.5-2.6-1.5-3.3c-1-0.7-2.3-1-3.8-1c-1.3,0-2.3,0.3-3.1,0.8
			c-0.8,0.5-1.3,1.3-1.3,2.3c0,0.6,0.1,1,0.4,1.4c0.3,0.4,0.7,0.7,1.2,0.9c0.5,0.3,1.1,0.5,1.8,0.7s1.4,0.4,2.1,0.6
			c1.2,0.4,2.3,0.7,3.3,1c1,0.3,1.9,0.7,2.7,1.2c0.8,0.5,1.4,1.1,1.8,1.8c0.4,0.8,0.7,1.7,0.7,2.9c0,1.2-0.2,2.3-0.7,3.1
			c-0.5,0.8-1.2,1.5-2,2c-0.9,0.5-1.9,0.9-3.1,1.1c-1.2,0.2-2.5,0.3-3.9,0.3c-1.4,0-2.6-0.2-3.8-0.5c-1.1-0.3-2.1-0.8-2.9-1.5
			c-0.8-0.7-1.4-1.5-1.9-2.6s-0.7-2.3-0.7-3.7h4.1c0,1.6,0.5,2.8,1.4,3.6c0.9,0.8,2.2,1.1,3.8,1.1c1.6,0,2.8-0.2,3.6-0.7
			c0.8-0.5,1.3-1.3,1.3-2.4c0-0.6-0.2-1.1-0.5-1.5c-0.3-0.4-0.8-0.8-1.5-1s-1.4-0.5-2.2-0.8c-0.8-0.2-1.7-0.5-2.7-0.7
			c-1-0.3-1.9-0.6-2.7-0.9c-0.9-0.3-1.6-0.7-2.3-1.1c-0.6-0.5-1.2-1-1.5-1.7c-0.4-0.7-0.6-1.5-0.6-2.6c0-2.3,0.8-3.9,2.3-5
			c1.6-1.1,3.7-1.6,6.4-1.6c3.3,0,5.7,0.7,7.2,2c1.4,1.4,2.2,3.2,2.2,5.5H-1048.7z"/>
		<path id="XMLID_754_" class="st6" d="M-1040,13.8h5.1v5.4h0.2c0.6-1.9,1.7-3.3,3.3-4.3c1.6-1,3.5-1.5,5.6-1.5
			c1.2,0,2.4,0.2,3.6,0.5c1.2,0.3,2.3,0.9,3.2,1.8s1.7,2.1,2.3,3.6c0.6,1.5,0.9,3.5,0.9,5.8c0,2.4-0.3,4.3-0.9,5.8
			c-0.6,1.5-1.4,2.7-2.3,3.6s-2,1.5-3.2,1.8c-1.2,0.3-2.4,0.5-3.6,0.5c-2.1,0-4-0.5-5.6-1.5c-1.6-1-2.7-2.5-3.3-4.3h-0.2v14.4h-5.1
			V13.8z M-1035,27.2c0,0.8,0.2,1.5,0.5,2.2s0.8,1.3,1.4,1.9c0.6,0.6,1.3,1,2.2,1.3c0.9,0.3,1.8,0.5,2.9,0.5c1,0,1.9-0.1,2.7-0.4
			c0.8-0.2,1.6-0.7,2.2-1.3c0.6-0.6,1.1-1.4,1.5-2.4c0.4-1,0.5-2.3,0.5-3.9c0-1.6-0.2-2.9-0.5-3.9c-0.4-1-0.9-1.8-1.5-2.4
			c-0.6-0.6-1.4-1-2.2-1.3c-0.8-0.2-1.7-0.4-2.7-0.4c-1.1,0-2.1,0.2-2.9,0.5c-0.9,0.4-1.6,0.8-2.2,1.4c-0.6,0.6-1.1,1.2-1.4,2
			c-0.3,0.7-0.5,1.5-0.5,2.3V27.2z"/>
		<path id="XMLID_757_" class="st6" d="M-1001.7,17.2c-1.8,0-3.2,0.3-4,1c-0.9,0.7-1.3,1.6-1.3,2.9h-4.7c0-2.8,0.8-4.7,2.5-5.9
			c1.6-1.2,4.1-1.8,7.4-1.8c1.7,0,3.2,0.1,4.6,0.4c1.3,0.3,2.5,0.8,3.4,1.5c0.9,0.7,1.7,1.7,2.2,2.8c0.5,1.2,0.8,2.7,0.8,4.5v13.7
			h-4.8v-5h-0.2c-0.6,1.9-1.6,3.3-3,4.1c-1.4,0.9-3.2,1.3-5.3,1.3c-1.2,0-2.3-0.2-3.4-0.5c-1-0.3-1.9-0.8-2.7-1.4
			c-0.8-0.6-1.4-1.4-1.8-2.3c-0.4-0.9-0.7-1.9-0.7-3.1c0-2.2,0.8-3.8,2.3-5c1.5-1.2,3.7-1.8,6.4-1.8h8.3v-0.7c0-1.8-0.5-3.1-1.5-3.9
			C-998.1,17.5-999.6,17.2-1001.7,17.2z M-995.7,25.9h-7.3c-1.7,0-3,0.3-3.7,1c-0.7,0.6-1.1,1.5-1.1,2.7c0,1.2,0.4,2.1,1.2,2.8
			c0.8,0.7,2,1.1,3.5,1.1c1.1,0,2.1-0.2,3-0.5c0.9-0.3,1.7-0.8,2.4-1.3c0.7-0.5,1.2-1.2,1.6-1.9c0.4-0.7,0.6-1.5,0.6-2.3V25.9z"/>
		<path id="XMLID_760_" class="st6" d="M-985.6,36.3V13.8h5.1v5h0.2c0.5-1.9,1.3-3.3,2.2-4.1c0.9-0.9,2.1-1.3,3.6-1.3
			c0.8,0,1.6,0.2,2.6,0.5v5c-0.6-0.1-1.1-0.3-1.7-0.4c-0.6-0.1-1.1-0.2-1.7-0.2c-1,0-1.8,0.2-2.4,0.6c-0.7,0.4-1.2,0.9-1.6,1.5
			c-0.4,0.6-0.7,1.3-0.9,2.1c-0.2,0.8-0.3,1.6-0.3,2.5v11.4H-985.6z"/>
		<path id="XMLID_762_" class="st6" d="M-962.9,36.3h-5.1V4.8h5.1v17.7l9.5-8.6h6.4l-9.6,8.9l10,13.6h-6.2l-7.7-10.7l-2.4,2.3V36.3z
			"/>
	</g>
</g>
<g id="XMLID_1_" class="st2">
	<linearGradient id="XMLID_900_" gradientUnits="userSpaceOnUse" x1="-2244.4485" y1="56.1835" x2="-2244.4485" y2="-10.1835">
		<stop  offset="0" style="stop-color:#0000FF"/>
		<stop  offset="1" style="stop-color:#0370E6"/>
	</linearGradient>
	<path id="XMLID_16_" style="display:inline;fill:url(#XMLID_900_);" d="M-2219.7,2.4L-2239-8.7c-3.4-1.9-7.5-1.9-10.9,0l-19.3,11.2
		c-3.4,1.9-5.4,5.5-5.4,9.4v22.3c0,3.9,2.1,7.5,5.4,9.4l19.3,11.2c3.4,1.9,7.5,1.9,10.9,0l19.3-11.2c3.4-1.9,5.4-5.5,5.4-9.4V11.8
		C-2214.3,8-2216.3,4.4-2219.7,2.4z M-2257.3,27.1c0,1-0.8,1.8-1.8,1.8s-1.8-0.8-1.8-1.8v-8.1c0-1,0.8-1.8,1.8-1.8s1.8,0.8,1.8,1.8
		V27.1z M-2250,32.5c0,1-0.8,1.8-1.8,1.8c-1,0-1.8-0.8-1.8-1.8V13.5c0-1,0.8-1.8,1.8-1.8c1,0,1.8,0.8,1.8,1.8V32.5z M-2242.7,38.3
		c0,1-0.8,1.8-1.8,1.8s-1.8-0.8-1.8-1.8V7.7c0-1,0.8-1.8,1.8-1.8s1.8,0.8,1.8,1.8V38.3z M-2235.3,32.5c0,1-0.8,1.8-1.8,1.8
		s-1.8-0.8-1.8-1.8V13.5c0-1,0.8-1.8,1.8-1.8s1.8,0.8,1.8,1.8V32.5z M-2228,27.1c0,1-0.8,1.8-1.8,1.8s-1.8-0.8-1.8-1.8v-8.1
		c0-1,0.8-1.8,1.8-1.8s1.8,0.8,1.8,1.8V27.1z"/>
	<g id="XMLID_901_" class="st5">
		<path id="XMLID_902_" d="M-2170.2,36.3h-6l-2.3-6.2h-14.3l-2.2,6.2h-5.6l11.5-31.5h6.5L-2170.2,36.3z M-2191.3,26h11.4l-5.6-15.4
			h-0.4L-2191.3,26z"/>
		<path id="XMLID_905_" d="M-2157.3,33.7c0.9,0,1.8-0.2,2.6-0.5c0.8-0.3,1.6-0.7,2.2-1.3c0.6-0.5,1.1-1.2,1.5-2
			c0.4-0.8,0.5-1.6,0.5-2.6V13.8h5v22.5h-5v-5h-0.4c-0.5,1.7-1.5,3.1-2.8,4c-1.4,0.9-3.1,1.4-5.2,1.4c-1.2,0-2.3-0.2-3.4-0.5
			c-1.1-0.3-2-0.8-2.8-1.6c-0.8-0.7-1.5-1.7-1.9-2.9c-0.5-1.2-0.7-2.7-0.7-4.5V13.8h5v13.5c0,2.3,0.5,3.9,1.4,4.9
			C-2160.4,33.2-2159.1,33.7-2157.3,33.7z"/>
		<path id="XMLID_907_" d="M-2117,36.3h-5v-5.4h-0.2c-0.6,1.9-1.7,3.3-3.3,4.3c-1.6,1-3.5,1.5-5.6,1.5c-1.2,0-2.4-0.2-3.6-0.5
			c-1.2-0.3-2.3-0.9-3.2-1.8c-1-0.9-1.7-2.1-2.3-3.6c-0.6-1.5-0.9-3.5-0.9-5.8c0-2.4,0.3-4.3,0.9-5.8c0.6-1.5,1.4-2.7,2.3-3.6
			c1-0.9,2-1.5,3.2-1.8c1.2-0.3,2.4-0.5,3.6-0.5c2.1,0,4,0.5,5.6,1.5c1.6,1,2.7,2.5,3.3,4.3h0.2V4.8h5V36.3z M-2129.1,33.1
			c1.1,0,2.1-0.2,2.9-0.5c0.9-0.4,1.6-0.8,2.3-1.4c0.6-0.6,1.1-1.2,1.4-2c0.3-0.7,0.5-1.5,0.5-2.3V23c0-0.7-0.2-1.5-0.5-2.2
			c-0.3-0.7-0.8-1.3-1.4-1.9c-0.6-0.6-1.4-1-2.3-1.3c-0.9-0.3-1.9-0.5-2.9-0.5c-1,0-1.9,0.1-2.7,0.4c-0.8,0.2-1.6,0.7-2.2,1.3
			c-0.6,0.6-1.1,1.4-1.5,2.4c-0.4,1-0.5,2.3-0.5,3.9s0.2,2.9,0.5,3.9c0.4,1,0.9,1.8,1.5,2.4c0.6,0.6,1.4,1,2.2,1.3
			C-2130.9,32.9-2130,33.1-2129.1,33.1z"/>
		<path id="XMLID_910_" d="M-2105.8,9.5h-5.6V4.8h5.6V9.5z M-2106.1,13.8v22.5h-5.1V13.8H-2106.1z"/>
		<path id="XMLID_913_" d="M-2101.3,25.1c0-1.9,0.3-3.5,0.9-5c0.6-1.5,1.4-2.7,2.5-3.7c1-1,2.3-1.7,3.7-2.3c1.4-0.5,2.9-0.8,4.4-0.8
			c1.6,0,3,0.2,4.4,0.7c1.4,0.5,2.6,1.2,3.7,2.2c1.1,1,1.9,2.2,2.5,3.6c0.6,1.5,0.9,3.2,0.9,5.1c0,1.9-0.3,3.5-0.9,5
			c-0.6,1.5-1.5,2.7-2.5,3.7c-1.1,1-2.3,1.7-3.7,2.3c-1.4,0.5-2.9,0.8-4.4,0.8c-1.6,0-3-0.3-4.4-0.8c-1.4-0.5-2.6-1.3-3.7-2.3
			c-1-1-1.9-2.2-2.5-3.7C-2101,28.7-2101.3,27-2101.3,25.1z M-2096.8,25.1c0,1.3,0.2,2.4,0.6,3.3s0.9,1.7,1.5,2.4
			c0.6,0.6,1.4,1.1,2.3,1.4c0.9,0.3,1.7,0.5,2.7,0.5c1,0,1.9-0.2,2.7-0.5c0.9-0.3,1.6-0.8,2.2-1.4c0.6-0.6,1.1-1.4,1.5-2.4
			s0.5-2,0.5-3.3s-0.2-2.4-0.5-3.3c-0.4-0.9-0.9-1.7-1.5-2.4c-0.6-0.6-1.4-1.1-2.2-1.4c-0.9-0.3-1.8-0.5-2.7-0.5
			c-0.9,0-1.8,0.2-2.7,0.5c-0.9,0.3-1.6,0.8-2.3,1.4c-0.6,0.6-1.2,1.4-1.5,2.4C-2096.6,22.8-2096.8,23.9-2096.8,25.1z"/>
		<path id="XMLID_916_" d="M-2060.7,20.7c0-1.5-0.5-2.6-1.5-3.3c-1-0.7-2.3-1-3.8-1c-1.3,0-2.3,0.3-3.1,0.8
			c-0.8,0.5-1.3,1.3-1.3,2.3c0,0.6,0.1,1,0.4,1.4c0.3,0.4,0.7,0.7,1.2,0.9c0.5,0.3,1.1,0.5,1.8,0.7s1.4,0.4,2.1,0.6
			c1.2,0.4,2.3,0.7,3.3,1c1,0.3,1.9,0.7,2.7,1.2c0.8,0.5,1.4,1.1,1.8,1.8c0.4,0.8,0.7,1.7,0.7,2.9c0,1.2-0.2,2.3-0.7,3.1
			c-0.5,0.8-1.2,1.5-2,2c-0.9,0.5-1.9,0.9-3.1,1.1c-1.2,0.2-2.5,0.3-3.9,0.3c-1.4,0-2.6-0.2-3.8-0.5c-1.1-0.3-2.1-0.8-2.9-1.5
			c-0.8-0.7-1.4-1.5-1.9-2.6s-0.7-2.3-0.7-3.7h4.1c0,1.6,0.5,2.8,1.4,3.6c0.9,0.8,2.2,1.1,3.8,1.1c1.6,0,2.8-0.2,3.6-0.7
			c0.8-0.5,1.3-1.3,1.3-2.4c0-0.6-0.2-1.1-0.5-1.5c-0.3-0.4-0.8-0.8-1.5-1s-1.4-0.5-2.2-0.8c-0.8-0.2-1.7-0.5-2.7-0.7
			c-1-0.3-1.9-0.6-2.7-0.9c-0.9-0.3-1.6-0.7-2.3-1.1c-0.6-0.5-1.2-1-1.5-1.7c-0.4-0.7-0.6-1.5-0.6-2.6c0-2.3,0.8-3.9,2.3-5
			c1.6-1.1,3.7-1.6,6.4-1.6c3.3,0,5.7,0.7,7.2,2c1.4,1.4,2.2,3.2,2.2,5.5H-2060.7z"/>
		<path id="XMLID_918_" d="M-2052,13.8h5.1v5.4h0.2c0.6-1.9,1.7-3.3,3.3-4.3c1.6-1,3.5-1.5,5.6-1.5c1.2,0,2.4,0.2,3.6,0.5
			c1.2,0.3,2.3,0.9,3.2,1.8s1.7,2.1,2.3,3.6c0.6,1.5,0.9,3.5,0.9,5.8c0,2.4-0.3,4.3-0.9,5.8c-0.6,1.5-1.4,2.7-2.3,3.6
			c-1,0.9-2,1.5-3.2,1.8c-1.2,0.3-2.4,0.5-3.6,0.5c-2.1,0-4-0.5-5.6-1.5s-2.7-2.5-3.3-4.3h-0.2v14.4h-5.1V13.8z M-2047,27.2
			c0,0.8,0.2,1.5,0.5,2.2c0.3,0.7,0.8,1.3,1.4,1.9c0.6,0.6,1.3,1,2.2,1.3c0.9,0.3,1.8,0.5,2.9,0.5c1,0,1.9-0.1,2.7-0.4
			c0.8-0.2,1.6-0.7,2.2-1.3c0.6-0.6,1.1-1.4,1.5-2.4c0.4-1,0.5-2.3,0.5-3.9s-0.2-2.9-0.5-3.9c-0.4-1-0.9-1.8-1.5-2.4
			c-0.6-0.6-1.4-1-2.2-1.3c-0.8-0.2-1.7-0.4-2.7-0.4c-1.1,0-2.1,0.2-2.9,0.5c-0.9,0.4-1.6,0.8-2.2,1.4c-0.6,0.6-1.1,1.2-1.4,2
			c-0.3,0.7-0.5,1.5-0.5,2.3V27.2z"/>
		<path id="XMLID_921_" d="M-2013.7,17.2c-1.8,0-3.2,0.3-4,1c-0.9,0.7-1.3,1.6-1.3,2.9h-4.7c0-2.8,0.8-4.7,2.5-5.9
			c1.6-1.2,4.1-1.8,7.4-1.8c1.7,0,3.2,0.1,4.6,0.4c1.3,0.3,2.5,0.8,3.4,1.5c0.9,0.7,1.7,1.7,2.2,2.8c0.5,1.2,0.8,2.7,0.8,4.5v13.7
			h-4.8v-5h-0.2c-0.6,1.9-1.6,3.3-3,4.1c-1.4,0.9-3.2,1.3-5.3,1.3c-1.2,0-2.3-0.2-3.4-0.5c-1-0.3-1.9-0.8-2.7-1.4
			c-0.8-0.6-1.4-1.4-1.8-2.3c-0.4-0.9-0.7-1.9-0.7-3.1c0-2.2,0.8-3.8,2.3-5c1.5-1.2,3.7-1.8,6.4-1.8h8.3v-0.7c0-1.8-0.5-3.1-1.5-3.9
			C-2010.1,17.5-2011.6,17.2-2013.7,17.2z M-2007.7,25.9h-7.3c-1.7,0-3,0.3-3.7,1c-0.7,0.6-1.1,1.5-1.1,2.7c0,1.2,0.4,2.1,1.2,2.8
			s2,1.1,3.5,1.1c1.1,0,2.1-0.2,3-0.5c0.9-0.3,1.7-0.8,2.4-1.3c0.7-0.5,1.2-1.2,1.6-1.9c0.4-0.7,0.6-1.5,0.6-2.3V25.9z"/>
		<path id="XMLID_924_" d="M-1997.6,36.3V13.8h5.1v5h0.2c0.5-1.9,1.3-3.3,2.2-4.1c0.9-0.9,2.1-1.3,3.6-1.3c0.8,0,1.6,0.2,2.6,0.5v5
			c-0.6-0.1-1.1-0.3-1.7-0.4c-0.6-0.1-1.1-0.2-1.7-0.2c-1,0-1.8,0.2-2.4,0.6c-0.7,0.4-1.2,0.9-1.6,1.5c-0.4,0.6-0.7,1.3-0.9,2.1
			c-0.2,0.8-0.3,1.6-0.3,2.5v11.4H-1997.6z"/>
		<path id="XMLID_926_" d="M-1974.9,36.3h-5.1V4.8h5.1v17.7l9.5-8.6h6.4l-9.6,8.9l10,13.6h-6.2l-7.7-10.7l-2.4,2.3V36.3z"/>
	</g>
	<g id="XMLID_8_" class="st5">
		<path id="XMLID_764_" d="M-2170.2,36.3h-6l-2.3-6.2h-14.3l-2.2,6.2h-5.6l11.5-31.5h6.5L-2170.2,36.3z M-2191.3,26h11.4l-5.6-15.4
			h-0.4L-2191.3,26z"/>
		<path id="XMLID_767_" d="M-2157.3,33.7c0.9,0,1.8-0.2,2.6-0.5c0.8-0.3,1.6-0.7,2.2-1.3c0.6-0.5,1.1-1.2,1.5-2
			c0.4-0.8,0.5-1.6,0.5-2.6V13.8h5v22.5h-5v-5h-0.4c-0.5,1.7-1.5,3.1-2.8,4c-1.4,0.9-3.1,1.4-5.2,1.4c-1.2,0-2.3-0.2-3.4-0.5
			c-1.1-0.3-2-0.8-2.8-1.6c-0.8-0.7-1.5-1.7-1.9-2.9c-0.5-1.2-0.7-2.7-0.7-4.5V13.8h5v13.5c0,2.3,0.5,3.9,1.4,4.9
			C-2160.4,33.2-2159.1,33.7-2157.3,33.7z"/>
		<path id="XMLID_769_" d="M-2117,36.3h-5v-5.4h-0.2c-0.6,1.9-1.7,3.3-3.3,4.3c-1.6,1-3.5,1.5-5.6,1.5c-1.2,0-2.4-0.2-3.6-0.5
			c-1.2-0.3-2.3-0.9-3.2-1.8c-1-0.9-1.7-2.1-2.3-3.6c-0.6-1.5-0.9-3.5-0.9-5.8c0-2.4,0.3-4.3,0.9-5.8c0.6-1.5,1.4-2.7,2.3-3.6
			c1-0.9,2-1.5,3.2-1.8c1.2-0.3,2.4-0.5,3.6-0.5c2.1,0,4,0.5,5.6,1.5c1.6,1,2.7,2.5,3.3,4.3h0.2V4.8h5V36.3z M-2129.1,33.1
			c1.1,0,2.1-0.2,2.9-0.5c0.9-0.4,1.6-0.8,2.3-1.4c0.6-0.6,1.1-1.2,1.4-2c0.3-0.7,0.5-1.5,0.5-2.3V23c0-0.7-0.2-1.5-0.5-2.2
			c-0.3-0.7-0.8-1.3-1.4-1.9c-0.6-0.6-1.4-1-2.3-1.3c-0.9-0.3-1.9-0.5-2.9-0.5c-1,0-1.9,0.1-2.7,0.4c-0.8,0.2-1.6,0.7-2.2,1.3
			c-0.6,0.6-1.1,1.4-1.5,2.4c-0.4,1-0.5,2.3-0.5,3.9s0.2,2.9,0.5,3.9c0.4,1,0.9,1.8,1.5,2.4c0.6,0.6,1.4,1,2.2,1.3
			C-2130.9,32.9-2130,33.1-2129.1,33.1z"/>
		<path id="XMLID_772_" d="M-2105.8,9.5h-5.6V4.8h5.6V9.5z M-2106.1,13.8v22.5h-5.1V13.8H-2106.1z"/>
		<path id="XMLID_775_" d="M-2101.3,25.1c0-1.9,0.3-3.5,0.9-5c0.6-1.5,1.4-2.7,2.5-3.7c1-1,2.3-1.7,3.7-2.3c1.4-0.5,2.9-0.8,4.4-0.8
			c1.6,0,3,0.2,4.4,0.7c1.4,0.5,2.6,1.2,3.7,2.2c1.1,1,1.9,2.2,2.5,3.6c0.6,1.5,0.9,3.2,0.9,5.1c0,1.9-0.3,3.5-0.9,5
			c-0.6,1.5-1.5,2.7-2.5,3.7c-1.1,1-2.3,1.7-3.7,2.3c-1.4,0.5-2.9,0.8-4.4,0.8c-1.6,0-3-0.3-4.4-0.8c-1.4-0.5-2.6-1.3-3.7-2.3
			c-1-1-1.9-2.2-2.5-3.7C-2101,28.7-2101.3,27-2101.3,25.1z M-2096.8,25.1c0,1.3,0.2,2.4,0.6,3.3s0.9,1.7,1.5,2.4
			c0.6,0.6,1.4,1.1,2.3,1.4c0.9,0.3,1.7,0.5,2.7,0.5c1,0,1.9-0.2,2.7-0.5c0.9-0.3,1.6-0.8,2.2-1.4c0.6-0.6,1.1-1.4,1.5-2.4
			s0.5-2,0.5-3.3s-0.2-2.4-0.5-3.3c-0.4-0.9-0.9-1.7-1.5-2.4c-0.6-0.6-1.4-1.1-2.2-1.4c-0.9-0.3-1.8-0.5-2.7-0.5
			c-0.9,0-1.8,0.2-2.7,0.5c-0.9,0.3-1.6,0.8-2.3,1.4c-0.6,0.6-1.2,1.4-1.5,2.4C-2096.6,22.8-2096.8,23.9-2096.8,25.1z"/>
		<path id="XMLID_778_" d="M-2060.7,20.7c0-1.5-0.5-2.6-1.5-3.3c-1-0.7-2.3-1-3.8-1c-1.3,0-2.3,0.3-3.1,0.8
			c-0.8,0.5-1.3,1.3-1.3,2.3c0,0.6,0.1,1,0.4,1.4c0.3,0.4,0.7,0.7,1.2,0.9c0.5,0.3,1.1,0.5,1.8,0.7s1.4,0.4,2.1,0.6
			c1.2,0.4,2.3,0.7,3.3,1c1,0.3,1.9,0.7,2.7,1.2c0.8,0.5,1.4,1.1,1.8,1.8c0.4,0.8,0.7,1.7,0.7,2.9c0,1.2-0.2,2.3-0.7,3.1
			c-0.5,0.8-1.2,1.5-2,2c-0.9,0.5-1.9,0.9-3.1,1.1c-1.2,0.2-2.5,0.3-3.9,0.3c-1.4,0-2.6-0.2-3.8-0.5c-1.1-0.3-2.1-0.8-2.9-1.5
			c-0.8-0.7-1.4-1.5-1.9-2.6s-0.7-2.3-0.7-3.7h4.1c0,1.6,0.5,2.8,1.4,3.6c0.9,0.8,2.2,1.1,3.8,1.1c1.6,0,2.8-0.2,3.6-0.7
			c0.8-0.5,1.3-1.3,1.3-2.4c0-0.6-0.2-1.1-0.5-1.5c-0.3-0.4-0.8-0.8-1.5-1s-1.4-0.5-2.2-0.8c-0.8-0.2-1.7-0.5-2.7-0.7
			c-1-0.3-1.9-0.6-2.7-0.9c-0.9-0.3-1.6-0.7-2.3-1.1c-0.6-0.5-1.2-1-1.5-1.7c-0.4-0.7-0.6-1.5-0.6-2.6c0-2.3,0.8-3.9,2.3-5
			c1.6-1.1,3.7-1.6,6.4-1.6c3.3,0,5.7,0.7,7.2,2c1.4,1.4,2.2,3.2,2.2,5.5H-2060.7z"/>
		<path id="XMLID_780_" d="M-2052,13.8h5.1v5.4h0.2c0.6-1.9,1.7-3.3,3.3-4.3c1.6-1,3.5-1.5,5.6-1.5c1.2,0,2.4,0.2,3.6,0.5
			c1.2,0.3,2.3,0.9,3.2,1.8s1.7,2.1,2.3,3.6c0.6,1.5,0.9,3.5,0.9,5.8c0,2.4-0.3,4.3-0.9,5.8c-0.6,1.5-1.4,2.7-2.3,3.6
			c-1,0.9-2,1.5-3.2,1.8c-1.2,0.3-2.4,0.5-3.6,0.5c-2.1,0-4-0.5-5.6-1.5s-2.7-2.5-3.3-4.3h-0.2v14.4h-5.1V13.8z M-2047,27.2
			c0,0.8,0.2,1.5,0.5,2.2c0.3,0.7,0.8,1.3,1.4,1.9c0.6,0.6,1.3,1,2.2,1.3c0.9,0.3,1.8,0.5,2.9,0.5c1,0,1.9-0.1,2.7-0.4
			c0.8-0.2,1.6-0.7,2.2-1.3c0.6-0.6,1.1-1.4,1.5-2.4c0.4-1,0.5-2.3,0.5-3.9s-0.2-2.9-0.5-3.9c-0.4-1-0.9-1.8-1.5-2.4
			c-0.6-0.6-1.4-1-2.2-1.3c-0.8-0.2-1.7-0.4-2.7-0.4c-1.1,0-2.1,0.2-2.9,0.5c-0.9,0.4-1.6,0.8-2.2,1.4c-0.6,0.6-1.1,1.2-1.4,2
			c-0.3,0.7-0.5,1.5-0.5,2.3V27.2z"/>
		<path id="XMLID_783_" d="M-2013.7,17.2c-1.8,0-3.2,0.3-4,1c-0.9,0.7-1.3,1.6-1.3,2.9h-4.7c0-2.8,0.8-4.7,2.5-5.9
			c1.6-1.2,4.1-1.8,7.4-1.8c1.7,0,3.2,0.1,4.6,0.4c1.3,0.3,2.5,0.8,3.4,1.5c0.9,0.7,1.7,1.7,2.2,2.8c0.5,1.2,0.8,2.7,0.8,4.5v13.7
			h-4.8v-5h-0.2c-0.6,1.9-1.6,3.3-3,4.1c-1.4,0.9-3.2,1.3-5.3,1.3c-1.2,0-2.3-0.2-3.4-0.5c-1-0.3-1.9-0.8-2.7-1.4
			c-0.8-0.6-1.4-1.4-1.8-2.3c-0.4-0.9-0.7-1.9-0.7-3.1c0-2.2,0.8-3.8,2.3-5c1.5-1.2,3.7-1.8,6.4-1.8h8.3v-0.7c0-1.8-0.5-3.1-1.5-3.9
			C-2010.1,17.5-2011.6,17.2-2013.7,17.2z M-2007.7,25.9h-7.3c-1.7,0-3,0.3-3.7,1c-0.7,0.6-1.1,1.5-1.1,2.7c0,1.2,0.4,2.1,1.2,2.8
			s2,1.1,3.5,1.1c1.1,0,2.1-0.2,3-0.5c0.9-0.3,1.7-0.8,2.4-1.3c0.7-0.5,1.2-1.2,1.6-1.9c0.4-0.7,0.6-1.5,0.6-2.3V25.9z"/>
		<path id="XMLID_786_" d="M-1997.6,36.3V13.8h5.1v5h0.2c0.5-1.9,1.3-3.3,2.2-4.1c0.9-0.9,2.1-1.3,3.6-1.3c0.8,0,1.6,0.2,2.6,0.5v5
			c-0.6-0.1-1.1-0.3-1.7-0.4c-0.6-0.1-1.1-0.2-1.7-0.2c-1,0-1.8,0.2-2.4,0.6c-0.7,0.4-1.2,0.9-1.6,1.5c-0.4,0.6-0.7,1.3-0.9,2.1
			c-0.2,0.8-0.3,1.6-0.3,2.5v11.4H-1997.6z"/>
		<path id="XMLID_788_" d="M-1974.9,36.3h-5.1V4.8h5.1v17.7l9.5-8.6h6.4l-9.6,8.9l10,13.6h-6.2l-7.7-10.7l-2.4,2.3V36.3z"/>
	</g>
</g>
</svg>
